<svg width="193" height="303" viewBox="0 0 193 303" fill="none" xmlns="http://www.w3.org/2000/svg">
    <g clip-path="url(#clip0_4365_49864)">
        <path d="M96.5 302.999C149.795 302.999 193 297.067 193 289.749C193 282.432 149.795 276.5 96.5 276.5C43.2045 276.5 0 282.432 0 289.749C0 297.067 43.2045 302.999 96.5 302.999Z" fill="#EAEAEA"/>
        <path fill-rule="evenodd" clip-rule="evenodd" d="M30.1585 69.2811C30.1585 69.2811 28.4101 61.0301 30.0481 50.5505C29.4967 35.034 30.1584 27.9408 35.6731 28.4949C41.1877 29.049 39.423 37.9156 38.0995 44.0114C36.776 50.1072 36.9966 59.4171 37.9892 61.5229C38.9818 63.6287 35.2319 75.0444 30.1585 69.2811Z" fill="#FAD7CC"/>
        <path fill-rule="evenodd" clip-rule="evenodd" d="M30.1588 69.2802C35.2323 75.0435 38.9822 63.6278 37.9896 61.522C36.997 59.4161 36.7764 50.1063 38.0999 44.0105C39.3622 38.1968 41.0207 29.8684 36.388 28.6289C37.9848 30.648 36.997 32.4839 36.3352 34.2573C35.6735 36.0306 36.2249 43.8996 35.894 47.8919C35.5631 51.8842 33.7985 55.8695 33.247 57.3662C32.6955 58.8629 31.0412 62.4086 27.6221 64.5144C27.5099 64.5841 27.4025 64.6614 27.3008 64.7457C29.1471 71.0715 30.1588 69.2802 30.1588 69.2802Z" fill="#EFC4B1"/>
        <path fill-rule="evenodd" clip-rule="evenodd" d="M32.1857 37.1891C32.8494 34.6777 32.1409 31.8179 33.7953 31.0989C35.4497 30.3799 35.3394 32.1532 34.7879 33.594C34.1114 35.3256 33.5586 37.1034 33.1335 38.914C32.4718 41.5739 32.4718 46.4182 31.81 47.1548C31.1483 47.8914 30.5761 43.2793 32.1857 37.1891Z" fill="#FBE3DE"/>
        <path fill-rule="evenodd" clip-rule="evenodd" d="M29.9211 57.458C30.6603 58.5225 30.8272 60.7362 29.1596 61.8481C27.492 62.96 26.6019 63.3785 25.0638 62.3591C23.5256 61.3398 24.1128 59.8586 22.2916 59.9573C20.4703 60.056 19.4473 60.3911 18.2871 60.3903C17.1269 60.3896 15.9211 57.6113 17.0371 57.2458C18.1531 56.8802 28.0485 54.7614 29.9211 57.458Z" fill="#FBE3DE"/>
        <path d="M97.6108 225.23C99.1924 226.451 103.73 226.401 105.243 228.706C106.755 231.011 121.665 231.289 128.58 229.847C135.495 228.405 128.639 219.845 115.828 221.209C109.618 221.871 103.057 222.569 96.2656 223.291C96.5657 224.03 97.0252 224.692 97.6108 225.23Z" fill="#F3F2F3"/>
        <path fill-rule="evenodd" clip-rule="evenodd" d="M109.863 277.925C109.863 282.152 103.888 283.695 87.0905 283.695C70.2934 283.695 49.0352 282.152 49.0352 277.925C49.0352 273.697 70.2934 268.387 87.0905 268.387C103.888 268.387 109.863 273.698 109.863 277.925Z" fill="#A51916"/>
        <path fill-rule="evenodd" clip-rule="evenodd" d="M97.9491 272.847C97.9683 272.813 97.1658 271.869 97.544 271.131C97.9221 270.392 97.2929 270.129 97.2969 265.741C98.7866 264.97 100.494 264.734 102.136 265.073C102.136 265.073 105.021 271.733 108.237 274.13C109.781 277.075 107.754 278.074 107.754 278.074C107.754 278.074 97.1658 274.215 97.9491 272.847Z" fill="#A51916"/>
        <path d="M109.862 277.938C109.862 282.165 103.886 283.708 87.0891 283.708C70.3061 283.708 49.0712 282.167 49.0355 277.948C49.0319 279.064 49.0223 282.005 49.0195 282.84C49.0058 287.067 70.2588 288.68 87.0558 288.735C103.853 288.791 109.833 287.268 109.847 283.04C109.85 282.145 109.861 278.832 109.863 277.938H109.862Z" fill="#C6C5C5"/>
        <path d="M49.1464 278.423C49.0795 278.272 49.0422 278.11 49.0366 277.945C49.0362 278.071 49.0357 278.223 49.0352 278.389C49.0724 278.401 49.1087 278.412 49.1464 278.423Z" fill="#ACACAC"/>
        <path d="M109.861 277.938C109.861 279.928 108.535 281.323 105.38 282.242C103.875 285.266 97.4392 286.395 82.9499 286.347C70.7353 286.307 56.1726 285.442 49.1367 283.348C50.762 287.196 70.9505 288.682 87.0554 288.736C103.852 288.791 109.833 287.268 109.846 283.04C109.849 282.145 109.86 278.832 109.863 277.938H109.861Z" fill="#ACACAC"/>
        <path fill-rule="evenodd" clip-rule="evenodd" d="M152.213 155.199C155.779 165.622 157.951 172.599 157.951 172.599L174.223 158.068C162.123 146.821 160.711 128.582 162.93 124.428C157.686 126.252 81.6599 116.221 72.8876 112.573C60.6871 114.904 48.4877 105.895 48.4877 105.895L46.2682 119.97L43.1453 132.027C43.1453 132.027 47.6015 131.992 61.2921 130.913C57.6088 161.541 33.1595 179.321 28.9433 182.177L28.3203 182.588L160.316 217.085C160.316 217.085 146.703 179.791 152.213 155.199Z" fill="#C62030"/>
        <path fill-rule="evenodd" clip-rule="evenodd" d="M85.7674 109.82C84.4943 109.943 72.8458 116.5 49.757 110.471C42.7666 117.688 43.6309 126.157 43.9551 126.374C44.2792 126.591 49.518 125.547 49.518 125.547C49.518 125.547 61.8539 125.955 62.8658 131.274C63.8777 136.592 61.4579 140.38 61.2418 141.465C61.0257 142.551 54.714 167.905 28.3203 182.588C39.2184 189.055 43.9551 194.013 59.9453 195.208C75.9355 196.402 85.7618 195.432 100.512 187.503C122.61 190.973 139.68 200.745 142.706 186.088C145.731 171.431 141.504 151.562 145.778 143.854C150.052 136.145 144.326 125.288 144.002 125.288C143.678 125.288 85.7674 109.82 85.7674 109.82Z" fill="#F5333F"/>
        <path fill-rule="evenodd" clip-rule="evenodd" d="M48.8481 111.024C56.9104 114.117 62.6918 114.032 66.8777 112.917C56.5717 113.348 47.076 106.832 47.076 106.832L46.5312 110.045C47.2235 110.368 47.9909 110.695 48.8481 111.024Z" fill="#EF4858"/>
        <path fill-rule="evenodd" clip-rule="evenodd" d="M72.89 112.573C68.6888 113.375 64.488 112.833 60.7852 111.777C66.4994 124.718 80.9107 134.451 91.607 140.803C101.85 146.885 104.366 158.598 103.941 163.007C103.726 165.243 102.542 167.508 100.695 167.508C99.3752 167.508 97.7844 166.368 96.215 164.298L93.9012 165.277C94.7979 171.406 98.8321 175.213 104.429 175.213C108.521 175.213 112.807 173.145 115.895 169.679C116.432 169.076 117.07 168.331 117.805 167.473C124.942 159.132 140.2 141.312 162.627 135.802C161.705 130.539 161.986 126.2 162.932 124.428C157.689 126.252 81.6623 116.221 72.89 112.573Z" fill="#C62030"/>
        <path fill-rule="evenodd" clip-rule="evenodd" d="M78.3949 77.0315C77.5804 78.1773 72.0744 78.3344 69.1572 72.1459C66.2401 65.9574 72.6496 62.2117 76.3325 63.7588C80.0155 65.3059 80.0155 74.7516 78.3949 77.0315Z" fill="#FAD7CC"/>
        <path fill-rule="evenodd" clip-rule="evenodd" d="M72.8594 76.5374C75.3536 78.0989 77.8649 77.774 78.3942 77.0293C80.0149 74.7493 80.0148 65.3037 76.3319 63.7565C75.2755 63.3516 74.1181 63.2962 73.0282 63.5984C74.3177 64.1656 76.2413 65.8478 76.0078 68.398C75.7742 70.9491 75.2378 75.6654 72.8594 76.5374Z" fill="#F7D0C6"/>
        <path fill-rule="evenodd" clip-rule="evenodd" d="M148.629 77.0315C149.443 78.1773 154.949 78.3344 157.866 72.1459C160.783 65.9574 154.374 62.2117 150.691 63.7588C147.008 65.3059 147.008 74.7516 148.629 77.0315Z" fill="#FAD7CC"/>
        <path fill-rule="evenodd" clip-rule="evenodd" d="M155.279 64.0681C153.783 63.3391 152.051 63.1867 150.691 63.7581C147.008 65.3052 147.008 74.7509 148.629 77.0308C149.128 77.7331 151.389 78.061 153.737 76.7873C148.893 73.9548 154.159 64.5257 155.279 64.0681Z" fill="#F7D0C6"/>
        <path fill-rule="evenodd" clip-rule="evenodd" d="M83.3383 100.156C83.3383 100.156 74.911 91.1993 77.0179 73.2852C79.1247 55.3711 76.6657 55.6969 76.6797 52.4397C76.6938 49.1826 91.9277 37.6199 117.858 41.8541C143.788 46.0884 155.781 54.7197 154.484 57.1626C153.188 59.6054 149.46 68.5624 150.433 78.8223C151.405 89.0822 152.377 112.533 141.843 115.79C131.309 119.048 103.434 134.519 83.3383 100.156Z" fill="#FAD7CC"/>
        <path fill-rule="evenodd" clip-rule="evenodd" d="M146.318 112.462C152.032 104.824 151.235 87.3122 150.43 78.8225C149.458 68.5626 153.185 59.6055 154.481 57.1627C155.219 55.7724 151.646 52.3775 143.656 48.9297C142.717 53.7039 142.811 62.4586 143.299 75.0768C143.947 91.8509 122.451 92.1879 122.555 92.6652C126.403 110.359 136.024 114.309 146.318 112.462Z" fill="#F7D0C6"/>
        <path fill-rule="evenodd" clip-rule="evenodd" d="M150.429 52.4531C149.617 59.2922 147.191 68.8256 148.243 79.5671C149.297 90.3155 145.893 99.179 138.6 102.599C133.229 105.118 142.377 107.659 149.087 106.604C151.699 97.9473 151.069 85.5521 150.431 78.8222C149.459 68.5623 153.186 59.6052 154.483 57.1624C154.962 56.26 153.612 54.511 150.429 52.4531Z" fill="#EFC4B1"/>
        <path d="M138.566 1.6082C139.306 1.31963 145.471 5.43931 144.542 6.29702C143.614 7.15472 143.225 7.26714 144.326 8.35986C142.037 10.8788 133.517 13.5965 133.559 12.2377C133.6 10.8788 135.342 2.86513 138.566 1.6082Z" fill="#44351E"/>
        <path d="M118.723 25.6226C118.767 25.1906 120.451 0.759985 141.412 0C146.598 4.6685 144.545 6.29707 144.545 6.29707C144.545 6.29707 139.467 7.05705 136.982 9.01133C141.304 6.94849 144.329 8.3599 144.329 8.3599C144.329 8.3599 145.841 11.0742 142.168 16.7198C134.389 14.0055 124.773 22.7998 123.801 27.1425C122.829 31.4853 118.57 27.1062 118.723 25.6226Z" fill="#AF6520"/>
        <path d="M142.168 16.721C143.074 15.3851 143.78 13.9232 144.264 12.3819C137.663 9.02938 130.111 13.0081 127.201 17.0039C124.292 20.9997 122.352 23.4367 120.897 22.8721C120.336 22.6545 119.907 21.6294 119.609 20.3509C119.183 22.0839 118.887 23.8464 118.723 25.6237C118.57 27.1074 122.828 31.4865 123.801 27.1437C124.773 22.8009 134.389 14.0068 142.168 16.721Z" fill="#9E5518"/>
        <path fill-rule="evenodd" clip-rule="evenodd" d="M90.1148 90.2336C79.4274 86.9764 83.3255 65.2889 83.3417 59.6264C83.3579 53.964 85.1413 52.0382 91.301 50.0674C97.4607 48.0966 96.3072 43.9748 94.6545 43.4375C93.9674 43.2213 93.2608 43.0735 92.545 42.9961C84.3883 45.1533 79.7503 48.8831 79.6049 50.6117C79.3319 53.8573 81.8089 53.7301 78.2841 71.4177C74.7593 89.1052 82.4474 98.7105 82.4474 98.7105C83.9584 101.885 85.7391 104.924 87.7698 107.791C89.0611 107.482 90.2487 107.174 91.2695 107.006C96.5414 106.139 100.802 93.4909 90.1148 90.2336Z" fill="#FBE3DE"/>
        <path d="M77.0183 73.2852C77.0183 73.2852 73.777 92.3392 58.8672 104.553C63.405 118.885 79.6113 129.633 90.3075 135.984C101.004 142.336 103.759 154.387 103.272 159.436C102.786 164.484 98.4106 168.23 93.2246 161.39C94.8452 172.464 106.461 172.419 112.97 165.113C119.479 157.807 140.709 129.633 173.446 129.145C157.402 109.602 151.567 84.5222 150.433 78.8222C150.433 100.645 141.033 101.948 141.033 101.948C141.033 101.948 146.705 78.6594 127.744 85.4993C108.783 92.3393 101.49 85.4993 96.3038 84.1965C91.1178 82.8936 83.987 85.6622 87.3903 100.156C78.6389 93.9678 76.6942 78.4965 77.0183 73.2852Z" fill="#AF6520"/>
        <path fill-rule="evenodd" clip-rule="evenodd" d="M98.3032 95.1746C102.948 97.4056 116.623 102.609 131.617 95.4001C131.685 95.3672 131.761 95.3578 131.835 95.3733C131.909 95.3888 131.976 95.4283 132.025 95.4858C132.074 95.5433 132.103 95.6155 132.107 95.6911C132.111 95.7668 132.09 95.8417 132.048 95.9042C126.986 103.4 125.688 112.696 114.736 112.696C104.025 112.696 104.021 101.478 98.0589 95.526C98.0216 95.4903 97.9984 95.4422 97.9932 95.3907C97.9881 95.3392 98.0016 95.2875 98.0311 95.245C98.0606 95.2026 98.1043 95.1721 98.1542 95.1592C98.2041 95.1463 98.257 95.1517 98.3032 95.1746Z" fill="#7C1E10"/>
        <path fill-rule="evenodd" clip-rule="evenodd" d="M114.737 112.044C108.119 112.044 105.81 107.453 103.365 102.593C102.327 100.53 101.262 98.412 99.8398 96.5726C104.816 98.6392 110.144 99.7136 115.528 99.7359C120.835 99.7412 126.083 98.6171 130.927 96.4375C129.927 98.0285 129.07 99.6711 128.237 101.267C125.221 107.05 122.616 112.044 114.737 112.044Z" fill="white"/>
        <path d="M116.452 56.8905C108.889 55.8048 105.959 49.8361 97.532 49.5103C89.1047 49.1846 80.3919 55.0448 76.6786 52.4391C72.9652 49.8335 84.4716 32.2451 116.155 33.3851C147.838 34.5251 155.779 54.243 154.483 57.1618C153.187 60.0807 150.593 49.8333 136.494 51.6247C121.579 53.5199 124.015 57.9762 116.452 56.8905Z" fill="#AF6520"/>
        <path fill-rule="evenodd" clip-rule="evenodd" d="M33.5931 67.6065C33.5931 67.6065 35.6975 58.0319 31.5462 54.6762C27.3949 51.3205 16.0015 51.7107 13.1647 57.7158C10.328 63.7209 12.9649 69.7874 15.0756 70.6686C17.1863 71.5498 25.15 73.0357 26.779 69.7562C28.408 66.4768 29.8269 59.0905 33.5931 67.6065Z" fill="#FAD7CC"/>
        <path d="M119.26 34.5246C115.377 34.2952 110.076 33.8732 112.129 28.0104C114.182 22.1476 128.444 24.319 128.119 29.2047C127.795 34.0903 126.607 34.9589 119.26 34.5246Z" fill="#9E5518"/>
        <path d="M112.131 28.0095C111.601 29.5232 111.564 30.6719 111.864 31.5506C113.414 32.5441 115.85 32.7194 117.894 32.8402C125.241 33.2745 126.43 32.4059 126.754 27.5203C126.774 27.1735 126.72 26.8263 126.596 26.5023C122.915 23.7589 113.746 23.3967 112.131 28.0095Z" fill="#AF6520"/>
        <path fill-rule="evenodd" clip-rule="evenodd" d="M114.115 81.0657C111.796 81.0707 109.479 80.9138 107.182 80.596C107.061 80.5776 106.938 80.6007 106.833 80.6618C106.727 80.7228 106.645 80.8181 106.6 80.9321C106.555 81.046 106.55 81.1718 106.586 81.289C106.622 81.4061 106.696 81.5076 106.796 81.5769C108.639 82.7921 111.235 83.5498 114.115 83.5498C116.994 83.5498 119.59 82.7921 121.433 81.5769C121.533 81.5076 121.607 81.4061 121.643 81.289C121.679 81.1718 121.674 81.046 121.629 80.9321C121.584 80.8181 121.502 80.7229 121.397 80.6618C121.291 80.6008 121.168 80.5776 121.047 80.596C118.75 80.9138 116.433 81.0707 114.115 81.0657Z" fill="#635643"/>
        <path fill-rule="evenodd" clip-rule="evenodd" d="M97.7066 72.5232C99.9196 72.5101 102.129 72.7096 104.304 73.119C102.912 72.1089 100.481 71.4375 97.7066 71.4375C94.9325 71.4375 92.501 72.1089 91.1094 73.119C93.2845 72.7096 95.4937 72.5101 97.7066 72.5232Z" fill="#131313"/>
        <path fill-rule="evenodd" clip-rule="evenodd" d="M100.571 70.9226C100.572 71.4399 100.414 71.9448 100.119 72.3684C99.9007 72.6812 99.0331 72.1836 98.1399 72.1815C97.1714 72.1792 96.173 72.6451 95.9408 72.28C95.7312 71.9496 95.6009 71.5746 95.5604 71.1848C95.52 70.795 95.5704 70.4012 95.7076 70.0343C95.8449 69.6675 96.0652 69.3378 96.3513 69.0714C96.6373 68.805 96.9811 68.6092 97.3555 68.4994C97.7298 68.3897 98.1245 68.369 98.5082 68.4391C98.8919 68.5092 99.2541 68.6681 99.5661 68.9032C99.8781 69.1383 100.131 69.4432 100.306 69.7937C100.48 70.1442 100.571 70.5307 100.571 70.9226H100.571Z" fill="#131313"/>
        <path fill-rule="evenodd" clip-rule="evenodd" d="M131.839 72.5232C129.627 72.5101 127.417 72.7096 125.242 73.119C126.634 72.1089 129.065 71.4375 131.839 71.4375C134.614 71.4375 137.045 72.1089 138.437 73.119C136.262 72.7096 134.052 72.5101 131.839 72.5232Z" fill="#131313"/>
        <path fill-rule="evenodd" clip-rule="evenodd" d="M128.977 70.9227C128.976 71.44 129.134 71.9449 129.429 72.3685C129.647 72.6813 130.515 72.1837 131.408 72.1816C132.376 72.1793 133.375 72.6452 133.607 72.2801C133.817 71.9496 133.947 71.5747 133.987 71.1849C134.028 70.7951 133.977 70.4012 133.84 70.0344C133.703 69.6676 133.483 69.3379 133.197 69.0715C132.91 68.805 132.567 68.6092 132.192 68.4994C131.818 68.3897 131.423 68.369 131.039 68.4391C130.656 68.5092 130.294 68.6681 129.982 68.9032C129.67 69.1384 129.416 69.4433 129.242 69.7938C129.067 70.1443 128.977 70.5308 128.977 70.9227H128.977Z" fill="#131313"/>
        <path fill-rule="evenodd" clip-rule="evenodd" d="M122.921 103.087C121.199 103.54 116.934 103.952 116.195 104.034C115.457 104.117 114.842 103.911 114.883 103.334C114.924 102.757 114.76 100.985 114.76 100.985V103.169C114.76 104.405 114.186 104.282 112.381 104.405C110.577 104.529 109.141 104.241 109.059 103.911C108.977 103.581 109.264 102.262 109.018 100.902C109.023 101.909 108.871 102.91 108.567 103.87C107.001 104.058 105.417 104.041 103.855 103.821C106.124 108.238 108.604 112.112 114.719 112.112C122.649 112.112 125.302 107.114 128.333 101.303C126.565 102.003 124.758 102.599 122.921 103.087Z" fill="#6B1B0D"/>
        <path d="M51.1656 120.068C52.6406 112.852 51.438 106.507 48.4795 105.897C45.521 105.286 41.927 110.641 40.452 117.856C38.977 125.072 40.1796 131.417 43.1381 132.028C46.0965 132.638 49.6906 127.284 51.1656 120.068Z" fill="#131313"/>
        <path d="M171.222 170.557C175.424 166.061 176.769 160.47 174.225 158.069C171.682 155.669 166.213 157.367 162.011 161.863C157.809 166.359 156.464 171.95 159.008 174.351C161.551 176.751 167.02 175.053 171.222 170.557Z" fill="#131313"/>
        <path fill-rule="evenodd" clip-rule="evenodd" d="M160.317 217.086C158.698 223.76 140.44 229.982 103.433 220.913C66.4271 211.843 26.7015 189.263 28.3214 182.589C43.1458 179.955 66.5639 179.385 95.802 186.333C132.87 195.142 158.18 210.556 160.317 217.086Z" fill="#131313"/>
        <path fill-rule="evenodd" clip-rule="evenodd" d="M47.2198 184.873C47.5131 193.573 54.7813 238.303 96.3923 270.736C97.6003 271.677 99.5698 270.391 98.8456 269.038C93.8145 259.638 89.479 238.753 92.0279 231.029C92.0966 230.812 92.2109 230.613 92.3631 230.445C92.5153 230.277 92.7017 230.144 92.9097 230.055C93.1176 229.966 93.3422 229.924 93.5681 229.93C93.7941 229.936 94.016 229.991 94.2188 230.092C100.342 233.106 108.643 234.257 119.12 234.344C119.494 234.349 119.856 234.481 120.145 234.72C120.434 234.959 120.634 235.289 120.711 235.657C123.967 250.698 138.61 266.64 148.175 273.812C148.443 274.014 148.768 274.125 149.103 274.126C149.439 274.128 149.765 274.021 150.035 273.821C150.305 273.621 150.503 273.339 150.601 273.016C150.698 272.694 150.689 272.349 150.576 272.032C144.693 255.506 141.184 229.754 146.116 208.591C146.193 208.268 146.166 207.929 146.039 207.623C145.912 207.317 145.691 207.059 145.408 206.888C113.001 187.484 59.4734 183.692 48.8359 183.259C48.6221 183.25 48.4088 183.285 48.2093 183.363C48.0098 183.441 47.8284 183.559 47.6767 183.711C47.5249 183.862 47.4059 184.044 47.3273 184.244C47.2487 184.444 47.2121 184.658 47.2198 184.873Z" fill="#1A171B"/>
        <path fill-rule="evenodd" clip-rule="evenodd" d="M19.5505 72.2619C19.2533 72.9724 19.2403 77.4358 21.6595 77.3035C27.7486 79.3477 34.6498 75.4629 37.1314 67.8548C39.613 60.2467 37.5796 55.235 29.9895 54.6764C25.7013 54.6303 23.3671 57.2655 26.603 60.6653C29.3571 63.559 30.4504 63.5747 31.75 64.2795C31.8364 64.3256 31.9102 64.3923 31.9648 64.4738C32.0194 64.5554 32.0532 64.6492 32.0631 64.747C32.0731 64.8448 32.0588 64.9435 32.0217 65.0344C31.9846 65.1254 31.9257 65.2057 31.8503 65.2683C28.1977 68.2244 20.0196 71.1403 19.5505 72.2619Z" fill="#FAD7CC"/>
        <path fill-rule="evenodd" clip-rule="evenodd" d="M19 72.4715C19.0003 73.2422 20.2155 114.242 48.1714 124.502C51.7915 118.186 50.0419 111.08 49.4538 109.448C41.6749 108.145 29.21 100.481 22.8895 76.2967C29.291 75.8081 18.9996 71.2549 19 72.4715Z" fill="#FAD7CC"/>
        <path d="M150.431 78.8203C150.431 90.3718 147.797 96.172 145.318 99.0745C147.015 105.25 148.906 110.374 149.297 112.043C150.161 115.734 155.131 118.557 149.297 122.079C136.115 125.601 117.964 144.18 114.115 153.734C110.266 163.288 104.135 163.505 103.271 159.434C102.784 164.482 98.4087 168.228 93.2227 161.388C94.8433 172.462 106.459 172.417 112.968 165.111C119.477 157.805 140.707 129.631 173.444 129.143C157.4 109.6 151.565 84.5203 150.431 78.8203Z" fill="#9E5518"/>
        <path d="M133.336 90.953C137.711 94.6987 136.091 102.722 135.442 103.921C134.794 105.121 136.172 108.46 139.98 107.564C143.789 106.668 149.309 103.828 149.993 102.887C150.368 102.371 149.683 97.3405 148.708 92.4988C145.995 101.249 141.034 101.946 141.034 101.946C141.034 101.946 146.706 78.6574 127.744 85.4974C108.783 92.3373 101.49 85.4974 96.3042 84.1945C95.2995 83.9384 94.259 83.8544 93.2266 83.9461C95.4961 84.523 100.52 90.3017 110.728 90.953C120.938 91.6045 128.96 87.2073 133.336 90.953Z" fill="#9E5518"/>
        <path d="M87.6334 131.343C72.3995 121.355 65.5928 117.012 61.7033 106.508C74.9114 91.2807 76.262 80.6679 77.0183 73.2852C77.0183 73.2852 73.777 92.3392 58.8672 104.553C63.405 118.885 79.6113 129.633 90.3075 135.984C101.004 142.336 103.759 154.387 103.273 159.436C103.258 159.584 103.24 159.731 103.219 159.876H103.219C106.299 147.234 98.6044 138.537 87.6334 131.343Z" fill="#9E5518"/>
        <path d="M84.7955 112.696C83.0128 105.856 88.8271 108.326 91.268 104.241C93.709 100.156 90.4678 91.525 93.2228 89.4079C95.9779 87.2908 94.5059 85.8251 91.1093 86.965C90.5042 87.1681 89.717 86.7837 88.8349 86.0268C86.6879 88.3099 85.6292 92.6634 87.3885 100.156C81.9711 96.3254 79.1638 88.9384 77.8866 82.6289C77.3386 87.1192 76.3912 91.9346 74.7476 95.1507C70.8581 102.762 65.4901 103.902 68.4172 108.95C71.3443 113.999 78.4751 122.142 89.1712 127.516C95.1675 131.587 86.5781 119.536 84.7955 112.696Z" fill="#B46A2C"/>
        <path d="M97.1273 77.5975C100.451 77.5975 103.145 76.7782 103.145 75.7675C103.145 74.7568 100.451 73.9375 97.1273 73.9375C93.8037 73.9375 91.1094 74.7568 91.1094 75.7675C91.1094 76.7782 93.8037 77.5975 97.1273 77.5975Z" fill="#FBE3DE"/>
        <path d="M131.487 77.5975C134.81 77.5975 137.505 76.7782 137.505 75.7675C137.505 74.7568 134.81 73.9375 131.487 73.9375C128.163 73.9375 125.469 74.7568 125.469 75.7675C125.469 76.7782 128.163 77.5975 131.487 77.5975Z" fill="#FBE3DE"/>
        <path d="M79.8438 53.0795C82.8265 52.8496 86.8635 51.1853 91.1902 50.2073C91.2279 50.1604 91.263 50.1139 91.3013 50.067C95.215 41.6705 96.9494 42.5037 111.896 35.3398C90.2173 35.3416 80.4189 46.5751 79.8438 53.0795Z" fill="#BE743B"/>
        <path d="M142.004 48.4321C137.871 47.2019 132.603 48.4493 123.505 53.8977C115.442 58.7261 108.213 52.9278 104.303 51.2321C104.293 51.2276 104.284 51.2246 104.273 51.2201C108.311 53.1646 111.313 56.1531 116.451 56.8906C124.014 57.9763 121.578 53.52 136.493 51.625C150.593 49.8336 153.186 60.0811 154.482 57.1621C155.728 54.3565 148.428 36.0413 119.728 33.6094C117.79 34.0366 125.493 37.8207 131.486 38.9223C138.13 40.1437 146.136 49.6623 142.004 48.4321Z" fill="#9E5518"/>
        <path d="M113.781 27.9076C113.481 28.7643 113.46 29.4145 113.63 29.9118C114.507 30.4741 115.886 30.5733 117.043 30.6417C121.201 30.8875 121.874 30.3959 122.057 27.6306C122.069 27.4344 122.038 27.2379 121.968 27.0545C119.885 25.5018 114.695 25.2968 113.781 27.9076Z" fill="#BE743B"/>
        <path d="M142.547 1.09375C136.445 1.79561 126.541 4.84842 122.469 16.9217C126.8 6.32427 137.309 4.16721 144.686 4.05885C144.377 3.30019 143.74 2.32279 142.547 1.09375Z" fill="#BE743B"/>
        <path fill-rule="evenodd" clip-rule="evenodd" d="M49.5591 112.319C49.3139 115.523 46.5283 117.138 43.5839 115.886C30.5245 110.332 24.3397 93.3484 22.5668 86.3129C20.6246 78.6043 21.0519 76.433 22.3484 73.1203C23.0255 71.3902 19.078 73.6939 19.0781 74.1047C19.0784 74.8754 20.2146 114.243 48.1705 124.502C51.7906 118.187 50.041 111.08 49.4529 109.448C49.5694 110.401 49.6049 111.361 49.5591 112.319Z" fill="#EFC4B1"/>
        <path fill-rule="evenodd" clip-rule="evenodd" d="M25.8686 70.9521C26.4526 71.1686 19.9177 75.8302 20.8105 75.9639C26.6053 76.8317 34.031 65.9541 34.2955 64.5533C34.5601 63.1526 34.1292 61.5197 29.8706 60.0727C25.6201 58.6285 28.2821 55.4624 29.5852 54.6875C25.5628 54.8095 23.4737 57.3755 26.6045 60.6649C29.3586 63.5585 30.4518 63.5742 31.7514 64.2791C32.1238 64.4811 30.0434 64.0354 29.7138 64.3021C27.8289 65.8274 28.4824 69.6892 25.8686 70.9521Z" fill="#EFC4B1"/>
        <path fill-rule="evenodd" clip-rule="evenodd" d="M62.7544 142.01C64.5911 136.039 64.4831 130.284 61.2921 130.915C57.6088 161.543 33.1595 179.323 28.9433 182.179L28.3203 182.59C55.6863 170.947 60.9177 147.981 62.7544 142.01Z" fill="#F5333F"/>
        <path fill-rule="evenodd" clip-rule="evenodd" d="M146.116 208.591C146.193 208.268 146.167 207.929 146.039 207.623C145.912 207.317 145.691 207.059 145.408 206.888C113.001 187.484 59.4735 183.692 48.836 183.259C48.6222 183.25 48.4089 183.285 48.2093 183.363C48.0098 183.441 47.8285 183.559 47.6767 183.711C47.5249 183.862 47.406 184.044 47.3273 184.244C47.2487 184.444 47.2121 184.658 47.2198 184.873C47.3035 187.355 47.9573 192.775 49.8127 200.002C49.7952 191.844 62.272 189.134 74.4249 190.896C86.5796 192.659 122.882 200.802 131.471 212.364C132.142 226.787 137.71 250.538 142.539 261.47C142.645 261.709 142.67 261.975 142.609 262.229C142.549 262.482 142.408 262.709 142.207 262.874C142.005 263.038 141.756 263.132 141.497 263.14C141.237 263.148 140.983 263.069 140.772 262.917C136.442 259.783 132.67 257.369 130.089 255.027C135.762 262.923 142.777 269.764 148.175 273.812C148.442 274.014 148.768 274.125 149.103 274.126C149.438 274.128 149.765 274.021 150.035 273.821C150.305 273.621 150.503 273.339 150.6 273.016C150.698 272.694 150.689 272.349 150.576 272.032C144.693 255.506 141.184 229.754 146.116 208.591Z" fill="#020202"/>
        <path fill-rule="evenodd" clip-rule="evenodd" d="M94.2188 230.09C94.7644 230.358 95.3335 230.607 95.9136 230.847C95.3652 230.559 94.7991 230.306 94.2188 230.09Z" fill="#2E569E"/>
        <path fill-rule="evenodd" clip-rule="evenodd" d="M94.2165 230.09C88.36 227.888 79.3926 222.134 77.0156 220.18C81.0132 226.802 82.5258 226.585 84.3625 228.648C86.0134 230.502 86.5296 250.338 92.8151 262.137C92.9182 262.326 92.9557 262.544 92.9216 262.756C92.8875 262.969 92.7837 263.164 92.6269 263.31C92.47 263.457 92.2689 263.547 92.0555 263.565C91.8422 263.584 91.6287 263.531 91.4489 263.414C88.2257 261.315 84.9995 259.061 79.4511 254.985C84.6292 260.721 90.2972 265.991 96.39 270.734C97.598 271.676 99.5675 270.389 98.8434 269.036C93.8122 259.636 89.4767 238.751 92.0257 231.027C92.0944 230.81 92.2087 230.611 92.3608 230.443C92.513 230.275 92.6994 230.142 92.9074 230.054C93.1153 229.965 93.34 229.922 93.5659 229.928C93.7918 229.934 94.0137 229.989 94.2165 230.09Z" fill="#020202"/>
        <path fill-rule="evenodd" clip-rule="evenodd" d="M115.705 229.571C115.29 231.589 100.958 232.414 97.6133 231.451C103.298 233.427 110.464 234.228 119.121 234.301C119.495 234.305 119.856 234.438 120.146 234.677C120.435 234.915 120.634 235.246 120.711 235.614C119.938 232.681 117.115 222.726 115.705 229.571Z" fill="#020202"/>
        <path fill-rule="evenodd" clip-rule="evenodd" d="M56.4356 210.574C58.8887 216.466 64.7009 231.094 75.8832 242.493C87.0654 253.893 79.4486 236.582 77.0176 230.092C74.5867 223.602 69.2387 223.928 66.3215 217.088C63.4042 210.248 52.8439 201.947 56.4356 210.574Z" fill="#272528"/>
        <path fill-rule="evenodd" clip-rule="evenodd" d="M123.711 222.084C121.825 223.506 122.925 238.187 127.485 245.62C132.045 253.053 131.416 243.092 129.058 233.852C126.699 224.612 128.743 218.292 123.711 222.084Z" fill="#272528"/>
        <path d="M63.6013 271.133C55.2459 273.041 49.0352 275.64 49.0352 277.924C49.0352 280.727 58.3871 283.001 69.5849 283.776C68.5932 279.073 66.4734 274.274 63.6013 271.133Z" fill="#D5D5D5"/>
        <path d="M64.0738 271.676C64.0483 271.684 64.0252 271.69 63.9995 271.698C59.6778 273.055 50.7103 275.01 52.9792 276.91C55.0032 278.605 57.9785 275.723 66.9182 276.083C66.1425 274.508 65.1881 273.03 64.0738 271.676Z" fill="#E2E2E3"/>
        <path d="M67.01 271.256L70.5102 277.348C70.8907 278.01 71.7335 278.237 72.3927 277.854L72.821 277.606C73.4801 277.224 73.7059 276.377 73.3254 275.714L69.8253 269.622C69.4447 268.96 68.6019 268.733 67.9427 269.115L67.5145 269.364C66.8553 269.746 66.6295 270.593 67.01 271.256Z" fill="#E2E2E3"/>
        <path d="M72.4436 270.619L75.9438 276.711C76.3243 277.373 77.1671 277.6 77.8263 277.218L78.2546 276.969C78.9137 276.587 79.1395 275.74 78.759 275.078L75.2589 268.985C74.8783 268.323 74.0355 268.096 73.3763 268.479L72.948 268.727C72.2889 269.109 72.0631 269.956 72.4436 270.619Z" fill="#E2E2E3"/>
        <path d="M77.8694 269.986L81.3695 276.078C81.7501 276.74 82.5929 276.967 83.252 276.585L83.6803 276.336C84.3394 275.954 84.5652 275.107 84.1847 274.445L80.6846 268.353C80.304 267.691 79.4612 267.464 78.8021 267.846L78.3738 268.095C77.7147 268.477 77.4889 269.324 77.8694 269.986Z" fill="#E2E2E3"/>
        <path fill-rule="evenodd" clip-rule="evenodd" d="M83.9034 268.446C85.961 268.23 90.0133 266.399 88.565 264.599C87.1166 262.8 92.9407 263.622 94.0346 264.844C95.1286 266.065 97.494 267.791 96.3923 270.735C92.8455 271.896 89.1678 272.606 85.4452 272.849C82.204 270.984 83.2875 268.511 83.9034 268.446Z" fill="#A51916"/>
        <path fill-rule="evenodd" clip-rule="evenodd" d="M96.3905 270.734C96.3905 270.734 88.3075 273.719 84.0664 274.228C85.4435 275.225 95.3833 272.848 97.5442 271.132C97.1294 271.115 96.7285 270.977 96.3905 270.734Z" fill="#831811"/>
        <path fill-rule="evenodd" clip-rule="evenodd" d="M166.928 284.867C170.227 291.048 163.327 291.752 153.89 291.752C144.453 291.752 135.593 288.631 132.754 284.867C132.754 277.504 137.039 271.535 146.476 271.535C155.913 271.535 162.197 276 166.928 284.867Z" fill="#A51916"/>
        <path d="M167.764 288.243C167.745 288.229 167.725 288.217 167.704 288.207C167.059 291.324 161.246 291.753 153.89 291.753C144.452 291.753 135.593 288.631 132.754 284.867C133.019 285.219 132.754 289.477 132.754 291.466C135.593 295.229 144.452 298.351 153.89 298.351C163.327 298.351 171.04 298.1 167.764 288.243Z" fill="#C6C5C5"/>
        <path d="M133.008 285.162C132.925 285.063 132.829 284.966 132.754 284.867C132.788 284.934 132.809 285.007 132.815 285.082C132.878 285.109 132.944 285.135 133.008 285.162Z" fill="#EFC4B1"/>
        <path d="M167.764 288.242C167.745 288.229 167.725 288.217 167.704 288.207C167.332 290.005 165.233 290.906 162.116 291.348C160.184 294.486 154.588 294.605 148.196 294.605C142.529 294.605 137.08 293.475 133.008 291.76C136.078 295.389 144.701 298.351 153.89 298.351C163.327 298.351 171.04 298.099 167.764 288.242Z" fill="#EFC4B1"/>
        <path d="M167.764 288.242C167.745 288.229 167.725 288.217 167.704 288.207C167.332 290.005 165.233 290.906 162.116 291.348C160.184 294.486 154.588 294.605 148.196 294.605C142.529 294.605 137.08 293.475 133.008 291.76C136.078 295.389 144.701 298.351 153.89 298.351C163.327 298.351 171.04 298.099 167.764 288.242Z" fill="#ACACAC"/>
        <path d="M142.141 290.121C145.964 291.208 149.918 291.757 153.892 291.753C163.329 291.753 170.229 291.048 166.93 284.867C166.21 283.513 165.406 282.206 164.522 280.954C163.451 280.838 162.374 280.778 161.297 280.773C152.084 280.773 144.362 284.746 142.141 290.121Z" fill="#D5D5D5"/>
        <path d="M162.052 289.772C162.226 289.329 164.459 284.68 157.636 280.992C152.193 281.635 147.543 283.683 144.652 286.519C146.234 287.628 149.151 289.013 153.024 289.442C158.981 290.102 161.868 290.244 162.052 289.772Z" fill="#E2E2E3"/>
        <path fill-rule="evenodd" clip-rule="evenodd" d="M144.949 276.86C144.028 276.522 138.695 267.874 144.949 266.591C151.204 265.307 156.222 266.535 156.077 268.6C155.931 270.665 153.895 271.837 155.786 273.79C157.677 275.743 149.967 278.701 144.949 276.86Z" fill="#A51916"/>
        <path fill-rule="evenodd" clip-rule="evenodd" d="M142.036 272.05C142.036 272.05 141.679 272.144 141.441 272.214C141.203 272.285 141.048 276.718 149.34 279.075C143.013 275.21 143.636 274.202 142.28 272.208C142.276 272.181 142.266 272.155 142.251 272.132C142.236 272.109 142.216 272.09 142.193 272.075C142.17 272.06 142.144 272.05 142.117 272.045C142.09 272.041 142.062 272.043 142.036 272.05Z" fill="#831811"/>
        <path d="M149.145 277.894L158.847 276.531C160.18 276.344 161.47 277.027 161.714 278.05C161.958 279.073 161.067 280.063 159.734 280.251L150.033 281.614C148.7 281.801 147.409 281.118 147.165 280.095C146.921 279.072 147.812 278.081 149.145 277.894Z" fill="#E2E2E3"/>
        <path d="M144.044 274.226L153.745 272.863C155.078 272.676 156.368 273.359 156.613 274.382C156.857 275.405 155.966 276.395 154.633 276.583L144.931 277.946C143.598 278.133 142.308 277.45 142.064 276.427C141.82 275.404 142.711 274.413 144.044 274.226Z" fill="#E2E2E3"/>
        <path fill-rule="evenodd" clip-rule="evenodd" d="M29.1809 63.5418C28.9576 63.169 28.6959 62.7463 28.427 62.293C29.1852 63.6511 28.679 63.7604 28.3114 65.4783C27.9439 67.1962 26.6827 69.6486 21.159 71.0835C15.6409 72.5168 12.4596 65.855 12.1697 63.3353C11.7683 65.5243 11.9246 67.6014 12.9256 69.1916C16.2518 74.4755 22.641 74.753 24.52 73.2045C26.3991 71.6561 30.9534 66.5007 29.1809 63.5418Z" fill="#F7D0C6"/>
        <path fill-rule="evenodd" clip-rule="evenodd" d="M33.0061 63.4139C32.6806 64.3637 27.9541 73.6365 25.7665 73.6731C23.579 73.7096 18.1334 75.3051 15.1406 71.2799C19.5514 72.2632 21.4327 73.3098 25.6248 69.5C29.6072 65.6741 27.8027 60.8516 27.8027 60.8516L33.0061 63.4139Z" fill="#EFC4B1"/>
        <path d="M79.7742 142.836V143.047L77.1483 148.868H75.5556L72.9297 143.047V142.836H74.3388L76.352 147.517L78.3651 142.836H79.7742Z" fill="white"/>
        <path d="M83.1509 140.905V141.564H79.7578V140.952L81.3842 140.034C81.5518 139.942 81.7146 139.841 81.8718 139.733C81.9568 139.677 82.0298 139.605 82.0861 139.52C82.1255 139.449 82.1451 139.368 82.1429 139.286V139.24C82.1446 139.169 82.1263 139.1 82.0902 139.04C82.0542 138.98 82.0019 138.931 81.9394 138.9C81.7569 138.812 81.5552 138.772 81.3531 138.783C81.1402 138.769 80.9278 138.817 80.741 138.92C80.6738 138.963 80.6191 139.023 80.5824 139.093C80.5457 139.164 80.5283 139.243 80.532 139.323V139.426H79.7678V139.317C79.7573 139.145 79.7883 138.972 79.8584 138.814C79.9284 138.656 80.0354 138.517 80.1702 138.409C80.5148 138.18 80.9249 138.07 81.3374 138.098C81.7471 138.074 82.1542 138.176 82.5046 138.391C82.6375 138.479 82.7457 138.6 82.8189 138.742C82.892 138.885 82.9277 139.043 82.9225 139.203V139.255C82.925 139.413 82.8898 139.57 82.8198 139.712C82.7322 139.869 82.6134 140.006 82.4708 140.114C82.255 140.282 82.0261 140.432 81.7864 140.563L81.1771 140.905L83.1509 140.905Z" fill="white"/>
        <path d="M82.0835 142.838L82.0905 150.936L70.6153 150.935L70.6083 139.426L78.4932 139.427V138.355H69.5469V152.006H83.1496V142.838H82.0835Z" fill="white"/>
        <path d="M124.445 148.276C124.146 147.904 120.291 148.633 121.705 144.592C123.12 140.551 138.582 118.354 163.764 120.574C158.021 132.826 160.354 144.813 160.354 144.813C160.354 144.813 126.301 150.584 124.445 148.276Z" fill="#F4F4F4"/>
        <path d="M81.2617 141.781C81.2746 141.209 81.2746 135.436 81.7699 135.536C82.2651 135.635 97.52 136.133 102.077 131.255C106.633 126.378 126.819 128.758 121.706 144.589C113.964 151.164 81.2617 141.781 81.2617 141.781Z" fill="#F4F4F4"/>
        <path d="M69.4492 139.22L75.3022 136.039C75.3022 136.039 85.7357 139.471 95.9996 137.629C106.263 135.788 124.671 137.442 122.55 151.263C120.429 165.001 111.353 163.327 111.353 163.327C111.353 163.327 70.1278 141.731 69.4492 139.22Z" fill="#D8D8D8"/>
        <path d="M173.957 139.22L168.104 136.039C168.104 136.039 157.67 139.471 147.406 137.629C137.142 135.788 118.735 137.442 120.856 151.263C122.977 165.001 132.053 163.327 132.053 163.327C132.053 163.327 173.278 141.731 173.957 139.22Z" fill="#D8D8D8"/>
        <path d="M118.807 161.456C118.564 161.421 114.532 152.57 116.592 151.624C118.652 150.679 126.515 150.384 127.48 151.624C128.444 152.865 131.372 163.293 118.807 161.456Z" fill="#B7B7B7"/>
        <path fill-rule="evenodd" clip-rule="evenodd" d="M127.478 151.264V151.626C127.478 152.685 125.04 153.543 122.034 153.543C119.027 153.543 116.59 152.685 116.59 151.626V151.264L66.4219 137.801L91.8291 182.309L116.59 191.246C116.59 192.305 119.027 193.163 122.034 193.163C125.04 193.163 127.478 192.305 127.478 191.246L152.238 182.309L177.645 137.801L127.478 151.264Z" fill="#2D90C1"/>
        <path d="M116.42 151.218L112.611 150.195C112.322 152.414 111.814 154.599 111.096 156.717C111.096 156.717 109.178 157.589 105.13 160.373C101.081 163.156 105.982 161.336 108.432 166.412C110.883 171.488 109.498 169.044 106.621 174.385C103.745 179.725 105.662 176.431 98.7376 179.882C96.1453 181.173 94.2698 182.08 92.9375 182.708L116.591 191.245V151.625L116.42 151.218Z" fill="#1A6F91"/>
        <path d="M127.48 151.262V191.243L152.241 182.307L157.971 172.27C149.24 172.038 131.026 169.347 127.48 151.262Z" fill="#1A6F91"/>
        <path fill-rule="evenodd" clip-rule="evenodd" d="M160.691 168.042C160.849 168.262 162.209 172.905 165.08 179.335C169.368 179.464 173.582 182.991 174.619 178.169C172.24 170.588 170.478 163.137 170.187 158.953C164.08 159.339 160.691 168.042 160.691 168.042Z" fill="#FAD7CC"/>
        <path d="M170.19 158.953C166.924 159.16 164.437 161.744 162.828 164.105C165.727 163.217 167.746 162.604 169.347 168.264C169.942 170.367 170.944 174.69 172.47 179.598C174.747 181.724 176.061 183.771 174.736 178.531C172.3 170.826 170.486 163.204 170.19 158.953Z" fill="#EFC4B1"/>
        <path fill-rule="evenodd" clip-rule="evenodd" d="M173.003 172.683C164.901 171.374 152.541 170.269 140.3 172.886C133.314 165.442 128.435 167.349 125.798 168.065C123.16 168.781 119.912 173.801 123.211 180.369C126.51 186.938 133.626 185.322 140.887 177.702C146.291 176.396 160.668 179.241 172.028 182.629C177.425 184.238 175.331 180.372 173.003 172.683Z" fill="#EFC4B1"/>
        <path d="M172.027 182.629C177.424 184.238 175.33 180.372 173.003 172.683C172.183 172.55 171.309 172.421 170.406 172.297C170.956 174.514 171.761 176.66 172.805 178.69C174.629 182.346 166.995 180.603 156.994 177.975C146.992 175.348 140.887 177.702 140.887 177.702C146.29 176.396 160.667 179.241 172.027 182.629Z" fill="#EFC4B1"/>
        <path fill-rule="evenodd" clip-rule="evenodd" d="M145.083 173.878C146.695 173.868 150.636 173.755 153.609 173.565C156.582 173.375 153.688 172.336 158.594 172.729C163.499 173.121 164.895 173.192 166.975 173.135C169.055 173.079 169.672 174.551 169.774 175.135C169.876 175.72 170.154 176.717 168.85 176.302C167.546 175.886 166.7 176.172 163.394 175.357C160.088 174.541 158.923 173.749 157.453 174.18C155.983 174.611 152.689 174.824 151.967 174.926C151.246 175.028 143.717 173.887 145.083 173.878Z" fill="#EFC4B1"/>
        <path fill-rule="evenodd" clip-rule="evenodd" d="M130.847 169.544C130.847 169.544 133.986 167.991 132.745 167.71C131.503 167.429 127.487 165.663 126.02 164.638C124.552 163.614 125.116 162.258 127.217 162.438C129.318 162.618 135.185 163.788 136.881 165.472C138.577 167.155 141.604 168.892 141.869 171.963C142.006 172.934 143.392 172.301 143.392 172.301C143.392 172.301 143.752 174.564 142.68 174.603C141.608 174.643 130.847 169.544 130.847 169.544Z" fill="#EFC4B1"/>
        <path fill-rule="evenodd" clip-rule="evenodd" d="M136.917 173.606C134.601 172.108 131.522 172.194 129.89 172.432C128.258 172.669 131.282 178.137 130.454 180.528C129.627 182.92 141.601 176.634 136.917 173.606Z" fill="#FAD7CC"/>
        <path fill-rule="evenodd" clip-rule="evenodd" d="M133.334 171.254C133.426 170.079 133.182 166.886 127.479 167.614C122.498 168.241 117.44 167.533 112.818 165.563C112.484 165.416 112.118 165.358 111.755 165.393C111.392 165.428 111.044 165.555 110.744 165.763C110.444 165.971 110.201 166.252 110.039 166.58C109.877 166.908 109.801 167.273 109.819 167.639C110.107 172.386 112.594 177.467 112.73 177.642C112.901 177.862 120.512 184.743 129.217 184.476C135.874 177.09 133.114 174.081 133.334 171.254Z" fill="#EFC4B1"/>
        <path fill-rule="evenodd" clip-rule="evenodd" d="M110.199 170.395C110.735 172.908 111.585 175.343 112.728 177.642C112.899 177.861 120.51 184.743 129.215 184.475C114.613 178.634 111.165 173.879 110.199 170.395Z" fill="#CCA697"/>
        <path opacity="0.87" d="M86.6599 70.2969H108.533C108.844 70.2969 109.143 70.4213 109.364 70.6429C109.584 70.8644 109.708 71.1648 109.708 71.4781V74.6154C109.708 77.1133 108.721 79.509 106.963 81.2753C105.205 83.0416 102.821 84.0339 100.336 84.034H94.8571C92.3713 84.034 89.9873 83.0417 88.2296 81.2753C86.4719 79.509 85.4844 77.1134 85.4844 74.6154V71.4783C85.4844 71.3231 85.5148 71.1695 85.5738 71.0262C85.6329 70.8829 85.7195 70.7526 85.8286 70.6429C85.9378 70.5332 86.0674 70.4462 86.21 70.3868C86.3526 70.3274 86.5055 70.2969 86.6599 70.2969Z" fill="#92D6FF"/>
        <path fill-rule="evenodd" clip-rule="evenodd" d="M85.226 71.7656C85.7283 71.7656 86.1356 72.1749 86.1356 72.6797C86.1356 78.5891 90.087 83.1186 94.5698 83.1186H99.2135C101.881 83.1186 104.266 82.1668 105.982 80.4445C107.694 78.7262 108.798 76.1828 108.798 72.8903C108.798 72.3855 109.205 71.9763 109.707 71.9763C110.21 71.9763 110.617 72.3855 110.617 72.8903C110.617 76.6106 109.36 79.6383 107.268 81.7379C105.18 83.8336 102.318 84.9466 99.2135 84.9466H94.5698C88.7743 84.9466 84.3164 79.2585 84.3164 72.6797C84.3164 72.1749 84.7236 71.7656 85.226 71.7656Z" fill="black"/>
        <path fill-rule="evenodd" clip-rule="evenodd" d="M114.29 72.7858C114.291 73.2449 113.922 73.6182 113.465 73.6195C112.719 73.6217 112.005 73.9204 111.477 74.4504C110.95 74.9804 110.653 75.6986 110.65 76.4482C110.649 76.9072 110.278 77.2783 109.821 77.277C109.364 77.2756 108.995 76.9024 108.996 76.4433C109 75.2545 109.471 74.1155 110.308 73.2749C111.144 72.4343 112.278 71.9605 113.461 71.957C113.917 71.9557 114.289 72.3268 114.29 72.7858Z" fill="black"/>
        <path d="M78.4531 65.475L85.2269 75.7976V71.8815L78.4531 63.9688V65.475Z" fill="black"/>
        <path opacity="0.87" d="M132.069 84.0312H126.59C124.105 84.0312 121.721 83.0389 119.963 81.2726C118.205 79.5063 117.218 77.1106 117.218 74.6127V71.4755C117.218 71.3203 117.248 71.1667 117.307 71.0234C117.366 70.8801 117.453 70.7499 117.562 70.6402C117.671 70.5305 117.801 70.4435 117.943 70.3841C118.086 70.3247 118.239 70.2942 118.393 70.2942H140.266C140.42 70.2942 140.573 70.3247 140.716 70.3841C140.858 70.4435 140.988 70.5305 141.097 70.6402C141.206 70.7499 141.293 70.8801 141.352 71.0234C141.411 71.1667 141.441 71.3203 141.441 71.4755V74.6127C141.441 77.1107 140.454 79.5063 138.696 81.2726C136.938 83.0389 134.554 84.0312 132.069 84.0312Z" fill="#92D6FF"/>
        <path fill-rule="evenodd" clip-rule="evenodd" d="M141.7 71.7656C142.202 71.7656 142.609 72.1749 142.609 72.6797C142.609 79.2585 138.151 84.9466 132.356 84.9466H127.712C124.608 84.9466 121.746 83.8336 119.658 81.7379C117.566 79.6383 116.309 76.6106 116.309 72.8903C116.309 72.3855 116.716 71.9763 117.218 71.9763C117.721 71.9763 118.128 72.3855 118.128 72.8903C118.128 76.1828 119.232 78.7262 120.944 80.4445C122.66 82.1668 125.045 83.1186 127.712 83.1186H132.356C136.839 83.1186 140.79 78.5891 140.79 72.6797C140.79 72.1749 141.197 71.7656 141.7 71.7656Z" fill="black"/>
        <path fill-rule="evenodd" clip-rule="evenodd" d="M112.637 72.7858C112.638 72.3268 113.009 71.9557 113.466 71.957C114.649 71.9605 115.783 72.4343 116.619 73.2749C117.456 74.1155 117.927 75.2545 117.931 76.4433C117.932 76.9024 117.563 77.2756 117.106 77.277C116.649 77.2783 116.278 76.9072 116.276 76.4482C116.274 75.6986 115.977 74.9804 115.45 74.4504C114.922 73.9204 114.207 73.6217 113.461 73.6195C113.005 73.6182 112.635 73.2449 112.637 72.7858Z" fill="black"/>
        <path d="M151.65 65.475L141.699 75.7976V71.8815L151.65 63.9688V65.475Z" fill="black"/>
    </g>
    <defs>
        <clipPath id="clip0_4365_49864">
            <rect width="193" height="303" fill="white"/>
        </clipPath>
    </defs>
</svg>
