<svg xmlns="http://www.w3.org/2000/svg" width="95" height="40" viewBox="0 0 95 40" fill="none">
    <path d="M54.5299 28.7537C54.551 28.5943 54.537 28.4322 54.489 28.2787C54.4409 28.1253 54.36 27.9841 54.2519 27.8652C54.1438 27.7463 54.011 27.6524 53.8629 27.5901C53.7147 27.5279 53.5548 27.4987 53.3943 27.5047C52.6937 27.5047 52.2617 27.9707 52.2617 28.7537C52.2617 29.5368 52.6937 30.001 53.3943 30.001C54.0948 30.001 54.5299 29.5379 54.5299 28.7537ZM52.7424 28.747C52.7424 28.1938 53.0105 27.8598 53.3943 27.8598C53.778 27.8598 54.0506 28.1983 54.0506 28.747C54.0506 29.2957 53.778 29.6388 53.3943 29.6388C53.0105 29.6388 52.7424 29.3 52.7424 28.7468V28.747Z" fill="black"/>
    <path d="M50.8011 28.7537C50.8222 28.5944 50.8083 28.4323 50.7603 28.2789C50.7123 28.1255 50.6315 27.9844 50.5235 27.8655C50.4154 27.7465 50.2827 27.6526 50.1347 27.5903C49.9867 27.528 49.8268 27.4988 49.6664 27.5047C48.9654 27.5047 48.5352 27.9707 48.5352 28.7537C48.5352 29.5368 48.9658 30.001 49.6664 30.001C50.3669 30.001 50.8011 29.5379 50.8011 28.7537ZM49.0141 28.7469C49.0141 28.1937 49.2821 27.8598 49.6664 27.8598C50.0506 27.8598 50.3218 28.1982 50.3218 28.7469C50.3218 29.2956 50.0487 29.6387 49.6664 29.6387C49.284 29.6387 49.0141 29.3 49.0141 28.7468V28.7469Z" fill="black"/>
    <path d="M44.2477 27.907V27.5586H42.8516V29.9547H43.3287V28.9123H44.2053V28.559H43.3287V27.9065L44.2477 27.907Z" fill="black"/>
    <path d="M45.7617 27.5586V29.9547L47.1932 29.9525V29.5867H46.234V27.5586H45.7617Z" fill="black"/>
    <path d="M57.7572 28.1727C57.7572 27.7586 57.4641 27.5547 56.8807 27.5547H56.0977V29.9508H56.5636V28.9464H56.7106C56.8028 28.9317 56.8971 28.9523 56.9748 29.0042C57.0524 29.0561 57.1076 29.1355 57.1292 29.2263L57.3973 29.9508L57.8954 29.9513L57.5639 29.1195C57.4911 28.9361 57.4397 28.8163 57.2561 28.7568C57.3974 28.7397 57.5272 28.6703 57.62 28.5622C57.7127 28.4541 57.7617 28.3152 57.7572 28.1727ZM57.2836 28.2488C57.2836 28.4764 57.1143 28.6114 56.8051 28.6114H56.5639V27.891H56.7707C57.1183 27.891 57.2836 27.9974 57.2836 28.2488Z" fill="black"/>
    <path d="M72.5721 27.8991V27.5547H71.1094V29.9509L72.6078 29.9513V29.5886H71.5829V28.8874H72.5212V28.5359H71.5829V27.8991H72.5721Z" fill="black"/>
    <path d="M68.7312 29.0404C69.312 29.0404 69.6288 28.7604 69.6288 28.3011H69.627C69.627 27.7895 69.3268 27.5547 68.7129 27.5547H68.0039V29.9518H68.4766V29.0404H68.7312ZM68.4762 28.7009V27.8933H68.6969C68.9873 27.8933 69.1436 28.0417 69.1436 28.3011H69.145C69.145 28.556 68.9792 28.7009 68.6687 28.7009H68.4762Z" fill="black"/>
    <path d="M75.8672 28.1727C75.8672 27.7586 75.5732 27.5547 74.9915 27.5547H74.207V29.9508H74.6731V28.9464H74.8218C74.9139 28.9315 75.0081 28.9521 75.0856 29.0041C75.163 29.056 75.2179 29.1355 75.2391 29.2263L75.5072 29.9508L76.0053 29.9513L75.6747 29.1195C75.6014 28.9361 75.5492 28.8163 75.3668 28.7568C75.5082 28.7398 75.638 28.6704 75.7306 28.5623C75.8233 28.4541 75.872 28.3151 75.8672 28.1727ZM75.395 28.2496C75.395 28.4773 75.2252 28.6123 74.9143 28.6123H74.673V27.891H74.8803C75.2287 27.891 75.3954 27.9974 75.3954 28.2488L75.395 28.2496Z" fill="black"/>
    <path d="M77.2227 27.9267H77.8544V29.9547H78.3271V27.9267L78.965 27.9276V27.5586H77.2227V27.9267Z" fill="black"/>
    <path d="M64.865 29.9547L65.453 28.9606L66.0279 29.9547H66.5851L65.7533 28.6976L66.5055 27.5586H65.9909L65.4932 28.4602L64.9834 27.5586H64.4308L65.1867 28.6976L64.3438 29.9547H64.865Z" fill="black"/>
    <path d="M62.9592 27.8991V27.5547H61.4961V29.9509L62.9954 29.9513V29.5886H61.9679V28.8874H62.9061V28.5359H61.9679V27.8991H62.9592Z" fill="black"/>
    <path d="M40.9151 27.5508H16V27.9014H40.9151V27.5508Z" fill="black"/>
    <path d="M22.3572 17.2726L21.0446 21.4548H23.6511L22.3572 17.2726ZM25.1656 26.0378L24.5191 24.1488H20.1772L19.5125 26.0378H16L21.044 13H23.6683L28.714 26.0378H25.1656Z" fill="black"/>
    <path d="M34.6363 18.7206C32.788 18.7206 32.4024 19.344 32.4024 21.1601V26.0346H29.4453V16.1897H32.2179V17.5313C32.433 17.0589 32.787 16.6634 33.2326 16.3979C33.6783 16.1323 34.1943 16.0093 34.7117 16.0452V18.7222L34.6363 18.7206Z" fill="black"/>
    <path d="M41.1396 18.6115C40.5069 18.6068 39.8983 18.8539 39.4476 19.2984C38.9969 19.7428 38.741 20.3483 38.7363 20.9817C38.7361 21.0163 38.7366 21.051 38.7378 21.0857C38.725 21.7054 38.9586 22.3048 39.3873 22.7521C39.816 23.1994 40.4046 23.4579 41.0237 23.4707L41.0485 23.4711C41.3665 23.4899 41.6851 23.4458 41.9861 23.3414C42.287 23.237 42.5645 23.0742 42.8027 22.8624C43.0408 22.6506 43.2349 22.3939 43.3739 22.107C43.513 21.8201 43.5942 21.5086 43.6129 21.1903C43.6157 21.1432 43.6171 21.096 43.6171 21.0488C43.6102 20.3974 43.3458 19.7752 42.8818 19.3184C42.4178 18.8616 41.792 18.6073 41.1411 18.6111L41.1396 18.6115ZM44.7993 24.9377C43.9475 25.7009 42.839 26.1135 41.696 26.0928C41.1526 26.118 40.6099 26.0282 40.1035 25.8292C39.5971 25.6301 39.1383 25.3263 38.7572 24.9377V26.0375H35.9297V13H38.8681V17.2904C39.197 16.8761 39.6204 16.5467 40.1027 16.33C40.5851 16.1133 41.1123 16.0156 41.6402 16.045C42.2536 16.0409 42.8616 16.1587 43.4291 16.3916C43.9966 16.6246 44.5123 16.9679 44.9463 17.4018C45.4602 17.8901 45.8668 18.4804 46.1401 19.1348C46.4133 19.7893 46.5472 20.4936 46.5332 21.2028C46.5192 21.912 46.3576 22.6104 46.0587 23.2536C45.7599 23.8967 45.3303 24.4704 44.7975 24.9381" fill="black"/>
    <path d="M50.9316 16.1914H48.0312V23.0001H50.9316V16.1914Z" fill="black"/>
    <path d="M56.4039 18.3541V26.0373H53.4482V18.3543H52.1914V16.1903H53.4482V13H56.4039V16.1903H57.7165V18.3543L56.4039 18.3541Z" fill="black"/>
    <path d="M63.4423 18.6829C63.1285 18.6885 62.8189 18.7559 62.5311 18.8812C62.2434 19.0065 61.9831 19.1874 61.7652 19.4134C61.5472 19.6395 61.3759 19.9063 61.261 20.1986C61.1461 20.4909 61.0898 20.803 61.0954 21.1171V21.1228C61.1129 21.5831 61.2652 22.0281 61.5333 22.4025C61.8014 22.7769 62.1736 23.0641 62.6034 23.2286C63.0333 23.393 63.5019 23.4274 63.9512 23.3274C64.4004 23.2274 64.8103 22.9975 65.1301 22.6662C65.4498 22.3349 65.6653 21.9169 65.7496 21.4641C65.834 21.0112 65.7835 20.5436 65.6046 20.1192C65.4256 19.6948 65.126 19.3325 64.743 19.0771C64.36 18.8218 63.9104 18.6847 63.4502 18.683H63.4422L63.4423 18.6829ZM67.195 24.7529C66.7037 25.2519 66.1162 25.6458 65.4681 25.9106C64.8201 26.1754 64.1251 26.3057 63.4252 26.2935C62.7239 26.3134 62.0265 26.1828 61.3797 25.9107C60.7329 25.6386 60.1517 25.2312 59.6751 24.7158C58.7275 23.7469 58.2024 22.4413 58.2151 21.0854C58.2131 20.4126 58.3461 19.7462 58.6064 19.1259C58.8666 18.5056 59.2487 17.9439 59.73 17.4742C60.6995 16.5068 62.0067 15.9546 63.3755 15.9342C64.7442 15.9139 66.0673 16.427 67.065 17.3651C67.5721 17.8366 67.9778 18.4065 68.2575 19.0402C68.5372 19.6738 68.6849 20.3578 68.6917 21.0505C68.7104 21.7378 68.5872 22.4215 68.3296 23.0588C68.0721 23.6961 67.6858 24.2734 67.195 24.7543" fill="black"/>
    <path d="M76.0815 26.0558V20.7202C76.0815 19.3441 75.7871 18.7221 74.6586 18.7221C73.5126 18.7221 72.9024 19.3996 72.9024 20.7202V26.0558H70.0391V16.2088H72.809L72.7724 17.5281C73.0633 17.0405 73.4825 16.6424 73.9843 16.3774C74.4861 16.1123 75.0511 15.9906 75.6174 16.0254C77.668 16.0254 78.9994 17.3094 78.9994 19.5651V26.0558H76.0815Z" fill="black"/>
    <path d="M50.9238 23.7422H48.0234V26.0345H50.9238V23.7422Z" fill="#F27C00"/>
</svg>