<svg xmlns="http://www.w3.org/2000/svg" width="73" height="40" viewBox="0 0 73 40" fill="none">
    <path d="M50.2502 30.0222H22.7054C21.2793 29.195 20.0928 28.0212 19.2594 26.6132C18.4259 25.2052 17.9735 23.61 17.9453 21.9805C17.9453 15.7305 26.048 8.85547 36.5412 8.85547C47.0345 8.85547 55.116 15.6888 55.116 21.9805C55.0853 23.6219 54.6203 25.227 53.7669 26.6373C52.9136 28.0476 51.7014 29.2143 50.2502 30.0222Z" fill="white"/>
    <path d="M54.6939 22C54.6939 16.0208 46.8663 9.2917 36.4999 9.2917C26.1336 9.2917 18.3271 16.0208 18.3271 22C18.3549 23.5651 18.7919 25.0967 19.5961 26.447C20.4002 27.7973 21.5443 28.9205 22.9179 29.7083H49.9973C51.392 28.9352 52.5584 27.8179 53.3818 26.4664C54.2053 25.1149 54.6574 23.5757 54.6939 22ZM56.9999 22C56.9549 24.0753 56.3414 26.1 55.2243 27.8603C54.1071 29.6205 52.5277 31.0508 50.6531 32H22.2198C20.3747 31.0273 18.8259 29.5881 17.7328 27.8306C16.6396 26.0731 16.0415 24.0606 16 22C16 14.1875 25.4989 7 36.4999 7C47.5009 7 56.9999 14.2083 56.9999 22Z" fill="#010101"/>
    <path d="M45.1313 28.1472H41.3867V11.293C42.8474 11.5946 44.2674 12.063 45.6179 12.6888V14.8972C44.9374 14.5998 44.2288 14.3695 43.5023 14.2097V18.3763C44.8089 18.6705 46.0895 19.0676 47.3315 19.5638V21.5847C46.0868 21.1172 44.8064 20.748 43.5023 20.4805V26.3763H45.2159L45.1313 28.1472Z" fill="#010101"/>
    <path d="M50.9068 27.1862L49.849 24.1028L48.0296 28.1445H45.9141L49.0028 21.1237L46.443 13.082C47.3969 13.5604 48.3035 14.1253 49.1509 14.7695L50.1452 18.1237L50.9068 16.3737C51.4375 16.9414 51.9055 17.5629 52.3031 18.2278L51.0549 21.2278L52.4723 25.2487C52.053 25.9688 51.5252 26.622 50.9068 27.1862Z" fill="#010101"/>
    <path d="M19.7246 21.1862C19.6185 22.3559 19.8017 23.5336 20.2586 24.6184C20.7154 25.7032 21.4323 26.6629 22.3479 27.4153L23.3845 25.7487C22.8059 25.0308 22.329 24.2389 21.9671 23.3945L24.0827 22.3737V28.2695H26.1983V13.3945C22.9826 15.1237 20.1054 17.7903 19.7246 21.1862ZM23.9557 19.9987L21.8402 21.1445C22.0481 19.6792 22.8022 18.3425 23.9557 17.3945V19.9987Z" fill="#010101"/>
    <path d="M33.0506 17.6649V12.2482C33.0821 12.1247 33.087 11.996 33.0652 11.8705C33.0433 11.7449 32.9951 11.6253 32.9237 11.5191C32.6989 11.3359 32.4106 11.2462 32.1198 11.2691C30.5232 11.6016 28.9742 12.1263 27.5078 12.8316V28.1441H29.6234V20.4774C29.8633 20.3859 30.1111 20.3162 30.3638 20.2691C30.5009 20.2435 30.6427 20.2702 30.7605 20.3437C30.8783 20.4172 30.9634 20.532 30.9985 20.6649V28.1441H33.1141V19.6441C33.1141 19.0191 32.3525 18.7066 32.3525 18.7066C32.5656 18.6277 32.7478 18.4844 32.8732 18.2973C32.9986 18.1102 33.0607 17.8889 33.0506 17.6649ZM30.6389 17.9982L29.5811 18.3524V14.1857L30.4908 13.7691C30.4908 13.7691 30.935 13.5607 30.935 13.9774V17.5816C30.9432 17.6742 30.9181 17.7668 30.8639 17.8429C30.8097 17.9191 30.7301 17.9741 30.6389 17.9982Z" fill="#010101"/>
    <path d="M38.6569 10.9592C37.25 10.8209 35.8327 10.8209 34.4258 10.9592V28.1467H39.1224C39.9474 28.1467 39.9474 26.9592 39.9474 26.9592V12.5217C39.9628 12.1511 39.8401 11.7877 39.6025 11.5C39.3648 11.2122 39.0285 11.0199 38.6569 10.9592ZM37.8319 25.7509C37.8319 25.7509 37.8319 26.3134 37.4511 26.3134H36.499V12.8551H37.4511C37.4511 12.8551 37.8319 12.8551 37.8319 13.3759V25.7509Z" fill="#010101"/>
</svg>