<svg xmlns="http://www.w3.org/2000/svg" width="117" height="40" viewBox="0 0 117 40" fill="none">
    <path d="M16 25.9999L18.5902 14.9001C18.6647 14.3506 18.9673 13.848 19.4357 13.4956C19.9042 13.1431 20.503 12.9676 21.109 13.0049H30.6974L30.0082 15.9397H23.4616C23.2174 15.9185 22.9741 15.9864 22.7848 16.1285C22.5955 16.2705 22.4757 16.4753 22.4516 16.6977L22.0358 18.5062H27.8102L27.1092 21.4408H21.3348L20.2773 25.9999H16Z" fill="#97BF0D"/>
    <path d="M31.0644 16.8477H34.7833L32.6447 25.9983H28.9258L31.0644 16.8477Z" fill="#97BF0D"/>
    <path d="M31.2812 15.9386L31.9704 13.0039H35.6774L34.9883 15.9386H31.2812Z" fill="#97BF0D"/>
    <path d="M35.7811 18.7545C35.8528 18.203 36.1542 17.6978 36.623 17.3432C37.0917 16.9885 37.6921 16.8114 38.3 16.8486H42.9575C44.9298 16.8486 46.213 17.8015 46.213 19.4259C46.2119 19.7204 46.1801 20.0141 46.118 20.3031L44.7991 25.9992H41.0802L42.2684 21.1694C42.3256 20.9053 42.3574 20.6372 42.3634 20.368C42.3634 19.5234 41.8287 19.2851 40.6168 19.2851H40.1178C39.5475 19.2851 39.3218 19.4584 39.2148 19.9782L37.789 25.9992H34.082L35.7811 18.7545Z" fill="#97BF0D"/>
    <path d="M50.4551 26.0011C48.0788 26.0011 46.8906 25.1564 46.8906 23.1855C46.8911 22.4558 46.9868 21.7287 47.1758 21.0197C48.1501 17.0887 49.3739 16.7422 53.7343 16.7422C56.8592 16.7422 58.4869 17.1754 58.4869 19.2545C58.4863 19.7684 58.4226 20.2805 58.2968 20.7814C58.0117 21.8644 57.5245 22.5032 56.1938 22.5032H50.7283C50.6936 22.6236 50.6737 22.7471 50.6689 22.8714C50.6689 23.4562 51.1798 23.6403 52.2967 23.6403H57.1681L56.5503 26.0011H50.4551ZM53.9007 20.3699C54.5066 20.3699 54.5898 20.1533 54.6373 19.9476C54.6473 19.8612 54.6473 19.7741 54.6373 19.6877C54.6373 19.1463 53.6512 19.1029 53.1284 19.1029C51.9402 19.1029 51.3937 19.2329 51.1323 20.3699H53.9007Z" fill="#97BF0D"/>
    <path d="M58.168 25.9999L60.7581 14.9001C60.8327 14.3506 61.1353 13.848 61.6037 13.4956C62.0722 13.1431 62.6709 12.9676 63.277 13.0049H72.8535L72.1762 15.9397H65.6295C65.3854 15.9185 65.142 15.9864 64.9527 16.1285C64.7634 16.2705 64.6437 16.4753 64.6196 16.6977L64.2038 18.5062H69.9781L69.2771 21.4408H63.5265L62.4453 25.9999H58.168Z" fill="#00B1E6"/>
    <path d="M73.9321 13.0039H77.651L74.6212 25.9987H70.9023L73.9321 13.0039Z" fill="#00B1E6"/>
    <path d="M80.2208 26.0011C77.8445 26.0011 76.6562 25.1564 76.6562 23.1855C76.6568 22.4558 76.7526 21.7287 76.9415 21.0197C77.9039 17.0887 79.1396 16.7422 83.5001 16.7422C86.613 16.7422 88.2527 17.1754 88.2527 19.2545C88.2521 19.7684 88.1883 20.2805 88.0626 20.7814C87.7774 21.8644 87.2902 22.5032 85.9594 22.5032H80.4941C80.4536 22.6225 80.4336 22.7466 80.4347 22.8714C80.4347 23.4562 80.9456 23.6403 82.0624 23.6403H86.9219L86.3754 26.0011H80.2208ZM83.7852 20.3699C84.3912 20.3699 84.4625 20.1533 84.5219 19.9476C84.5319 19.8612 84.5319 19.7741 84.5219 19.6877C84.5219 19.1463 83.5357 19.1029 83.0011 19.1029C81.8129 19.1029 81.2782 19.2329 81.0169 20.3699H83.7852Z" fill="#00B1E6"/>
    <path d="M95.0459 25.9983L93.8577 23.4101L91.3388 25.9983H86.8477L91.921 21.3093L89.2952 16.8477H93.3231L94.4161 19.1976L96.5905 16.8477H100.998L96.2459 21.3093L99.1687 25.9983H95.0459Z" fill="#00B1E6"/>
</svg>