<svg xmlns="http://www.w3.org/2000/svg" width="123" height="40" viewBox="0 0 123 40" fill="none">
    <path d="M16 25.8592L17.79 20.0579L18.9523 16.1255L19.2894 15.0452C19.4589 14.4291 19.8533 13.8868 20.4053 13.5111C20.9328 13.1522 21.5772 12.9729 22.2301 13.0033H31.401L30.506 15.9094H24.0201C23.7915 15.8928 23.5642 15.9541 23.3809 16.0823C23.1709 16.2408 23.0271 16.4624 22.974 16.7088L22.4394 18.4049H28.0418L27.205 21.1058H21.6025L20.1496 25.8592H16Z" fill="#97BF0D"/>
    <path d="M56.2305 25.8592L58.0205 20.0578L59.2409 16.1254L59.578 15.0451C59.7366 14.4471 60.1046 13.915 60.6241 13.5326C61.1629 13.1596 61.8245 12.9725 62.4955 13.0033H71.5152L70.6319 15.9093H64.2506C64.022 15.8927 63.7947 15.9542 63.6113 16.0822C63.4057 16.2424 63.2661 16.4638 63.2161 16.7088L62.6698 18.405H68.3072L67.4703 21.1057H61.8329L60.38 25.8592H56.2305Z" fill="#00B1E6"/>
    <path d="M31.4944 15.9087L32.1104 13.9102H35.7601L35.1557 15.9087H31.4944ZM31.2154 16.8162H34.807L32.029 25.8693H28.4258L31.2154 16.8162Z" fill="#97BF0D"/>
    <path d="M32.3895 13.0039L31.7734 15.0025H35.3651L35.9811 13.0039H32.3895Z" fill="#97BF0D"/>
    <path d="M35.4109 18.4032C35.5189 17.9719 35.7863 17.5896 36.1664 17.3228C36.8592 16.9184 37.6771 16.7397 38.4911 16.815H41.8735C42.411 16.7515 42.9569 16.7895 43.4782 16.9269C43.9995 17.0643 44.4856 17.2982 44.9072 17.6145C45.2231 17.9884 45.4254 18.4342 45.4928 18.9054C45.5603 19.3766 45.4905 19.8561 45.2908 20.2937L43.5705 25.8682H39.9673L41.3388 21.266C41.5731 20.7748 41.6021 20.2203 41.4202 19.7103C41.2226 19.343 40.8274 19.1702 40.0951 19.1702H39.4558C39.2637 19.1598 39.0728 19.2051 38.9095 19.2998C38.7351 19.4272 38.6223 19.6137 38.5957 19.8184L36.7243 25.8682H33.1211L35.4109 18.4032Z" fill="#97BF0D"/>
    <path d="M48.361 25.8682C46.908 25.8682 45.676 25.8682 45.2691 24.6798C45.0483 24.0317 45.2691 23.081 45.769 21.4389C46.2688 19.7968 46.6058 18.4356 47.7449 17.593C48.884 16.7503 50.7786 16.707 52.6151 16.707C54.4516 16.707 55.8581 16.707 56.4509 17.3229C57.0436 17.9386 56.8693 19.3755 56.5555 20.3585C56.4427 21.0125 56.0744 21.605 55.521 22.0223C55.2157 22.211 54.8525 22.302 54.4865 22.2815H49.1165C49.0375 22.5209 49.0375 22.7768 49.1165 23.0162C49.2908 23.4699 49.9534 23.4375 50.6043 23.4375H55.3234L54.5795 25.8682H48.361ZM52.4292 20.1533C52.5974 20.1744 52.7681 20.1378 52.9093 20.0503C53.0505 19.9628 53.1526 19.8304 53.1963 19.678C53.266 19.4403 53.1963 19.1703 52.7197 19.0622C52.4115 19.0226 52.101 19.001 51.7899 18.9974C51.3497 18.9759 50.909 19.0271 50.4881 19.1486C50.2923 19.2503 50.1263 19.3951 50.0048 19.5703C49.8832 19.7454 49.8097 19.9456 49.7906 20.1533H52.4292Z" fill="#97BF0D"/>
    <path d="M72.2237 13.9102H75.8269L72.1423 25.8586H68.5391L72.2237 13.9102Z" fill="#00B1E6"/>
    <path d="M72.501 13.0039L68.8164 24.9632H72.4197L76.1043 13.0039H72.501Z" fill="#00B1E6"/>
    <path d="M85.5188 17.6268C86.4138 18.6423 85.9372 20.4357 85.6582 21.3432C85.3012 22.7901 84.4488 24.0903 83.229 25.0486C81.8162 25.7882 80.1939 26.1087 78.5796 25.9669C77.0337 25.9669 75.325 25.9129 74.523 25.0486C73.721 24.1844 74.1046 22.2398 74.3836 21.3432C74.7327 19.8902 75.5863 18.5843 76.8128 17.6268C78.2256 16.8872 79.8479 16.5668 81.4622 16.7086C83.0081 16.7086 84.7168 16.7086 85.5188 17.6268ZM77.9519 22.9312C77.9519 23.0284 78.2541 23.547 79.3584 23.547C80.0006 23.5626 80.6233 23.3413 81.0903 22.9312C81.5193 22.4794 81.8155 21.9325 81.9504 21.3432C82.1834 20.8275 82.2363 20.2569 82.1015 19.7118C81.9853 19.4958 81.6714 19.1393 80.6834 19.1393C80.0328 19.1062 79.3943 19.3118 78.9051 19.7118C78.4784 20.1802 78.1865 20.7414 78.0565 21.3432C77.822 21.8435 77.773 22.4021 77.9171 22.9312" fill="#00B1E6"/>
    <path d="M97.4215 17.6255C98.3281 18.641 97.8516 20.4343 97.5726 21.3418C97.2155 22.7887 96.3631 24.089 95.1433 25.0474C93.7292 25.7837 92.108 26.1039 90.494 25.9656C88.9597 25.9656 87.2394 25.9116 86.449 25.0474C85.6586 24.183 86.0189 22.2385 86.2979 21.3418C86.6519 19.8906 87.5046 18.5861 88.7272 17.6255C90.1413 16.8891 91.7625 16.5689 93.3766 16.7072C94.9108 16.7072 96.6311 16.7072 97.4215 17.6255ZM89.8547 22.9298C89.8547 23.0272 90.1685 23.5457 91.2727 23.5457C91.5964 23.5565 91.9191 23.5077 92.2224 23.402C92.5256 23.2964 92.8033 23.1359 93.0395 22.9298C93.4515 22.4706 93.7385 21.9259 93.8764 21.3418C94.1153 20.8273 94.1644 20.2537 94.0158 19.7105C93.9112 19.4944 93.5974 19.1379 92.5978 19.1379C91.9475 19.1073 91.3099 19.3126 90.8194 19.7105C90.3973 20.1816 90.106 20.7418 89.9709 21.3418C89.7431 21.8437 89.6942 22.4003 89.8314 22.9298" fill="#00B1E6"/>
    <path d="M98.6783 20.6192C98.9546 19.4332 99.6911 18.3833 100.747 17.6699C101.915 17.0371 103.257 16.7401 104.606 16.8164H107.001L106.268 19.1716H105.025C104.658 19.1444 104.289 19.1879 103.941 19.2994C103.593 19.411 103.273 19.5881 103.002 19.8198C102.519 20.308 102.179 20.9031 102.014 21.5483L100.689 25.8695H97.0859L98.6783 20.6192Z" fill="#00B1E6"/>
</svg>