<svg xmlns="http://www.w3.org/2000/svg" width="98" height="40" viewBox="0 0 98 40" fill="none">
    <path d="M42.9449 17.8547L49.5215 10.7499L47.68 9L41.1211 16.2097L42.9449 17.8547Z" fill="#E1027A"/>
    <path d="M49.4374 17.8571L56.0665 10.7523L54.3127 9.08984L47.6836 16.2122L49.4374 17.8571Z" fill="#E1027A"/>
    <path d="M56.1716 17.8571L62.748 10.7523L60.9943 9.08984L54.3477 16.2122L56.1014 17.8571H56.1716Z" fill="#E1027A"/>
    <path d="M59.9599 25.2561C59.9596 25.5391 59.8467 25.8104 59.646 26.0104C59.4452 26.2104 59.1731 26.3226 58.8896 26.3225C58.6059 26.3223 58.334 26.2097 58.1335 26.0096C57.9329 25.8094 57.8203 25.538 57.8203 25.255C57.8203 24.972 57.9329 24.7006 58.1335 24.5004C58.334 24.3002 58.6059 24.1877 58.8896 24.1875C59.1731 24.1874 59.4452 24.2996 59.646 24.4996C59.8467 24.6995 59.9596 24.9709 59.9599 25.2538V25.2561Z" fill="#E1027A"/>
    <path d="M35.1593 20.3555V25.4653C35.2369 26.0355 35.1926 26.6157 35.0294 27.1677C34.8661 27.7196 34.5877 28.2308 34.2123 28.6677C33.3681 29.3665 32.2912 29.7225 31.1958 29.6651C30.1008 29.7208 29.0246 29.3649 28.1795 28.6677C27.8041 28.2308 27.5256 27.7196 27.3624 27.1677C27.1992 26.6157 27.1549 26.0355 27.2324 25.4653V20.3555H29.5999V25.1328C29.5999 26.3228 29.6 27.6002 31.1958 27.6002C32.7917 27.6002 32.8093 26.3228 32.8093 25.1328V20.3555H35.1593Z" fill="#054694"/>
    <path d="M39.0219 29.4377H36.6719V20.3555H39.0219V29.4377Z" fill="#054694"/>
    <path d="M47.072 23.4032C46.8298 23.0865 46.5162 22.8312 46.1567 22.6578C45.7972 22.4845 45.4018 22.3982 45.0026 22.4057C44.6871 22.403 44.3741 22.4624 44.0816 22.5803C43.7891 22.6983 43.5227 22.8726 43.2977 23.0933C43.0727 23.314 42.8935 23.5768 42.7702 23.8666C42.647 24.1564 42.5822 24.4676 42.5794 24.7824C42.5794 24.8301 42.5804 24.8778 42.5824 24.9257C42.5659 25.2332 42.6102 25.541 42.7129 25.8315C42.8156 26.1219 42.9746 26.3894 43.1809 26.6185C43.3872 26.8477 43.6368 27.034 43.9152 27.1669C44.1936 27.2998 44.4957 27.3766 44.8039 27.3931C44.8818 27.3973 44.9598 27.3975 45.0377 27.3939C45.421 27.3987 45.801 27.3214 46.1519 27.1673C46.5028 27.0132 46.8166 26.7859 47.072 26.5006V29.3355C46.4018 29.5806 45.6981 29.7222 44.9851 29.7555C43.7214 29.75 42.5063 29.2688 41.5828 28.408C41.0936 27.9694 40.7077 27.428 40.453 26.8229C40.1983 26.2178 40.081 25.5639 40.1097 24.9081C40.1042 23.6658 40.5893 22.4713 41.46 21.5832C41.9179 21.1186 42.4638 20.7492 43.066 20.4969C43.668 20.2446 44.3144 20.1141 44.9675 20.1133C45.7116 20.1198 46.4462 20.2808 47.1246 20.5858L47.072 23.4032Z" fill="#054694"/>
    <path d="M53.7867 20.3555H56.7154L53.1027 24.7479L57.0486 29.5252H53.9796L50.928 25.5003V29.4377H48.543V20.3555H50.9105V24.1003L53.7867 20.3555Z" fill="#054694"/>
    <path d="M66.5538 22.7018C66.1234 22.3185 65.5698 22.1013 64.993 22.0893C64.5545 22.0893 63.9758 22.3518 63.9758 22.8593C63.9758 23.3668 64.6247 23.5768 65.0281 23.7168L65.6244 23.8918C66.9046 24.2768 67.8691 24.9068 67.8691 26.3767C67.903 26.828 67.8373 27.2813 67.6767 27.7045C67.5161 28.1278 67.2646 28.5108 66.9397 28.8267C66.2002 29.404 65.2827 29.707 64.3441 29.6841C63.1967 29.6734 62.0811 29.3064 61.1523 28.6341L62.1695 26.7442C62.7348 27.2982 63.4828 27.6278 64.2739 27.6717C64.8176 27.6717 65.4139 27.4092 65.4139 26.7617C65.4139 26.1142 64.4844 25.8692 63.9758 25.7293C62.4851 25.3093 61.5206 24.9242 61.5206 23.1568C61.505 22.7452 61.5761 22.335 61.7295 21.9526C61.8829 21.5703 62.1152 21.2244 62.4111 20.9373C62.7071 20.6502 63.0602 20.4284 63.4475 20.2862C63.835 20.144 64.2479 20.0846 64.6598 20.1119C65.6533 20.1336 66.6273 20.3916 67.5009 20.8644L66.5538 22.7018Z" fill="#054694"/>
    <path d="M72.6072 29.4377H70.2572V22.4379H68.293V20.3555H74.5714V22.3504H72.6072V29.4377Z" fill="#054694"/>
    <path d="M77.795 22.3504V23.8729H80.4607V25.8678H77.795V27.4427H80.601V29.4377H75.3398V20.3555H80.601V22.3504H77.795Z" fill="#054694"/>
    <path d="M23.2892 26.2718C23.5669 25.8775 23.7141 25.4063 23.71 24.9243C23.7057 24.2478 23.4381 23.5994 22.9636 23.1162C22.4891 22.6329 21.845 22.3526 21.1672 22.3344C20.5056 22.3244 19.8659 22.5702 19.3821 23.0204C18.8982 23.4706 18.6078 24.0902 18.5716 24.7494C18.5578 25.0915 18.6117 25.433 18.7301 25.7544C18.8485 26.0758 19.0293 26.3707 19.2619 26.6223C19.4946 26.874 19.7747 27.0775 20.0862 27.2212C20.3977 27.3649 20.7345 27.4459 21.0773 27.4597L21.1672 27.4618C21.4121 27.4623 21.6553 27.4208 21.8862 27.3393L20.4305 25.9043L22.6578 25.6244L23.2892 26.2718ZM24.3765 29.9992L23.6399 29.1418C22.8813 29.5671 22.019 29.7731 21.1496 29.7367C20.4883 29.7764 19.8258 29.6807 19.2029 29.4555C18.58 29.2303 18.0099 28.8804 17.5276 28.4271C17.0452 27.9739 16.6609 27.427 16.3983 26.8202C16.1355 26.2133 16 25.5592 16 24.8981C16 24.2371 16.1355 23.5829 16.3983 22.976C16.6609 22.3691 17.0452 21.8223 17.5276 21.3691C18.0099 20.9159 18.58 20.566 19.2029 20.3407C19.8258 20.1155 20.4883 20.0198 21.1496 20.0595C21.7751 20.0249 22.4013 20.1135 22.9924 20.3204C23.5836 20.5272 24.1281 20.8481 24.595 21.265C25.0618 21.6818 25.4417 22.1863 25.7131 22.7496C25.9846 23.313 26.1422 23.9242 26.1769 24.5483C26.1837 24.6735 26.1856 24.7988 26.1828 24.9243C26.1749 26.0901 25.7592 27.2166 25.0079 28.1093L26.5336 29.6667L24.3765 29.9992Z" fill="#054694"/>
    <path d="M84.5099 24.5203H84.8958C85.7555 24.5203 86.6497 24.5203 86.6497 23.4178C86.6497 22.3154 85.8781 22.2629 84.8958 22.2629H84.5099V24.5203ZM82.0547 20.3555H85.6678C87.6317 20.3555 88.9821 21.2654 88.9821 23.3479C89.031 23.7795 88.9805 24.2164 88.8339 24.6256C88.6882 25.0347 88.4506 25.4052 88.1393 25.709C87.8279 26.0127 87.452 26.2416 87.0389 26.3782C86.6257 26.515 86.1861 26.5558 85.7547 26.4978H84.5099V29.5077H82.0547V20.3555Z" fill="#054694"/>
    <path d="M92.0347 21.3529C92.1572 21.3529 92.2276 21.3529 92.2276 21.178C92.2276 21.0029 92.0869 21.0554 91.9643 21.0554H91.7184V21.3529H92.0347ZM92.4205 22.0004H92.1572L91.894 21.5104H91.7184V22.0004H91.5255V20.863H92.0695C92.3328 20.863 92.5083 20.863 92.5083 21.2129C92.5124 21.2471 92.5108 21.2818 92.5025 21.3152C92.4942 21.3486 92.4793 21.3801 92.4586 21.4077C92.4379 21.4353 92.4114 21.4586 92.3824 21.4762C92.3526 21.4939 92.3195 21.5055 92.2856 21.5104C92.2599 21.5141 92.2351 21.5141 92.2094 21.5104L92.4205 22.0004ZM92.736 21.4405C92.7385 21.3347 92.7194 21.2295 92.6813 21.131C92.6424 21.0325 92.5853 20.9424 92.5124 20.8661C92.4388 20.7896 92.351 20.7284 92.2541 20.6859C92.1572 20.6433 92.0529 20.6202 91.9469 20.618H91.9113C91.6928 20.618 91.4833 20.7046 91.3285 20.8589C91.1744 21.0131 91.0875 21.2223 91.0875 21.4405C91.0875 21.6586 91.1744 21.8677 91.3285 22.0221C91.4833 22.1763 91.6928 22.2629 91.9113 22.2629C92.0173 22.2652 92.1233 22.2467 92.2218 22.2084C92.3204 22.1701 92.4106 22.1127 92.4876 22.0396C92.5638 21.9664 92.625 21.879 92.6681 21.7822C92.7103 21.6854 92.7335 21.5811 92.736 21.4754C92.736 21.4637 92.736 21.4518 92.736 21.4405ZM90.8242 21.4405C90.8242 21.2258 90.888 21.0161 91.0072 20.8377C91.1273 20.6592 91.297 20.5202 91.4957 20.438C91.6944 20.356 91.913 20.3345 92.1241 20.3763C92.3344 20.4182 92.5282 20.5215 92.6805 20.6732C92.8329 20.825 92.9364 21.0183 92.9778 21.2288C93.02 21.4392 92.9985 21.6574 92.9165 21.8557C92.8337 22.0539 92.6946 22.2233 92.5158 22.3426C92.3369 22.4618 92.1266 22.5254 91.9113 22.5254C91.6232 22.5254 91.3467 22.4111 91.143 22.2076C90.9385 22.0042 90.8242 21.7281 90.8242 21.4405Z" fill="#054694"/>
</svg>