<svg xmlns="http://www.w3.org/2000/svg" width="32" height="32" viewBox="0 0 32 32" fill="none">
    <path fill-rule="evenodd" clip-rule="evenodd" d="M16.2542 8.239L16 4H20C24.4183 4 28 7.58172 28 12V16L23.761 15.7458C19.7197 15.5035 16.4965 12.2803 16.2542 8.239ZM16 28L16.2542 23.761C16.4965 19.7197 19.7197 16.4965 23.761 16.2542L28 16V20C28 24.4183 24.4183 28 20 28H16ZM4 16L8.23899 16.2542C12.2803 16.4965 15.5035 19.7197 15.7458 23.761L16 28H12C7.58172 28 4 24.4183 4 20V16ZM4 16V12C4 7.58172 7.58172 4 12 4H16L15.7458 8.23899C15.5035 12.2803 12.2803 15.5035 8.239 15.7458L4 16Z" fill="#4E5359"/>
</svg>