<svg width="32" height="32" viewBox="0 0 32 32" fill="none" xmlns="http://www.w3.org/2000/svg">
    <path d="M7.27614 15.0433C9.14654 14.0131 11.2344 13.1532 13.1852 12.2889C16.5413 10.8733 19.9108 9.48223 23.3143 8.18717C23.9765 7.96651 25.1663 7.75075 25.2829 8.73205C25.219 10.1211 24.9562 11.502 24.776 12.883C24.3185 15.9198 23.7897 18.9462 23.274 21.973C23.0963 22.9812 21.8333 23.5031 21.0252 22.8579C19.0831 21.5461 17.126 20.247 15.2087 18.9047C14.5806 18.2665 15.163 17.35 15.7239 16.8943C17.3235 15.3179 19.0199 13.9786 20.5359 12.3207C20.9449 11.3332 19.7366 12.1654 19.338 12.4205C17.1482 13.9295 15.0119 15.5307 12.7031 16.857C11.5238 17.5062 10.1492 16.9514 8.97043 16.5892C7.91351 16.1515 6.3647 15.7107 7.27603 15.0434L7.27614 15.0433Z" fill="white"/>
</svg>
