<svg xmlns="http://www.w3.org/2000/svg" width="32" height="32" viewBox="0 0 32 32" fill="none">
    <path fill-rule="evenodd" clip-rule="evenodd" d="M22.2011 10.3662C22.9354 10.5677 23.5137 11.1615 23.71 11.9155C24.0667 13.282 24.0667 16.1333 24.0667 16.1333C24.0667 16.1333 24.0667 18.9845 23.71 20.3512C23.5137 21.1052 22.9354 21.6989 22.2011 21.9005C20.8703 22.2667 15.5333 22.2667 15.5333 22.2667C15.5333 22.2667 10.1964 22.2667 8.8655 21.9005C8.13115 21.6989 7.55282 21.1052 7.35656 20.3512C7 18.9845 7 16.1333 7 16.1333C7 16.1333 7 13.282 7.35656 11.9155C7.55282 11.1615 8.13115 10.5677 8.8655 10.3662C10.1964 10 15.5333 10 15.5333 10C15.5333 10 20.8703 10 22.2011 10.3662ZM13.9336 13.7344V19.0677L18.2003 16.4011L13.9336 13.7344Z" fill="#4E5359"/>
</svg>