<svg xmlns="http://www.w3.org/2000/svg" width="119" height="56" viewBox="0 0 119 56" fill="none">
    <path fill-rule="evenodd" clip-rule="evenodd" d="M30.25 11H79.0528L88.75 25.5458V40.5H81.0178C79.9338 42.5799 77.7577 44 75.25 44C72.7423 44 70.5662 42.5799 69.4822 40.5H49.5178C48.4338 42.5799 46.2577 44 43.75 44C41.2423 44 39.0662 42.5799 37.9822 40.5H30.25V11ZM37.25 37.5C37.25 33.9101 40.1601 31 43.75 31C47.3399 31 50.25 33.9101 50.25 37.5H68.75C68.75 33.9101 71.6601 31 75.25 31C78.8399 31 81.75 33.9101 81.75 37.5H85.75V27.5H69.75V14H33.25V37.5H37.25ZM72.75 14V24.5H84.4472L77.4472 14H72.75ZM35.25 16.5H44.25V29.5H35.25V16.5ZM38.25 19.5V26.5H41.25V19.5H38.25ZM49.25 16.5H57.75V19.5H52.25V21.5H57.75V29.5H49.25V26.5H54.75V24.5H49.25V16.5ZM62.25 24H59.75V21H67.75V24H65.25V29.5H62.25V24ZM45.25 30.5V27.5H48.25V30.5H45.25ZM43.75 34C41.817 34 40.25 35.567 40.25 37.5C40.25 39.433 41.817 41 43.75 41C45.683 41 47.25 39.433 47.25 37.5C47.25 35.567 45.683 34 43.75 34ZM75.25 34C73.317 34 71.75 35.567 71.75 37.5C71.75 39.433 73.317 41 75.25 41C77.183 41 78.75 39.433 78.75 37.5C78.75 35.567 77.183 34 75.25 34Z" fill="#CACDD1"/>
</svg>