<svg xmlns="http://www.w3.org/2000/svg" width="24" height="24" viewBox="0 0 24 24" fill="none">
    <path fill-rule="evenodd" clip-rule="evenodd" d="M16 13H20V9H16V13ZM20 17H19.388C18.839 16.39 17.968 16 17.083 16C16.731 16 16 16.072 16 16.184V15H20V17ZM17.167 20C16.615 20 16.167 19.551 16.167 19C16.167 18.449 16.615 18 17.167 18C17.718 18 18.167 18.449 18.167 19C18.167 19.551 17.718 20 17.167 20ZM14 17H11.65C11.204 15.278 9.57 14 7.708 14C6.097 14 5 14.958 4 16.331V4H14V17ZM9.513 19C9.167 19.595 8.529 20 7.792 20C7.055 20 6.417 19.595 6.07 19C5.898 18.705 5.792 18.366 5.792 18C5.792 17.634 5.898 17.295 6.07 17C6.417 16.405 7.055 16 7.792 16C8.529 16 9.166 16.405 9.513 17C9.686 17.295 9.792 17.634 9.792 18C9.792 18.366 9.686 18.705 9.513 19ZM16 7V2H2V19H3.933C4.379 20.722 5.93 22 7.792 22C9.653 22 11.204 20.722 11.65 19H14.167C14.167 20.657 15.51 22 17.167 22C18.824 22 20.167 20.657 20.167 19H22V7H16Z" fill="white"/>
</svg>