<svg xmlns="http://www.w3.org/2000/svg" width="24" height="24" viewBox="0 0 24 24" fill="none">
    <path d="M3 9L3 21L21 21L21 3L9 3M3 9L9 9L9 3M3 9L9 3" stroke="#171717" stroke-width="2"/>
    <path d="M14.513 14.1975C15.0696 14.1975 15.4812 14.3171 15.742 14.5562C16.0029 14.7954 16.1304 15.1541 16.1304 15.6384L16.1304 16.8939L17 16.8939L17 18L13 18L13 15.6503C13 15.3992 13.029 15.178 13.087 14.9927C13.1449 14.8133 13.2319 14.6638 13.3478 14.5443C13.4696 14.4247 13.6261 14.341 13.8174 14.2812C14.0087 14.2274 14.2406 14.1975 14.513 14.1975ZM13.858 16.8939L15.2725 16.8939L15.2725 15.9194C15.2725 15.7161 15.2203 15.5666 15.1101 15.465C15.0058 15.3634 14.8145 15.3096 14.542 15.3096C14.4087 15.3096 14.2986 15.3215 14.2058 15.3394C14.1188 15.3634 14.0493 15.3933 13.9971 15.4411C13.9449 15.4889 13.9101 15.5547 13.887 15.6324C13.8696 15.7161 13.858 15.8118 13.858 15.9313L13.858 16.8939ZM13 13.7495L13 11.908C13 11.5612 13.029 11.2563 13.0812 10.9932C13.1333 10.7302 13.2319 10.5149 13.3768 10.3356C13.5217 10.1622 13.7246 10.0307 13.9855 9.94098C14.2464 9.85728 14.5884 9.80945 15.0058 9.80945C15.4 9.80945 15.7246 9.8513 15.9797 9.93501C16.2348 10.0187 16.4377 10.1443 16.5884 10.3117C16.7391 10.4851 16.8493 10.7003 16.9072 10.9634C16.971 11.2264 17 11.5433 17 11.908L17 13.7495L13 13.7495ZM16.142 12.0634C16.142 11.8602 16.1304 11.6868 16.1072 11.5433C16.0841 11.3998 16.0261 11.2802 15.9449 11.1846C15.8638 11.0949 15.7536 11.0291 15.6029 10.9873C15.4522 10.9454 15.2551 10.9215 15.0058 10.9215C14.7391 10.9215 14.5304 10.9454 14.3739 10.9873C14.2232 11.0291 14.1072 11.0949 14.0319 11.1905C13.9565 11.2862 13.9101 11.3998 13.887 11.5433C13.8696 11.6868 13.858 11.8602 13.858 12.0634L13.858 12.6434L16.142 12.6434L16.142 12.0634ZM15.4232 6.01794L15.4232 8.20019L17 8.20019L17 9.30626L13 9.30626L13 6L13.858 6L13.858 8.20019L14.5652 8.20019L14.5652 6.01794L15.4232 6.01794Z" fill="#171717"/>
</svg>