<svg width="24" height="24" viewBox="0 0 24 24" fill="none" xmlns="http://www.w3.org/2000/svg">
    <path fill-rule="evenodd" clip-rule="evenodd" d="M11.9831 7.32428L6.36614 12.9413L6.10214 15.8973L9.07914 15.6263L14.6791 10.0203L11.9831 7.32428ZM17.9661 6.73028L15.2711 4.03628L13.3231 5.98428L16.0181 8.68028L17.9661 6.73028ZM5.09114 17.9973C5.06014 18.0003 5.03014 18.0013 5.00014 18.0013C4.73614 18.0013 4.48114 17.8973 4.29314 17.7083C4.08314 17.4983 3.97714 17.2063 4.00414 16.9113L4.38314 12.7403C4.42514 12.2833 4.62714 11.8523 4.95214 11.5273L13.9481 2.53028C14.6501 1.82628 15.9241 1.86128 16.6641 2.60028L19.4021 5.33828H19.4031C20.1691 6.10528 20.1991 7.32228 19.4711 8.05228L10.4741 17.0493C10.1491 17.3753 9.71914 17.5763 9.26114 17.6183L5.09114 17.9973ZM5 20.0014H19C19.55 20.0014 20 20.4514 20 21.0014C20 21.5514 19.55 22.0014 19 22.0014H5C4.45 22.0014 4 21.5514 4 21.0014C4 20.4514 4.45 20.0014 5 20.0014Z" fill="#4E5359"/>
    <mask id="mask0_4228_33316" style="mask-type:luminance" maskUnits="userSpaceOnUse" x="4" y="2" width="16" height="20">
        <path fill-rule="evenodd" clip-rule="evenodd" d="M11.9831 7.32428L6.36614 12.9413L6.10214 15.8973L9.07914 15.6263L14.6791 10.0203L11.9831 7.32428ZM17.9661 6.73028L15.2711 4.03628L13.3231 5.98428L16.0181 8.68028L17.9661 6.73028ZM5.09114 17.9973C5.06014 18.0003 5.03014 18.0013 5.00014 18.0013C4.73614 18.0013 4.48114 17.8973 4.29314 17.7083C4.08314 17.4983 3.97714 17.2063 4.00414 16.9113L4.38314 12.7403C4.42514 12.2833 4.62714 11.8523 4.95214 11.5273L13.9481 2.53028C14.6501 1.82628 15.9241 1.86128 16.6641 2.60028L19.4021 5.33828H19.4031C20.1691 6.10528 20.1991 7.32228 19.4711 8.05228L10.4741 17.0493C10.1491 17.3753 9.71914 17.5763 9.26114 17.6183L5.09114 17.9973ZM5 20.0014H19C19.55 20.0014 20 20.4514 20 21.0014C20 21.5514 19.55 22.0014 19 22.0014H5C4.45 22.0014 4 21.5514 4 21.0014C4 20.4514 4.45 20.0014 5 20.0014Z" fill="white"/>
    </mask>
    <g mask="url(#mask0_4228_33316)">
        <rect width="24" height="24" fill="#171717"/>
    </g>
</svg>
