<svg xmlns="http://www.w3.org/2000/svg" width="16" height="16" viewBox="0 0 16 16" fill="none">
    <path fill-rule="evenodd" clip-rule="evenodd" d="M3.44805 8C4.12199 9.03978 5.46426 10.6667 8 10.6667C10.5357 10.6667 11.878 9.03978 12.552 8C11.878 6.96021 10.5357 5.33334 8 5.33333C5.46426 5.33333 4.12199 6.96021 3.44805 8ZM2.22157 7.63019C2.84426 6.59088 4.49844 4 8 4C11.5016 4 13.1557 6.59088 13.7784 7.63019L14 8L13.7784 8.3698C13.1557 9.40911 11.5016 12 8 12C4.49844 12 2.84426 9.40911 2.22157 8.3698L2 8L2.22157 7.63019Z" fill="#171717"/>
    <path d="M9 8C9 8.55228 8.55228 9 8 9C7.44772 9 7 8.55228 7 8C7 7.44772 7.44772 7 8 7C8.55228 7 9 7.44772 9 8Z" fill="#171717"/>
</svg>