<svg xmlns="http://www.w3.org/2000/svg" width="146" height="22" viewBox="0 0 146 22" fill="none">
    <g clip-path="url(#clip0_6303_24842)">
        <path d="M0 21.7617L2.87184 11.9441L4.73661 5.28924L5.27745 3.46104C5.5494 2.4184 6.18216 1.50069 7.06778 0.86489C7.91409 0.257533 8.94796 -0.0459102 9.99546 0.00563258H24.7091L23.2732 4.92357H12.8673C12.5005 4.89544 12.1359 4.99932 11.8418 5.21617C11.5049 5.48442 11.2741 5.85936 11.189 6.27642L10.3313 9.14678H19.3196L17.9771 13.7174H8.98855L6.65754 21.7617H0Z" fill="white"/>
        <path d="M64.5449 21.7616L67.4168 11.944L69.3748 5.28913L69.9156 3.46093C70.17 2.44894 70.7605 1.54851 71.5939 0.901395C72.4584 0.270153 73.5198 -0.0464911 74.5964 0.00552317H89.0674L87.6503 4.92346H77.4122C77.0455 4.89533 76.6808 4.99936 76.3865 5.21606C76.0567 5.48713 75.8327 5.86176 75.7525 6.27646L74.876 9.14683H83.9206L82.5779 13.7173H73.5333L71.2023 21.7616H64.5449Z" fill="white"/>
        <path d="M24.8588 4.92124L25.8471 1.53906H31.7026L30.7329 4.92124H24.8588ZM24.4111 6.457H30.1734L25.7165 21.7776H19.9355L24.4111 6.457Z" fill="white"/>
        <path d="M26.2951 0.0078125L25.3066 3.39H31.0691L32.0574 0.0078125H26.2951Z" fill="white"/>
        <path d="M31.1425 9.14442C31.3157 8.41465 31.7447 7.76753 32.3546 7.31606C33.4661 6.63171 34.7783 6.32936 36.0843 6.4568H41.5109C42.3733 6.34932 43.2491 6.41359 44.0855 6.64616C44.9219 6.87858 45.7017 7.27442 46.3782 7.8098C46.885 8.44246 47.2095 9.1969 47.3177 9.9944C47.426 10.7917 47.314 11.6032 46.9936 12.3438L44.2336 21.7776H38.4527L40.6531 13.9893C41.029 13.158 41.0755 12.2195 40.7837 11.3565C40.4666 10.7349 39.8326 10.4424 38.6577 10.4424H37.632C37.3238 10.4248 37.0175 10.5015 36.7556 10.6618C36.4757 10.8774 36.2948 11.1929 36.2521 11.5394L33.2497 21.7776H27.4688L31.1425 9.14442Z" fill="white"/>
        <path d="M51.9181 21.7809C49.587 21.7809 47.6104 21.7809 46.9575 19.7698C46.6033 18.6729 46.9575 17.0641 47.7596 14.2852C48.5614 11.5061 49.1021 9.20256 50.9297 7.77664C52.7572 6.35057 55.7969 6.27734 58.7433 6.27734C61.6898 6.27734 63.9463 6.27734 64.8974 7.31951C65.8483 8.36153 65.5687 10.7932 65.0652 12.4568C64.8843 13.5636 64.2934 14.5662 63.4055 15.2724C62.9157 15.5917 62.333 15.7458 61.7458 15.7111H53.1302C53.0035 16.1162 53.0035 16.5493 53.1302 16.9544C53.4099 17.7222 54.4729 17.6674 55.5172 17.6674H63.0885L61.895 21.7809H51.9181ZM58.4451 12.1095C58.7149 12.1452 58.9888 12.0833 59.2153 11.9351C59.4419 11.7871 59.6057 11.563 59.6758 11.3051C59.7876 10.9028 59.6758 10.4459 58.9111 10.263C58.4167 10.196 57.9185 10.1594 57.4194 10.1533C56.7131 10.117 56.0061 10.2036 55.3308 10.4093C55.0167 10.5813 54.7503 10.8263 54.5554 11.1228C54.3603 11.4192 54.2424 11.758 54.2117 12.1095H58.4451Z" fill="white"/>
        <path d="M90.2045 1.53906H95.9854L90.0739 21.7594H84.293L90.2045 1.53906Z" fill="white"/>
        <path d="M90.6498 0.0078125L84.7383 20.2465H90.5194L96.4309 0.0078125H90.6498Z" fill="white"/>
        <path d="M111.537 7.83211C112.973 9.55062 112.208 12.5855 111.76 14.1213C111.188 16.5699 109.82 18.7703 107.863 20.3921C105.596 21.6437 102.993 22.186 100.403 21.946C97.9233 21.946 95.1819 21.8547 93.8952 20.3921C92.6084 18.9295 93.2239 15.6386 93.6715 14.1213C94.2316 11.6625 95.6011 9.45241 97.5689 7.83211C99.8355 6.58047 102.438 6.03817 105.028 6.27813C107.508 6.27813 110.25 6.27813 111.537 7.83211ZM99.3964 16.8087C99.3964 16.9733 99.8813 17.8509 101.653 17.8509C102.683 17.8773 103.682 17.5027 104.432 16.8087C105.12 16.0442 105.595 15.1187 105.812 14.1213C106.185 13.2487 106.27 12.283 106.054 11.3606C105.868 10.9949 105.364 10.3917 103.779 10.3917C102.735 10.3357 101.711 10.6836 100.926 11.3606C100.241 12.1532 99.7728 13.103 99.5642 14.1213C99.188 14.968 99.1094 15.9133 99.3406 16.8087" fill="white"/>
        <path d="M130.63 7.82982C132.085 9.54833 131.321 12.5832 130.873 14.119C130.3 16.5676 128.932 18.7681 126.975 20.3899C124.707 21.6361 122.106 22.1779 119.516 21.9439C117.055 21.9439 114.295 21.8524 113.026 20.3899C111.758 18.9272 112.336 15.6365 112.784 14.119C113.352 11.6632 114.72 9.45546 116.682 7.82982C118.95 6.58368 121.551 6.04185 124.141 6.27583C126.602 6.27583 129.362 6.27583 130.63 7.82982ZM118.49 16.8064C118.49 16.9711 118.994 17.8486 120.765 17.8486C121.285 17.867 121.803 17.7843 122.289 17.6055C122.776 17.4267 123.221 17.1551 123.6 16.8064C124.261 16.0292 124.722 15.1074 124.943 14.119C125.326 13.2483 125.405 12.2776 125.166 11.3583C124.999 10.9926 124.495 10.3894 122.891 10.3894C121.848 10.3375 120.825 10.6849 120.038 11.3583C119.361 12.1556 118.894 13.1035 118.677 14.119C118.311 14.9683 118.233 15.9103 118.453 16.8064" fill="white"/>
        <path d="M132.647 12.8928C133.09 10.8857 134.272 9.109 135.966 7.90168C137.84 6.83075 139.993 6.32821 142.157 6.45738H145.999L144.823 10.443H142.829C142.24 10.3969 141.648 10.4706 141.09 10.6594C140.532 10.8481 140.018 11.1479 139.583 11.54C138.809 12.3661 138.263 13.3732 137.998 14.4651L135.873 21.778H130.092L132.647 12.8928Z" fill="white"/>
    </g>
    <defs>
        <clipPath id="clip0_6303_24842">
            <rect width="146" height="22.0015" fill="white"/>
        </clipPath>
    </defs>
</svg>