<svg xmlns="http://www.w3.org/2000/svg" width="24" height="24" viewBox="0 0 24 24" fill="none">
    <path fill-rule="evenodd" clip-rule="evenodd" d="M9.19531 10.0012C9.19531 8.45717 10.4513 7.20117 11.9953 7.20117C13.5393 7.20117 14.7953 8.45717 14.7953 10.0012C14.7953 11.2652 13.9473 12.3236 12.7953 12.6708V13.6012C12.7953 14.0436 12.4377 14.4012 11.9953 14.4012C11.5529 14.4012 11.1953 14.0436 11.1953 13.6012V12.0012C11.1953 11.5588 11.5529 11.2012 11.9953 11.2012C12.6569 11.2012 13.1953 10.6628 13.1953 10.0012C13.1953 9.33957 12.6569 8.80117 11.9953 8.80117C11.3337 8.80117 10.7953 9.33957 10.7953 10.0012C10.7953 10.4436 10.4377 10.8012 9.99531 10.8012C9.55291 10.8012 9.19531 10.4436 9.19531 10.0012ZM11.1953 16.0012C11.1953 15.5588 11.5529 15.2012 11.9953 15.2012C12.4377 15.2012 12.7953 15.5588 12.7953 16.0012C12.7953 16.4436 12.4377 16.8012 11.9953 16.8012C11.5529 16.8012 11.1953 16.4436 11.1953 16.0012ZM12.0016 18.4035C8.47276 18.4035 5.60156 15.5323 5.60156 12.0035C5.60156 8.47472 8.47276 5.60352 12.0016 5.60352C15.5304 5.60352 18.4016 8.47472 18.4016 12.0035C18.4016 15.5323 15.5304 18.4035 12.0016 18.4035ZM12 4C7.5888 4 4 7.5888 4 12C4 16.4112 7.5888 20 12 20C16.4112 20 20 16.4112 20 12C20 7.5888 16.4112 4 12 4Z" fill="#171717"/>
</svg>