<svg xmlns="http://www.w3.org/2000/svg" width="33" height="32" viewBox="0 0 33 32" fill="none" style="--fill: #F5333F">
    <path fill-rule="evenodd" clip-rule="evenodd" d="M12.793 13.0027C12.793 10.6867 14.677 8.80273 16.993 8.80273C19.309 8.80273 21.193 10.6867 21.193 13.0027C21.193 14.8987 19.921 16.4863 18.193 17.0071V18.4027C18.193 19.0663 17.6566 19.6027 16.993 19.6027C16.3294 19.6027 15.793 19.0663 15.793 18.4027V16.0027C15.793 15.3391 16.3294 14.8027 16.993 14.8027C17.9854 14.8027 18.793 13.9951 18.793 13.0027C18.793 12.0103 17.9854 11.2027 16.993 11.2027C16.0006 11.2027 15.193 12.0103 15.193 13.0027C15.193 13.6663 14.6566 14.2027 13.993 14.2027C13.3294 14.2027 12.793 13.6663 12.793 13.0027ZM15.793 22.0027C15.793 21.3391 16.3294 20.8027 16.993 20.8027C17.6566 20.8027 18.193 21.3391 18.193 22.0027C18.193 22.6663 17.6566 23.2027 16.993 23.2027C16.3294 23.2027 15.793 22.6663 15.793 22.0027ZM17.0023 25.6053C11.7091 25.6053 7.40234 21.2985 7.40234 16.0053C7.40234 10.7121 11.7091 6.40527 17.0023 6.40527C22.2955 6.40527 26.6023 10.7121 26.6023 16.0053C26.6023 21.2985 22.2955 25.6053 17.0023 25.6053ZM17 4C10.3832 4 5 9.3832 5 16C5 22.6168 10.3832 28 17 28C23.6168 28 29 22.6168 29 16C29 9.3832 23.6168 4 17 4Z" fill="var(--fill)"/>
</svg>