<svg xmlns="http://www.w3.org/2000/svg" width="24" height="24" viewBox="0 0 24 24" fill="none">
    <g clip-path="url(#clip0_6377_25413)">
        <path d="M9 14L15 8" stroke="#FF6610" stroke-width="2" stroke-linecap="round" stroke-linejoin="round"/>
        <path d="M9.5 9C9.77614 9 10 8.77614 10 8.5C10 8.22386 9.77614 8 9.5 8C9.22386 8 9 8.22386 9 8.5C9 8.77614 9.22386 9 9.5 9Z" fill="#FF6610" stroke="#FF6610" stroke-width="2" stroke-linecap="round" stroke-linejoin="round"/>
        <path d="M14.5 14C14.7761 14 15 13.7761 15 13.5C15 13.2239 14.7761 13 14.5 13C14.2239 13 14 13.2239 14 13.5C14 13.7761 14.2239 14 14.5 14Z" fill="#FF6610" stroke="#FF6610" stroke-width="2" stroke-linecap="round" stroke-linejoin="round"/>
        <path d="M5 21V5C5 4.46957 5.21071 3.96086 5.58579 3.58579C5.96086 3.21071 6.46957 3 7 3H17C17.5304 3 18.0391 3.21071 18.4142 3.58579C18.7893 3.96086 19 4.37031 19 4.90074V21L16 19L14 21L12 19L10 21L8 19L5 21Z" stroke="#FF6610" stroke-width="2" stroke-linecap="round" stroke-linejoin="round"/>
    </g>
    <defs>
        <clipPath id="clip0_6377_25413">
            <rect width="24" height="24" fill="white"/>
        </clipPath>
    </defs>
</svg>