<svg width="343" height="323" viewBox="0 0 343 323" fill="none" xmlns="http://www.w3.org/2000/svg">
    <rect x="5" width="323" height="1.99999" transform="rotate(90 5 0)" fill="#F5333F"/>
    <rect x="0.5" y="93.5" width="7" height="7" rx="0.5" fill="#F7F8FA" stroke="#F5333F"/>
    <rect x="0.5" y="214.5" width="7" height="7" rx="0.5" fill="#F7F8FA" stroke="#F5333F"/>
    <rect x="0.5" y="315.5" width="7" height="7" rx="0.5" fill="#F7F8FA" stroke="#F5333F"/>
    <mask id="path-5-inside-1_8310_62642" fill="white">
        <path d="M24 20H343V121H24V20Z"/>
    </mask>
    <path d="M343 120H24V122H343V120Z" fill="#CACDD2" mask="url(#path-5-inside-1_8310_62642)"/>
    <path d="M39.58 56.68C40.42 56.12 41 55.6 41.36 55.08C41.72 54.56 41.9 54 41.9 53.4C41.9 53.1 41.84 52.82 41.76 52.56C41.68 52.3 41.52 52.08 41.3 51.88C41.08 51.7 40.8 51.56 40.44 51.46C40.08 51.36 39.62 51.3 39.06 51.3C38.58 51.3 38.16 51.34 37.8 51.42C37.42 51.5 37.1 51.66 36.84 51.86C36.58 52.08 36.38 52.38 36.26 52.74C36.14 53.1 36.08 53.58 36.12 54.14H33.34C33.3 53.18 33.4 52.38 33.66 51.7C33.92 51.04 34.3 50.5 34.8 50.08C35.3 49.68 35.92 49.38 36.64 49.18C37.36 49 38.18 48.9 39.08 48.9C40.16 48.9 41.06 49.02 41.78 49.24C42.5 49.48 43.1 49.78 43.54 50.18C43.98 50.58 44.28 51.06 44.48 51.6C44.66 52.14 44.76 52.72 44.76 53.36C44.76 53.84 44.7 54.28 44.58 54.7C44.46 55.12 44.28 55.52 44 55.92C43.72 56.32 43.38 56.7 42.94 57.08C42.5 57.46 41.94 57.84 41.3 58.24L37.84 60.54V60.66H44.96V63H33.12V61.08L39.58 56.68ZM53.1811 51.3C52.5811 51.3 52.0411 51.36 51.6011 51.46C51.1611 51.56 50.7811 51.78 50.5011 52.1C50.2011 52.44 49.9811 52.92 49.8411 53.56C49.7011 54.2 49.6411 55.06 49.6411 56.12C49.6411 57.16 49.7011 57.98 49.8411 58.6C49.9811 59.24 50.2011 59.72 50.5011 60.06C50.7811 60.4 51.1611 60.62 51.6011 60.74C52.0411 60.86 52.5811 60.9 53.1811 60.9C53.7811 60.9 54.3211 60.86 54.7611 60.74C55.2011 60.62 55.5811 60.4 55.8611 60.06C56.1411 59.72 56.3611 59.24 56.5011 58.6C56.6411 57.98 56.7211 57.16 56.7211 56.12C56.7211 55.06 56.6411 54.2 56.5011 53.56C56.3611 52.92 56.1411 52.44 55.8611 52.1C55.5811 51.78 55.2011 51.56 54.7611 51.46C54.3211 51.36 53.7811 51.3 53.1811 51.3ZM53.1811 63.3C52.1011 63.3 51.1611 63.2 50.3611 62.96C49.5611 62.74 48.9211 62.36 48.4011 61.8C47.8811 61.26 47.5011 60.52 47.2611 59.6C47.0011 58.68 46.8811 57.52 46.8811 56.12C46.8811 54.68 47.0011 53.48 47.2811 52.54C47.5611 51.62 47.9611 50.88 48.4811 50.34C49.0011 49.8 49.6611 49.42 50.4611 49.22C51.2411 49.02 52.1411 48.9 53.1811 48.9C54.2211 48.9 55.1211 49.02 55.9011 49.22C56.6811 49.42 57.3411 49.8 57.8811 50.34C58.4011 50.88 58.8011 51.62 59.0811 52.54C59.3411 53.48 59.4811 54.68 59.4811 56.12C59.4811 57.52 59.3411 58.68 59.1011 59.6C58.8611 60.52 58.4811 61.26 57.9611 61.8C57.4411 62.36 56.7811 62.74 55.9811 62.96C55.1811 63.2 54.2611 63.3 53.1811 63.3ZM67.6269 56.68C68.4669 56.12 69.0469 55.6 69.4069 55.08C69.7669 54.56 69.9469 54 69.9469 53.4C69.9469 53.1 69.8869 52.82 69.8069 52.56C69.7269 52.3 69.5669 52.08 69.3469 51.88C69.1269 51.7 68.8469 51.56 68.4869 51.46C68.1269 51.36 67.6669 51.3 67.1069 51.3C66.6269 51.3 66.2069 51.34 65.8469 51.42C65.4669 51.5 65.1469 51.66 64.8869 51.86C64.6269 52.08 64.4269 52.38 64.3069 52.74C64.1869 53.1 64.1269 53.58 64.1669 54.14H61.3869C61.3469 53.18 61.4469 52.38 61.7069 51.7C61.9669 51.04 62.3469 50.5 62.8469 50.08C63.3469 49.68 63.9669 49.38 64.6869 49.18C65.4069 49 66.2269 48.9 67.1269 48.9C68.2069 48.9 69.1069 49.02 69.8269 49.24C70.5469 49.48 71.1469 49.78 71.5869 50.18C72.0269 50.58 72.3269 51.06 72.5269 51.6C72.7069 52.14 72.8069 52.72 72.8069 53.36C72.8069 53.84 72.7469 54.28 72.6269 54.7C72.5069 55.12 72.3269 55.52 72.0469 55.92C71.7669 56.32 71.4269 56.7 70.9869 57.08C70.5469 57.46 69.9869 57.84 69.3469 58.24L65.8869 60.54V60.66H73.0069V63H61.1669V61.08L67.6269 56.68ZM81.748 56.68C82.588 56.12 83.168 55.6 83.528 55.08C83.888 54.56 84.068 54 84.068 53.4C84.068 53.1 84.008 52.82 83.928 52.56C83.848 52.3 83.688 52.08 83.468 51.88C83.248 51.7 82.968 51.56 82.608 51.46C82.248 51.36 81.788 51.3 81.228 51.3C80.748 51.3 80.328 51.34 79.968 51.42C79.588 51.5 79.268 51.66 79.008 51.86C78.748 52.08 78.548 52.38 78.428 52.74C78.308 53.1 78.248 53.58 78.288 54.14H75.508C75.468 53.18 75.568 52.38 75.828 51.7C76.088 51.04 76.468 50.5 76.968 50.08C77.468 49.68 78.088 49.38 78.808 49.18C79.528 49 80.348 48.9 81.248 48.9C82.328 48.9 83.228 49.02 83.948 49.24C84.668 49.48 85.268 49.78 85.708 50.18C86.148 50.58 86.448 51.06 86.648 51.6C86.828 52.14 86.928 52.72 86.928 53.36C86.928 53.84 86.868 54.28 86.748 54.7C86.628 55.12 86.448 55.52 86.168 55.92C85.888 56.32 85.548 56.7 85.108 57.08C84.668 57.46 84.108 57.84 83.468 58.24L80.008 60.54V60.66H87.128V63H75.288V61.08L81.748 56.68Z" fill="#4E5359"/>
    <path d="M43.616 88.464C43.536 89.2 43.36 89.808 43.072 90.288C42.784 90.768 42.416 91.152 41.968 91.44C41.52 91.728 40.976 91.936 40.368 92.064C39.76 92.192 39.072 92.24 38.32 92.24C37.408 92.24 36.608 92.16 35.92 91.968C35.232 91.792 34.656 91.488 34.192 91.04C33.728 90.608 33.376 90.016 33.152 89.28C32.912 88.544 32.8 87.616 32.8 86.496C32.8 85.344 32.912 84.384 33.168 83.632C33.424 82.896 33.776 82.304 34.256 81.872C34.736 81.44 35.312 81.136 36 80.976C36.672 80.816 37.456 80.72 38.32 80.72C39.072 80.72 39.76 80.784 40.368 80.896C40.976 81.024 41.504 81.216 41.952 81.504C42.4 81.792 42.752 82.176 43.024 82.656C43.296 83.136 43.472 83.744 43.552 84.448H41.984C41.888 83.968 41.744 83.568 41.552 83.264C41.344 82.96 41.088 82.72 40.784 82.56C40.464 82.4 40.112 82.288 39.696 82.224C39.28 82.16 38.832 82.128 38.32 82.128C37.68 82.128 37.104 82.176 36.608 82.272C36.112 82.368 35.696 82.56 35.344 82.864C34.992 83.168 34.736 83.6 34.56 84.176C34.384 84.752 34.304 85.536 34.304 86.496C34.304 87.424 34.384 88.176 34.56 88.752C34.736 89.328 34.992 89.76 35.344 90.064C35.696 90.384 36.112 90.592 36.608 90.688C37.104 90.784 37.68 90.832 38.32 90.832C38.832 90.832 39.296 90.816 39.712 90.752C40.128 90.688 40.496 90.576 40.816 90.4C41.136 90.24 41.392 90 41.6 89.68C41.808 89.376 41.952 88.976 42.048 88.464H43.616ZM49.082 91.04C49.498 91.04 49.882 91.008 50.234 90.928C50.57 90.848 50.858 90.704 51.098 90.48C51.338 90.256 51.53 89.952 51.658 89.568C51.786 89.184 51.85 88.672 51.85 88.048C51.85 87.408 51.786 86.896 51.658 86.496C51.53 86.096 51.338 85.776 51.098 85.552C50.858 85.328 50.57 85.168 50.234 85.088C49.882 85.008 49.498 84.96 49.082 84.96C48.65 84.96 48.266 85.008 47.93 85.088C47.578 85.168 47.29 85.312 47.066 85.536C46.826 85.76 46.65 86.08 46.522 86.48C46.394 86.896 46.33 87.408 46.33 88.048C46.33 88.672 46.394 89.184 46.522 89.568C46.65 89.952 46.826 90.256 47.066 90.48C47.29 90.704 47.578 90.848 47.93 90.928C48.266 91.008 48.65 91.04 49.082 91.04ZM49.082 83.76C49.722 83.76 50.314 83.84 50.826 83.968C51.338 84.112 51.786 84.352 52.138 84.672C52.49 85.008 52.762 85.456 52.954 86C53.146 86.544 53.242 87.232 53.242 88.048C53.242 88.848 53.146 89.52 52.954 90.048C52.762 90.592 52.49 91.024 52.138 91.344C51.786 91.664 51.338 91.904 50.826 92.032C50.314 92.176 49.722 92.24 49.082 92.24C48.426 92.24 47.85 92.176 47.338 92.032C46.826 91.904 46.378 91.664 46.026 91.344C45.674 91.024 45.402 90.592 45.21 90.048C45.018 89.52 44.922 88.848 44.922 88.048C44.922 87.232 45.018 86.544 45.21 86C45.402 85.456 45.674 85.008 46.026 84.672C46.378 84.352 46.826 84.112 47.338 83.968C47.85 83.84 48.426 83.76 49.082 83.76ZM58.2743 84.96C57.9223 84.96 57.6183 84.992 57.3463 85.024C57.0583 85.072 56.8183 85.152 56.6103 85.28C56.4023 85.408 56.2423 85.568 56.1143 85.776C55.9863 85.984 55.9223 86.24 55.8903 86.56H54.4823C54.5303 86.032 54.6583 85.584 54.8503 85.232C55.0423 84.88 55.2983 84.592 55.6183 84.368C55.9383 84.16 56.3223 84 56.7703 83.904C57.2183 83.808 57.7143 83.76 58.2743 83.76C58.9303 83.76 59.4903 83.824 59.9383 83.952C60.3863 84.08 60.7383 84.24 61.0263 84.448C61.2983 84.656 61.4903 84.896 61.6183 85.168C61.7463 85.44 61.8103 85.728 61.8103 86.016C61.8103 86.592 61.6503 87.04 61.3623 87.328C61.0583 87.616 60.6423 87.792 60.0983 87.84V88.048C60.7063 88.112 61.1863 88.272 61.5223 88.544C61.8423 88.832 62.0183 89.264 62.0183 89.872C62.0183 90.224 61.9383 90.544 61.8103 90.832C61.6663 91.12 61.4423 91.376 61.1383 91.584C60.8343 91.792 60.4503 91.952 59.9703 92.064C59.4903 92.192 58.9143 92.24 58.2423 92.24C57.0423 92.24 56.1143 92.032 55.4743 91.616C54.8343 91.2 54.4663 90.464 54.3863 89.392H55.7783C55.8423 90.064 56.0823 90.496 56.4823 90.72C56.8823 90.944 57.4743 91.04 58.2423 91.04C59.0103 91.04 59.6023 90.96 60.0183 90.768C60.4183 90.576 60.6263 90.224 60.6263 89.696C60.6263 89.36 60.5303 89.088 60.3383 88.864C60.1463 88.64 59.7623 88.528 59.2023 88.528H57.3303V87.392H59.2183C59.6663 87.392 59.9863 87.28 60.1623 87.056C60.3223 86.832 60.4183 86.576 60.4183 86.256C60.4183 86.08 60.3863 85.92 60.3383 85.76C60.2743 85.6 60.1783 85.472 60.0183 85.344C59.8583 85.232 59.6343 85.136 59.3623 85.072C59.0743 85.008 58.7223 84.96 58.2743 84.96ZM64.4989 84H71.0589V90.8H72.3869V94.4H70.9789V92H64.0669V94.4H62.6589V90.8H63.5229C63.7309 90.688 63.8909 90.496 64.0189 90.208C64.1469 89.936 64.2429 89.6 64.3229 89.216C64.3869 88.832 64.4349 88.416 64.4669 87.936C64.4829 87.472 64.4989 86.992 64.4989 86.496V84ZM65.8589 86.688C65.8589 87.744 65.7789 88.592 65.6509 89.248C65.5229 89.92 65.3469 90.432 65.1389 90.8H69.6509V85.2H65.8589V86.688ZM76.1305 92.24C75.6825 92.24 75.2825 92.208 74.9145 92.112C74.5465 92.016 74.2265 91.872 73.9705 91.664C73.6985 91.472 73.4905 91.2 73.3465 90.88C73.1865 90.56 73.1225 90.16 73.1225 89.696C73.1225 89.424 73.1545 89.136 73.2505 88.848C73.3465 88.56 73.5065 88.288 73.7625 88.048C74.0025 87.808 74.3385 87.616 74.7705 87.456C75.2025 87.312 75.7625 87.232 76.4505 87.232C76.7705 87.232 77.0425 87.248 77.2985 87.248C77.5545 87.248 77.7785 87.264 78.0025 87.264C78.2105 87.28 78.4185 87.296 78.6265 87.296C78.8345 87.312 79.0585 87.328 79.3145 87.328V86.656C79.3145 86.048 79.1385 85.616 78.7865 85.36C78.4345 85.104 77.8745 84.96 77.0745 84.96C76.7225 84.96 76.4025 84.992 76.1465 85.024C75.8745 85.072 75.6505 85.152 75.4585 85.28C75.2665 85.408 75.1225 85.568 75.0105 85.776C74.8825 85.984 74.8025 86.24 74.7545 86.56H73.3945C73.4585 86.032 73.5865 85.584 73.7785 85.232C73.9705 84.88 74.2105 84.592 74.5145 84.368C74.8185 84.16 75.1865 84 75.6185 83.904C76.0345 83.808 76.5305 83.76 77.0745 83.76C78.2105 83.76 79.1065 83.984 79.7465 84.432C80.3865 84.88 80.7225 85.632 80.7225 86.656V92H79.3145V90.672H79.1545C78.8985 91.216 78.4985 91.616 77.9545 91.872C77.4105 92.128 76.8025 92.24 76.1305 92.24ZM76.5945 91.04C76.9145 91.04 77.2185 91.024 77.5385 90.976C77.8585 90.928 78.1465 90.832 78.4025 90.704C78.6585 90.576 78.8665 90.384 79.0265 90.144C79.1865 89.904 79.2825 89.584 79.3145 89.2V88.368C78.8665 88.352 78.4345 88.336 78.0505 88.32C77.6665 88.32 77.3145 88.304 76.9945 88.304C76.4505 88.304 76.0025 88.352 75.6825 88.416C75.3625 88.496 75.1065 88.592 74.9465 88.72C74.7705 88.848 74.6585 89.008 74.6105 89.168C74.5465 89.328 74.5305 89.504 74.5305 89.68C74.5305 90.208 74.6905 90.56 75.0265 90.752C75.3625 90.944 75.8905 91.04 76.5945 91.04ZM83.9454 87.232H88.5694V84H89.9774V92H88.5694V88.432H83.9454V92H82.5374V84H83.9454V87.232ZM97.7223 92V86.384L92.6343 92H91.8343V84H93.2423V89.68L98.3303 84H99.1302V92H97.7223ZM108.783 88.528H102.143C102.143 89.04 102.223 89.472 102.351 89.792C102.479 90.112 102.671 90.368 102.911 90.56C103.151 90.752 103.439 90.88 103.775 90.944C104.111 91.008 104.479 91.04 104.895 91.04C105.215 91.04 105.503 91.024 105.791 90.976C106.063 90.944 106.303 90.864 106.527 90.752C106.751 90.656 106.927 90.512 107.087 90.32C107.231 90.128 107.327 89.888 107.391 89.584H108.783C108.703 90.08 108.559 90.496 108.335 90.832C108.111 91.184 107.839 91.456 107.503 91.664C107.167 91.872 106.783 92.016 106.351 92.112C105.903 92.208 105.423 92.24 104.895 92.24C104.239 92.24 103.663 92.176 103.151 92.032C102.639 91.904 102.191 91.664 101.839 91.344C101.487 91.024 101.215 90.592 101.023 90.048C100.831 89.52 100.735 88.848 100.735 88.048C100.735 87.232 100.831 86.544 101.023 86C101.215 85.456 101.487 85.008 101.839 84.672C102.191 84.352 102.623 84.112 103.135 83.968C103.647 83.84 104.223 83.76 104.863 83.76C106.079 83.76 107.039 84.064 107.743 84.672C108.431 85.28 108.783 86.208 108.783 87.456V88.528ZM104.863 84.96C104.479 84.96 104.143 84.992 103.823 85.056C103.503 85.12 103.215 85.248 102.975 85.424C102.735 85.6 102.543 85.84 102.399 86.16C102.255 86.48 102.174 86.88 102.159 87.392H107.359C107.359 86.912 107.295 86.528 107.167 86.208C107.039 85.888 106.879 85.648 106.655 85.456C106.431 85.28 106.175 85.152 105.871 85.072C105.567 85.008 105.231 84.96 104.863 84.96ZM117.573 87.664L121.413 92H119.637L116.645 88.496H115.477V92H114.069V84H115.477V88.064L119.397 84H121.237L117.573 87.664ZM125.926 91.04C126.342 91.04 126.726 91.008 127.078 90.928C127.414 90.848 127.702 90.704 127.942 90.48C128.182 90.256 128.374 89.952 128.502 89.568C128.63 89.184 128.694 88.672 128.694 88.048C128.694 87.408 128.63 86.896 128.502 86.496C128.374 86.096 128.182 85.776 127.942 85.552C127.702 85.328 127.414 85.168 127.078 85.088C126.726 85.008 126.342 84.96 125.926 84.96C125.494 84.96 125.11 85.008 124.774 85.088C124.422 85.168 124.134 85.312 123.91 85.536C123.67 85.76 123.494 86.08 123.366 86.48C123.238 86.896 123.174 87.408 123.174 88.048C123.174 88.672 123.238 89.184 123.366 89.568C123.494 89.952 123.67 90.256 123.91 90.48C124.134 90.704 124.422 90.848 124.774 90.928C125.11 91.008 125.494 91.04 125.926 91.04ZM125.926 83.76C126.566 83.76 127.158 83.84 127.67 83.968C128.182 84.112 128.63 84.352 128.982 84.672C129.334 85.008 129.606 85.456 129.798 86C129.99 86.544 130.086 87.232 130.086 88.048C130.086 88.848 129.99 89.52 129.798 90.048C129.606 90.592 129.334 91.024 128.982 91.344C128.63 91.664 128.182 91.904 127.67 92.032C127.158 92.176 126.566 92.24 125.926 92.24C125.27 92.24 124.694 92.176 124.182 92.032C123.67 91.904 123.222 91.664 122.87 91.344C122.518 91.024 122.246 90.592 122.054 90.048C121.862 89.52 121.766 88.848 121.766 88.048C121.766 87.232 121.862 86.544 122.054 86C122.246 85.456 122.518 85.008 122.87 84.672C123.222 84.352 123.67 84.112 124.182 83.968C124.694 83.84 125.27 83.76 125.926 83.76ZM133.086 86.544V92H131.678V84H132.51L136.094 88.016L139.678 84H140.51V92H139.102V86.56L136.078 89.776L133.086 86.544ZM142.366 84H149.806V92H148.398V85.2H143.774V92H142.366V84ZM154.302 92.24C153.854 92.24 153.454 92.208 153.086 92.112C152.718 92.016 152.398 91.872 152.142 91.664C151.87 91.472 151.662 91.2 151.518 90.88C151.358 90.56 151.294 90.16 151.294 89.696C151.294 89.424 151.326 89.136 151.422 88.848C151.518 88.56 151.678 88.288 151.934 88.048C152.174 87.808 152.51 87.616 152.942 87.456C153.374 87.312 153.934 87.232 154.622 87.232C154.942 87.232 155.214 87.248 155.47 87.248C155.726 87.248 155.95 87.264 156.174 87.264C156.382 87.28 156.59 87.296 156.798 87.296C157.006 87.312 157.23 87.328 157.486 87.328V86.656C157.486 86.048 157.31 85.616 156.958 85.36C156.606 85.104 156.046 84.96 155.246 84.96C154.894 84.96 154.574 84.992 154.318 85.024C154.046 85.072 153.822 85.152 153.63 85.28C153.438 85.408 153.294 85.568 153.182 85.776C153.054 85.984 152.974 86.24 152.926 86.56H151.566C151.63 86.032 151.758 85.584 151.95 85.232C152.142 84.88 152.382 84.592 152.686 84.368C152.99 84.16 153.358 84 153.79 83.904C154.206 83.808 154.702 83.76 155.246 83.76C156.382 83.76 157.278 83.984 157.918 84.432C158.558 84.88 158.894 85.632 158.894 86.656V92H157.486V90.672H157.326C157.07 91.216 156.67 91.616 156.126 91.872C155.582 92.128 154.974 92.24 154.302 92.24ZM154.766 91.04C155.086 91.04 155.39 91.024 155.71 90.976C156.03 90.928 156.318 90.832 156.574 90.704C156.83 90.576 157.038 90.384 157.198 90.144C157.358 89.904 157.454 89.584 157.486 89.2V88.368C157.038 88.352 156.606 88.336 156.222 88.32C155.838 88.32 155.486 88.304 155.166 88.304C154.622 88.304 154.174 88.352 153.854 88.416C153.534 88.496 153.278 88.592 153.118 88.72C152.942 88.848 152.83 89.008 152.782 89.168C152.718 89.328 152.702 89.504 152.702 89.68C152.702 90.208 152.862 90.56 153.198 90.752C153.534 90.944 154.062 91.04 154.766 91.04ZM162.117 87.232H166.741V84H168.149V92H166.741V88.432H162.117V92H160.709V84H162.117V87.232ZM175.894 92V86.384L170.806 92H170.006V84H171.414V89.68L176.502 84H177.302V92H175.894ZM185.05 92V86.384L179.962 92H179.162V84H180.57V89.68L185.658 84H186.458V92H185.05Z" fill="#4E5359"/>
    <mask id="path-9-inside-2_8310_62642" fill="white">
        <path d="M24 121H343V222H24V121Z"/>
    </mask>
    <path d="M343 221H24V223H343V221Z" fill="#CACDD2" mask="url(#path-9-inside-2_8310_62642)"/>
    <path d="M39.58 157.68C40.42 157.12 41 156.6 41.36 156.08C41.72 155.56 41.9 155 41.9 154.4C41.9 154.1 41.84 153.82 41.76 153.56C41.68 153.3 41.52 153.08 41.3 152.88C41.08 152.7 40.8 152.56 40.44 152.46C40.08 152.36 39.62 152.3 39.06 152.3C38.58 152.3 38.16 152.34 37.8 152.42C37.42 152.5 37.1 152.66 36.84 152.86C36.58 153.08 36.38 153.38 36.26 153.74C36.14 154.1 36.08 154.58 36.12 155.14H33.34C33.3 154.18 33.4 153.38 33.66 152.7C33.92 152.04 34.3 151.5 34.8 151.08C35.3 150.68 35.92 150.38 36.64 150.18C37.36 150 38.18 149.9 39.08 149.9C40.16 149.9 41.06 150.02 41.78 150.24C42.5 150.48 43.1 150.78 43.54 151.18C43.98 151.58 44.28 152.06 44.48 152.6C44.66 153.14 44.76 153.72 44.76 154.36C44.76 154.84 44.7 155.28 44.58 155.7C44.46 156.12 44.28 156.52 44 156.92C43.72 157.32 43.38 157.7 42.94 158.08C42.5 158.46 41.94 158.84 41.3 159.24L37.84 161.54V161.66H44.96V164H33.12V162.08L39.58 157.68ZM53.1811 152.3C52.5811 152.3 52.0411 152.36 51.6011 152.46C51.1611 152.56 50.7811 152.78 50.5011 153.1C50.2011 153.44 49.9811 153.92 49.8411 154.56C49.7011 155.2 49.6411 156.06 49.6411 157.12C49.6411 158.16 49.7011 158.98 49.8411 159.6C49.9811 160.24 50.2011 160.72 50.5011 161.06C50.7811 161.4 51.1611 161.62 51.6011 161.74C52.0411 161.86 52.5811 161.9 53.1811 161.9C53.7811 161.9 54.3211 161.86 54.7611 161.74C55.2011 161.62 55.5811 161.4 55.8611 161.06C56.1411 160.72 56.3611 160.24 56.5011 159.6C56.6411 158.98 56.7211 158.16 56.7211 157.12C56.7211 156.06 56.6411 155.2 56.5011 154.56C56.3611 153.92 56.1411 153.44 55.8611 153.1C55.5811 152.78 55.2011 152.56 54.7611 152.46C54.3211 152.36 53.7811 152.3 53.1811 152.3ZM53.1811 164.3C52.1011 164.3 51.1611 164.2 50.3611 163.96C49.5611 163.74 48.9211 163.36 48.4011 162.8C47.8811 162.26 47.5011 161.52 47.2611 160.6C47.0011 159.68 46.8811 158.52 46.8811 157.12C46.8811 155.68 47.0011 154.48 47.2811 153.54C47.5611 152.62 47.9611 151.88 48.4811 151.34C49.0011 150.8 49.6611 150.42 50.4611 150.22C51.2411 150.02 52.1411 149.9 53.1811 149.9C54.2211 149.9 55.1211 150.02 55.9011 150.22C56.6811 150.42 57.3411 150.8 57.8811 151.34C58.4011 151.88 58.8011 152.62 59.0811 153.54C59.3411 154.48 59.4811 155.68 59.4811 157.12C59.4811 158.52 59.3411 159.68 59.1011 160.6C58.8611 161.52 58.4811 162.26 57.9611 162.8C57.4411 163.36 56.7811 163.74 55.9811 163.96C55.1811 164.2 54.2611 164.3 53.1811 164.3ZM67.6269 157.68C68.4669 157.12 69.0469 156.6 69.4069 156.08C69.7669 155.56 69.9469 155 69.9469 154.4C69.9469 154.1 69.8869 153.82 69.8069 153.56C69.7269 153.3 69.5669 153.08 69.3469 152.88C69.1269 152.7 68.8469 152.56 68.4869 152.46C68.1269 152.36 67.6669 152.3 67.1069 152.3C66.6269 152.3 66.2069 152.34 65.8469 152.42C65.4669 152.5 65.1469 152.66 64.8869 152.86C64.6269 153.08 64.4269 153.38 64.3069 153.74C64.1869 154.1 64.1269 154.58 64.1669 155.14H61.3869C61.3469 154.18 61.4469 153.38 61.7069 152.7C61.9669 152.04 62.3469 151.5 62.8469 151.08C63.3469 150.68 63.9669 150.38 64.6869 150.18C65.4069 150 66.2269 149.9 67.1269 149.9C68.2069 149.9 69.1069 150.02 69.8269 150.24C70.5469 150.48 71.1469 150.78 71.5869 151.18C72.0269 151.58 72.3269 152.06 72.5269 152.6C72.7069 153.14 72.8069 153.72 72.8069 154.36C72.8069 154.84 72.7469 155.28 72.6269 155.7C72.5069 156.12 72.3269 156.52 72.0469 156.92C71.7669 157.32 71.4269 157.7 70.9869 158.08C70.5469 158.46 69.9869 158.84 69.3469 159.24L65.8869 161.54V161.66H73.0069V164H61.1669V162.08L67.6269 157.68ZM80.8773 164.3C79.9173 164.3 79.0373 164.22 78.2773 164.04C77.4973 163.88 76.8373 163.58 76.2973 163.18C75.7573 162.78 75.3373 162.26 75.0573 161.6C74.7773 160.96 74.6373 160.14 74.6573 159.16H77.4373C77.4373 159.72 77.5373 160.16 77.6973 160.52C77.8573 160.88 78.0773 161.16 78.3773 161.36C78.6573 161.56 79.0173 161.7 79.4373 161.78C79.8373 161.86 80.3173 161.9 80.8373 161.9C81.5173 161.9 82.0573 161.86 82.4973 161.74C82.9373 161.64 83.2773 161.48 83.5373 161.28C83.7973 161.08 83.9773 160.82 84.0773 160.52C84.1773 160.24 84.2373 159.9 84.2373 159.52C84.2373 159.18 84.1973 158.88 84.1173 158.6C84.0373 158.32 83.8973 158.1 83.6573 157.9C83.4173 157.7 83.0973 157.56 82.6573 157.44C82.2173 157.34 81.6173 157.28 80.8773 157.28H79.1973V155.58L82.5173 152.54H75.3773V150.2H85.9773V152.06L82.0773 155.54L82.8373 155.56C84.1573 155.6 85.1973 155.96 85.9373 156.64C86.6573 157.32 87.0373 158.32 87.0373 159.6C87.0373 160.34 86.9173 161 86.7173 161.58C86.4973 162.16 86.1573 162.66 85.6773 163.06C85.1973 163.46 84.5573 163.78 83.7773 163.98C82.9773 164.2 82.0173 164.3 80.8773 164.3Z" fill="#4E5359"/>
    <path d="M42.672 189.88C42.672 190.936 42.272 191.768 41.472 192.36C40.672 192.952 39.44 193.24 37.76 193.24C37.056 193.24 36.416 193.192 35.808 193.064C35.2 192.952 34.656 192.744 34.192 192.456C33.728 192.168 33.36 191.784 33.072 191.304C32.784 190.824 32.608 190.2 32.56 189.464H34.128C34.176 189.976 34.304 190.392 34.528 190.712C34.752 191.032 35.024 191.272 35.344 191.432C35.664 191.592 36.048 191.704 36.464 191.752C36.88 191.816 37.312 191.832 37.76 191.832C38.384 191.832 38.912 191.8 39.344 191.704C39.76 191.608 40.112 191.48 40.384 191.32C40.656 191.16 40.848 190.952 40.976 190.696C41.088 190.456 41.152 190.184 41.152 189.864C41.152 189.576 41.12 189.32 41.056 189.096C40.992 188.872 40.88 188.68 40.72 188.52C40.544 188.36 40.304 188.248 40 188.168C39.696 188.088 39.296 188.04 38.8 188.04H37.136V186.68H38.768C39.232 186.68 39.6 186.632 39.872 186.52C40.128 186.408 40.336 186.264 40.48 186.088C40.624 185.928 40.72 185.736 40.752 185.528C40.784 185.336 40.816 185.128 40.816 184.936C40.816 184.36 40.56 183.928 40.048 183.608C39.536 183.288 38.784 183.128 37.792 183.128C37.392 183.128 36.992 183.16 36.576 183.224C36.16 183.288 35.792 183.4 35.472 183.576C35.152 183.768 34.88 184.008 34.688 184.328C34.496 184.648 34.4 185.08 34.432 185.608H32.896C32.864 184.872 32.976 184.264 33.248 183.752C33.504 183.256 33.872 182.856 34.336 182.552C34.784 182.264 35.312 182.04 35.92 181.912C36.528 181.784 37.152 181.72 37.792 181.72C39.264 181.72 40.384 182.024 41.168 182.6C41.952 183.192 42.352 183.96 42.352 184.904C42.352 185.512 42.16 186.024 41.792 186.424C41.408 186.824 40.928 187.096 40.32 187.24V187.352C41.168 187.448 41.776 187.72 42.128 188.168C42.48 188.616 42.672 189.192 42.672 189.88ZM45.6485 188.232H50.2725V185H51.6805V193H50.2725V189.432H45.6485V193H44.2405V185H45.6485V188.232ZM56.1774 193.24C55.7294 193.24 55.3294 193.208 54.9614 193.112C54.5934 193.016 54.2734 192.872 54.0174 192.664C53.7454 192.472 53.5374 192.2 53.3934 191.88C53.2334 191.56 53.1694 191.16 53.1694 190.696C53.1694 190.424 53.2014 190.136 53.2974 189.848C53.3934 189.56 53.5534 189.288 53.8094 189.048C54.0494 188.808 54.3854 188.616 54.8174 188.456C55.2494 188.312 55.8094 188.232 56.4974 188.232C56.8174 188.232 57.0894 188.248 57.3454 188.248C57.6014 188.248 57.8254 188.264 58.0494 188.264C58.2574 188.28 58.4654 188.296 58.6734 188.296C58.8814 188.312 59.1054 188.328 59.3614 188.328V187.656C59.3614 187.048 59.1854 186.616 58.8334 186.36C58.4814 186.104 57.9214 185.96 57.1214 185.96C56.7694 185.96 56.4494 185.992 56.1934 186.024C55.9214 186.072 55.6974 186.152 55.5054 186.28C55.3134 186.408 55.1694 186.568 55.0574 186.776C54.9294 186.984 54.8494 187.24 54.8014 187.56H53.4414C53.5054 187.032 53.6334 186.584 53.8254 186.232C54.0174 185.88 54.2574 185.592 54.5614 185.368C54.8654 185.16 55.2334 185 55.6654 184.904C56.0814 184.808 56.5774 184.76 57.1214 184.76C58.2574 184.76 59.1534 184.984 59.7934 185.432C60.4334 185.88 60.7694 186.632 60.7694 187.656V193H59.3614V191.672H59.2014C58.9454 192.216 58.5454 192.616 58.0014 192.872C57.4574 193.128 56.8494 193.24 56.1774 193.24ZM56.6414 192.04C56.9614 192.04 57.2654 192.024 57.5854 191.976C57.9054 191.928 58.1934 191.832 58.4494 191.704C58.7054 191.576 58.9134 191.384 59.0734 191.144C59.2334 190.904 59.3294 190.584 59.3614 190.2V189.368C58.9134 189.352 58.4814 189.336 58.0974 189.32C57.7134 189.32 57.3614 189.304 57.0414 189.304C56.4974 189.304 56.0494 189.352 55.7294 189.416C55.4094 189.496 55.1534 189.592 54.9934 189.72C54.8174 189.848 54.7054 190.008 54.6574 190.168C54.5934 190.328 54.5774 190.504 54.5774 190.68C54.5774 191.208 54.7374 191.56 55.0734 191.752C55.4094 191.944 55.9374 192.04 56.6414 192.04ZM62.3763 185H63.7682V187.624C63.7682 188.104 63.8963 188.456 64.1843 188.712C64.4723 188.968 64.9203 189.08 65.5603 189.08C66.0083 189.08 66.4243 189.064 66.8083 189.032C67.1923 189 67.6083 188.92 68.0563 188.808V185H69.4643V193H68.0563V189.96C67.6243 190.056 67.2243 190.136 66.8403 190.2C66.4563 190.264 66.0403 190.28 65.5763 190.28C64.5043 190.28 63.7043 190.056 63.1763 189.576C62.6323 189.112 62.3763 188.456 62.3763 187.624V185ZM77.2066 193V187.384L72.1186 193H71.3186V185H72.7266V190.68L77.8146 185H78.6146V193H77.2066ZM81.8829 187.544V193H80.4749V185H81.3069L84.8909 189.016L88.4749 185H89.3069V193H87.8989V187.56L84.8749 190.776L81.8829 187.544ZM95.0664 192.04C95.4824 192.04 95.8664 192.008 96.2184 191.928C96.5544 191.848 96.8424 191.704 97.0824 191.48C97.3224 191.256 97.5144 190.952 97.6424 190.568C97.7704 190.184 97.8344 189.672 97.8344 189.048C97.8344 188.408 97.7704 187.896 97.6424 187.496C97.5144 187.096 97.3224 186.776 97.0824 186.552C96.8424 186.328 96.5544 186.168 96.2184 186.088C95.8664 186.008 95.4824 185.96 95.0664 185.96C94.6344 185.96 94.2504 186.008 93.9144 186.088C93.5624 186.168 93.2744 186.312 93.0504 186.536C92.8104 186.76 92.6344 187.08 92.5064 187.48C92.3784 187.896 92.3144 188.408 92.3144 189.048C92.3144 189.672 92.3784 190.184 92.5064 190.568C92.6344 190.952 92.8104 191.256 93.0504 191.48C93.2744 191.704 93.5624 191.848 93.9144 191.928C94.2504 192.008 94.6344 192.04 95.0664 192.04ZM95.0664 184.76C95.7064 184.76 96.2984 184.84 96.8104 184.968C97.3224 185.112 97.7704 185.352 98.1224 185.672C98.4744 186.008 98.7464 186.456 98.9384 187C99.1304 187.544 99.2264 188.232 99.2264 189.048C99.2264 189.848 99.1304 190.52 98.9384 191.048C98.7464 191.592 98.4744 192.024 98.1224 192.344C97.7704 192.664 97.3224 192.904 96.8104 193.032C96.2984 193.176 95.7064 193.24 95.0664 193.24C94.4104 193.24 93.8344 193.176 93.3224 193.032C92.8104 192.904 92.3624 192.664 92.0104 192.344C91.6584 192.024 91.3864 191.592 91.1944 191.048C91.0024 190.52 90.9064 189.848 90.9064 189.048C90.9064 188.232 91.0024 187.544 91.1944 187C91.3864 186.456 91.6584 186.008 92.0104 185.672C92.3624 185.352 92.8104 185.112 93.3224 184.968C93.8344 184.84 94.4104 184.76 95.0664 184.76ZM108.611 189.528H101.971C101.971 190.04 102.051 190.472 102.179 190.792C102.307 191.112 102.499 191.368 102.739 191.56C102.979 191.752 103.267 191.88 103.603 191.944C103.939 192.008 104.307 192.04 104.723 192.04C105.043 192.04 105.331 192.024 105.619 191.976C105.891 191.944 106.131 191.864 106.355 191.752C106.579 191.656 106.755 191.512 106.915 191.32C107.059 191.128 107.155 190.888 107.219 190.584H108.611C108.531 191.08 108.387 191.496 108.163 191.832C107.939 192.184 107.667 192.456 107.331 192.664C106.995 192.872 106.611 193.016 106.179 193.112C105.731 193.208 105.251 193.24 104.723 193.24C104.067 193.24 103.491 193.176 102.979 193.032C102.467 192.904 102.019 192.664 101.667 192.344C101.315 192.024 101.043 191.592 100.851 191.048C100.659 190.52 100.563 189.848 100.563 189.048C100.563 188.232 100.659 187.544 100.851 187C101.043 186.456 101.315 186.008 101.667 185.672C102.019 185.352 102.451 185.112 102.963 184.968C103.475 184.84 104.051 184.76 104.691 184.76C105.907 184.76 106.867 185.064 107.571 185.672C108.259 186.28 108.611 187.208 108.611 188.456V189.528ZM104.691 185.96C104.307 185.96 103.971 185.992 103.651 186.056C103.331 186.12 103.043 186.248 102.803 186.424C102.563 186.6 102.371 186.84 102.227 187.16C102.083 187.48 102.003 187.88 101.987 188.392H107.187C107.187 187.912 107.123 187.528 106.995 187.208C106.867 186.888 106.707 186.648 106.483 186.456C106.259 186.28 106.003 186.152 105.699 186.072C105.395 186.008 105.059 185.96 104.691 185.96ZM121.501 190.392C121.421 190.936 121.277 191.384 121.053 191.736C120.829 192.104 120.557 192.392 120.221 192.616C119.885 192.84 119.501 193 119.069 193.096C118.621 193.192 118.141 193.24 117.613 193.24C116.957 193.24 116.381 193.176 115.869 193.032C115.357 192.904 114.909 192.664 114.557 192.344C114.205 192.024 113.933 191.592 113.741 191.048C113.549 190.52 113.453 189.848 113.453 189.048C113.453 188.232 113.549 187.544 113.741 187C113.933 186.456 114.205 186.008 114.557 185.672C114.909 185.352 115.357 185.112 115.869 184.968C116.381 184.84 116.957 184.76 117.613 184.76C118.125 184.76 118.589 184.808 119.037 184.904C119.469 185 119.853 185.16 120.173 185.368C120.493 185.592 120.765 185.88 120.989 186.232C121.213 186.584 121.357 187.032 121.453 187.56H120.045C119.981 187.24 119.869 186.984 119.725 186.776C119.565 186.568 119.389 186.408 119.181 186.28C118.957 186.152 118.717 186.072 118.461 186.024C118.205 185.992 117.917 185.96 117.613 185.96C117.181 185.96 116.797 186.008 116.461 186.088C116.109 186.168 115.821 186.312 115.597 186.536C115.357 186.76 115.181 187.08 115.053 187.48C114.925 187.896 114.861 188.408 114.861 189.048C114.861 189.672 114.925 190.184 115.053 190.568C115.181 190.952 115.357 191.256 115.597 191.48C115.821 191.704 116.109 191.848 116.461 191.928C116.797 192.008 117.181 192.04 117.613 192.04C117.933 192.04 118.221 192.024 118.509 191.976C118.781 191.928 119.021 191.848 119.245 191.72C119.453 191.592 119.629 191.432 119.789 191.208C119.933 191 120.045 190.728 120.109 190.392H121.501ZM126.848 192.04C127.264 192.04 127.648 192.008 128 191.928C128.336 191.848 128.624 191.704 128.864 191.48C129.104 191.256 129.296 190.952 129.424 190.568C129.552 190.184 129.616 189.672 129.616 189.048C129.616 188.408 129.552 187.896 129.424 187.496C129.296 187.096 129.104 186.776 128.864 186.552C128.624 186.328 128.336 186.168 128 186.088C127.648 186.008 127.264 185.96 126.848 185.96C126.416 185.96 126.032 186.008 125.696 186.088C125.344 186.168 125.056 186.312 124.832 186.536C124.592 186.76 124.416 187.08 124.288 187.48C124.16 187.896 124.096 188.408 124.096 189.048C124.096 189.672 124.16 190.184 124.288 190.568C124.416 190.952 124.592 191.256 124.832 191.48C125.056 191.704 125.344 191.848 125.696 191.928C126.032 192.008 126.416 192.04 126.848 192.04ZM126.848 184.76C127.488 184.76 128.08 184.84 128.592 184.968C129.104 185.112 129.552 185.352 129.904 185.672C130.256 186.008 130.528 186.456 130.72 187C130.912 187.544 131.008 188.232 131.008 189.048C131.008 189.848 130.912 190.52 130.72 191.048C130.528 191.592 130.256 192.024 129.904 192.344C129.552 192.664 129.104 192.904 128.592 193.032C128.08 193.176 127.488 193.24 126.848 193.24C126.192 193.24 125.616 193.176 125.104 193.032C124.592 192.904 124.144 192.664 123.792 192.344C123.44 192.024 123.168 191.592 122.976 191.048C122.784 190.52 122.688 189.848 122.688 189.048C122.688 188.232 122.784 187.544 122.976 187C123.168 186.456 123.44 186.008 123.792 185.672C124.144 185.352 124.592 185.112 125.104 184.968C125.616 184.84 126.192 184.76 126.848 184.76ZM136.6 193.24C135.928 193.24 135.32 193.176 134.792 193.032C134.264 192.904 133.816 192.664 133.464 192.328C133.096 191.992 132.824 191.544 132.632 190.984C132.44 190.424 132.344 189.72 132.344 188.888C132.344 188.12 132.344 187.4 132.376 186.712C132.392 186.024 132.504 185.4 132.696 184.84C132.888 184.28 133.192 183.784 133.624 183.368C134.056 182.952 134.68 182.648 135.496 182.424C136.552 182.152 137.416 181.928 138.056 181.752C138.696 181.576 139.192 181.416 139.512 181.256L139.912 182.488C139.672 182.6 139.432 182.696 139.208 182.776C138.984 182.856 138.712 182.936 138.424 183.016C138.136 183.096 137.784 183.192 137.4 183.288C137 183.4 136.504 183.528 135.928 183.672C135.368 183.816 134.936 184.024 134.648 184.312C134.36 184.6 134.152 184.92 134.024 185.24C133.896 185.56 133.816 185.896 133.8 186.216C133.768 186.552 133.752 186.84 133.752 187.064H133.912C134.168 186.52 134.552 186.12 135.064 185.832C135.576 185.544 136.216 185.4 136.984 185.4C137.496 185.4 137.96 185.464 138.408 185.576C138.856 185.688 139.24 185.88 139.576 186.168C139.896 186.456 140.168 186.856 140.36 187.336C140.552 187.832 140.648 188.456 140.648 189.208C140.648 189.976 140.552 190.616 140.376 191.128C140.184 191.64 139.928 192.056 139.576 192.376C139.224 192.696 138.808 192.92 138.312 193.048C137.8 193.176 137.24 193.24 136.6 193.24ZM136.6 192.04C137.016 192.04 137.384 192.008 137.704 191.928C138.024 191.864 138.312 191.72 138.536 191.512C138.76 191.304 138.936 191.016 139.064 190.648C139.192 190.28 139.256 189.8 139.256 189.208C139.256 188.68 139.192 188.248 139.08 187.896C138.952 187.56 138.792 187.288 138.568 187.096C138.344 186.904 138.056 186.776 137.736 186.712C137.4 186.648 137.016 186.6 136.584 186.6C136.168 186.6 135.8 186.648 135.448 186.712C135.096 186.776 134.808 186.904 134.552 187.096C134.296 187.288 134.088 187.56 133.944 187.896C133.8 188.248 133.736 188.68 133.736 189.208C133.736 189.8 133.8 190.28 133.928 190.648C134.056 191.016 134.248 191.304 134.504 191.512C134.744 191.72 135.048 191.864 135.4 191.928C135.752 192.008 136.152 192.04 136.6 192.04ZM145.665 187.912C146.177 187.912 146.625 187.976 146.977 188.104C147.329 188.232 147.617 188.392 147.841 188.616C148.065 188.84 148.225 189.112 148.321 189.4C148.417 189.704 148.465 190.024 148.465 190.376C148.465 191.16 148.241 191.8 147.825 192.28C147.393 192.76 146.737 193 145.841 193H142.241V185H143.649V187.912H145.665ZM151.185 185V193H149.777V185H151.185ZM143.649 189.048V191.8H145.521C145.985 191.8 146.353 191.704 146.641 191.496C146.929 191.304 147.073 190.92 147.073 190.376C147.073 189.992 146.977 189.688 146.785 189.432C146.593 189.176 146.209 189.048 145.649 189.048H143.649ZM159.453 185V186.2H156.541V193H155.133V186.2H152.221V185H159.453ZM166.379 193V187.384L161.291 193H160.491V185H161.899V190.68L166.987 185H167.786V193H166.379ZM177.439 189.528H170.799C170.799 190.04 170.879 190.472 171.007 190.792C171.135 191.112 171.327 191.368 171.567 191.56C171.807 191.752 172.095 191.88 172.431 191.944C172.767 192.008 173.135 192.04 173.551 192.04C173.871 192.04 174.159 192.024 174.447 191.976C174.719 191.944 174.959 191.864 175.183 191.752C175.407 191.656 175.583 191.512 175.743 191.32C175.887 191.128 175.983 190.888 176.047 190.584H177.439C177.359 191.08 177.215 191.496 176.991 191.832C176.767 192.184 176.495 192.456 176.159 192.664C175.823 192.872 175.439 193.016 175.007 193.112C174.559 193.208 174.079 193.24 173.551 193.24C172.895 193.24 172.319 193.176 171.807 193.032C171.295 192.904 170.847 192.664 170.495 192.344C170.143 192.024 169.871 191.592 169.679 191.048C169.487 190.52 169.391 189.848 169.391 189.048C169.391 188.232 169.487 187.544 169.679 187C169.871 186.456 170.143 186.008 170.495 185.672C170.847 185.352 171.279 185.112 171.791 184.968C172.303 184.84 172.879 184.76 173.519 184.76C174.735 184.76 175.695 185.064 176.399 185.672C177.087 186.28 177.439 187.208 177.439 188.456V189.528ZM173.519 185.96C173.135 185.96 172.799 185.992 172.479 186.056C172.159 186.12 171.871 186.248 171.631 186.424C171.391 186.6 171.199 186.84 171.055 187.16C170.911 187.48 170.831 187.88 170.815 188.392H176.015C176.015 187.912 175.951 187.528 175.823 187.208C175.695 186.888 175.535 186.648 175.311 186.456C175.087 186.28 174.831 186.152 174.527 186.072C174.223 186.008 173.887 185.96 173.519 185.96ZM186.165 185.96C185.813 185.96 185.509 185.992 185.237 186.024C184.949 186.072 184.709 186.152 184.501 186.28C184.293 186.408 184.133 186.568 184.005 186.776C183.877 186.984 183.813 187.24 183.781 187.56H182.373C182.421 187.032 182.549 186.584 182.741 186.232C182.933 185.88 183.189 185.592 183.509 185.368C183.829 185.16 184.213 185 184.661 184.904C185.109 184.808 185.605 184.76 186.165 184.76C186.821 184.76 187.381 184.824 187.829 184.952C188.277 185.08 188.629 185.24 188.917 185.448C189.189 185.656 189.381 185.896 189.509 186.168C189.637 186.44 189.701 186.728 189.701 187.016C189.701 187.592 189.541 188.04 189.253 188.328C188.949 188.616 188.533 188.792 187.989 188.84V189.048C188.597 189.112 189.077 189.272 189.413 189.544C189.733 189.832 189.909 190.264 189.909 190.872C189.909 191.224 189.829 191.544 189.701 191.832C189.557 192.12 189.333 192.376 189.029 192.584C188.725 192.792 188.341 192.952 187.861 193.064C187.381 193.192 186.805 193.24 186.133 193.24C184.933 193.24 184.005 193.032 183.365 192.616C182.725 192.2 182.357 191.464 182.277 190.392H183.669C183.733 191.064 183.973 191.496 184.373 191.72C184.773 191.944 185.365 192.04 186.133 192.04C186.901 192.04 187.493 191.96 187.909 191.768C188.309 191.576 188.517 191.224 188.517 190.696C188.517 190.36 188.421 190.088 188.229 189.864C188.037 189.64 187.653 189.528 187.093 189.528H185.221V188.392H187.109C187.557 188.392 187.877 188.28 188.053 188.056C188.213 187.832 188.309 187.576 188.309 187.256C188.309 187.08 188.277 186.92 188.229 186.76C188.165 186.6 188.069 186.472 187.909 186.344C187.749 186.232 187.525 186.136 187.253 186.072C186.965 186.008 186.613 185.96 186.165 185.96ZM194.006 193.24C193.558 193.24 193.158 193.208 192.789 193.112C192.422 193.016 192.102 192.872 191.846 192.664C191.574 192.472 191.366 192.2 191.222 191.88C191.062 191.56 190.998 191.16 190.998 190.696C190.998 190.424 191.03 190.136 191.126 189.848C191.222 189.56 191.382 189.288 191.638 189.048C191.878 188.808 192.214 188.616 192.646 188.456C193.078 188.312 193.638 188.232 194.326 188.232C194.646 188.232 194.918 188.248 195.174 188.248C195.43 188.248 195.654 188.264 195.878 188.264C196.086 188.28 196.294 188.296 196.502 188.296C196.71 188.312 196.934 188.328 197.19 188.328V187.656C197.19 187.048 197.014 186.616 196.662 186.36C196.31 186.104 195.75 185.96 194.95 185.96C194.598 185.96 194.278 185.992 194.022 186.024C193.75 186.072 193.526 186.152 193.334 186.28C193.142 186.408 192.998 186.568 192.886 186.776C192.758 186.984 192.678 187.24 192.63 187.56H191.27C191.334 187.032 191.462 186.584 191.654 186.232C191.846 185.88 192.086 185.592 192.39 185.368C192.694 185.16 193.062 185 193.494 184.904C193.91 184.808 194.406 184.76 194.95 184.76C196.086 184.76 196.982 184.984 197.622 185.432C198.262 185.88 198.598 186.632 198.598 187.656V193H197.19V191.672H197.03C196.774 192.216 196.374 192.616 195.83 192.872C195.286 193.128 194.678 193.24 194.006 193.24ZM194.47 192.04C194.79 192.04 195.094 192.024 195.414 191.976C195.734 191.928 196.022 191.832 196.278 191.704C196.534 191.576 196.742 191.384 196.902 191.144C197.062 190.904 197.158 190.584 197.19 190.2V189.368C196.742 189.352 196.31 189.336 195.926 189.32C195.542 189.32 195.19 189.304 194.87 189.304C194.326 189.304 193.878 189.352 193.558 189.416C193.238 189.496 192.982 189.592 192.822 189.72C192.646 189.848 192.534 190.008 192.486 190.168C192.422 190.328 192.406 190.504 192.406 190.68C192.406 191.208 192.566 191.56 192.902 191.752C193.238 191.944 193.766 192.04 194.47 192.04ZM209.775 187.96C210.383 187.512 210.863 187.064 211.199 186.632C211.535 186.2 211.711 185.704 211.711 185.128C211.711 184.84 211.663 184.584 211.583 184.328C211.503 184.088 211.359 183.88 211.151 183.704C210.943 183.528 210.671 183.384 210.319 183.288C209.967 183.192 209.503 183.128 208.959 183.128C208.575 183.128 208.207 183.16 207.855 183.224C207.503 183.288 207.183 183.4 206.927 183.576C206.655 183.768 206.447 184.008 206.303 184.328C206.159 184.648 206.095 185.08 206.127 185.608H204.591C204.559 184.872 204.639 184.264 204.863 183.752C205.087 183.256 205.391 182.856 205.791 182.552C206.175 182.264 206.655 182.04 207.199 181.912C207.743 181.784 208.319 181.72 208.959 181.72C209.807 181.72 210.511 181.816 211.071 181.992C211.631 182.168 212.079 182.408 212.399 182.712C212.719 183.016 212.959 183.368 213.087 183.784C213.215 184.2 213.295 184.648 213.295 185.128C213.295 185.528 213.231 185.896 213.135 186.216C213.039 186.552 212.879 186.872 212.671 187.176C212.447 187.496 212.175 187.8 211.839 188.104C211.487 188.408 211.087 188.728 210.607 189.064L207.119 191.512V191.592H213.567V193H204.335V191.96L209.775 187.96ZM220.163 183.128C219.603 183.128 219.123 183.176 218.707 183.272C218.291 183.368 217.939 183.56 217.667 183.864C217.379 184.168 217.171 184.6 217.027 185.176C216.883 185.752 216.819 186.536 216.819 187.496C216.819 188.424 216.883 189.176 217.027 189.752C217.171 190.328 217.379 190.76 217.667 191.064C217.939 191.384 218.291 191.592 218.707 191.688C219.123 191.784 219.603 191.832 220.163 191.832C220.707 191.832 221.203 191.784 221.619 191.688C222.035 191.592 222.371 191.384 222.659 191.064C222.947 190.76 223.155 190.328 223.299 189.752C223.427 189.176 223.507 188.424 223.507 187.496C223.507 186.536 223.427 185.752 223.299 185.176C223.155 184.6 222.947 184.168 222.659 183.864C222.371 183.56 222.035 183.368 221.619 183.272C221.203 183.176 220.707 183.128 220.163 183.128ZM220.163 193.24C219.347 193.24 218.643 193.16 218.035 192.968C217.427 192.792 216.914 192.488 216.515 192.04C216.099 191.608 215.795 191.016 215.603 190.28C215.411 189.544 215.315 188.616 215.315 187.496C215.315 186.344 215.411 185.384 215.635 184.632C215.843 183.896 216.147 183.304 216.562 182.872C216.979 182.44 217.475 182.136 218.083 181.976C218.691 181.816 219.379 181.72 220.163 181.72C220.931 181.72 221.619 181.816 222.227 181.976C222.835 182.136 223.331 182.44 223.747 182.872C224.163 183.304 224.467 183.896 224.691 184.632C224.899 185.384 225.011 186.344 225.011 187.496C225.011 188.616 224.899 189.544 224.707 190.28C224.515 191.016 224.211 191.608 223.811 192.04C223.395 192.488 222.899 192.792 222.291 192.968C221.683 193.16 220.979 193.24 220.163 193.24ZM232.025 187.96C232.633 187.512 233.113 187.064 233.449 186.632C233.785 186.2 233.961 185.704 233.961 185.128C233.961 184.84 233.913 184.584 233.833 184.328C233.753 184.088 233.609 183.88 233.401 183.704C233.193 183.528 232.921 183.384 232.569 183.288C232.217 183.192 231.753 183.128 231.209 183.128C230.825 183.128 230.457 183.16 230.105 183.224C229.753 183.288 229.433 183.4 229.177 183.576C228.905 183.768 228.697 184.008 228.553 184.328C228.409 184.648 228.345 185.08 228.377 185.608H226.841C226.809 184.872 226.889 184.264 227.113 183.752C227.337 183.256 227.641 182.856 228.041 182.552C228.425 182.264 228.905 182.04 229.449 181.912C229.993 181.784 230.569 181.72 231.209 181.72C232.057 181.72 232.761 181.816 233.321 181.992C233.881 182.168 234.329 182.408 234.649 182.712C234.969 183.016 235.209 183.368 235.337 183.784C235.465 184.2 235.545 184.648 235.545 185.128C235.545 185.528 235.481 185.896 235.385 186.216C235.289 186.552 235.129 186.872 234.921 187.176C234.697 187.496 234.425 187.8 234.089 188.104C233.737 188.408 233.337 188.728 232.857 189.064L229.369 191.512V191.592H235.817V193H226.585V191.96L232.025 187.96ZM242.164 193.24C241.46 193.24 240.82 193.192 240.228 193.064C239.636 192.952 239.124 192.744 238.692 192.456C238.26 192.168 237.924 191.784 237.668 191.304C237.412 190.824 237.284 190.2 237.284 189.464H238.852C238.852 189.976 238.948 190.392 239.124 190.712C239.3 191.032 239.54 191.272 239.844 191.432C240.132 191.592 240.484 191.704 240.884 191.752C241.284 191.816 241.716 191.832 242.164 191.832C242.82 191.832 243.364 191.784 243.78 191.688C244.196 191.592 244.516 191.432 244.756 191.24C244.996 191.048 245.156 190.824 245.252 190.552C245.348 190.28 245.396 189.976 245.396 189.64C245.396 189.32 245.364 189.016 245.3 188.76C245.236 188.504 245.092 188.296 244.884 188.104C244.676 187.928 244.372 187.784 243.972 187.688C243.556 187.592 243.012 187.544 242.34 187.544H240.804V186.44L244.052 183.368H237.876V181.96H246.1V183.064L242.564 186.376H243.364C244.548 186.376 245.428 186.664 246.02 187.224C246.612 187.784 246.916 188.6 246.916 189.656C246.916 190.216 246.82 190.712 246.66 191.16C246.5 191.608 246.228 191.976 245.844 192.28C245.46 192.6 244.98 192.84 244.372 193C243.764 193.16 243.028 193.24 242.164 193.24ZM252.506 185H258.394V186.2H253.914V193H252.506V185ZM263.207 192.04C263.623 192.04 264.007 192.008 264.359 191.928C264.695 191.848 264.983 191.704 265.223 191.48C265.463 191.256 265.655 190.952 265.783 190.568C265.911 190.184 265.975 189.672 265.975 189.048C265.975 188.408 265.911 187.896 265.783 187.496C265.655 187.096 265.463 186.776 265.223 186.552C264.983 186.328 264.695 186.168 264.359 186.088C264.007 186.008 263.623 185.96 263.207 185.96C262.775 185.96 262.391 186.008 262.055 186.088C261.703 186.168 261.415 186.312 261.191 186.536C260.951 186.76 260.775 187.08 260.647 187.48C260.519 187.896 260.455 188.408 260.455 189.048C260.455 189.672 260.519 190.184 260.647 190.568C260.775 190.952 260.951 191.256 261.191 191.48C261.415 191.704 261.703 191.848 262.055 191.928C262.391 192.008 262.775 192.04 263.207 192.04ZM263.207 184.76C263.847 184.76 264.439 184.84 264.951 184.968C265.463 185.112 265.911 185.352 266.263 185.672C266.615 186.008 266.887 186.456 267.079 187C267.271 187.544 267.367 188.232 267.367 189.048C267.367 189.848 267.271 190.52 267.079 191.048C266.887 191.592 266.615 192.024 266.263 192.344C265.911 192.664 265.463 192.904 264.951 193.032C264.439 193.176 263.847 193.24 263.207 193.24C262.551 193.24 261.975 193.176 261.463 193.032C260.951 192.904 260.503 192.664 260.151 192.344C259.799 192.024 259.527 191.592 259.335 191.048C259.143 190.52 259.047 189.848 259.047 189.048C259.047 188.232 259.143 187.544 259.335 187C259.527 186.456 259.799 186.008 260.151 185.672C260.503 185.352 260.951 185.112 261.463 184.968C261.975 184.84 262.551 184.76 263.207 184.76ZM269.827 185H276.387V191.8H277.715V195.4H276.307V193H269.395V195.4H267.987V191.8H268.851C269.059 191.688 269.219 191.496 269.347 191.208C269.475 190.936 269.571 190.6 269.651 190.216C269.715 189.832 269.763 189.416 269.795 188.936C269.811 188.472 269.827 187.992 269.827 187.496V185ZM271.187 187.688C271.187 188.744 271.107 189.592 270.979 190.248C270.851 190.92 270.675 191.432 270.467 191.8H274.979V186.2H271.187V187.688Z" fill="#4E5359"/>
    <mask id="path-13-inside-3_8310_62642" fill="white">
        <path d="M24 222H343V323H24V222Z"/>
    </mask>
    <path d="M343 322H24V324H343V322Z" fill="#CACDD2" mask="url(#path-13-inside-3_8310_62642)"/>
    <path d="M39.58 258.68C40.42 258.12 41 257.6 41.36 257.08C41.72 256.56 41.9 256 41.9 255.4C41.9 255.1 41.84 254.82 41.76 254.56C41.68 254.3 41.52 254.08 41.3 253.88C41.08 253.7 40.8 253.56 40.44 253.46C40.08 253.36 39.62 253.3 39.06 253.3C38.58 253.3 38.16 253.34 37.8 253.42C37.42 253.5 37.1 253.66 36.84 253.86C36.58 254.08 36.38 254.38 36.26 254.74C36.14 255.1 36.08 255.58 36.12 256.14H33.34C33.3 255.18 33.4 254.38 33.66 253.7C33.92 253.04 34.3 252.5 34.8 252.08C35.3 251.68 35.92 251.38 36.64 251.18C37.36 251 38.18 250.9 39.08 250.9C40.16 250.9 41.06 251.02 41.78 251.24C42.5 251.48 43.1 251.78 43.54 252.18C43.98 252.58 44.28 253.06 44.48 253.6C44.66 254.14 44.76 254.72 44.76 255.36C44.76 255.84 44.7 256.28 44.58 256.7C44.46 257.12 44.28 257.52 44 257.92C43.72 258.32 43.38 258.7 42.94 259.08C42.5 259.46 41.94 259.84 41.3 260.24L37.84 262.54V262.66H44.96V265H33.12V263.08L39.58 258.68ZM53.1811 253.3C52.5811 253.3 52.0411 253.36 51.6011 253.46C51.1611 253.56 50.7811 253.78 50.5011 254.1C50.2011 254.44 49.9811 254.92 49.8411 255.56C49.7011 256.2 49.6411 257.06 49.6411 258.12C49.6411 259.16 49.7011 259.98 49.8411 260.6C49.9811 261.24 50.2011 261.72 50.5011 262.06C50.7811 262.4 51.1611 262.62 51.6011 262.74C52.0411 262.86 52.5811 262.9 53.1811 262.9C53.7811 262.9 54.3211 262.86 54.7611 262.74C55.2011 262.62 55.5811 262.4 55.8611 262.06C56.1411 261.72 56.3611 261.24 56.5011 260.6C56.6411 259.98 56.7211 259.16 56.7211 258.12C56.7211 257.06 56.6411 256.2 56.5011 255.56C56.3611 254.92 56.1411 254.44 55.8611 254.1C55.5811 253.78 55.2011 253.56 54.7611 253.46C54.3211 253.36 53.7811 253.3 53.1811 253.3ZM53.1811 265.3C52.1011 265.3 51.1611 265.2 50.3611 264.96C49.5611 264.74 48.9211 264.36 48.4011 263.8C47.8811 263.26 47.5011 262.52 47.2611 261.6C47.0011 260.68 46.8811 259.52 46.8811 258.12C46.8811 256.68 47.0011 255.48 47.2811 254.54C47.5611 253.62 47.9611 252.88 48.4811 252.34C49.0011 251.8 49.6611 251.42 50.4611 251.22C51.2411 251.02 52.1411 250.9 53.1811 250.9C54.2211 250.9 55.1211 251.02 55.9011 251.22C56.6811 251.42 57.3411 251.8 57.8811 252.34C58.4011 252.88 58.8011 253.62 59.0811 254.54C59.3411 255.48 59.4811 256.68 59.4811 258.12C59.4811 259.52 59.3411 260.68 59.1011 261.6C58.8611 262.52 58.4811 263.26 57.9611 263.8C57.4411 264.36 56.7811 264.74 55.9811 264.96C55.1811 265.2 54.2611 265.3 53.1811 265.3ZM67.6269 258.68C68.4669 258.12 69.0469 257.6 69.4069 257.08C69.7669 256.56 69.9469 256 69.9469 255.4C69.9469 255.1 69.8869 254.82 69.8069 254.56C69.7269 254.3 69.5669 254.08 69.3469 253.88C69.1269 253.7 68.8469 253.56 68.4869 253.46C68.1269 253.36 67.6669 253.3 67.1069 253.3C66.6269 253.3 66.2069 253.34 65.8469 253.42C65.4669 253.5 65.1469 253.66 64.8869 253.86C64.6269 254.08 64.4269 254.38 64.3069 254.74C64.1869 255.1 64.1269 255.58 64.1669 256.14H61.3869C61.3469 255.18 61.4469 254.38 61.7069 253.7C61.9669 253.04 62.3469 252.5 62.8469 252.08C63.3469 251.68 63.9669 251.38 64.6869 251.18C65.4069 251 66.2269 250.9 67.1269 250.9C68.2069 250.9 69.1069 251.02 69.8269 251.24C70.5469 251.48 71.1469 251.78 71.5869 252.18C72.0269 252.58 72.3269 253.06 72.5269 253.6C72.7069 254.14 72.8069 254.72 72.8069 255.36C72.8069 255.84 72.7469 256.28 72.6269 256.7C72.5069 257.12 72.3269 257.52 72.0469 257.92C71.7669 258.32 71.4269 258.7 70.9869 259.08C70.5469 259.46 69.9869 259.84 69.3469 260.24L65.8869 262.54V262.66H73.0069V265H61.1669V263.08L67.6269 258.68ZM83.2025 263.16H74.2825V261.06L83.4025 251.2H85.8225V260.92H87.0625V263.16H85.8225V265H83.2025V263.16ZM83.2025 260.92V254.88L77.6225 260.92H83.2025Z" fill="#4E5359"/>
    <path d="M38.48 294.24C37.552 294.24 36.72 294.16 36.016 293.968C35.312 293.792 34.72 293.488 34.24 293.04C33.76 292.608 33.392 292.016 33.152 291.28C32.912 290.544 32.8 289.616 32.8 288.496C32.8 287.344 32.928 286.384 33.184 285.632C33.44 284.896 33.824 284.304 34.304 283.872C34.784 283.44 35.392 283.136 36.096 282.976C36.8 282.816 37.584 282.72 38.48 282.72C39.36 282.72 40.16 282.816 40.864 282.976C41.568 283.136 42.16 283.44 42.656 283.872C43.136 284.304 43.52 284.896 43.776 285.632C44.032 286.384 44.16 287.344 44.16 288.496C44.16 289.616 44.032 290.544 43.792 291.28C43.552 292.016 43.2 292.608 42.72 293.04C42.24 293.488 41.632 293.792 40.928 293.968C40.224 294.16 39.408 294.24 38.48 294.24ZM38.48 292.832C39.136 292.832 39.728 292.784 40.24 292.688C40.752 292.592 41.2 292.384 41.552 292.064C41.904 291.76 42.176 291.328 42.368 290.752C42.56 290.176 42.656 289.424 42.656 288.496C42.656 287.536 42.56 286.768 42.368 286.192C42.176 285.616 41.904 285.184 41.552 284.88C41.2 284.576 40.752 284.368 40.24 284.272C39.728 284.176 39.136 284.128 38.48 284.128C37.808 284.128 37.216 284.176 36.704 284.272C36.192 284.368 35.744 284.56 35.392 284.864C35.04 285.168 34.768 285.6 34.576 286.176C34.384 286.752 34.304 287.536 34.304 288.496C34.304 289.424 34.384 290.176 34.576 290.752C34.768 291.328 35.04 291.76 35.392 292.064C35.744 292.384 36.192 292.592 36.704 292.688C37.216 292.784 37.808 292.832 38.48 292.832ZM49.8811 294.24C49.2091 294.24 48.6011 294.176 48.0731 294.032C47.5451 293.904 47.0971 293.664 46.7451 293.328C46.3771 292.992 46.1051 292.544 45.9131 291.984C45.7211 291.424 45.6251 290.72 45.6251 289.888C45.6251 289.12 45.6251 288.4 45.6571 287.712C45.6731 287.024 45.7851 286.4 45.9771 285.84C46.1691 285.28 46.4731 284.784 46.9051 284.368C47.3371 283.952 47.9611 283.648 48.7771 283.424C49.8331 283.152 50.6971 282.928 51.3371 282.752C51.9771 282.576 52.4731 282.416 52.7931 282.256L53.1931 283.488C52.9531 283.6 52.7131 283.696 52.4891 283.776C52.2651 283.856 51.9931 283.936 51.7051 284.016C51.4171 284.096 51.0651 284.192 50.6811 284.288C50.2811 284.4 49.7851 284.528 49.2091 284.672C48.6491 284.816 48.2171 285.024 47.9291 285.312C47.6411 285.6 47.4331 285.92 47.3051 286.24C47.1771 286.56 47.0971 286.896 47.0811 287.216C47.0491 287.552 47.0331 287.84 47.0331 288.064H47.1931C47.4491 287.52 47.8331 287.12 48.3451 286.832C48.8571 286.544 49.4971 286.4 50.2651 286.4C50.7771 286.4 51.2411 286.464 51.6891 286.576C52.1371 286.688 52.5211 286.88 52.8571 287.168C53.1771 287.456 53.4491 287.856 53.6411 288.336C53.8331 288.832 53.9291 289.456 53.9291 290.208C53.9291 290.976 53.8331 291.616 53.6571 292.128C53.4651 292.64 53.2091 293.056 52.8571 293.376C52.5051 293.696 52.0891 293.92 51.5931 294.048C51.0811 294.176 50.5211 294.24 49.8811 294.24ZM49.8811 293.04C50.2971 293.04 50.6651 293.008 50.9851 292.928C51.3051 292.864 51.5931 292.72 51.8171 292.512C52.0411 292.304 52.2171 292.016 52.3451 291.648C52.4731 291.28 52.5371 290.8 52.5371 290.208C52.5371 289.68 52.4731 289.248 52.3611 288.896C52.2331 288.56 52.0731 288.288 51.8491 288.096C51.6251 287.904 51.3371 287.776 51.0171 287.712C50.6811 287.648 50.2971 287.6 49.8651 287.6C49.4491 287.6 49.0811 287.648 48.7291 287.712C48.3771 287.776 48.0891 287.904 47.8331 288.096C47.5771 288.288 47.3691 288.56 47.2251 288.896C47.0811 289.248 47.0171 289.68 47.0171 290.208C47.0171 290.8 47.0811 291.28 47.2091 291.648C47.3371 292.016 47.5291 292.304 47.7851 292.512C48.0251 292.72 48.3291 292.864 48.6811 292.928C49.0331 293.008 49.4331 293.04 49.8811 293.04ZM56.9298 289.232H61.5538V286H62.9618V294H61.5538V290.432H56.9298V294H55.5218V286H56.9298V289.232ZM68.7226 293.04C69.1386 293.04 69.5226 293.008 69.8746 292.928C70.2106 292.848 70.4986 292.704 70.7386 292.48C70.9786 292.256 71.1706 291.952 71.2986 291.568C71.4266 291.184 71.4906 290.672 71.4906 290.048C71.4906 289.408 71.4266 288.896 71.2986 288.496C71.1706 288.096 70.9786 287.776 70.7386 287.552C70.4986 287.328 70.2106 287.168 69.8746 287.088C69.5226 287.008 69.1386 286.96 68.7226 286.96C68.2906 286.96 67.9066 287.008 67.5706 287.088C67.2186 287.168 66.9306 287.312 66.7066 287.536C66.4666 287.76 66.2906 288.08 66.1626 288.48C66.0346 288.896 65.9706 289.408 65.9706 290.048C65.9706 290.672 66.0346 291.184 66.1626 291.568C66.2906 291.952 66.4666 292.256 66.7066 292.48C66.9306 292.704 67.2186 292.848 67.5706 292.928C67.9066 293.008 68.2906 293.04 68.7226 293.04ZM68.7226 285.76C69.3626 285.76 69.9546 285.84 70.4666 285.968C70.9786 286.112 71.4266 286.352 71.7786 286.672C72.1306 287.008 72.4026 287.456 72.5946 288C72.7866 288.544 72.8826 289.232 72.8826 290.048C72.8826 290.848 72.7866 291.52 72.5946 292.048C72.4026 292.592 72.1306 293.024 71.7786 293.344C71.4266 293.664 70.9786 293.904 70.4666 294.032C69.9546 294.176 69.3626 294.24 68.7226 294.24C68.0666 294.24 67.4906 294.176 66.9786 294.032C66.4666 293.904 66.0186 293.664 65.6666 293.344C65.3146 293.024 65.0426 292.592 64.8506 292.048C64.6586 291.52 64.5626 290.848 64.5626 290.048C64.5626 289.232 64.6586 288.544 64.8506 288C65.0426 287.456 65.3146 287.008 65.6666 286.672C66.0186 286.352 66.4666 286.112 66.9786 285.968C67.4906 285.84 68.0666 285.76 68.7226 285.76ZM74.4749 286H78.6989C79.2109 286 79.6429 286.064 79.9949 286.176C80.3469 286.304 80.6189 286.448 80.8429 286.64C81.0669 286.832 81.2269 287.04 81.3229 287.28C81.4189 287.52 81.4669 287.76 81.4669 288.016C81.4669 288.592 81.3069 289.04 81.0189 289.328C80.7149 289.616 80.2989 289.792 79.7549 289.84V290.048C80.3629 290.112 80.8429 290.272 81.1789 290.544C81.4989 290.832 81.6749 291.264 81.6749 291.872C81.6749 292.176 81.6109 292.448 81.5149 292.704C81.4189 292.96 81.2589 293.184 81.0349 293.376C80.8109 293.568 80.5389 293.728 80.2189 293.84C79.8829 293.952 79.4989 294 79.0509 294H74.4749V286ZM75.8829 290.528V292.8H78.7309C79.1949 292.8 79.5629 292.72 79.8509 292.56C80.1389 292.4 80.2829 292.112 80.2829 291.696C80.2829 291.36 80.1869 291.088 79.9949 290.864C79.8029 290.64 79.4189 290.528 78.8589 290.528H75.8829ZM75.8829 287.2V289.392H78.8749C79.3229 289.392 79.6429 289.28 79.8189 289.056C79.9789 288.832 80.0749 288.576 80.0749 288.256C80.0749 288.096 80.0429 287.952 80.0109 287.824C79.9789 287.696 79.8989 287.6 79.8029 287.504C79.6909 287.408 79.5309 287.344 79.3389 287.28C79.1469 287.232 78.8909 287.2 78.5869 287.2H75.8829ZM83.6591 286H90.1551V294H88.7471V287.2H85.0191V290.288C85.0191 291.568 84.8271 292.512 84.4751 293.104C84.1231 293.712 83.5471 294 82.7471 294H82.4911V292.72C82.6991 292.72 82.8751 292.688 83.0191 292.608C83.1631 292.544 83.2911 292.4 83.3871 292.208C83.4831 292.016 83.5471 291.76 83.5951 291.408C83.6271 291.072 83.6591 290.64 83.6591 290.096V286ZM99.7981 290.528H93.1581C93.1581 291.04 93.2381 291.472 93.3661 291.792C93.4941 292.112 93.6861 292.368 93.9261 292.56C94.1661 292.752 94.4541 292.88 94.7901 292.944C95.1261 293.008 95.4941 293.04 95.9101 293.04C96.2301 293.04 96.5181 293.024 96.8061 292.976C97.0781 292.944 97.3181 292.864 97.5421 292.752C97.7661 292.656 97.9421 292.512 98.1021 292.32C98.2461 292.128 98.3421 291.888 98.4061 291.584H99.7981C99.7181 292.08 99.5741 292.496 99.3501 292.832C99.1261 293.184 98.8541 293.456 98.5181 293.664C98.1821 293.872 97.7981 294.016 97.3661 294.112C96.9181 294.208 96.4381 294.24 95.9101 294.24C95.2541 294.24 94.6781 294.176 94.1661 294.032C93.6541 293.904 93.2061 293.664 92.8541 293.344C92.5021 293.024 92.2301 292.592 92.0381 292.048C91.8461 291.52 91.7501 290.848 91.7501 290.048C91.7501 289.232 91.8461 288.544 92.0381 288C92.2301 287.456 92.5021 287.008 92.8541 286.672C93.2061 286.352 93.6381 286.112 94.1501 285.968C94.6621 285.84 95.2381 285.76 95.8781 285.76C97.0941 285.76 98.0541 286.064 98.7581 286.672C99.4461 287.28 99.7981 288.208 99.7981 289.456V290.528ZM95.8781 286.96C95.4941 286.96 95.1581 286.992 94.8381 287.056C94.5181 287.12 94.2301 287.248 93.9901 287.424C93.7501 287.6 93.5581 287.84 93.4141 288.16C93.2701 288.48 93.1901 288.88 93.1741 289.392H98.3741C98.3741 288.912 98.3101 288.528 98.1821 288.208C98.0541 287.888 97.8941 287.648 97.6701 287.456C97.4461 287.28 97.1901 287.152 96.8861 287.072C96.5821 287.008 96.2461 286.96 95.8781 286.96ZM102.805 289.232H107.429V286H108.837V294H107.429V290.432H102.805V294H101.397V286H102.805V289.232ZM116.582 294V288.384L111.494 294H110.694V286H112.102V291.68L117.19 286H117.99V294H116.582ZM127.642 290.528H121.002C121.002 291.04 121.082 291.472 121.21 291.792C121.338 292.112 121.53 292.368 121.77 292.56C122.01 292.752 122.298 292.88 122.634 292.944C122.97 293.008 123.338 293.04 123.754 293.04C124.074 293.04 124.362 293.024 124.65 292.976C124.922 292.944 125.162 292.864 125.386 292.752C125.61 292.656 125.786 292.512 125.946 292.32C126.09 292.128 126.186 291.888 126.25 291.584H127.642C127.562 292.08 127.418 292.496 127.194 292.832C126.97 293.184 126.698 293.456 126.362 293.664C126.026 293.872 125.642 294.016 125.21 294.112C124.762 294.208 124.282 294.24 123.754 294.24C123.098 294.24 122.522 294.176 122.01 294.032C121.498 293.904 121.05 293.664 120.698 293.344C120.346 293.024 120.074 292.592 119.882 292.048C119.69 291.52 119.594 290.848 119.594 290.048C119.594 289.232 119.69 288.544 119.882 288C120.074 287.456 120.346 287.008 120.698 286.672C121.05 286.352 121.482 286.112 121.994 285.968C122.506 285.84 123.082 285.76 123.722 285.76C124.938 285.76 125.898 286.064 126.602 286.672C127.29 287.28 127.642 288.208 127.642 289.456V290.528ZM123.722 286.96C123.338 286.96 123.002 286.992 122.682 287.056C122.362 287.12 122.074 287.248 121.834 287.424C121.594 287.6 121.402 287.84 121.258 288.16C121.114 288.48 121.034 288.88 121.018 289.392H126.218C126.218 288.912 126.154 288.528 126.026 288.208C125.898 287.888 125.738 287.648 125.514 287.456C125.29 287.28 125.034 287.152 124.73 287.072C124.426 287.008 124.09 286.96 123.722 286.96ZM140.533 291.392C140.453 291.936 140.309 292.384 140.085 292.736C139.861 293.104 139.589 293.392 139.253 293.616C138.917 293.84 138.533 294 138.101 294.096C137.653 294.192 137.173 294.24 136.645 294.24C135.989 294.24 135.413 294.176 134.901 294.032C134.389 293.904 133.941 293.664 133.589 293.344C133.237 293.024 132.965 292.592 132.773 292.048C132.581 291.52 132.485 290.848 132.485 290.048C132.485 289.232 132.581 288.544 132.773 288C132.965 287.456 133.237 287.008 133.589 286.672C133.941 286.352 134.389 286.112 134.901 285.968C135.413 285.84 135.989 285.76 136.645 285.76C137.157 285.76 137.621 285.808 138.069 285.904C138.501 286 138.885 286.16 139.205 286.368C139.525 286.592 139.797 286.88 140.021 287.232C140.245 287.584 140.389 288.032 140.485 288.56H139.077C139.013 288.24 138.901 287.984 138.757 287.776C138.597 287.568 138.421 287.408 138.213 287.28C137.989 287.152 137.749 287.072 137.493 287.024C137.237 286.992 136.949 286.96 136.645 286.96C136.213 286.96 135.829 287.008 135.493 287.088C135.141 287.168 134.853 287.312 134.629 287.536C134.389 287.76 134.213 288.08 134.085 288.48C133.957 288.896 133.893 289.408 133.893 290.048C133.893 290.672 133.957 291.184 134.085 291.568C134.213 291.952 134.389 292.256 134.629 292.48C134.853 292.704 135.141 292.848 135.493 292.928C135.829 293.008 136.213 293.04 136.645 293.04C136.965 293.04 137.253 293.024 137.541 292.976C137.813 292.928 138.053 292.848 138.277 292.72C138.485 292.592 138.661 292.432 138.821 292.208C138.965 292 139.077 291.728 139.141 291.392H140.533ZM144.615 294.24C144.167 294.24 143.767 294.208 143.399 294.112C143.031 294.016 142.711 293.872 142.455 293.664C142.183 293.472 141.975 293.2 141.831 292.88C141.671 292.56 141.607 292.16 141.607 291.696C141.607 291.424 141.639 291.136 141.735 290.848C141.831 290.56 141.991 290.288 142.247 290.048C142.487 289.808 142.823 289.616 143.255 289.456C143.687 289.312 144.247 289.232 144.935 289.232C145.255 289.232 145.527 289.248 145.783 289.248C146.039 289.248 146.263 289.264 146.487 289.264C146.695 289.28 146.903 289.296 147.111 289.296C147.319 289.312 147.543 289.328 147.799 289.328V288.656C147.799 288.048 147.623 287.616 147.271 287.36C146.919 287.104 146.359 286.96 145.559 286.96C145.207 286.96 144.887 286.992 144.631 287.024C144.359 287.072 144.135 287.152 143.943 287.28C143.751 287.408 143.607 287.568 143.495 287.776C143.367 287.984 143.287 288.24 143.239 288.56H141.879C141.943 288.032 142.071 287.584 142.263 287.232C142.455 286.88 142.695 286.592 142.999 286.368C143.303 286.16 143.671 286 144.103 285.904C144.519 285.808 145.015 285.76 145.559 285.76C146.695 285.76 147.591 285.984 148.231 286.432C148.871 286.88 149.207 287.632 149.207 288.656V294H147.799V292.672H147.639C147.383 293.216 146.983 293.616 146.439 293.872C145.895 294.128 145.287 294.24 144.615 294.24ZM145.079 293.04C145.399 293.04 145.703 293.024 146.023 292.976C146.343 292.928 146.631 292.832 146.887 292.704C147.143 292.576 147.351 292.384 147.511 292.144C147.671 291.904 147.767 291.584 147.799 291.2V290.368C147.351 290.352 146.919 290.336 146.535 290.32C146.151 290.32 145.799 290.304 145.479 290.304C144.935 290.304 144.487 290.352 144.167 290.416C143.847 290.496 143.591 290.592 143.431 290.72C143.255 290.848 143.143 291.008 143.095 291.168C143.031 291.328 143.015 291.504 143.015 291.68C143.015 292.208 143.175 292.56 143.511 292.752C143.847 292.944 144.375 293.04 145.079 293.04ZM156.91 294V288.384L151.822 294H151.022V286H152.43V291.68L157.518 286H158.318V294H156.91ZM154.67 284.848C153.838 284.848 153.214 284.672 152.83 284.288C152.43 283.92 152.238 283.344 152.238 282.576H153.406C153.406 283.008 153.502 283.312 153.694 283.488C153.886 283.68 154.222 283.76 154.67 283.76C155.118 283.76 155.438 283.68 155.63 283.488C155.822 283.312 155.934 283.008 155.934 282.576H157.102C157.102 283.344 156.894 283.92 156.51 284.288C156.11 284.672 155.502 284.848 154.67 284.848ZM166.594 286V287.2H163.682V294H162.274V287.2H159.362V286H166.594ZM170.115 294.24C169.667 294.24 169.267 294.208 168.899 294.112C168.531 294.016 168.211 293.872 167.955 293.664C167.683 293.472 167.475 293.2 167.331 292.88C167.171 292.56 167.107 292.16 167.107 291.696C167.107 291.424 167.139 291.136 167.235 290.848C167.331 290.56 167.491 290.288 167.747 290.048C167.987 289.808 168.323 289.616 168.755 289.456C169.187 289.312 169.747 289.232 170.435 289.232C170.755 289.232 171.027 289.248 171.283 289.248C171.539 289.248 171.763 289.264 171.987 289.264C172.195 289.28 172.403 289.296 172.611 289.296C172.819 289.312 173.043 289.328 173.299 289.328V288.656C173.299 288.048 173.123 287.616 172.771 287.36C172.419 287.104 171.859 286.96 171.059 286.96C170.707 286.96 170.387 286.992 170.131 287.024C169.859 287.072 169.635 287.152 169.443 287.28C169.251 287.408 169.107 287.568 168.995 287.776C168.867 287.984 168.787 288.24 168.739 288.56H167.379C167.443 288.032 167.571 287.584 167.763 287.232C167.955 286.88 168.195 286.592 168.499 286.368C168.803 286.16 169.171 286 169.603 285.904C170.019 285.808 170.515 285.76 171.059 285.76C172.195 285.76 173.091 285.984 173.731 286.432C174.371 286.88 174.707 287.632 174.707 288.656V294H173.299V292.672H173.139C172.883 293.216 172.483 293.616 171.939 293.872C171.395 294.128 170.787 294.24 170.115 294.24ZM170.579 293.04C170.899 293.04 171.203 293.024 171.523 292.976C171.843 292.928 172.131 292.832 172.387 292.704C172.643 292.576 172.851 292.384 173.011 292.144C173.171 291.904 173.267 291.584 173.299 291.2V290.368C172.851 290.352 172.419 290.336 172.035 290.32C171.651 290.32 171.299 290.304 170.979 290.304C170.435 290.304 169.987 290.352 169.667 290.416C169.347 290.496 169.091 290.592 168.931 290.72C168.755 290.848 168.643 291.008 168.595 291.168C168.531 291.328 168.515 291.504 168.515 291.68C168.515 292.208 168.675 292.56 169.011 292.752C169.347 292.944 169.875 293.04 170.579 293.04Z" fill="#4E5359"/>
</svg>
