<svg xmlns="http://www.w3.org/2000/svg" width="157" height="40" viewBox="0 0 157 40" fill="none">
    <path d="M16 25.8493H24.3392L25.3761 23.3036H16V25.8493ZM16 17.6987H27.6584L28.6953 15.1523H16V17.6987ZM16 21.7743H25.9983L27.0351 19.2279H16V21.7743Z" fill="#EA6648"/>
    <path d="M46.2773 15.1523V25.8494H54.2636V23.3037H49.5874V15.1523H46.2773Z" fill="#1A171B"/>
    <path d="M126.07 17.6981V15.1523H118.102V25.8494H126.425V23.3037H121.208V21.7513H125.007V19.3105H121.208V17.6981H126.07Z" fill="#1A171B"/>
    <path d="M64.1241 25.8494V17.6981H67.1119V15.1523H57.8438V17.6981H60.8319V25.8494H64.1241Z" fill="#1A171B"/>
    <path d="M136.645 15.1523H131.984V25.8493H135.091V22.5802H136.442C139.211 22.5802 141 21.375 141 18.9492C141 16.7493 139.649 15.1523 136.645 15.1523ZM136.054 20.1092H135.091V17.668H136.054C137.219 17.668 137.675 18.2259 137.675 18.8891C137.675 19.6873 137.083 20.1092 136.054 20.1092Z" fill="#1A171B"/>
    <path d="M37.7192 24.117L38.3272 25.8493H41.6697L37.331 15.1523H34.2583L29.9023 25.8493H33.2615L33.87 24.117H37.7192ZM35.7779 18.6324H35.8113L36.8916 21.7208H34.6972L35.7779 18.6324Z" fill="#1A171B"/>
    <path d="M109.773 25.8494V17.6981H112.761V15.1523H103.492V17.6981H106.481V25.8494H109.773Z" fill="#1A171B"/>
    <path d="M77.7153 24.117L78.3234 25.8493H81.6663L77.3265 15.1523H74.2544L69.8984 25.8493H73.2586L73.8661 24.117H77.7153ZM75.774 18.6324H75.808L76.8882 21.7208H74.6932L75.774 18.6324Z" fill="#1A171B"/>
    <path d="M94.2693 23.483C93.2185 23.4196 92.237 22.9927 91.5337 22.2931L89.7109 24.2821C90.2831 24.8205 90.9712 25.2502 91.7341 25.5453C92.497 25.8404 93.3188 25.9949 94.1503 25.9995C96.1601 25.9995 98.6759 25.1403 98.6759 22.4588C98.6759 20.3944 97.0717 19.9274 94.9446 19.204C93.7287 18.7826 93.4762 18.4967 93.4762 18.1343C93.4762 17.758 93.7459 17.5019 94.3205 17.5019C94.9115 17.5019 95.5526 17.7427 96.5989 18.4663L98.3722 16.4318C97.2155 15.4901 95.6996 14.9783 94.1341 15.0007C91.838 15.0464 90.1331 16.4173 90.1331 18.2401C90.1331 20.4246 91.956 21.2084 93.7799 21.7658C95.0626 22.1422 95.2995 22.368 95.2995 22.7899C95.2995 23.1215 95.0125 23.483 94.2693 23.483Z" fill="#1A171B"/>
</svg>