<svg xmlns="http://www.w3.org/2000/svg" width="113" height="40" viewBox="0 0 113 40" fill="none">
    <path fill-rule="evenodd" clip-rule="evenodd" d="M28.4079 18.0893V13.423C27.2249 13.0103 25.9761 12.8011 24.7182 12.8047C19.8187 12.8047 16.25 15.6045 16.25 19.4074C16.2551 20.4893 16.5608 21.5502 17.1352 22.4796C17.7097 23.409 18.5319 24.1729 19.5163 24.692C21.0647 25.5737 22.8355 26.0259 24.6335 25.9985C25.8964 25.9926 27.1503 25.7918 28.3474 25.4036L28.5167 20.7373C27.4845 21.4368 26.2685 21.8413 25.0085 21.9039C23.1576 21.9039 22.0325 20.924 22.0325 19.4774C22.0325 18.0309 23.2423 16.981 25.1174 16.981C26.3213 16.99 27.4846 17.4024 28.4079 18.1476V18.0893Z" fill="#1A171B"/>
    <path fill-rule="evenodd" clip-rule="evenodd" d="M35.4981 20.0037C35.5198 19.7147 35.6593 19.4457 35.8859 19.2556C36.1126 19.0654 36.4081 18.9695 36.7079 18.9888C37.4821 18.9888 37.8571 19.3038 37.9176 20.0037H35.4981ZM43.1316 21.9402C43.1436 21.7809 43.1436 21.6211 43.1316 21.4619C43.1316 18.5454 40.3976 16.5156 36.5748 16.5156C32.752 16.5156 30.0664 18.6621 30.0664 21.2519C30.0664 23.8416 32.8004 25.9998 36.599 25.9998C39.7564 25.9998 41.9823 24.8332 42.805 22.9901L37.7966 22.7334C37.6986 22.9377 37.5414 23.1104 37.3439 23.2304C37.1464 23.3504 36.9171 23.4129 36.6837 23.4101C35.849 23.4101 35.4739 22.9784 35.4739 22.0802V21.9402H43.1316Z" fill="#1A171B"/>
    <path fill-rule="evenodd" clip-rule="evenodd" d="M44.8242 25.6584H50.2559V22.1588C50.2559 21.0738 51.0544 20.4555 52.4214 20.4555C52.9513 20.4827 53.4699 20.6137 53.9456 20.8405V16.5242H53.5464C52.8942 16.512 52.2475 16.6421 51.6547 16.9047C51.0619 17.1673 50.5382 17.5557 50.1229 18.0407V16.7925H44.8242V25.6584Z" fill="#1A171B"/>
    <path fill-rule="evenodd" clip-rule="evenodd" d="M60.502 20.0037C60.5237 19.7147 60.6632 19.4457 60.8898 19.2556C61.1165 19.0654 61.412 18.9695 61.7118 18.9888C62.486 18.9888 62.861 19.3038 62.9215 20.0037H60.502ZM68.1355 21.9402C68.1476 21.7809 68.1476 21.621 68.1355 21.4619C68.1355 18.5454 65.4015 16.5156 61.5787 16.5156C57.7559 16.5156 55.0703 18.6621 55.0703 21.2519C55.0703 23.8416 57.8043 25.9998 61.6029 25.9998C64.7603 25.9998 66.9862 24.8332 67.8089 22.9901L62.7884 22.7334C62.6913 22.9359 62.5359 23.1073 62.3408 23.2272C62.1457 23.3472 61.919 23.4106 61.6876 23.4101C60.8529 23.4101 60.4778 22.9784 60.4778 22.0802V21.9402H68.1355Z" fill="#1A171B"/>
    <path fill-rule="evenodd" clip-rule="evenodd" d="M68.668 25.0319C70.2996 25.6759 72.0464 26.0048 73.8094 26.0002C77.245 26.0002 79.3016 24.507 79.3016 22.6289C79.3016 21.3106 78.2612 20.5756 76.1441 20.1674C75.0191 19.9574 74.4021 19.9224 74.4021 19.5374C74.4021 19.1525 74.7167 19.0825 75.2247 19.0825C76.0854 19.1646 76.9141 19.4403 77.6442 19.8874L78.9749 17.216C77.6096 16.7419 76.1678 16.5049 74.7167 16.516C71.4504 16.516 69.4785 17.9042 69.4785 19.6774C69.4785 21.0073 70.4463 21.8122 72.4786 22.1855C73.3859 22.3489 73.9545 22.3489 73.9545 22.7688C73.9545 23.1888 73.6521 23.2704 73.0714 23.2704C72.0334 23.1687 71.0347 22.8331 70.1559 22.2905L68.7285 25.0319H68.668Z" fill="#1A171B"/>
    <path fill-rule="evenodd" clip-rule="evenodd" d="M80.7178 25.6604H86.1253V16.7946H80.7178V25.6604ZM86.343 13.9948C86.343 12.8049 85.2785 12 83.4276 12C81.5767 12 80.5 12.8049 80.5 14.0415C80.5 15.2781 81.5767 16.1063 83.4276 16.1063C85.2785 16.1063 86.343 15.2664 86.343 14.0415V13.9948Z" fill="#1A171B"/>
    <path fill-rule="evenodd" clip-rule="evenodd" d="M89.2935 25.6611H94.7132V20.0616H96.2495V16.7952H94.7132V13.8555H89.2935V16.7952H87.7812V20.0616H89.2935V25.6611Z" fill="#1A171B"/>
</svg>