<svg xmlns="http://www.w3.org/2000/svg" width="117" height="40" viewBox="0 0 117 40" fill="none">
    <path d="M39.9742 23.381C39.2907 23.4255 38.6168 23.2065 38.0997 22.7719C37.8751 22.5646 37.6988 22.3132 37.5826 22.0348C37.4665 21.7563 37.4131 21.457 37.426 21.157C37.4275 20.5569 37.5729 19.9653 37.8507 19.4288C38.1272 18.911 38.5482 18.4786 39.0659 18.1806C39.5836 17.8826 40.1774 17.731 40.7797 17.743C41.2073 17.7154 41.6349 17.7963 42.0202 17.9777C42.4055 18.1591 42.7351 18.4346 42.9765 18.7771L44.441 17.5589C44.0869 17.0361 43.5758 16.6307 42.9765 16.3973C42.3353 16.1411 41.6492 16.0065 40.9555 16.0006C39.9338 15.986 38.9254 16.225 38.0264 16.6948C37.1945 17.1317 36.5048 17.7841 36.0347 18.5788C35.5523 19.4034 35.3047 20.3371 35.3171 21.2845C35.3035 21.9859 35.491 22.6773 35.859 23.2818C36.2206 23.8969 36.7671 24.391 37.426 24.6984C38.1731 25.0337 38.9898 25.1985 39.8131 25.1801C40.5329 25.223 41.2534 25.1076 41.9205 24.8427C42.5876 24.5777 43.1839 24.17 43.6648 23.6502L42.3467 22.3469C42.0454 22.6772 41.6729 22.9397 41.2554 23.1159C40.8379 23.2922 40.3856 23.3778 39.9303 23.3668" fill="#353D41"/>
    <path d="M47.2543 23.2959L48.7481 16.1562H46.6246L44.8086 24.9674H50.6813L51.7943 23.2959H47.2543Z" fill="#353D41"/>
    <path d="M59.7609 16.1562H57.6813L56.8172 17.417L51.8086 24.9674H54.0639L55.2355 23.0833H59.468L59.922 24.9674H62.0309L59.7609 16.1562ZM56.2021 21.5252L57.3884 19.6553L58.355 18.1254L59.1165 21.5252H56.2021Z" fill="#353D41"/>
    <path d="M69.2338 20.2506C68.7581 20.0642 68.2686 19.9127 67.7693 19.7973L66.8174 19.514C66.6116 19.4417 66.4225 19.331 66.2609 19.1882C66.1867 19.1311 66.128 19.0574 66.0897 18.9735C66.0515 18.8896 66.0348 18.798 66.0412 18.7065C66.0466 18.5442 66.0971 18.3862 66.1873 18.2491C66.2774 18.1121 66.404 18.0009 66.5538 17.9274C67.0071 17.7073 67.5117 17.6048 68.0183 17.6299C68.4683 17.6298 68.9164 17.6869 69.351 17.7999C69.7588 17.9133 70.1446 18.0903 70.4933 18.3241L71.2695 16.7658C70.8154 16.5064 70.3208 16.3199 69.805 16.2134C69.2533 16.0832 68.6886 16.0119 68.1208 16.0009C67.3711 15.9883 66.6257 16.1132 65.9241 16.3692C65.3418 16.575 64.8333 16.939 64.4595 17.4174C64.1103 17.8707 63.9297 18.4248 63.947 18.9898C63.9024 19.4395 64.0329 19.8891 64.3131 20.2506C64.5749 20.5518 64.9059 20.7895 65.2797 20.9447C65.7567 21.1354 66.2459 21.2962 66.7442 21.4264C67.1838 21.535 67.6107 21.6869 68.0183 21.8797C68.1392 21.9294 68.2424 22.0122 68.3152 22.1179C68.3881 22.2236 68.4274 22.3476 68.4284 22.4746C68.4241 22.6336 68.3738 22.7883 68.2832 22.921C68.1926 23.0537 68.0653 23.1592 67.9158 23.2254C67.4928 23.4257 67.0241 23.5184 66.5538 23.4946C66.0074 23.4929 65.4643 23.4117 64.9428 23.2537C64.4201 23.1047 63.9255 22.8751 63.4783 22.5738L62.6289 24.1462C63.1077 24.4725 63.6435 24.7125 64.2106 24.8545C64.8827 25.036 65.5777 25.1266 66.2755 25.1236C67.0301 25.1374 67.7806 25.0124 68.4869 24.7553C69.068 24.5473 69.576 24.1838 69.9515 23.7071C70.3049 23.2551 70.4906 22.7012 70.4787 22.1347C70.5273 21.7152 70.4181 21.2927 70.1711 20.9447C69.9113 20.6476 69.5861 20.4104 69.2192 20.2506" fill="#353D41"/>
    <path d="M77.7886 20.2497C77.3136 20.0612 76.8239 19.9096 76.3241 19.7964L75.3868 19.5131C75.1749 19.4444 74.9803 19.3334 74.8156 19.1873C74.7406 19.1323 74.6794 19.0618 74.6363 18.9809C74.5932 18.9 74.5694 18.8108 74.5666 18.7198C74.5719 18.5556 74.6238 18.3959 74.7169 18.2585C74.8099 18.121 74.9404 18.011 75.0939 17.9407C75.5472 17.7205 76.0518 17.618 76.5584 17.6432C77.0036 17.643 77.4468 17.7001 77.8764 17.8132C78.2853 17.9236 78.6717 18.1009 79.0187 18.3373L79.8242 16.7649C79.3707 16.5043 78.8759 16.3176 78.3597 16.2125C77.8128 16.0833 77.253 16.012 76.6902 16C75.9639 15.999 75.2438 16.1287 74.5666 16.3825C73.9842 16.5808 73.4749 16.9404 73.1021 17.4166C72.7547 17.8715 72.5696 18.4234 72.5749 18.989C72.5568 19.4337 72.7021 19.8703 72.985 20.2214C73.2505 20.5152 73.5808 20.7475 73.9515 20.9013C74.4294 21.0898 74.9185 21.2506 75.4161 21.383C75.8604 21.4916 76.2921 21.6435 76.7048 21.8363C76.8241 21.8866 76.9253 21.97 76.9957 22.0759C77.066 22.1817 77.1024 22.3054 77.1002 22.4312C77.1008 22.5895 77.0541 22.7445 76.9658 22.8777C76.8774 23.0109 76.7512 23.1166 76.6023 23.182C76.1755 23.3873 75.7019 23.4847 75.2257 23.4654C74.6793 23.4627 74.1364 23.3815 73.6147 23.2245C73.0932 23.0724 72.5991 22.843 72.1502 22.5446L71.3008 24.117C71.7796 24.4433 72.3154 24.6833 72.8824 24.8253C73.5548 25.0059 74.2496 25.0964 74.9474 25.0944C75.702 25.1082 76.4524 24.9832 77.1588 24.7261C77.7388 24.5161 78.2462 24.1529 78.6233 23.6778C78.9665 23.2216 79.1465 22.6696 79.1359 22.1054C79.1558 21.6801 79.0153 21.2623 78.7405 20.9297C78.4778 20.6329 78.1467 20.4 77.7739 20.2497" fill="#353D41"/>
    <path d="M88.668 17.7854L89.0195 16.1562H82.1363L80.3203 24.9674H87.3646L87.7161 23.3242H82.7514L83.1761 21.2843H87.4085L87.7307 19.6978H83.5129L83.8937 17.7854H88.668Z" fill="#353D41"/>
    <path d="M97.3956 16.1562L96.2679 21.681L92.8703 16.1562H91.1275L89.2969 24.9674H91.3911L92.5334 19.4569L95.9311 24.9674H97.6592L99.4752 16.1562H97.3956Z" fill="#353D41"/>
    <path fill-rule="evenodd" clip-rule="evenodd" d="M99.4637 27.1341H99.7127L100.093 27.7433H100.342L99.9324 27.12C99.9846 27.1235 100.037 27.1159 100.086 27.0977C100.135 27.0795 100.179 27.0512 100.215 27.0148C100.251 26.9783 100.279 26.9346 100.296 26.8867C100.313 26.8387 100.319 26.7878 100.313 26.7375C100.313 26.4825 100.137 26.3409 99.8006 26.3409H99.1708V27.7574H99.4637V27.1341ZM99.4637 26.5108H99.7566C100.02 26.5108 100.079 26.5108 100.079 26.7233C100.079 26.9358 99.9909 26.95 99.7273 26.95H99.4637V26.5108ZM98.4532 27.035C98.4503 27.2787 98.5222 27.5178 98.6598 27.722C98.7974 27.9262 98.9945 28.0863 99.2262 28.1822C99.4579 28.278 99.7138 28.3053 99.9615 28.2605C100.209 28.2157 100.438 28.1008 100.618 27.9305C100.798 27.7601 100.922 27.5419 100.974 27.3034C101.026 27.0649 101.004 26.8168 100.91 26.5906C100.816 26.3643 100.655 26.1701 100.447 26.0323C100.239 25.8946 99.9939 25.8195 99.742 25.8167C99.5785 25.813 99.4158 25.8404 99.2633 25.8974C99.1108 25.9545 98.9714 26.0401 98.8531 26.1493C98.7347 26.2584 98.6398 26.3891 98.5737 26.5338C98.5076 26.6785 98.4717 26.8343 98.4679 26.9925V27.0067L98.4532 27.035ZM100.767 27.0067C100.765 27.1369 100.737 27.2655 100.684 27.3851C100.63 27.5047 100.553 27.6129 100.457 27.7037C100.36 27.7945 100.246 27.8659 100.121 27.9141C99.9957 27.9622 99.862 27.986 99.7273 27.9841C99.4528 27.9767 99.192 27.866 99.0006 27.6755C98.8091 27.485 98.7021 27.2298 98.7022 26.9642C98.7098 26.7023 98.8227 26.4537 99.0169 26.2712C99.2111 26.0887 99.4712 25.9866 99.742 25.9867C99.8747 25.9848 100.006 26.0083 100.13 26.0557C100.253 26.1031 100.366 26.1735 100.461 26.263C100.556 26.3524 100.632 26.4591 100.685 26.577C100.737 26.6949 100.765 26.8216 100.767 26.95V26.9642" fill="#353D41"/>
    <path d="M29.8387 18.8359H29.663C29.3847 18.9067 29.1944 19.1334 29.2529 19.3317C29.264 19.3738 29.2841 19.4132 29.3118 19.4473C29.3396 19.4815 29.3744 19.5096 29.414 19.53C29.4 19.7785 29.3086 20.017 29.1517 20.2142C28.9949 20.4114 28.78 20.5581 28.5353 20.6349C27.6758 20.0539 26.6548 19.7379 25.6063 19.7283C23.759 19.6018 21.9337 20.1781 20.5193 21.3345C19.105 22.4909 18.2135 24.1358 18.0348 25.9188C17.8151 29.4177 18.1812 31.4293 16.4531 33.0017C19.4061 32.9725 22.3399 32.5385 25.167 31.7126C26.6031 31.3505 27.8874 30.5658 28.8424 29.4669C29.7973 28.3681 30.3758 27.0095 30.4978 25.5788C30.6014 24.7997 30.5365 24.0082 30.3071 23.2547C30.0777 22.5011 29.6888 21.802 29.1651 21.2016C30.5417 20.0966 30.2635 19.0909 30.2635 19.0909C30.2308 19.0183 30.1779 18.956 30.1106 18.9109C30.0433 18.8659 29.9644 18.8399 29.8827 18.8359" fill="#353E42"/>
    <path d="M29.3124 16.582H29.1659C29.1029 16.5859 29.0415 16.6026 28.9856 16.6312C28.9298 16.6597 28.8809 16.6994 28.8421 16.7476C28.8034 16.7959 28.7756 16.8515 28.7607 16.9109C28.7459 16.9702 28.7442 17.032 28.7559 17.092C28.7663 17.1306 28.7846 17.1668 28.8098 17.1985C28.8349 17.2301 28.8664 17.2565 28.9023 17.2762C28.8946 17.5263 28.8055 17.7677 28.6478 17.9661C28.49 18.1645 28.2716 18.3097 28.0236 18.3811C27.1654 17.7977 26.1436 17.4814 25.0946 17.4745C23.2486 17.3637 21.4304 17.9524 20.0253 19.1158C18.6202 20.2792 17.7385 21.9261 17.567 23.7074C17.362 27.2064 17.7135 29.2179 16 30.7903C18.9454 30.7464 21.8695 30.2981 24.6845 29.4587C26.1195 29.0993 27.4034 28.3173 28.3585 27.2209C29.3136 26.1245 29.8926 24.7679 30.0154 23.3391C30.1304 22.5618 30.0737 21.7698 29.849 21.0153C29.6244 20.2607 29.2368 19.5609 28.7119 18.9619C30.1765 17.857 29.8103 16.8512 29.8103 16.8512C29.781 16.7832 29.735 16.7232 29.6763 16.6763C29.6176 16.6294 29.548 16.5971 29.4735 16.582H29.3124Z" fill="#9DB4B8"/>
    <path d="M29.3723 16.7656H29.2405C29.1656 16.7698 29.0953 16.8015 29.0436 16.8541C28.9919 16.9067 28.9628 16.9764 28.9623 17.0489C28.968 17.0671 28.9775 17.084 28.99 17.0986C29.0026 17.1132 29.018 17.1252 29.0355 17.1339L29.1673 17.2048V17.3181C29.1493 17.6021 29.0433 17.8743 28.8631 18.0991C28.6828 18.324 28.4366 18.4912 28.1568 18.5788H27.9958C27.1389 17.9977 26.113 17.6951 25.0667 17.7147C23.1237 17.6608 21.2345 18.3359 19.7944 19.5988C18.5939 20.6883 17.862 22.1753 17.7442 23.7635C17.7614 24.3504 17.7319 24.9376 17.6562 25.5201C20.6628 24.0148 23.9287 23.0546 27.2927 22.6869C28.1129 22.5736 28.9769 22.4886 29.841 22.4319C29.8577 21.2061 29.4097 20.0168 28.5815 19.0888L28.4497 18.9472L28.6108 18.8338C29.8703 17.8281 29.6507 16.9498 29.636 16.9073C29.6089 16.8664 29.5723 16.8322 29.529 16.8076C29.4858 16.7829 29.4371 16.7686 29.387 16.7656H29.3723Z" fill="#ABBFC1"/>
</svg>