<svg xmlns="http://www.w3.org/2000/svg" width="128" height="40" viewBox="0 0 128 40" fill="none">
    <path d="M61.0191 18.3589C60.5704 17.9562 60.0509 17.6347 59.4853 17.4098C58.9438 17.1913 58.3627 17.0805 57.7762 17.0839C57.2399 17.0658 56.7052 17.1517 56.2036 17.3365C55.7019 17.5214 55.2433 17.8016 54.8548 18.1606C54.4892 18.5399 54.2043 18.9854 54.0164 19.4715C53.8284 19.9577 53.741 20.475 53.7592 20.9939C53.701 22.0322 54.0686 23.0508 54.7817 23.8273C55.1437 24.1788 55.5779 24.4525 56.056 24.6307C56.5342 24.8088 57.0456 24.8875 57.5571 24.8614C58.1957 24.8654 58.8296 24.7549 59.4269 24.5356C60.0224 24.3132 60.568 23.9813 61.0337 23.5581V26.0231C60.5139 26.3204 59.9532 26.5446 59.3684 26.6889C58.7734 26.8454 58.159 26.9216 57.5425 26.9156C56.7098 26.9454 55.8793 26.8142 55.0993 26.5296C54.3194 26.245 53.6057 25.8128 52.9997 25.2581C52.4135 24.7093 51.9522 24.0477 51.6453 23.3158C51.3384 22.5839 51.1927 21.7978 51.2176 21.0081C51.1927 20.2183 51.3384 19.4323 51.6453 18.7003C51.9522 17.9684 52.4135 17.3069 52.9997 16.7581C53.6143 16.1978 54.3375 15.7615 55.1274 15.4746C55.9173 15.1876 56.7581 15.0557 57.601 15.0864C58.2105 15.0862 58.8181 15.1527 59.4123 15.2848C60.0141 15.4149 60.5977 15.6147 61.1505 15.8798L61.0191 18.3589Z" fill="#555756"/>
    <path d="M86.4787 18.3173C86.0211 17.9189 85.4977 17.5981 84.9303 17.3682C84.3748 17.1673 83.7848 17.0712 83.1921 17.0848C82.6553 17.0626 82.1194 17.1466 81.6171 17.3317C81.1149 17.5168 80.6567 17.7991 80.2706 18.1615C79.9051 18.5408 79.6202 18.9863 79.4322 19.4724C79.2442 19.9586 79.1568 20.4759 79.1751 20.9948C79.1129 22.0312 79.4751 23.0495 80.183 23.8282C80.547 24.1819 80.9832 24.4579 81.4637 24.6384C81.9442 24.8189 82.4583 24.9 82.973 24.8765C83.6131 24.8829 84.2484 24.7674 84.8427 24.5365C85.4382 24.3141 85.9838 23.9822 86.4495 23.559V26.024C85.9291 26.3235 85.3688 26.5523 84.7843 26.704C84.1876 26.8524 83.5743 26.9286 82.9584 26.9307C82.1246 26.9586 81.2935 26.8251 80.5135 26.5381C79.7335 26.2511 79.0203 25.8162 78.4155 25.259C77.8293 24.7102 77.368 24.0486 77.0611 23.3167C76.7542 22.5848 76.6085 21.7987 76.6334 21.009C76.6011 20.2183 76.7434 19.4301 77.0507 18.6972C77.3581 17.9642 77.8234 17.3034 78.4155 16.759C79.0282 16.1961 79.7511 15.7581 80.5415 15.471C81.3318 15.1838 82.1735 15.0534 83.0168 15.0873C83.6257 15.0832 84.2333 15.145 84.8281 15.2715C85.4274 15.4101 86.0101 15.6095 86.5664 15.8665L86.4787 18.3173Z" fill="#555756"/>
    <path d="M101.073 15.1719L98.5898 17.5802H104.287V22.8927L106.595 20.6686V15.1719H101.073Z" fill="#C8CA53"/>
    <path d="M107.105 15.1719V17.4386H109.676L111.999 15.1719H107.105Z" fill="#C8CA53"/>
    <path d="M106.594 14.7458H104.242V12.2667L106.594 10V14.7458Z" fill="#C8CA53"/>
    <path d="M16 26.9996V15.1562H23.1868V17.2955H18.6001V19.7321H23.1868V21.8855H18.6001V24.8463H23.1868V26.9996H16Z" fill="#C8CA53"/>
    <path d="M35.0758 18.3566C34.6244 17.9503 34.0995 17.6285 33.5274 17.4074C32.9905 17.1908 32.4145 17.08 31.833 17.0816C31.2966 17.0634 30.7619 17.1493 30.2603 17.3342C29.7586 17.5191 29.3001 17.7992 28.9115 18.1582C28.546 18.5376 28.2611 18.983 28.0731 19.4692C27.8851 19.9553 27.7977 20.4726 27.816 20.9916C27.7577 22.0299 28.1253 23.0484 28.8385 23.8249C29.2026 24.1775 29.6393 24.4518 30.12 24.63C30.6006 24.8082 31.1146 24.8862 31.6285 24.8591C32.2731 24.8834 32.9169 24.7922 33.5274 24.5899C34.1168 24.3641 34.657 24.0324 35.1196 23.6124V26.0774C34.6037 26.3722 34.0482 26.5962 33.469 26.7432C32.8736 26.8978 32.2594 26.974 31.6431 26.9699C30.808 27.0008 29.975 26.8701 29.1925 26.5856C28.41 26.301 27.6938 25.8682 27.0856 25.3124C26.4995 24.7636 26.0381 24.102 25.7312 23.3701C25.4243 22.6382 25.2786 21.8521 25.3035 21.0624C25.2786 20.2726 25.4243 19.4866 25.7312 18.7547C26.0381 18.0227 26.4995 17.3612 27.0856 16.8124C27.7011 16.2534 28.4245 15.818 29.2142 15.5311C30.0038 15.2442 30.8442 15.1115 31.6869 15.1407C32.2964 15.1413 32.9039 15.2078 33.4982 15.3391C34.1001 15.4693 34.6837 15.669 35.2365 15.9341L35.0758 18.3566Z" fill="#C8CA53"/>
    <path d="M48.9536 21.0769C48.9552 21.8597 48.7963 22.635 48.4862 23.3577C48.1832 24.0687 47.7305 24.7105 47.1569 25.2419C46.5694 25.7912 45.8806 26.2285 45.1265 26.5311C43.7247 27.0697 42.1706 27.1048 40.7443 26.6302C40.0499 26.3884 39.4028 26.0339 38.8308 25.5819C38.1243 25.0516 37.5501 24.3737 37.1509 23.5986C36.7584 22.8129 36.5585 21.9499 36.5666 21.0769C36.5636 20.294 36.7225 19.5184 37.0341 18.7961C37.3451 18.0858 37.8024 17.4447 38.3779 16.9119C39.5532 15.8077 41.1239 15.1883 42.7601 15.1836C43.5745 15.186 44.3798 15.3499 45.1265 15.6652C45.8826 15.9577 46.5724 16.3908 47.1569 16.9402C47.7355 17.473 48.1889 18.1205 48.4862 18.8386C48.7978 19.5559 48.9568 20.3269 48.9536 21.1052V21.0769ZM42.7747 24.8594C43.2626 24.873 43.7478 24.7838 44.1967 24.5979C44.6456 24.412 45.0475 24.1339 45.3748 23.7827C46.066 23.0557 46.4334 22.0935 46.3973 21.1052C46.4239 20.1116 46.0522 19.1468 45.3602 18.4136C45.0359 18.0617 44.6369 17.782 44.1906 17.5937C43.7443 17.4054 43.2613 17.313 42.7747 17.3227C42.2837 17.3117 41.796 17.4034 41.3447 17.5916C40.8935 17.7799 40.4895 18.0602 40.16 18.4136C39.4668 19.146 39.0948 20.1114 39.1229 21.1052C39.0845 22.0981 39.452 23.0655 40.1454 23.7969C40.4803 24.1455 40.8882 24.4206 41.3416 24.6038C41.7951 24.7871 42.2837 24.8742 42.7747 24.8594Z" fill="#C8CA53"/>
    <path d="M63.5781 27.0001V15.1992H66.1782V24.8609H70.3267V27.0001H63.5781Z" fill="#555756"/>
    <path d="M75.1001 15.2148H72.5V27.0015H75.1001V15.2148Z" fill="#555756"/>
    <path d="M88.8164 27.0001V15.1992H91.4165V20.5542L95.4627 15.1992H98.4718L94.1189 20.5826L98.6325 27.0001H95.4919L91.4165 20.8234V27.0001H88.8164Z" fill="#555756"/>
</svg>