<svg xmlns="http://www.w3.org/2000/svg" width="100" height="40" viewBox="0 0 100 40" fill="none">
    <path d="M19.015 21.9799C19.1148 23.1457 20.3992 23.787 21.8708 23.787C22.8449 23.8067 23.8153 23.6686 24.739 23.3789L25.1505 25.3725C23.964 25.8085 22.6963 26.0186 21.4218 25.9905C17.9799 25.9905 16.0096 24.1134 16.0096 21.1404C15.9268 19.8813 16.3825 18.6429 17.2764 17.6978C18.1703 16.7527 19.4291 16.1783 20.776 16.101C20.8956 16.0941 21.0153 16.0912 21.135 16.0922C24.4023 16.0922 25.6494 18.4239 25.6494 20.8139C25.652 21.2051 25.6144 21.5955 25.5371 21.9799H19.015ZM22.7562 19.9629C22.7857 19.7411 22.7683 19.5159 22.7048 19.3004C22.6413 19.0849 22.533 18.8832 22.3862 18.7068C22.2393 18.5304 22.0567 18.3829 21.8488 18.2725C21.6409 18.1621 21.4118 18.0909 21.1745 18.0633C21.1159 18.0564 21.057 18.0523 20.9978 18.0509C20.465 18.0687 19.9597 18.2769 19.5862 18.6326C19.2127 18.9883 18.9993 19.4645 18.9901 19.9629H22.7562ZM33.9798 18.3307C33.9798 17.7926 34.2084 17.2767 34.6153 16.8963C35.0222 16.5157 35.5741 16.3021 36.1496 16.3021H37.1348V22.7376C37.1348 23.9735 37.1348 24.9878 37.2096 25.7806H34.4412L34.2915 24.4398H34.2292C33.8911 24.9336 33.4211 25.3363 32.8656 25.6083C32.3101 25.8802 31.6883 26.0119 31.0616 25.9905C28.9915 25.9905 27.495 24.8246 27.495 21.8633V16.3021H30.6501V21.3969C30.6501 22.7726 31.124 23.6121 32.2463 23.6121C32.5907 23.6115 32.9265 23.5115 33.2077 23.3258C33.489 23.1401 33.702 22.8777 33.8176 22.5745C33.9078 22.3756 33.9503 22.1607 33.9423 21.9449L33.9798 18.3307ZM39.6664 19.4266C39.6664 18.0276 39.6664 17.0949 39.5791 16.3021H42.1979L42.3226 18.0626H42.4099C42.5888 17.509 42.9481 17.0216 43.4378 16.6683C43.9274 16.3151 44.5229 16.1137 45.141 16.0922C45.3671 16.0857 45.5933 16.1053 45.8144 16.1505V18.9136C45.5301 18.8682 45.2423 18.8449 44.9539 18.8437C44.4622 18.8001 43.9707 18.9286 43.5745 19.2042C43.1783 19.4799 42.9055 19.8831 42.809 20.336C42.7568 20.55 42.7359 20.7696 42.7466 20.9888V25.9905H41.7489C41.464 25.992 41.1815 25.941 40.9176 25.8405C40.6537 25.74 40.4136 25.5919 40.2109 25.4045C40.0083 25.2172 39.8471 24.9944 39.7365 24.749C39.626 24.5034 39.5682 24.2399 39.5666 23.9735V23.9618L39.6664 19.4266ZM52.1744 25.9905C51.4772 26.0255 50.7799 25.9233 50.1276 25.6905C49.4753 25.4577 48.8826 25.0995 48.3877 24.6391C47.8928 24.1787 47.5069 23.6262 47.2548 23.0175C47.0027 22.4088 46.8901 21.7574 46.9243 21.1054C46.8794 20.4301 46.9899 19.7538 47.2483 19.1218C47.5067 18.4897 47.9071 17.917 48.4224 17.4419C48.9376 16.9667 49.5558 16.6005 50.2353 16.3676C50.9148 16.1349 51.6398 16.0409 52.3614 16.0922C53.6836 16.0478 54.9704 16.4961 55.9389 17.3388C56.9073 18.1814 57.4781 19.3491 57.5257 20.5851C57.5304 20.708 57.5299 20.8309 57.5243 20.9538C57.5695 21.6233 57.4624 22.294 57.21 22.9219C56.9577 23.5497 56.5658 24.1205 56.0603 24.5964C55.5547 25.0723 54.947 25.4426 54.2772 25.6829C53.6074 25.9232 52.8907 26.028 52.1744 25.9905ZM52.2492 23.8802C53.4963 23.8802 54.2695 22.7144 54.2695 21.0238C54.2695 19.6364 53.6833 18.2025 52.2492 18.2025C50.8151 18.2025 50.1791 19.6364 50.1791 21.0472C50.1791 22.6561 50.9024 23.8802 52.2367 23.8802H52.2492ZM67.1391 25.5241C66.2415 25.8489 65.2826 25.9996 64.3208 25.9671C63.6189 26.017 62.9137 25.9275 62.2514 25.7043C61.5892 25.4813 60.985 25.1297 60.4785 24.6726C59.972 24.2157 59.5747 23.6636 59.3127 23.0528C59.0507 22.442 58.93 21.7863 58.9584 21.1287C58.8961 18.3773 60.9038 16.1039 64.645 16.1039C65.4933 16.0913 66.3374 16.2175 67.1391 16.4769L66.6403 18.6688C66.0836 18.4539 65.4837 18.3545 64.882 18.3773C64.5113 18.3614 64.1412 18.4194 63.7963 18.5472C63.4513 18.6752 63.1394 18.8702 62.8812 19.1193C62.623 19.3684 62.4243 19.666 62.2984 19.9923C62.1725 20.3187 62.1222 20.6663 62.1509 21.0122C62.1241 21.3602 62.1764 21.7096 62.3044 22.0373C62.4324 22.365 62.6332 22.6637 62.8935 22.9137C63.1539 23.1637 63.4679 23.3593 63.8149 23.4877C64.1619 23.6162 64.5341 23.6744 64.9069 23.6587C65.5227 23.6752 66.1351 23.5678 66.7027 23.3439L67.1391 25.5241ZM73.549 25.9905C72.8529 26.0238 72.1569 25.9204 71.5062 25.6869C70.8554 25.4533 70.2642 25.0949 69.7707 24.6346C69.2772 24.1743 68.8923 23.6224 68.641 23.0145C68.3896 22.4068 68.2773 21.7563 68.3114 21.1054C68.2667 20.4312 68.3769 19.7559 68.6346 19.1248C68.8923 18.4937 69.2915 17.9214 69.8054 17.4466C70.3193 16.9717 70.9359 16.6051 71.6139 16.3715C72.2919 16.1379 73.0155 16.0426 73.7361 16.0922C75.0582 16.0478 76.345 16.4961 77.3135 17.3388C78.282 18.1814 78.8528 19.3491 78.9003 20.5851C78.905 20.708 78.9046 20.8309 78.8989 20.9538C78.9447 21.6264 78.8366 22.3003 78.5821 22.9307C78.3275 23.5612 77.9322 24.1337 77.4226 24.6102C76.9129 25.0867 76.3005 25.4562 75.6261 25.6942C74.9518 25.9322 74.231 26.0332 73.5116 25.9905H73.549ZM73.6363 23.8802C74.8834 23.8802 75.6441 22.7144 75.6441 21.0238C75.6441 19.6364 75.058 18.2025 73.6363 18.2025C72.2147 18.2025 71.5039 19.6364 71.5039 21.0472C71.5039 22.6561 72.2271 23.8802 73.549 23.8802H73.6363ZM83.0267 25.7806C82.4512 25.7806 81.8993 25.5668 81.4924 25.1864C81.0854 24.806 80.8568 24.2899 80.8568 23.752V23.7403V12H83.9994V25.7806H83.0267Z" fill="#292828"/>
</svg>