<svg xmlns="http://www.w3.org/2000/svg" width="95" height="40" viewBox="0 0 95 40" fill="none">
    <path d="M69.9738 24.5688C69.5169 24.3863 69.1054 24.1203 68.7645 23.7871C68.4175 23.4471 68.1413 23.0518 67.9498 22.6207C67.7354 22.1031 67.6317 21.5527 67.6442 20.9992C67.6365 20.4575 67.7402 19.9192 67.9498 19.4127C68.1441 18.9828 68.4199 18.588 68.7645 18.2462C69.1116 17.9069 69.5318 17.6374 69.9986 17.4546C70.4653 17.2719 70.9684 17.1799 71.4759 17.1846C71.9923 17.1816 72.5038 17.277 72.978 17.4646C73.458 17.6394 73.8919 17.9059 74.2509 18.2462C74.6076 18.5815 74.8887 18.9779 75.0784 19.4127C75.275 19.9216 75.3656 20.4596 75.3457 20.9992C75.3534 21.5409 75.2498 22.0791 75.0402 22.5857C74.8523 23.0213 74.571 23.418 74.2128 23.7521C73.8537 24.0925 73.4198 24.3589 72.9398 24.5338C72.4656 24.7214 71.9541 24.8167 71.4377 24.8137C70.9211 24.8177 70.4094 24.7223 69.9356 24.5338L69.9738 24.5688ZM74.5565 27.4384C75.4473 27.0803 76.2552 26.5696 76.9369 25.9336C77.6016 25.2929 78.1247 24.5401 78.4772 23.7172C78.8375 22.8497 79.0146 21.9273 78.9991 20.9992C79.0071 20.0733 78.8213 19.1546 78.4517 18.2928C78.097 17.4674 77.5743 16.7113 76.9114 16.0648C76.245 15.42 75.4442 14.9043 74.5565 14.5482C72.5978 13.8173 70.4048 13.8173 68.4462 14.5482C67.5508 14.8925 66.7441 15.4052 66.0785 16.0531C65.4156 16.6996 64.8929 17.4557 64.5382 18.2812C63.8084 20.0354 63.8084 21.9745 64.5382 23.7289C64.8907 24.5518 65.4138 25.3045 66.0785 25.9453C67.1669 26.9343 68.5517 27.6044 70.0568 27.8703C71.562 28.1363 73.1194 27.9859 74.531 27.4384H74.5565ZM61.8268 14.2917H58.2752V27.6834H61.8268V14.2917ZM44.4253 14.2917V17.0796H48.5498V27.6834H52.0759V17.0796H56.2003V14.2917H44.4253ZM42.3631 14.2917H38.8243V27.6834H42.3631V14.2917ZM35.8074 27.6834V14.2917H32.294V21.9674L25.2799 14.2917H22.5558V27.6834H26.0564V19.8326L33.0832 27.6484L35.8074 27.6834ZM19.5261 14.2917H16V27.6834H19.5261V14.2917Z" fill="#3E3D40"/>
</svg>