<svg xmlns="http://www.w3.org/2000/svg" width="144" height="40" viewBox="0 0 144 40" fill="none">
    <path d="M25.3552 20.8141L27.6648 14.0078H31.9796L29.5349 21.124C28.183 25.1918 25.8735 26.0013 21.6487 26.0013C17.9986 26.0013 15.7904 24.862 16.0157 22.3433C16.072 21.9299 16.17 21.5218 16.3087 21.124L18.7308 14.0078H23.0457L20.7249 20.8141C20.6357 21.059 20.5679 21.3096 20.5221 21.5637C20.432 22.5632 21.0629 22.923 22.3022 22.923C23.0168 22.9767 23.728 22.7895 24.2939 22.3986C24.8597 22.0077 25.2387 21.442 25.3552 20.8141Z" fill="#80BC00"/>
    <path d="M32.2152 18.754C32.3301 18.1992 32.6719 17.7015 33.1751 17.3567C33.6783 17.0117 34.3073 16.8437 34.9415 16.8851H39.6732C41.656 16.8851 42.8615 17.8146 42.7038 19.4137C42.6775 19.705 42.6171 19.9931 42.5235 20.2732L40.6421 25.8602H36.868L38.479 21.1227C38.5552 20.8666 38.6117 20.6062 38.648 20.3432C38.7269 19.5136 38.2199 19.2538 37.0032 19.2538H36.5413C36.4301 19.2389 36.3167 19.2436 36.2076 19.2676C36.0984 19.2916 35.9957 19.3344 35.9052 19.3936C35.8147 19.4529 35.7383 19.5273 35.6802 19.6128C35.6222 19.6981 35.5837 19.7929 35.5669 19.8915L35.5611 19.9334L33.5445 25.8602H29.793L32.2152 18.754Z" fill="#80BC00"/>
    <path d="M46.4322 25.8614C43.8298 25.8614 42.8722 24.5121 43.0524 22.5832C43.0914 22.0503 43.1857 21.5216 43.3341 21.0041C44.2128 18.2955 45.407 16.8563 49.0346 16.8563H51.8624L52.8313 14.0078H56.5716L53.1918 24.0024C53.0695 24.5571 52.7221 25.0526 52.2155 25.3952C51.7088 25.7379 51.0781 25.9038 50.4429 25.8614H46.4322ZM51.0513 19.255H49.3388C48.0207 19.255 47.3786 20.5143 47.0856 21.3739C46.9786 21.7002 46.9069 22.0349 46.8716 22.3733C46.8716 22.9929 47.0293 23.4527 47.9982 23.4527H48.6854C49.4515 23.4527 49.6993 23.2828 49.9359 22.6032L51.0513 19.255Z" fill="#80BC00"/>
    <path d="M58.2176 25.8597C55.7729 25.8597 54.7251 25.0302 54.9167 23.1013C54.9956 22.385 55.1734 21.6801 55.4462 21.0024C56.7981 17.1445 58.0711 16.8047 62.4649 16.8047C65.6193 16.8047 67.1966 17.2244 66.9712 19.2733C66.9196 19.7823 66.8063 20.285 66.6333 20.7725C66.2502 21.7719 65.6869 22.4616 64.3801 22.4616H58.8259C58.7835 22.5788 58.7533 22.6993 58.7358 22.8214C58.7358 23.3911 59.1752 23.581 60.3018 23.581H65.2137L64.4251 25.8797L58.2176 25.8597ZM62.2846 20.3427C62.9042 20.3427 62.9944 20.1229 63.0732 19.9229C63.0859 19.8367 63.0859 19.7494 63.0732 19.6631C63.0732 19.1434 62.1381 19.0834 61.6086 19.0834C60.482 19.0834 59.8512 19.2233 59.4794 20.3427H62.2846Z" fill="#80BC00"/>
    <path d="M67.7605 20.6107C68.7857 17.5625 70.5545 16.8828 73.9906 16.8828H76.4578L75.7255 19.2215H74.2835C72.5598 19.2215 71.6923 20.0711 71.1853 21.5902L69.732 25.858H65.9805L67.7605 20.6107Z" fill="#80BC00"/>
    <path d="M74.2734 25.86L77.6532 15.8654C77.7731 15.3115 78.1182 14.8161 78.623 14.4734C79.1278 14.1306 79.7569 13.9644 80.3909 14.0064H90.0571L89.0769 16.8848H82.4863C82.2266 16.8609 81.9664 16.9249 81.7575 17.0638C81.5486 17.2028 81.4066 17.4065 81.3597 17.6344L81.0668 18.5139H86.8913L85.8999 21.3924H80.0979L78.5883 25.86H74.2734Z" fill="#80BC00"/>
    <path d="M91.1357 14.0078H94.876L90.8653 25.8614H87.125L91.1357 14.0078Z" fill="#80BC00"/>
    <path d="M105.556 20.0034C105.503 20.5892 105.382 21.1687 105.196 21.7325C103.889 25.4405 102.424 26.0001 98.0305 26.0001C94.5831 26.0001 93.0172 25.1806 93.2537 22.8319C93.3016 22.2127 93.4224 21.5997 93.6142 21.0029C94.876 17.3149 96.3631 16.7852 100.757 16.7852C104.216 16.7852 105.793 17.6147 105.556 20.0034ZM97.1292 22.3722C97.0504 23.1417 97.4109 23.5915 98.6501 23.5915C100.374 23.5915 100.903 22.9018 101.388 21.5925C101.512 21.1937 101.595 20.7855 101.636 20.3732C101.714 19.6136 101.354 19.1539 100.115 19.1539C98.391 19.1539 97.8615 19.8535 97.3658 21.2027C97.2544 21.5868 97.1753 21.9776 97.1292 22.3722Z" fill="#80BC00"/>
    <path d="M118.164 20.0021C118.105 20.5873 117.984 21.1662 117.803 21.7312C116.53 25.4391 115.032 25.9989 110.649 25.9989C107.191 25.9989 105.636 25.1793 105.861 22.8306C105.91 22.2115 106.031 21.5986 106.222 21.0015C107.461 17.2836 108.971 16.7539 113.364 16.7539C116.812 16.7839 118.389 17.6134 118.164 20.0021ZM109.737 22.3708C109.658 23.1404 110.018 23.5902 111.258 23.5902C112.97 23.5902 113.511 22.9006 113.995 21.5913C114.132 21.2099 114.23 20.8186 114.288 20.4219C114.356 19.6623 114.006 19.2025 112.767 19.2025C111.044 19.2025 110.514 19.9021 110.018 21.2514C109.884 21.6157 109.79 21.9906 109.737 22.3708Z" fill="#80BC00"/>
    <path d="M119.303 20.6107C120.329 17.5625 122.097 16.8828 125.534 16.8828H128.001L127.212 19.2215H125.815C124.103 19.2215 123.235 20.0711 122.717 21.5902L121.264 25.858H117.523L119.303 20.6107Z" fill="#80BC00"/>
    <path d="M74.2734 25.86L77.6532 15.8654C77.7731 15.3115 78.1182 14.8161 78.623 14.4734C79.1278 14.1306 79.7569 13.9644 80.3909 14.0064H90.0571L89.0769 16.8848H82.4863C82.2257 16.856 81.9626 16.918 81.7524 17.0578C81.5423 17.1976 81.4015 17.4043 81.3597 17.6344L81.0555 18.5139H86.8801L85.8886 21.3924H80.0979L78.5883 25.86H74.2734Z" fill="#00A6CE"/>
    <path d="M91.1357 14.0078H94.876L90.8653 25.8614H87.125L91.1357 14.0078Z" fill="#00A6CE"/>
    <path d="M105.556 20.0034C105.503 20.5892 105.382 21.1687 105.196 21.7325C103.889 25.4405 102.424 26.0001 98.0305 26.0001C94.5831 26.0001 93.0172 25.1806 93.2537 22.8319C93.3016 22.2127 93.4224 21.5997 93.6142 21.0029C94.876 17.3149 96.3631 16.7852 100.757 16.7852C104.216 16.7852 105.793 17.6147 105.556 20.0034ZM97.1292 22.3722C97.0504 23.1417 97.4109 23.5915 98.6501 23.5915C100.374 23.5915 100.903 22.9018 101.388 21.5925C101.512 21.1937 101.595 20.7855 101.636 20.3732C101.714 19.6136 101.354 19.1539 100.115 19.1539C98.391 19.1539 97.8615 19.8535 97.3771 21.2027C97.2572 21.5856 97.1743 21.9768 97.1292 22.3722Z" fill="#00A6CE"/>
    <path d="M118.164 20.0021C118.105 20.5873 117.984 21.1662 117.803 21.7312C116.53 25.4391 115.032 25.9989 110.649 25.9989C107.191 25.9989 105.636 25.1793 105.861 22.8306C105.91 22.2115 106.031 21.5986 106.222 21.0015C107.461 17.2836 108.971 16.7539 113.364 16.7539C116.812 16.7839 118.4 17.6134 118.164 20.0021ZM109.737 22.3708C109.658 23.1404 110.018 23.5902 111.258 23.5902C112.97 23.5902 113.511 22.9006 113.995 21.5913C114.132 21.2099 114.23 20.8186 114.288 20.4219C114.356 19.6623 114.006 19.2025 112.767 19.2025C111.044 19.2025 110.514 19.9021 110.018 21.2514C109.884 21.6157 109.79 21.9906 109.737 22.3708Z" fill="#00A6CE"/>
    <path d="M119.303 20.6107C120.329 17.5625 122.097 16.8828 125.534 16.8828H128.001L127.212 19.2215H125.815C124.103 19.2215 123.235 20.0711 122.717 21.5902L121.264 25.858H117.523L119.303 20.6107Z" fill="#00A6CE"/>
</svg>