<svg xmlns="http://www.w3.org/2000/svg" width="32" height="32" viewBox="0 0 32 32" fill="none">
    <path fill-rule="evenodd" clip-rule="evenodd" d="M15.5341 7C13.2166 7 12.9258 7.01013 12.0155 7.05156C11.1071 7.09316 10.487 7.23698 9.94439 7.448C9.38314 7.66596 8.90704 7.95752 8.43273 8.43202C7.95805 8.90633 7.6665 9.38243 7.44783 9.9435C7.23627 10.4863 7.09227 11.1065 7.05138 12.0146C7.01067 12.9249 7 13.2159 7 15.5334C7 17.851 7.01031 18.1409 7.05156 19.0511C7.09333 19.9596 7.23716 20.5797 7.448 21.1223C7.66614 21.6835 7.9577 22.1596 8.43219 22.6339C8.90633 23.1086 9.38242 23.4009 9.94332 23.6188C10.4863 23.8299 11.1065 23.9737 12.0148 24.0153C12.925 24.0567 13.2157 24.0668 15.5331 24.0668C17.8508 24.0668 18.1407 24.0567 19.051 24.0153C19.9594 23.9737 20.5802 23.8299 21.1232 23.6188C21.6842 23.4009 22.1596 23.1086 22.6338 22.6339C23.1084 22.1596 23.4 21.6835 23.6187 21.1225C23.8284 20.5797 23.9724 19.9594 24.0151 19.0513C24.056 18.1411 24.0667 17.851 24.0667 15.5334C24.0667 13.2159 24.056 12.925 24.0151 12.0148C23.9724 11.1064 23.8284 10.4863 23.6187 9.94368C23.4 9.38243 23.1084 8.90633 22.6338 8.43202C22.1591 7.95734 21.6844 7.66578 21.1226 7.448C20.5786 7.23698 19.9582 7.09316 19.0497 7.05156C18.1395 7.01013 17.8497 7 15.5315 7H15.5341ZM15.2492 8.53721H15.2493L15.5337 8.53729C17.8121 8.53729 18.0822 8.54547 18.9819 8.58636C19.8139 8.6244 20.2655 8.76343 20.5663 8.88023C20.9645 9.03489 21.2484 9.21979 21.5469 9.51846C21.8456 9.81713 22.0305 10.1016 22.1855 10.4998C22.3023 10.8002 22.4415 11.2518 22.4794 12.0838C22.5203 12.9834 22.5292 13.2536 22.5292 15.531C22.5292 17.8083 22.5203 18.0785 22.4794 18.9781C22.4413 19.8101 22.3023 20.2617 22.1855 20.5621C22.0308 20.9604 21.8456 21.2439 21.5469 21.5424C21.2483 21.8411 20.9647 22.026 20.5663 22.1806C20.2659 22.298 19.8139 22.4366 18.9819 22.4747C18.0824 22.5156 17.8121 22.5245 15.5337 22.5245C13.2551 22.5245 12.9851 22.5156 12.0855 22.4747C11.2535 22.4363 10.8019 22.2973 10.501 22.1805C10.1027 22.0258 9.81828 21.8409 9.51961 21.5422C9.22094 21.2436 9.03605 20.9598 8.88102 20.5614C8.76422 20.261 8.62502 19.8094 8.58715 18.9774C8.54626 18.0778 8.53809 17.8076 8.53809 15.5288C8.53809 13.25 8.54626 12.9812 8.58715 12.0817C8.6252 11.2497 8.76422 10.7981 8.88102 10.4973C9.03569 10.0991 9.22094 9.81464 9.51961 9.51597C9.81828 9.2173 10.1027 9.03241 10.501 8.87738C10.8018 8.76005 11.2535 8.62138 12.0855 8.58316C12.8727 8.5476 13.1778 8.53693 14.7682 8.53516V8.53729C14.9168 8.53706 15.0767 8.53713 15.2492 8.53721ZM19.0654 10.9771C19.0654 10.4116 19.5241 9.95348 20.0894 9.95348V9.95312C20.6548 9.95312 21.1135 10.4118 21.1135 10.9771C21.1135 11.5425 20.6548 12.0011 20.0894 12.0011C19.5241 12.0011 19.0654 11.5425 19.0654 10.9771ZM15.5344 11.1523C13.1144 11.1524 11.1523 13.1146 11.1523 15.5346C11.1523 17.9547 13.1145 19.916 15.5346 19.916C17.9547 19.916 19.9162 17.9547 19.9162 15.5346C19.9162 13.1145 17.9545 11.1523 15.5344 11.1523ZM18.3784 15.532C18.3784 13.9609 17.1048 12.6875 15.5339 12.6875C13.9629 12.6875 12.6895 13.9609 12.6895 15.532C12.6895 17.1028 13.9629 18.3764 15.5339 18.3764C17.1048 18.3764 18.3784 17.1028 18.3784 15.532Z" fill="#4E5359"/>
</svg>