<svg width="32" height="32" viewBox="0 0 32 32" fill="none" xmlns="http://www.w3.org/2000/svg">
<path d="M16.3703 20.5174C16.3703 20.5174 16.6783 20.4838 16.8361 20.3175C16.9805 20.1651 16.9755 19.8775 16.9755 19.8775C16.9755 19.8775 16.9563 18.5345 17.5915 18.3362C18.2176 18.1412 19.0214 19.6349 19.8745 20.2093C20.5189 20.6436 21.0081 20.5485 21.0081 20.5485L23.2877 20.5174C23.2877 20.5174 24.4797 20.4453 23.9146 19.5251C23.8679 19.4497 23.5849 18.8442 22.2201 17.6004C20.7902 16.2985 20.9822 16.509 22.7034 14.2566C23.7518 12.885 24.1709 12.0476 24.0398 11.6895C23.9154 11.347 23.1442 11.438 23.1442 11.438L20.5782 11.4535C20.5782 11.4535 20.3879 11.4281 20.2468 11.5109C20.1091 11.592 20.0198 11.7813 20.0198 11.7813C20.0198 11.7813 19.6141 12.8424 19.0723 13.7453C17.9296 15.6495 17.473 15.7503 17.286 15.6323C16.8511 15.3562 16.9596 14.5245 16.9596 13.9338C16.9596 12.0877 17.2451 11.3183 16.4045 11.1192C16.1257 11.0529 15.9204 11.0094 15.2067 11.0021C14.291 10.993 13.5164 11.0053 13.0773 11.2159C12.7851 11.356 12.5598 11.669 12.6975 11.687C12.8669 11.7092 13.2509 11.7886 13.4546 12.0607C13.7175 12.4122 13.7083 13.2004 13.7083 13.2004C13.7083 13.2004 13.8594 15.3734 13.3553 15.643C13.0097 15.8281 12.5356 15.4504 11.5163 13.7224C10.9946 12.8374 10.6006 11.8591 10.6006 11.8591C10.6006 11.8591 10.5247 11.6764 10.3886 11.5781C10.2242 11.4593 9.99463 11.4224 9.99463 11.4224L7.55638 11.438C7.55638 11.438 7.18993 11.4478 7.05554 11.6043C6.93618 11.7428 7.04636 12.0304 7.04636 12.0304C7.04636 12.0304 8.95539 16.4148 11.1173 18.6246C13.0998 20.6501 15.3503 20.5174 15.3503 20.5174H16.3703Z" fill="#4E5359"/>
</svg>
