<svg width="32" height="32" viewBox="0 0 32 32" fill="none" xmlns="http://www.w3.org/2000/svg">
<path fill-rule="evenodd" clip-rule="evenodd" d="M15.5941 25.035H15.5901C13.9978 25.0345 12.4332 24.635 11.0436 23.877L6 25.2L7.34974 20.2699C6.51716 18.827 6.07905 17.1903 6.07977 15.5135C6.08185 10.2678 10.3499 6 15.594 6C18.1391 6.0011 20.5279 6.99191 22.3241 8.79027C24.1204 10.5885 25.1091 12.9789 25.1081 15.521C25.106 20.7655 20.8397 25.0329 15.5941 25.035ZM11.2772 22.1546L11.566 22.326C12.7801 23.0464 14.1718 23.4277 15.5908 23.4282H15.594C19.9525 23.4282 23.4999 19.8808 23.5017 15.5205C23.5025 13.4075 22.6807 11.4207 21.1878 9.92599C19.6948 8.43126 17.7093 7.60769 15.5971 7.60695C11.2353 7.60695 7.68783 11.1541 7.6861 15.514C7.68548 17.0082 8.10356 18.4634 8.89514 19.7224L9.08316 20.0216L8.2843 22.9397L11.2772 22.1546ZM20.0616 17.5694C20.2274 17.6495 20.3394 17.7036 20.3872 17.7834C20.4466 17.8825 20.4466 18.3585 20.2486 18.9139C20.0504 19.4692 19.1007 19.976 18.6439 20.0442C18.2344 20.1055 17.7161 20.131 17.1467 19.95C16.8014 19.8405 16.3586 19.6942 15.7914 19.4493C13.5628 18.4869 12.0567 16.3269 11.7721 15.9187C11.7521 15.8901 11.7382 15.8701 11.7304 15.8597L11.7285 15.8571C11.6027 15.6893 10.7597 14.5646 10.7597 13.4005C10.7597 12.3055 11.2976 11.7315 11.5452 11.4673C11.5621 11.4492 11.5777 11.4326 11.5917 11.4173C11.8096 11.1793 12.0672 11.1198 12.2256 11.1198C12.3841 11.1198 12.5428 11.1213 12.6813 11.1283C12.6984 11.1291 12.7161 11.129 12.7345 11.1289C12.8731 11.1281 13.0458 11.1271 13.2161 11.5363C13.2817 11.6938 13.3776 11.9273 13.4787 12.1736C13.6833 12.6716 13.9093 13.2218 13.9491 13.3015C14.0085 13.4205 14.0481 13.5592 13.9689 13.718C13.957 13.7418 13.946 13.7642 13.9355 13.7857C13.876 13.9072 13.8322 13.9966 13.7312 14.1145C13.6915 14.1609 13.6504 14.2109 13.6094 14.2609C13.5276 14.3605 13.4458 14.4601 13.3746 14.531C13.2556 14.6496 13.1317 14.7782 13.2704 15.0162C13.409 15.2542 13.8861 16.0326 14.5929 16.663C15.3525 17.3406 16.0128 17.627 16.3475 17.7722C16.4128 17.8005 16.4658 17.8235 16.5046 17.8429C16.7422 17.9619 16.8809 17.942 17.0196 17.7834C17.1583 17.6248 17.6139 17.0892 17.7723 16.8513C17.9308 16.6134 18.0893 16.653 18.3072 16.7323C18.5251 16.8117 19.6939 17.3867 19.9316 17.5057C19.978 17.529 20.0214 17.5499 20.0616 17.5694Z" fill="white"/>
</svg>
