<svg width="124" height="40" viewBox="0 0 124 40" fill="none" xmlns="http://www.w3.org/2000/svg">
    <rect width="124" height="40" rx="2" fill="white"/>
    <g clip-path="url(#clip0_6381_67811)">
        <path fill-rule="evenodd" clip-rule="evenodd" d="M15.1406 11.798L12.8676 10L9.75821 10.4122L8 12.7982L8.45003 15.5009L10.4206 17.2353L12.2685 17.2902L14.7014 20.1131L12.4635 22.7098L10.6156 22.7647L8.64502 24.4991L8.19499 27.2018L9.9532 29.5878L13.0626 30L15.3356 28.202L15.7415 25.2287L14.7099 23.9673L16.6777 22.1357L24.8254 29.9392L32.0517 29.723L19.3874 19.9958L32.2814 10.2781L25.0204 10.0608L16.7568 17.9753L15.9613 17.3643L14.5169 16.0303L15.5465 14.7713L15.1406 11.798ZM25.4837 28.2266L18.0248 21.0829L27.2565 28.1735L25.4837 28.2266ZM13.7703 14.2703L12.6751 15.6094L11.0806 15.562L10.0202 14.6287L9.78667 13.226L10.6937 11.9951L12.3797 11.7716L13.5562 12.7023L13.7703 14.2703ZM25.6787 11.7734L19.0044 18.1656L27.4168 11.8254L25.6787 11.7734ZM13.9653 25.7297L12.8701 24.3906L11.2756 24.438L10.2152 25.3713L9.98167 26.774L10.8887 28.0049L12.5747 28.2284L13.7512 27.2977L13.9653 25.7297Z" fill="#171717"/>
    </g>
    <path d="M40.812 10H47.322V17H46.09V11.05H42.044V17H40.812V10ZM52.8248 17.21C52.2368 17.21 51.7188 17.112 51.2848 16.888C50.8508 16.664 50.5288 16.314 50.3188 15.838H50.1788V19.52H48.9468V10H50.1788V11.162H50.3188C50.5288 10.686 50.8508 10.35 51.2848 10.126C51.7188 9.902 52.2368 9.79 52.8248 9.79C53.3288 9.79 53.7768 9.846 54.1688 9.958C54.5608 10.07 54.8828 10.252 55.1628 10.532C55.4288 10.812 55.6388 11.19 55.7788 11.666C55.9188 12.142 56.0028 12.758 56.0028 13.5C56.0028 14.256 55.9188 14.872 55.7788 15.348C55.6388 15.824 55.4288 16.202 55.1628 16.482C54.8828 16.762 54.5608 16.944 54.1688 17.056C53.7768 17.168 53.3288 17.21 52.8248 17.21ZM52.3628 10.84C52.0828 10.84 51.8028 10.868 51.5508 10.91C51.2848 10.952 51.0468 11.036 50.8508 11.162C50.6548 11.288 50.4868 11.456 50.3608 11.68C50.2348 11.904 50.1788 12.198 50.1788 12.562V14.438C50.1788 14.802 50.2348 15.096 50.3608 15.32C50.4868 15.544 50.6548 15.726 50.8508 15.852C51.0468 15.978 51.2848 16.062 51.5508 16.104C51.8028 16.146 52.0828 16.16 52.3628 16.16C52.7968 16.16 53.1748 16.132 53.4828 16.076C53.7908 16.02 54.0288 15.908 54.2248 15.712C54.4208 15.53 54.5608 15.264 54.6448 14.914C54.7288 14.564 54.7848 14.088 54.7848 13.5C54.7848 12.912 54.7288 12.45 54.6448 12.1C54.5608 11.75 54.4208 11.484 54.2248 11.288C54.0288 11.106 53.7908 10.98 53.4828 10.924C53.1748 10.868 52.7968 10.84 52.3628 10.84ZM60.812 16.16C61.176 16.16 61.512 16.132 61.82 16.062C62.114 15.992 62.366 15.866 62.576 15.67C62.786 15.474 62.954 15.208 63.066 14.872C63.178 14.536 63.234 14.088 63.234 13.542C63.234 12.982 63.178 12.534 63.066 12.184C62.954 11.834 62.786 11.554 62.576 11.358C62.366 11.162 62.114 11.022 61.82 10.952C61.512 10.882 61.176 10.84 60.812 10.84C60.434 10.84 60.098 10.882 59.804 10.952C59.496 11.022 59.244 11.148 59.048 11.344C58.838 11.54 58.684 11.82 58.572 12.17C58.46 12.534 58.404 12.982 58.404 13.542C58.404 14.088 58.46 14.536 58.572 14.872C58.684 15.208 58.838 15.474 59.048 15.67C59.244 15.866 59.496 15.992 59.804 16.062C60.098 16.132 60.434 16.16 60.812 16.16ZM60.812 9.79C61.372 9.79 61.89 9.86 62.338 9.972C62.786 10.098 63.178 10.308 63.486 10.588C63.794 10.882 64.032 11.274 64.2 11.75C64.368 12.226 64.452 12.828 64.452 13.542C64.452 14.242 64.368 14.83 64.2 15.292C64.032 15.768 63.794 16.146 63.486 16.426C63.178 16.706 62.786 16.916 62.338 17.028C61.89 17.154 61.372 17.21 60.812 17.21C60.238 17.21 59.734 17.154 59.286 17.028C58.838 16.916 58.446 16.706 58.138 16.426C57.83 16.146 57.592 15.768 57.424 15.292C57.256 14.83 57.172 14.242 57.172 13.542C57.172 12.828 57.256 12.226 57.424 11.75C57.592 11.274 57.83 10.882 58.138 10.588C58.446 10.308 58.838 10.098 59.286 9.972C59.734 9.86 60.238 9.79 60.812 9.79ZM66.6045 10H72.3445V15.95H73.5065V19.1H72.2745V17H66.2265V19.1H64.9945V15.95H65.7505C65.9325 15.852 66.0725 15.684 66.1845 15.432C66.2965 15.194 66.3805 14.9 66.4505 14.564C66.5065 14.228 66.5485 13.864 66.5765 13.444C66.5905 13.038 66.6045 12.618 66.6045 12.184V10ZM67.7945 12.352C67.7945 13.276 67.7245 14.018 67.6125 14.592C67.5005 15.18 67.3465 15.628 67.1645 15.95H71.1125V11.05H67.7945V12.352ZM76.7822 17.21C76.3902 17.21 76.0402 17.182 75.7182 17.098C75.3962 17.014 75.1162 16.888 74.8922 16.706C74.6542 16.538 74.4722 16.3 74.3462 16.02C74.2062 15.74 74.1502 15.39 74.1502 14.984C74.1502 14.746 74.1782 14.494 74.2622 14.242C74.3462 13.99 74.4862 13.752 74.7102 13.542C74.9202 13.332 75.2142 13.164 75.5922 13.024C75.9702 12.898 76.4602 12.828 77.0622 12.828C77.3422 12.828 77.5802 12.842 77.8042 12.842C78.0282 12.842 78.2242 12.856 78.4202 12.856C78.6022 12.87 78.7842 12.884 78.9662 12.884C79.1482 12.898 79.3442 12.912 79.5682 12.912V12.324C79.5682 11.792 79.4142 11.414 79.1062 11.19C78.7982 10.966 78.3082 10.84 77.6082 10.84C77.3002 10.84 77.0202 10.868 76.7962 10.896C76.5582 10.938 76.3622 11.008 76.1942 11.12C76.0262 11.232 75.9002 11.372 75.8022 11.554C75.6902 11.736 75.6202 11.96 75.5782 12.24H74.3882C74.4442 11.778 74.5562 11.386 74.7242 11.078C74.8922 10.77 75.1022 10.518 75.3682 10.322C75.6342 10.14 75.9562 10 76.3342 9.916C76.6982 9.832 77.1322 9.79 77.6082 9.79C78.6022 9.79 79.3862 9.986 79.9462 10.378C80.5062 10.77 80.8002 11.428 80.8002 12.324V17H79.5682V15.838H79.4282C79.2042 16.314 78.8542 16.664 78.3782 16.888C77.9022 17.112 77.3702 17.21 76.7822 17.21ZM77.1882 16.16C77.4682 16.16 77.7342 16.146 78.0142 16.104C78.2942 16.062 78.5462 15.978 78.7702 15.866C78.9942 15.754 79.1762 15.586 79.3162 15.376C79.4562 15.166 79.5402 14.886 79.5682 14.55V13.822C79.1762 13.808 78.7982 13.794 78.4622 13.78C78.1262 13.78 77.8182 13.766 77.5382 13.766C77.0622 13.766 76.6702 13.808 76.3902 13.864C76.1102 13.934 75.8862 14.018 75.7462 14.13C75.5922 14.242 75.4942 14.382 75.4522 14.522C75.3962 14.662 75.3822 14.816 75.3822 14.97C75.3822 15.432 75.5222 15.74 75.8162 15.908C76.1102 16.076 76.5722 16.16 77.1882 16.16ZM89.2062 13.962H83.3962C83.3962 14.41 83.4662 14.788 83.5782 15.068C83.6902 15.348 83.8582 15.572 84.0682 15.74C84.2782 15.908 84.5302 16.02 84.8242 16.076C85.1182 16.132 85.4402 16.16 85.8042 16.16C86.0842 16.16 86.3362 16.146 86.5882 16.104C86.8262 16.076 87.0362 16.006 87.2322 15.908C87.4282 15.824 87.5822 15.698 87.7222 15.53C87.8482 15.362 87.9322 15.152 87.9882 14.886H89.2062C89.1362 15.32 89.0102 15.684 88.8142 15.978C88.6182 16.286 88.3802 16.524 88.0862 16.706C87.7922 16.888 87.4562 17.014 87.0782 17.098C86.6862 17.182 86.2662 17.21 85.8042 17.21C85.2302 17.21 84.7262 17.154 84.2782 17.028C83.8302 16.916 83.4382 16.706 83.1302 16.426C82.8222 16.146 82.5842 15.768 82.4162 15.292C82.2482 14.83 82.1642 14.242 82.1642 13.542C82.1642 12.828 82.2482 12.226 82.4162 11.75C82.5842 11.274 82.8222 10.882 83.1302 10.588C83.4382 10.308 83.8162 10.098 84.2642 9.972C84.7122 9.86 85.2162 9.79 85.7762 9.79C86.8402 9.79 87.6802 10.056 88.2962 10.588C88.8982 11.12 89.2062 11.932 89.2062 13.024V13.962ZM85.7762 10.84C85.4402 10.84 85.1462 10.868 84.8662 10.924C84.5862 10.98 84.3342 11.092 84.1242 11.246C83.9142 11.4 83.7462 11.61 83.6202 11.89C83.4942 12.17 83.4242 12.52 83.4102 12.968H87.9602C87.9602 12.548 87.9042 12.212 87.7922 11.932C87.6802 11.652 87.5402 11.442 87.3442 11.274C87.1482 11.12 86.9242 11.008 86.6582 10.938C86.3922 10.882 86.0982 10.84 85.7762 10.84ZM96.0823 10V11.05H93.5343V17H92.3023V11.05H89.7543V10H96.0823ZM103.534 14.718C103.464 15.194 103.338 15.586 103.142 15.894C102.946 16.216 102.708 16.468 102.414 16.664C102.12 16.86 101.784 17 101.406 17.084C101.014 17.168 100.594 17.21 100.132 17.21C99.5583 17.21 99.0543 17.154 98.6063 17.028C98.1583 16.916 97.7663 16.706 97.4583 16.426C97.1503 16.146 96.9123 15.768 96.7443 15.292C96.5763 14.83 96.4923 14.242 96.4923 13.542C96.4923 12.828 96.5763 12.226 96.7443 11.75C96.9123 11.274 97.1503 10.882 97.4583 10.588C97.7663 10.308 98.1583 10.098 98.6063 9.972C99.0543 9.86 99.5583 9.79 100.132 9.79C100.58 9.79 100.986 9.832 101.378 9.916C101.756 10 102.092 10.14 102.372 10.322C102.652 10.518 102.89 10.77 103.086 11.078C103.282 11.386 103.408 11.778 103.492 12.24H102.26C102.204 11.96 102.106 11.736 101.98 11.554C101.84 11.372 101.686 11.232 101.504 11.12C101.308 11.008 101.098 10.938 100.874 10.896C100.65 10.868 100.398 10.84 100.132 10.84C99.7543 10.84 99.4183 10.882 99.1243 10.952C98.8163 11.022 98.5643 11.148 98.3683 11.344C98.1583 11.54 98.0043 11.82 97.8923 12.17C97.7803 12.534 97.7243 12.982 97.7243 13.542C97.7243 14.088 97.7803 14.536 97.8923 14.872C98.0043 15.208 98.1583 15.474 98.3683 15.67C98.5643 15.866 98.8163 15.992 99.1243 16.062C99.4183 16.132 99.7543 16.16 100.132 16.16C100.412 16.16 100.664 16.146 100.916 16.104C101.154 16.062 101.364 15.992 101.56 15.88C101.742 15.768 101.896 15.628 102.036 15.432C102.162 15.25 102.26 15.012 102.316 14.718H103.534ZM109.766 14.494H107.428L105.86 17H104.404L106.196 14.382C105.706 14.242 105.342 13.99 105.104 13.598C104.852 13.206 104.74 12.744 104.74 12.212C104.74 11.904 104.782 11.624 104.866 11.344C104.95 11.078 105.076 10.84 105.272 10.644C105.468 10.448 105.72 10.294 106.028 10.182C106.336 10.07 106.714 10 107.162 10H110.998V17H109.766V14.494ZM105.958 12.212C105.958 12.548 106.028 12.828 106.182 13.08C106.322 13.332 106.602 13.444 107.008 13.444H109.766V11.05H107.26C106.98 11.05 106.756 11.078 106.588 11.134C106.42 11.19 106.28 11.274 106.196 11.372C106.098 11.484 106.028 11.61 106 11.75C105.972 11.89 105.958 12.044 105.958 12.212Z" fill="#171717"/>
    <path d="M42.66 27.33H47.798V23.34H49.702V33H47.798V29.038H42.66V33H40.756V23.34H42.66V27.33ZM54.827 23.34H56.395L60.721 33H58.593L57.921 31.362H53.231L52.545 33H50.459L54.827 23.34ZM53.847 29.92H57.319L55.597 25.748L53.847 29.92ZM69.1316 33.21C68.2636 33.21 67.5216 33.14 66.8916 32.972C66.2476 32.818 65.7296 32.552 65.3096 32.16C64.8896 31.782 64.5676 31.264 64.3576 30.62C64.1476 29.976 64.0496 29.164 64.0496 28.184C64.0496 27.176 64.1616 26.336 64.3856 25.678C64.6096 25.034 64.9316 24.516 65.3656 24.138C65.7856 23.76 66.3176 23.494 66.9476 23.354C67.5776 23.214 68.3056 23.13 69.1316 23.13C69.9436 23.13 70.6576 23.214 71.3016 23.354C71.9316 23.494 72.4636 23.76 72.8976 24.138C73.3176 24.516 73.6536 25.034 73.8776 25.678C74.1016 26.336 74.2136 27.176 74.2136 28.184C74.2136 29.164 74.1016 29.976 73.8916 30.62C73.6816 31.264 73.3736 31.782 72.9536 32.16C72.5336 32.552 72.0016 32.818 71.3716 32.972C70.7276 33.14 69.9856 33.21 69.1316 33.21ZM69.1316 31.53C69.6636 31.53 70.1396 31.502 70.5316 31.418C70.9236 31.334 71.2596 31.18 71.5116 30.942C71.7636 30.704 71.9596 30.368 72.0856 29.92C72.2116 29.486 72.2816 28.912 72.2816 28.184C72.2816 27.442 72.2116 26.854 72.0856 26.406C71.9596 25.958 71.7636 25.622 71.5116 25.384C71.2456 25.146 70.9096 24.992 70.5176 24.922C70.1256 24.852 69.6636 24.81 69.1316 24.81C68.5856 24.81 68.1096 24.852 67.7176 24.922C67.3256 24.992 66.9896 25.146 66.7376 25.37C66.4716 25.608 66.2756 25.944 66.1496 26.392C66.0236 26.84 65.9676 27.442 65.9676 28.184C65.9676 28.912 66.0236 29.486 66.1496 29.92C66.2756 30.368 66.4716 30.704 66.7376 30.942C66.9896 31.18 67.3256 31.334 67.7176 31.418C68.1096 31.502 68.5856 31.53 69.1316 31.53ZM84.0515 25.048H80.3835V33H78.4795V25.048H74.8115V23.34H84.0515V25.048ZM93.5398 26.854C93.5398 28.156 93.2598 29.108 92.6998 29.71C92.1398 30.312 91.2998 30.606 90.1658 30.606H86.8338V33H84.9298V23.34H90.1378C90.7258 23.34 91.2438 23.41 91.6778 23.536C92.0978 23.676 92.4478 23.872 92.7278 24.152C93.0078 24.432 93.2038 24.796 93.3438 25.244C93.4698 25.692 93.5398 26.224 93.5398 26.854ZM86.8338 24.978V28.968H89.8438C90.4318 28.968 90.8658 28.814 91.1598 28.506C91.4538 28.198 91.6078 27.666 91.6078 26.882C91.6078 26.504 91.5658 26.196 91.5098 25.944C91.4538 25.706 91.3558 25.51 91.2158 25.37C91.0758 25.23 90.8798 25.118 90.6558 25.062C90.4318 25.006 90.1518 24.978 89.8158 24.978H86.8338ZM102.348 33H94.7462V23.34H102.334V24.978H96.6502V27.33H102.236V28.954H96.6502V31.362H102.348V33ZM112.273 30.27C112.273 31.236 111.909 31.964 111.209 32.468C110.495 32.972 109.389 33.21 107.891 33.21C107.163 33.21 106.505 33.154 105.945 33.028C105.385 32.902 104.895 32.692 104.503 32.398C104.111 32.118 103.803 31.74 103.579 31.264C103.355 30.788 103.229 30.2 103.201 29.5H105.133C105.161 29.948 105.259 30.298 105.399 30.564C105.539 30.83 105.735 31.04 105.973 31.18C106.211 31.32 106.491 31.418 106.813 31.46C107.121 31.516 107.471 31.53 107.863 31.53C108.759 31.53 109.403 31.418 109.781 31.18C110.145 30.942 110.341 30.592 110.341 30.13C110.341 29.92 110.313 29.738 110.271 29.57C110.215 29.416 110.131 29.29 110.005 29.178C109.879 29.08 109.697 28.996 109.473 28.94C109.249 28.884 108.955 28.856 108.605 28.856H107.163V27.316H108.549C108.871 27.316 109.137 27.288 109.333 27.204C109.529 27.134 109.669 27.036 109.781 26.924C109.893 26.812 109.963 26.672 110.005 26.532C110.033 26.392 110.061 26.238 110.061 26.084C110.061 25.664 109.879 25.356 109.515 25.132C109.151 24.922 108.591 24.81 107.835 24.81C107.485 24.81 107.163 24.838 106.855 24.894C106.547 24.95 106.267 25.034 106.043 25.174C105.819 25.314 105.637 25.524 105.511 25.776C105.371 26.042 105.315 26.378 105.329 26.798H103.425C103.411 26.126 103.509 25.552 103.719 25.076C103.929 24.614 104.237 24.236 104.629 23.942C105.021 23.662 105.483 23.452 106.029 23.326C106.575 23.2 107.177 23.13 107.849 23.13C109.235 23.13 110.271 23.382 110.971 23.858C111.657 24.334 112.007 25.034 112.007 25.93C112.007 26.49 111.839 26.938 111.517 27.26C111.195 27.596 110.775 27.82 110.271 27.946V28.058C110.971 28.17 111.475 28.408 111.797 28.8C112.105 29.192 112.273 29.682 112.273 30.27Z" fill="#171717"/>
    <defs>
        <clipPath id="clip0_6381_67811">
            <rect width="24" height="24" fill="white" transform="translate(8 8)"/>
        </clipPath>
    </defs>
</svg>
