<svg xmlns="http://www.w3.org/2000/svg" width="119" height="56" viewBox="0 0 119 56" fill="none">
    <path fill-rule="evenodd" clip-rule="evenodd" d="M23.25 9H77.75V14H95.75V42.5H91.0178C89.9338 44.5799 87.7577 46 85.25 46C82.7423 46 80.5662 44.5799 79.4822 42.5H53.5178C52.4338 44.5799 50.2577 46 47.75 46C45.7396 46 43.9423 45.0873 42.75 43.6536C41.5577 45.0873 39.7604 46 37.75 46C35.2423 46 33.0662 44.5799 31.9822 42.5H23.25V9ZM31.25 39.5C31.25 35.9101 34.1601 33 37.75 33C39.7604 33 41.5577 33.9127 42.75 35.3464C43.9423 33.9127 45.7396 33 47.75 33C51.3399 33 54.25 35.9101 54.25 39.5H74.75V12H26.25V39.5H31.25ZM77.75 39.5H78.75C78.75 35.9101 81.6601 33 85.25 33C88.8399 33 91.75 35.9101 91.75 39.5H92.75V30H77.75V39.5ZM77.75 27H86.75V17H77.75V27ZM89.75 17V27H92.75V17H89.75ZM41.25 39.5C41.25 37.567 39.683 36 37.75 36C35.817 36 34.25 37.567 34.25 39.5C34.25 41.433 35.817 43 37.75 43C39.683 43 41.25 41.433 41.25 39.5ZM44.25 39.5C44.25 41.433 45.817 43 47.75 43C49.683 43 51.25 41.433 51.25 39.5C51.25 37.567 49.683 36 47.75 36C45.817 36 44.25 37.567 44.25 39.5ZM39.75 16.5V29.5H36.75V16.5H39.75ZM44.75 16.5H53.25V19.5H47.75V21.5H53.25V29.5H44.75V26.5H50.25V24.5H44.75V16.5ZM57.75 24H55.25V21H63.25V24H60.75V29.5H57.75V24ZM40.75 30.5V27.5H43.75V30.5H40.75ZM85.25 36C83.317 36 81.75 37.567 81.75 39.5C81.75 41.433 83.317 43 85.25 43C87.183 43 88.75 41.433 88.75 39.5C88.75 37.567 87.183 36 85.25 36Z" fill="#CACDD1"/>
</svg>