<svg xmlns="http://www.w3.org/2000/svg" width="24" height="24" viewBox="0 0 24 24" fill="none">
    <path fill-rule="evenodd" clip-rule="evenodd" d="M4.41688 12C5.54172 13.5597 7.78206 16 12.0144 16C16.2466 16 18.487 13.5597 19.6118 12C18.487 10.4403 16.2466 8 12.0144 8C7.78206 8 5.54172 10.4403 4.41688 12ZM2.36981 11.4453C3.40913 9.88632 6.17005 5.99999 12.0144 6C17.8587 6.00001 20.6196 9.88631 21.6589 11.4453L22.0287 12L21.6589 12.5547C20.6196 14.1137 17.8587 18 12.0144 18C6.17004 18 3.40913 14.1137 2.36981 12.5547L2 12L2.36981 11.4453Z" fill="#4E5359"/>
    <path d="M14.0156 12C14.0156 13.1046 13.1202 14 12.0156 14C10.9111 14 10.0156 13.1046 10.0156 12C10.0156 10.8954 10.9111 10 12.0156 10C13.1202 10 14.0156 10.8954 14.0156 12Z" fill="#4E5359"/>
</svg>