<svg xmlns="http://www.w3.org/2000/svg" width="24" height="24" viewBox="0 0 24 24" fill="none">
    <mask id="path-1-inside-1_4127_34092" fill="white">
        <path d="M4 3.64287C4 3.47237 4.06889 3.30886 4.19151 3.18829C4.31413 3.06773 4.48044 3 4.65385 3H20.3462C20.5196 3 20.6859 3.06773 20.8085 3.18829C20.9311 3.30886 21 3.47237 21 3.64287V6.21437C21 6.37292 20.9404 6.52586 20.8326 6.64381L15.1154 12.89V19.0719C15.1153 19.2067 15.072 19.3382 14.9918 19.4475C14.9115 19.5569 14.7983 19.6387 14.6682 19.6813L10.7451 20.9671C10.6468 20.9992 10.5422 21.008 10.4399 20.9926C10.3375 20.9773 10.2403 20.9383 10.1563 20.8787C10.0723 20.8192 10.0038 20.741 9.9566 20.6504C9.90936 20.5598 9.88469 20.4594 9.88462 20.3576V12.89L4.16738 6.64381C4.05964 6.52586 4.00003 6.37292 4 6.21437V3.64287ZM5.30769 4.28575V5.96751L11.0249 12.2137C11.1327 12.3316 11.1923 12.4846 11.1923 12.6431V19.4653L13.8077 18.609V12.6431C13.8077 12.4846 13.8673 12.3316 13.9751 12.2137L19.6923 5.96751V4.28575H5.30769Z"/>
    </mask>
    <path d="M4 3.64287C4 3.47237 4.06889 3.30886 4.19151 3.18829C4.31413 3.06773 4.48044 3 4.65385 3H20.3462C20.5196 3 20.6859 3.06773 20.8085 3.18829C20.9311 3.30886 21 3.47237 21 3.64287V6.21437C21 6.37292 20.9404 6.52586 20.8326 6.64381L15.1154 12.89V19.0719C15.1153 19.2067 15.072 19.3382 14.9918 19.4475C14.9115 19.5569 14.7983 19.6387 14.6682 19.6813L10.7451 20.9671C10.6468 20.9992 10.5422 21.008 10.4399 20.9926C10.3375 20.9773 10.2403 20.9383 10.1563 20.8787C10.0723 20.8192 10.0038 20.741 9.9566 20.6504C9.90936 20.5598 9.88469 20.4594 9.88462 20.3576V12.89L4.16738 6.64381C4.05964 6.52586 4.00003 6.37292 4 6.21437V3.64287ZM5.30769 4.28575V5.96751L11.0249 12.2137C11.1327 12.3316 11.1923 12.4846 11.1923 12.6431V19.4653L13.8077 18.609V12.6431C13.8077 12.4846 13.8673 12.3316 13.9751 12.2137L19.6923 5.96751V4.28575H5.30769Z" fill="#171717"/>
    <path d="M4.65385 3V1V3ZM20.3462 3V1V3ZM21 6.21437L23 6.21474V6.21437H21ZM20.8326 6.64381L22.3079 7.99418L22.3093 7.99265L20.8326 6.64381ZM15.1154 12.89L13.6401 11.5396L13.1154 12.1129V12.89H15.1154ZM15.1154 19.0719L17.1154 19.0734V19.0719H15.1154ZM14.6682 19.6813L14.0457 17.7806L14.0453 17.7808L14.6682 19.6813ZM10.7451 20.9671L11.3675 22.8677L11.368 22.8676L10.7451 20.9671ZM9.88462 20.3576H7.88461L7.88462 20.3592L9.88462 20.3576ZM9.88462 12.89H11.8846V12.1129L11.3599 11.5396L9.88462 12.89ZM4.16738 6.64381L2.69069 7.99265L2.69209 7.99418L4.16738 6.64381ZM4 6.21437H2V6.21474L4 6.21437ZM5.30769 4.28575V2.28575H3.30769V4.28575H5.30769ZM5.30769 5.96751H3.30769V6.74463L3.83239 7.31788L5.30769 5.96751ZM11.0249 12.2137L12.5016 10.8648L12.5002 10.8633L11.0249 12.2137ZM11.1923 12.6431H13.1923V12.6428L11.1923 12.6431ZM11.1923 19.4653H9.19231V22.2246L11.8146 21.366L11.1923 19.4653ZM13.8077 18.609L14.43 20.5097L15.8077 20.0586V18.609H13.8077ZM13.8077 12.6431L11.8077 12.6428V12.6431H13.8077ZM13.9751 12.2137L12.4998 10.8633L12.4984 10.8648L13.9751 12.2137ZM19.6923 5.96751L21.1676 7.31788L21.6923 6.74463V5.96751H19.6923ZM19.6923 4.28575H21.6923V2.28575H19.6923V4.28575ZM6 3.64287C6 4.01383 5.84981 4.36262 5.5937 4.61442L2.78931 1.76217C2.28797 2.25509 2 2.93091 2 3.64287H6ZM5.5937 4.61442C5.33875 4.8651 5.00005 5 4.65385 5V1C3.96082 1 3.2895 1.27037 2.78931 1.76217L5.5937 4.61442ZM4.65385 5H20.3462V1H4.65385V5ZM20.3462 5C20 5 19.6612 4.8651 19.4063 4.61442L22.2107 1.76217C21.7105 1.27036 21.0392 1 20.3462 1V5ZM19.4063 4.61442C19.1502 4.36262 19 4.01383 19 3.64287H23C23 2.93091 22.712 2.25509 22.2107 1.76217L19.4063 4.61442ZM19 3.64287V6.21437H23V3.64287H19ZM19 6.21401C19.0001 5.86929 19.13 5.54235 19.3559 5.29497L22.3093 7.99265C22.7508 7.50937 22.9999 6.87654 23 6.21474L19 6.21401ZM19.3573 5.29345L13.6401 11.5396L16.5907 14.2403L22.3079 7.99418L19.3573 5.29345ZM13.1154 12.89V19.0719H17.1154V12.89H13.1154ZM13.1154 19.0703C13.1156 18.7774 13.2097 18.4954 13.3793 18.2643L16.6042 20.6308C16.9344 20.1809 17.1149 19.636 17.1154 19.0734L13.1154 19.0703ZM13.3793 18.2643C13.5486 18.0336 13.7831 17.8666 14.0457 17.7806L15.2906 21.582C15.8135 21.4107 16.2744 21.0802 16.6042 20.6308L13.3793 18.2643ZM14.0453 17.7808L10.1222 19.0665L11.368 22.8676L15.291 21.5818L14.0453 17.7808ZM10.1226 19.0664C10.321 19.0014 10.5311 18.984 10.7365 19.0148L10.1432 22.9705C10.5533 23.032 10.9727 22.997 11.3675 22.8677L10.1226 19.0664ZM10.7365 19.0148C10.942 19.0456 11.1394 19.1242 11.3123 19.2467L9.00031 22.5108C9.34118 22.7523 9.73301 22.909 10.1432 22.9705L10.7365 19.0148ZM11.3123 19.2467C11.4852 19.3692 11.6294 19.5327 11.7301 19.7258L8.18311 21.5749C8.37828 21.9493 8.6593 22.2693 9.00031 22.5108L11.3123 19.2467ZM11.7301 19.7258C11.8309 19.9192 11.8844 20.1353 11.8846 20.3561L7.88462 20.3592C7.88494 20.7836 7.98787 21.2004 8.18311 21.5749L11.7301 19.7258ZM11.8846 20.3576V12.89H7.88462V20.3576H11.8846ZM11.3599 11.5396L5.64268 5.29345L2.69209 7.99418L8.40932 14.2403L11.3599 11.5396ZM5.64408 5.29497C5.87004 5.54235 5.99994 5.86929 6 6.21401L2 6.21474C2.00012 6.87654 2.24924 7.50936 2.69069 7.99265L5.64408 5.29497ZM6 6.21437V3.64287H2V6.21437H6ZM3.30769 4.28575V5.96751H7.30769V4.28575H3.30769ZM3.83239 7.31788L9.54962 13.564L12.5002 10.8633L6.78299 4.61714L3.83239 7.31788ZM9.54823 13.5625C9.32227 13.3151 9.19237 12.9882 9.19231 12.6435L13.1923 12.6428C13.1922 11.981 12.9431 11.3481 12.5016 10.8648L9.54823 13.5625ZM9.19231 12.6431V19.4653H13.1923V12.6431H9.19231ZM11.8146 21.366L14.43 20.5097L13.1854 16.7083L10.57 17.5646L11.8146 21.366ZM15.8077 18.609V12.6431H11.8077V18.609H15.8077ZM15.8077 12.6435C15.8076 12.9882 15.6777 13.3151 15.4518 13.5625L12.4984 10.8648C12.0569 11.3481 11.8078 11.981 11.8077 12.6428L15.8077 12.6435ZM15.4504 13.564L21.1676 7.31788L18.217 4.61714L12.4998 10.8633L15.4504 13.564ZM21.6923 5.96751V4.28575H17.6923V5.96751H21.6923ZM19.6923 2.28575H5.30769V6.28575H19.6923V2.28575Z" fill="#171717" mask="url(#path-1-inside-1_4127_34092)"/>
</svg>