<svg xmlns="http://www.w3.org/2000/svg" width="24" height="24" viewBox="0 0 24 24" fill="none">
    <path fill-rule="evenodd" clip-rule="evenodd" d="M7.36937 2L11.9975 3.12134L13.3357 4.41825L14.4874 6.0925L15.157 7.39039V10.422L15.6856 11.2758V6.18336L19.2524 9.64011L21 14.7213L20.4021 18.1978L18.6198 21.6525L16.5342 23H7.43701L5.40908 21.6898L3 18.1876V13.4691L5.32313 10.092L7.96596 7.01841L8.81422 5.78527V4.80055L7.36937 2ZM10.9285 4.98307V6.40567L9.66248 8.24608L7.01965 11.3196L5.11426 14.0895V17.5672L6.9337 20.2122L8.07716 20.951H8.28565L7.91132 20.4673L6.62766 17.9791L7.87302 13.7549L11.4514 10.2869L12.8743 15.1136L16.2141 16.732V19.698L15.4384 20.951H15.8941L16.9798 20.2494L18.3689 17.557L18.8282 14.8864L17.7998 11.8966V12.0405L15.6385 15.1824L13.0427 10.9896V7.8741L12.6552 7.12296L11.6927 5.72366L10.9285 4.98307ZM12.9728 20.951L14.0999 19.1304V17.9983L11.0969 16.5432L10.4056 14.1982L9.75542 14.8283L8.88651 17.7757L9.71711 19.3856L10.9285 20.951H12.9728Z" fill="url(#paint0_linear_6333_42218)"/>
    <defs>
        <linearGradient id="paint0_linear_6333_42218" x1="9.26483" y1="23.6248" x2="16.4838" y2="1.96566" gradientUnits="userSpaceOnUse">
            <stop stop-color="#FFCF3C"/>
            <stop offset="1" stop-color="#FFD500"/>
        </linearGradient>
    </defs>
</svg>