<svg width="626" height="78" viewBox="0 0 626 78" fill="none" xmlns="http://www.w3.org/2000/svg">
    <path d="M625.892 77.6127L576.032 57.2318V57.1897H575.928L526.064 36.8088V36.7666H525.96L476.096 16.3858V16.3436H415.092V16.4739L414.938 16.3743L414.792 16.5965V16.3398H374.483V16.6808L374.306 16.4854V16.3398H353.896V16.4624L353.884 16.4432V16.3398H333.474V16.4892L333.374 16.5199V16.3398H292.699V16.562L292.599 16.5313V16.3359H272.189V16.5122L272.177 16.5045V16.3359H251.767V16.4586L251.702 16.3972L251.59 16.5199V16.3359H211.282V16.7191H230.933L212.665 31.6551H212.48V31.8084L206.419 36.7628H180.514L211.205 16.6923L210.993 16.3704L210.981 16.3781V16.3398H149.978V16.5313L149.904 16.3551L0 77.6281L0.0732105 77.8043V77.9959H39.2139V77.8656L39.2678 77.9767L39.9652 77.651V77.9959H117.229V77.6127H79.0519L106.456 62.6805H140.19L117.306 77.6472L117.38 77.7622V77.9997H195.511V77.697L195.588 77.766V77.9959H312.717V77.6127H274.116L280.246 57.5729H312.775V77.8043H313.16V32.046H337.882L342.448 46.982H313.16V47.3652H342.564L347.13 62.3012H313.256V62.6844H347.245L351.811 77.6166H313.353V77.9997H430.482V77.6166H430.378L416.437 62.42V62.3012H416.325L411.994 57.5767H444.353L468.867 77.6166H430.559V77.9997H508.69V77.6166H508.574L485.216 62.3395V62.2974H485.155L477.934 57.5729H510.108L519.078 62.4621V62.6805H519.479L546.883 77.6127H508.848V77.9959H586.112V77.72L586.663 77.9767L586.828 77.6319L543.889 57.5729H575.851L624.879 77.6127H586.859V77.9959H626V77.6127H625.896H625.892ZM499.492 36.8356L456.441 16.7268H475.915L524.943 36.7666H499.492V36.8356ZM510.204 57.1897L492.171 47.3613H520.962V47.2885L553.09 62.2974H519.575L510.489 57.3468V57.1935H510.204V57.1897ZM491.466 46.9782L472.994 36.9122V36.7666H472.728L464.062 32.0421H488.326L520.296 46.9782H491.466ZM487.505 31.659H463.361L435.957 16.7229H455.535L487.505 31.659ZM435.156 16.7229L471.927 36.7628H446.341V36.9084L415.474 16.7229H435.156ZM419.828 37.0234V36.7628H419.512L413.736 32.0383H438.2L461.037 46.9743H432.008L419.831 37.0234H419.828ZM437.61 31.659H413.266L394.998 16.7229H414.776L437.614 31.659H437.61ZM394.381 16.7229H394.389L418.903 36.7628H393.175V37.054L388.351 31.7931V31.6551H388.224L374.522 16.7191H394.381V16.7229ZM372.618 47.0778L366.43 36.9582V36.7628H366.311L363.421 32.0383H388.05L401.752 46.9743H372.618V47.0778ZM339.774 36.9276L333.593 16.7229H353.599L365.856 36.7628H339.774V36.9276ZM373.998 16.7229L387.7 31.659H363.255V31.7701L354.054 16.7229H374.002H373.998ZM279.945 57.1859V57.2088L278.389 62.2935H244.446L253.582 47.3575H282.955L279.949 57.1859H279.942H279.945ZM181.57 57.569L194.058 47.3575H223.296L209.525 62.3663V62.2897H175.79L181.566 57.5652L181.57 57.569ZM206.627 37.146V37.0808L212.796 32.0383H237.348L223.546 47.0855V46.9743H194.528L206.55 37.146H206.627ZM233.183 37.146H259.377L253.366 46.9743L247.124 57.1859H214.803L233.191 37.146H233.183ZM283.07 46.9743H253.813L262.949 32.0383H287.64L283.074 46.9743H283.07ZM287.756 31.6551H263.184L272.32 16.7191H292.326L287.76 31.6551H287.756ZM292.726 16.7191H312.763V36.759H286.596L292.726 16.7191ZM251.921 16.7191H271.869L259.612 36.759H233.538L251.925 16.7191H251.921ZM231.53 16.7191H251.397L237.56 31.8007V31.6513H213.262L231.53 16.7153V16.7191ZM205.941 37.1421L193.919 46.9705H193.769V47.0931L181.427 57.182H149.276L179.975 37.1077V37.1421H205.941ZM134.322 46.9705V47.0433L115.715 57.182H83.7605L126.816 37.0693V37.1421H152.482L134.449 46.9705H134.318H134.322ZM71.9274 62.2897H38.5241L75.06 47.3537H103.901L71.9313 62.2897H71.9274ZM170.384 16.7191H189.962L162.558 31.6551H162.443V31.7203L153.191 36.7628H127.483L170.384 16.7229V16.7191ZM104.718 46.9705H75.9925L112.528 32.0345H136.684L104.714 46.9705H104.718ZM153.291 37.1421H153.476V37.0425L162.662 32.0383H187.026L164.099 47.0318V46.9743H135.258L153.291 37.146V37.1421ZM187.538 31.7011V31.6513H163.363L190.767 16.7153H210.449L187.538 31.6973V31.7011ZM150.008 16.7191H169.482L137.493 31.6628V31.6551H113.472L150.008 16.7191ZM39.1407 77.6127H1.04807L37.584 62.6805H71.1105L39.1407 77.6127ZM78.0848 77.6127H40.0462L83.3906 57.3659V57.5729H115.014L106.348 62.2974H106.201V62.3778L78.2428 77.6166H78.0809L78.0848 77.6127ZM107.153 62.2974L115.819 57.5729H116.289V57.3161L134.557 47.3613H163.606L140.664 62.3663V62.2974H107.153ZM118.05 77.6127L148.694 57.5729H180.965L175.189 62.2974H175.073V62.3932L156.451 77.6166H118.054L118.05 77.6127ZM157.056 77.6127L175.324 62.6805H209.243L195.507 77.6549V77.6166H157.056V77.6127ZM196.065 77.6127L214.453 57.5729H246.889L243.999 62.2974H243.953V62.3702L234.628 77.6127H196.062H196.065ZM273.684 77.6127H235.083L244.219 62.6805H278.277L273.711 77.6127H273.688H273.684ZM280.358 57.1897L286.488 37.1498H312.771V57.1897H280.358ZM313.156 31.6628V16.7268H333.193L337.759 31.6628H313.152H313.156ZM339.843 37.1536H366.095L378.352 57.1935H346.082V57.5499L342.933 47.2617V46.982H342.849L339.843 37.1536ZM352.385 77.6166H352.22L347.654 62.6844H347.719V62.3012H347.538L346.093 57.5767H378.591L390.848 77.6166H352.389H352.385ZM391.526 77.6166H391.295L382.159 62.6844H416.159L429.861 77.6166H391.526ZM381.982 62.3012V62.3932L378.976 57.4809V57.1935H378.803L372.792 47.3652H402.107L415.809 62.3012H381.982ZM411.867 57.1935V57.4387L402.392 47.1123V46.982H402.272L393.256 37.1536H419.369L443.883 57.1935H411.863H411.867ZM469.699 77.6166H469.476L451.208 62.6844H485.039L507.873 77.6166H469.699ZM450.757 62.3012V62.3165L444.762 57.4158V57.1935H444.492L432.47 47.3652H461.615L484.453 62.3012H450.757ZM477.591 57.1935V57.3544L461.739 46.9897L461.731 46.9858L446.704 37.1575H472.632L491.185 47.2694V47.369H491.37L509.403 57.1973H477.591V57.1935ZM547.981 77.6166H547.676L520.272 62.6844H553.529V62.5081L585.873 77.6166H547.977H547.981ZM543.172 57.1935V57.2433L500.163 37.1536H525.879L574.907 57.1935H543.172Z" fill="url(#paint0_linear_6348_51832)"/>
    <path d="M452.258 23.9609L449.85 39.6403C449.85 40.6634 446.113 41.4949 441.5 41.4949C436.888 41.4949 433.15 40.6634 433.15 39.6403L430.742 23.9609H452.262H452.258Z" fill="#BEC1C3" stroke="white" stroke-width="0.53" stroke-linecap="round" stroke-linejoin="round"/>
    <path d="M430.781 22.9954C430.781 21.9762 435.598 21.1523 441.543 21.1523C447.489 21.1523 452.305 21.98 452.305 22.9954V24.007C452.305 25.0262 447.489 25.85 441.543 25.85C435.598 25.85 430.781 25.0224 430.781 24.007V22.9954Z" fill="#77797D" stroke="white" stroke-width="0.53" stroke-linecap="round" stroke-linejoin="round"/>
    <path d="M452.305 22.9961C452.305 24.0153 447.489 24.8391 441.543 24.8391C435.598 24.8391 430.781 24.0115 430.781 22.9961" stroke="white" stroke-width="0.6" stroke-linecap="round" stroke-linejoin="round"/>
    <path d="M430.61 23.9609L428.202 39.6403C428.202 40.6634 424.464 41.4949 419.852 41.4949C415.24 41.4949 411.502 40.6634 411.502 39.6403L409.094 23.9609H430.614H430.61Z" fill="#BEC1C3" stroke="white" stroke-width="0.53" stroke-linecap="round" stroke-linejoin="round"/>
    <path d="M409.133 22.9954C409.133 21.9762 413.949 21.1523 419.895 21.1523C425.84 21.1523 430.657 21.98 430.657 22.9954V24.007C430.657 25.0262 425.84 25.85 419.895 25.85C413.949 25.85 409.133 25.0224 409.133 24.007V22.9954Z" fill="#77797D" stroke="white" stroke-width="0.53" stroke-linecap="round" stroke-linejoin="round"/>
    <path d="M430.649 22.9961C430.649 24.0153 425.832 24.8391 419.887 24.8391C413.941 24.8391 409.125 24.0115 409.125 22.9961" stroke="white" stroke-width="0.6" stroke-linecap="round" stroke-linejoin="round"/>
    <path d="M441.524 6.41797L439.116 22.0973C439.116 23.1204 435.378 23.9519 430.766 23.9519C426.154 23.9519 422.416 23.1204 422.416 22.0973L420.008 6.41797H441.528H441.524Z" fill="#BEC1C3" stroke="white" stroke-width="0.53" stroke-linecap="round" stroke-linejoin="round"/>
    <path d="M420.047 5.44852C420.047 4.42929 424.863 3.60547 430.809 3.60547C436.754 3.60547 441.571 4.43312 441.571 5.44852V6.4601C441.571 7.47933 436.754 8.30315 430.809 8.30315C424.863 8.30315 420.047 7.4755 420.047 6.4601V5.44852Z" fill="#77797D" stroke="white" stroke-width="0.53" stroke-linecap="round" stroke-linejoin="round"/>
    <path d="M441.571 5.44922C441.571 6.46846 436.754 7.29228 430.809 7.29228C424.863 7.29228 420.047 6.46462 420.047 5.44922" stroke="white" stroke-width="0.6" stroke-linecap="round" stroke-linejoin="round"/>
    <path d="M405.847 25.4883L403.646 39.7959C403.646 40.7308 400.233 41.4895 396.025 41.4895C391.817 41.4895 388.403 40.7308 388.403 39.7959L386.203 25.4883H405.843H405.847Z" fill="#BEC1C3" stroke="white" stroke-width="0.48" stroke-linecap="round" stroke-linejoin="round"/>
    <path d="M386.25 24.6118C386.25 23.6807 390.647 22.9297 396.072 22.9297C401.497 22.9297 405.894 23.6845 405.894 24.6118V25.5352C405.894 26.4664 401.497 27.2174 396.072 27.2174C390.647 27.2174 386.25 26.4625 386.25 25.5352V24.6118Z" fill="#77797D" stroke="white" stroke-width="0.48" stroke-linecap="round" stroke-linejoin="round"/>
    <path d="M405.886 24.6094C405.886 25.5405 401.489 26.2915 396.064 26.2915C390.639 26.2915 386.242 25.5367 386.242 24.6094" stroke="white" stroke-width="0.55" stroke-linecap="round" stroke-linejoin="round"/>
    <path d="M386.085 25.4883L383.885 39.7959C383.885 40.7308 380.471 41.4895 376.263 41.4895C372.055 41.4895 368.642 40.7308 368.642 39.7959L366.441 25.4883H386.081H386.085Z" fill="#BEC1C3" stroke="white" stroke-width="0.48" stroke-linecap="round" stroke-linejoin="round"/>
    <path d="M366.484 24.6118C366.484 23.6807 370.881 22.9297 376.306 22.9297C381.731 22.9297 386.128 23.6845 386.128 24.6118V25.5352C386.128 26.4664 381.731 27.2174 376.306 27.2174C370.881 27.2174 366.484 26.4625 366.484 25.5352V24.6118Z" fill="#77797D" stroke="white" stroke-width="0.48" stroke-linecap="round" stroke-linejoin="round"/>
    <path d="M386.128 24.6094C386.128 25.5405 381.731 26.2915 376.306 26.2915C370.881 26.2915 366.484 25.5367 366.484 24.6094" stroke="white" stroke-width="0.55" stroke-linecap="round" stroke-linejoin="round"/>
    <path d="M396.046 9.48438L393.846 23.792C393.846 24.7269 390.432 25.4856 386.224 25.4856C382.016 25.4856 378.603 24.7269 378.603 23.792L376.402 9.48438H396.042H396.046Z" fill="#BEC1C3" stroke="white" stroke-width="0.48" stroke-linecap="round" stroke-linejoin="round"/>
    <path d="M376.445 8.59619C376.445 7.66508 380.842 6.91406 386.267 6.91406C391.692 6.91406 396.089 7.66892 396.089 8.59619V9.51962C396.089 10.4507 391.692 11.2018 386.267 11.2018C380.842 11.2018 376.445 10.4469 376.445 9.51962V8.59619Z" fill="#77797D" stroke="white" stroke-width="0.48" stroke-linecap="round" stroke-linejoin="round"/>
    <path d="M396.089 8.59766C396.089 9.52876 391.692 10.2798 386.267 10.2798C380.842 10.2798 376.445 9.52493 376.445 8.59766" stroke="white" stroke-width="0.55" stroke-linecap="round" stroke-linejoin="round"/>
    <path d="M415.69 9.48438L413.49 23.792C413.49 24.7269 410.076 25.4856 405.869 25.4856C401.661 25.4856 398.247 24.7269 398.247 23.792L396.047 9.48438H415.687H415.69Z" fill="#BEC1C3" stroke="white" stroke-width="0.48" stroke-linecap="round" stroke-linejoin="round"/>
    <path d="M396.086 8.59619C396.086 7.66508 400.482 6.91406 405.908 6.91406C411.333 6.91406 415.73 7.66892 415.73 8.59619V9.51962C415.73 10.4507 411.333 11.2018 405.908 11.2018C400.482 11.2018 396.086 10.4469 396.086 9.51962V8.59619Z" fill="#77797D" stroke="white" stroke-width="0.48" stroke-linecap="round" stroke-linejoin="round"/>
    <path d="M415.73 8.59766C415.73 9.52876 411.333 10.2798 405.908 10.2798C400.482 10.2798 396.086 9.52493 396.086 8.59766" stroke="white" stroke-width="0.55" stroke-linecap="round" stroke-linejoin="round"/>
    <path d="M187.405 48.9961H154.945V54.4448H187.405V48.9961Z" fill="#77797D" stroke="white" stroke-linecap="round" stroke-linejoin="round"/>
    <path d="M219.865 48.9961H187.406V54.4448H219.865V48.9961Z" fill="#77797D" stroke="white" stroke-linecap="round" stroke-linejoin="round"/>
    <path d="M252.326 48.9961H219.867V54.4448H252.326V48.9961Z" fill="#77797D" stroke="white" stroke-linecap="round" stroke-linejoin="round"/>
    <path d="M187.405 43.5469H154.945V48.9956H187.405V43.5469Z" fill="#77797D" stroke="white" stroke-linecap="round" stroke-linejoin="round"/>
    <path d="M219.865 43.5469H187.406V48.9956H219.865V43.5469Z" fill="#77797D" stroke="white" stroke-linecap="round" stroke-linejoin="round"/>
    <path d="M252.326 43.5469H219.867V48.9956H252.326V43.5469Z" fill="#77797D" stroke="white" stroke-linecap="round" stroke-linejoin="round"/>
    <path d="M187.405 38.1016H154.945V43.5503H187.405V38.1016Z" fill="#77797D" stroke="white" stroke-linecap="round" stroke-linejoin="round"/>
    <path d="M219.865 38.1016H187.406V43.5503H219.865V38.1016Z" fill="#77797D" stroke="white" stroke-linecap="round" stroke-linejoin="round"/>
    <path d="M252.326 38.1016H219.867V43.5503H252.326V38.1016Z" fill="#77797D" stroke="white" stroke-linecap="round" stroke-linejoin="round"/>
    <path d="M268.17 25.4648H243.391V29.6261H268.17V25.4648Z" fill="#77797D" stroke="white" stroke-width="0.76" stroke-linecap="round" stroke-linejoin="round"/>
    <path d="M268.17 21.3086H243.391V25.4698H268.17V21.3086Z" fill="#77797D" stroke="white" stroke-width="0.76" stroke-linecap="round" stroke-linejoin="round"/>
    <path d="M268.17 17.1484H243.391V21.3097H268.17V17.1484Z" fill="#77797D" stroke="white" stroke-width="0.76" stroke-linecap="round" stroke-linejoin="round"/>
    <path d="M187.405 38.1003H154.945L193.832 17.1484H218.611L187.405 38.1003Z" fill="#BEC1C3" stroke="white" stroke-linecap="round" stroke-linejoin="round"/>
    <path d="M219.869 38.1003H187.406L218.613 17.1484H243.393L219.869 38.1003Z" fill="#BEC1C3" stroke="white" stroke-linecap="round" stroke-linejoin="round"/>
    <path d="M252.326 38.1003H219.867L243.391 17.1484H268.171L252.326 38.1003Z" fill="#BEC1C3" stroke="white" stroke-linecap="round" stroke-linejoin="round"/>
    <path d="M252.328 54.4441L268.172 29.6261V25.4648L252.328 48.9954V54.4441Z" fill="#77797D" stroke="white" stroke-linecap="round" stroke-linejoin="round"/>
    <path d="M252.328 48.9966L268.172 25.466V21.3086L252.328 43.5479V48.9966Z" fill="#77797D" stroke="white" stroke-linecap="round" stroke-linejoin="round"/>
    <path d="M252.328 43.549L268.172 21.3097V17.1484L252.328 38.1003V43.549Z" fill="#77797D" stroke="white" stroke-linecap="round" stroke-linejoin="round"/>
    <path d="M203.631 32.6523H171.172V38.101H203.631V32.6523Z" fill="#77797D" stroke="white" stroke-linecap="round" stroke-linejoin="round"/>
    <path d="M236.092 32.6523H203.633V38.101H236.092V32.6523Z" fill="#77797D" stroke="white" stroke-linecap="round" stroke-linejoin="round"/>
    <path d="M203.635 32.6488H171.172L206.22 12.9883H231L203.635 32.6488Z" fill="#BEC1C3" stroke="white" stroke-linecap="round" stroke-linejoin="round"/>
    <path d="M255.78 17.1457L236.094 38.0975V32.6488L255.78 12.9883V17.1457Z" fill="#77797D" stroke="white" stroke-linecap="round" stroke-linejoin="round"/>
    <path d="M255.786 12.9883H231.006L203.641 32.6488H236.1L255.786 12.9883Z" fill="#BEC1C3" stroke="white" stroke-linecap="round" stroke-linejoin="round"/>
    <path d="M444.287 30.6836L440.773 53.5436C440.773 55.038 435.32 56.2488 428.596 56.2488C421.873 56.2488 416.42 55.038 416.42 53.5436L412.906 30.6836H444.287Z" fill="#BEC1C3" stroke="white" stroke-width="0.77" stroke-linecap="round" stroke-linejoin="round"/>
    <path d="M412.973 29.268C412.973 27.7813 419.997 26.5781 428.663 26.5781C437.329 26.5781 444.353 27.7813 444.353 29.268V30.7432C444.353 32.2299 437.329 33.4331 428.663 33.4331C419.997 33.4331 412.973 32.2299 412.973 30.7432V29.268Z" fill="#77797D" stroke="white" stroke-width="0.77" stroke-linecap="round" stroke-linejoin="round"/>
    <path d="M444.353 29.2734C444.353 30.7601 437.329 31.9633 428.663 31.9633C419.997 31.9633 412.973 30.7601 412.973 29.2734" stroke="white" stroke-width="0.87" stroke-linecap="round" stroke-linejoin="round"/>
    <path d="M412.716 30.6836L409.202 53.5436C409.202 55.038 403.75 56.2488 397.026 56.2488C390.302 56.2488 384.85 55.038 384.85 53.5436L381.336 30.6836H412.716Z" fill="#BEC1C3" stroke="white" stroke-width="0.77" stroke-linecap="round" stroke-linejoin="round"/>
    <path d="M381.406 29.268C381.406 27.7813 388.431 26.5781 397.096 26.5781C405.762 26.5781 412.787 27.7813 412.787 29.268V30.7432C412.787 32.2299 405.762 33.4331 397.096 33.4331C388.431 33.4331 381.406 32.2299 381.406 30.7432V29.268Z" fill="#77797D" stroke="white" stroke-width="0.77" stroke-linecap="round" stroke-linejoin="round"/>
    <path d="M412.787 29.2734C412.787 30.7601 405.762 31.9633 397.096 31.9633C388.431 31.9633 381.406 30.7601 381.406 29.2734" stroke="white" stroke-width="0.87" stroke-linecap="round" stroke-linejoin="round"/>
    <path d="M428.634 5.10156L425.12 27.9616C425.12 29.456 419.668 30.6668 412.944 30.6668C406.22 30.6668 400.768 29.456 400.768 27.9616L397.254 5.10156H428.634Z" fill="#BEC1C3" stroke="white" stroke-width="0.77" stroke-linecap="round" stroke-linejoin="round"/>
    <path d="M397.32 3.68987C397.32 2.20316 404.345 1 413.01 1C421.676 1 428.701 2.20316 428.701 3.68987V5.16507C428.701 6.65178 421.676 7.85494 413.01 7.85494C404.345 7.85494 397.32 6.65178 397.32 5.16507V3.68987Z" fill="#77797D" stroke="white" stroke-width="0.77" stroke-linecap="round" stroke-linejoin="round"/>
    <path d="M428.701 3.6875C428.701 5.17421 421.676 6.37737 413.01 6.37737C404.345 6.37737 397.32 5.17421 397.32 3.6875" stroke="white" stroke-width="0.87" stroke-linecap="round" stroke-linejoin="round"/>
    <defs>
        <linearGradient id="paint0_linear_6348_51832" x1="0" y1="47.1697" x2="625.996" y2="47.1697" gradientUnits="userSpaceOnUse">
            <stop stop-color="white"/>
            <stop offset="1" stop-color="#82735E"/>
        </linearGradient>
    </defs>
</svg>
