<svg xmlns="http://www.w3.org/2000/svg" width="24" height="24" viewBox="0 0 24 24" fill="none">
    <path fill-rule="evenodd" clip-rule="evenodd" d="M12.205 3.06049C12.4809 2.9424 12.8007 3.00024 13.0179 3.2075L21.2679 11.0825C21.4161 11.224 21.5 11.4201 21.5 11.625C21.5 11.83 21.4161 12.026 21.2679 12.1675L13.0179 20.0425C12.8007 20.2498 12.4809 20.3076 12.205 20.1895C11.929 20.0715 11.75 19.8002 11.75 19.5V15.7609C9.50683 15.828 7.97535 16.2031 6.77782 16.8222C5.45137 17.5079 4.45826 18.5312 3.34109 19.9617C3.14404 20.214 2.80858 20.3134 2.50588 20.2092C2.20319 20.105 2 19.8201 2 19.5C2 16.6468 2.46894 13.6529 4.04592 11.3548C5.55946 9.14922 8.02062 7.68838 11.75 7.51695V3.75002C11.75 3.44984 11.929 3.17858 12.205 3.06049ZM13.25 5.50276V8.25002C13.25 8.66423 12.9142 9.00002 12.5 9.00002C8.75742 9.00002 6.57115 10.326 5.28272 12.2035C4.30879 13.6228 3.80316 15.4214 3.6038 17.3619C4.33514 16.6182 5.1309 15.985 6.08894 15.4897C7.70372 14.6549 9.70317 14.25 12.5 14.25C12.9142 14.25 13.25 14.5858 13.25 15V17.7473L19.6638 11.625L13.25 5.50276Z" fill="#4E5359"/>
</svg>