<svg width="628" height="379" viewBox="0 0 628 379" fill="none" xmlns="http://www.w3.org/2000/svg">
    <g clip-path="url(#clip0_4314_38086)">
        <path d="M628 278.648H0V378.999H628V278.648Z" fill="url(#paint0_radial_4314_38086)"/>
        <path d="M330.986 175.555H93.9453V191.534H330.986V175.555Z" fill="#AD9F8C"/>
        <path d="M175.737 189.216H95.1055V177.402H175.737V189.216ZM95.6752 188.593H175.167V178.035H95.6752V188.593Z" fill="#775E3F"/>
        <g opacity="0.4">
            <path d="M137.577 183.467C137.577 184.606 136.743 185.524 135.72 185.524C134.697 185.524 133.863 184.596 133.863 183.467C133.863 182.338 134.697 181.41 135.72 181.41C136.743 181.41 137.577 182.338 137.577 183.467Z" fill="#604930"/>
        </g>
        <path d="M136.987 183.162C136.987 184.301 136.153 185.219 135.13 185.219C134.107 185.219 133.273 184.291 133.273 183.162C133.273 182.034 134.107 181.105 135.13 181.105C136.153 181.105 136.987 182.023 136.987 183.162Z" fill="#775E3F"/>
        <path d="M247.728 189.216H177.098V177.402H247.728V189.216ZM177.667 188.593H247.158V178.035H177.667V188.593Z" fill="#775E3F"/>
        <g opacity="0.4">
            <path d="M214.304 183.467C214.304 184.606 213.576 185.524 212.679 185.524C211.783 185.524 211.055 184.596 211.055 183.467C211.055 182.338 211.783 181.41 212.679 181.41C213.576 181.41 214.304 182.338 214.304 183.467Z" fill="#604930"/>
        </g>
        <path d="M213.788 183.162C213.788 184.301 213.06 185.219 212.164 185.219C211.267 185.219 210.539 184.291 210.539 183.162C210.539 182.034 211.267 181.105 212.164 181.105C213.06 181.105 213.788 182.023 213.788 183.162Z" fill="#775E3F"/>
        <path d="M329.486 189.216H248.855V177.402H329.486V189.216ZM249.425 188.593H328.917V178.035H249.425V188.593Z" fill="#775E3F"/>
        <g opacity="0.4">
            <path d="M291.327 183.467C291.327 184.606 290.493 185.524 289.47 185.524C288.447 185.524 287.613 184.596 287.613 183.467C287.613 182.338 288.447 181.41 289.47 181.41C290.493 181.41 291.327 182.338 291.327 183.467Z" fill="#604930"/>
        </g>
        <path d="M290.737 183.162C290.737 184.301 289.903 185.219 288.88 185.219C287.857 185.219 287.023 184.291 287.023 183.162C287.023 182.034 287.857 181.105 288.88 181.105C289.903 181.105 290.737 182.023 290.737 183.162Z" fill="#775E3F"/>
        <path d="M128.776 191.418H122.816L121.012 208.157C122.932 207.334 124.81 206.491 126.698 205.636L128.766 191.418H128.776Z" fill="#938670"/>
        <path d="M121.024 208.158L113.449 278.648H116.097L126.71 205.637C124.822 206.491 122.933 207.335 121.024 208.158Z" fill="#AD9F8C"/>
        <path d="M294.598 191.418H300.558L302.362 208.157C300.453 207.334 298.564 206.491 296.676 205.636L294.608 191.418H294.598Z" fill="#938670"/>
        <path d="M302.35 208.158L309.925 278.648H307.277L296.664 205.637C298.552 206.491 300.441 207.335 302.35 208.158Z" fill="#AD9F8C"/>
        <path d="M67.3582 238.05C67.3582 238.05 75.7874 223.822 75.9984 196.64C76.2094 169.459 73.9095 180.439 73.9095 180.439C73.9095 180.439 67.6008 204.625 67.6958 213.748C67.7907 222.872 67.3477 238.04 67.3477 238.04L67.3582 238.05Z" fill="#98A551"/>
        <path d="M65.9443 248.344L65.5117 248.27L72.4323 202.841L74.6477 178.824L75.0908 178.866L72.8754 202.894L65.9443 248.344Z" fill="#506B34"/>
        <path d="M71.2617 242.733C71.2617 242.733 75.566 234.991 75.682 220.214C75.7875 205.426 74.6165 211.407 74.6165 211.407C74.6165 211.407 71.3883 224.56 71.4411 229.528C71.4938 234.485 71.2617 242.744 71.2617 242.744V242.733Z" fill="#808940"/>
        <path d="M70.6501 248.346L70.207 248.283L73.7412 223.57L74.87 210.512L75.3131 210.554L74.1842 223.623L70.6501 248.346Z" fill="#506B34"/>
        <path d="M51.7959 246.111C51.7959 246.111 46.5843 238.949 44.6748 224.287C42.7759 209.626 44.6643 215.417 44.6643 215.417C44.6643 215.417 49.4644 228.085 50.013 233.021C50.5616 237.957 51.7959 246.111 51.7959 246.111Z" fill="#808940"/>
        <path d="M53.0837 251.606L46.5745 227.505L43.8633 214.657L44.2958 214.562L47.0071 227.399L53.5162 251.49L53.0837 251.606Z" fill="#506B34"/>
        <path d="M60.0281 237.101C60.0281 237.101 54.2786 220.668 54.1309 189.278C53.9832 157.888 55.5551 170.567 55.5551 170.567C55.5551 170.567 59.8593 198.507 59.7961 209.034C59.7328 219.571 60.0281 237.091 60.0281 237.091V237.101Z" fill="#868E47"/>
        <path d="M60.9145 248.968L56.1988 196.504L54.6797 168.743L55.1333 168.711L56.6419 196.462L61.3576 248.937L60.9145 248.968Z" fill="#384C22"/>
        <path d="M52.2408 237.311C52.2408 237.311 45.7633 221.152 44.2231 189.804C42.6828 158.446 44.8139 171.05 44.8139 171.05C44.8139 171.05 50.363 198.769 50.7639 209.296C51.1648 219.823 52.2514 237.311 52.2514 237.311H52.2408Z" fill="#868E47"/>
        <path d="M53.6561 249.123L46.5984 196.912L43.8555 169.256L44.2986 169.203L47.0415 196.859L54.0992 249.07L53.6561 249.123Z" fill="#384C22"/>
        <path d="M55.7557 243.946C55.7557 243.946 49.8479 230.846 50.5969 206.607C51.3459 182.368 52.7174 192.273 52.7174 192.273C52.7174 192.273 56.684 214.149 56.3043 222.27C55.9245 230.392 55.7557 243.935 55.7557 243.935V243.946Z" fill="#B1B783"/>
        <path d="M56.4211 253.187L52.7077 212.346L51.832 190.807L52.2751 190.797L53.1507 212.314L56.8748 253.144L56.4211 253.187Z" fill="#819669"/>
        <path d="M62.1351 242.175C62.1351 242.175 67.104 226.564 66.471 197.695C65.8486 168.826 64.6882 180.618 64.6882 180.618C64.6882 180.618 61.3439 206.682 61.671 216.354C61.9874 226.037 62.1351 242.175 62.1351 242.175Z" fill="#B1B783"/>
        <path d="M61.6072 253.185L61.1641 253.153L64.2868 204.497L65.0252 178.855L65.4683 178.877L64.7404 204.518L61.6072 253.185Z" fill="#819669"/>
        <path d="M50.7119 248.312H48.5703L55.8707 278.627H68.4881L68.5936 278.12C68.0661 277.93 67.5386 277.741 67.0111 277.509C57.5375 274.397 54.7524 259.588 50.7224 248.312H50.7119Z" fill="#90ACAD"/>
        <path d="M50.7109 248.312C54.7409 259.588 57.526 274.397 66.9996 277.509C67.5271 277.73 68.0546 277.93 68.5821 278.12L74.627 248.312H50.7109Z" fill="#A7C4C6"/>
        <path d="M77.5286 248.312H45.6687C45.0103 248.312 44.4766 248.846 44.4766 249.504V251.857C44.4766 252.515 45.0103 253.048 45.6687 253.048H77.5286C78.187 253.048 78.7207 252.515 78.7207 251.857V249.504C78.7207 248.846 78.187 248.312 77.5286 248.312Z" fill="#A7C4C6"/>
        <path d="M73.636 253.188L51.2812 253.051L52.9164 255.92C52.9164 255.92 58.5816 254.211 65.0697 253.863C68.5088 253.684 73.636 253.188 73.636 253.188Z" fill="#90ACAD"/>
        <path d="M240.172 97.608C240.172 96.3317 239.149 95.3086 237.893 95.3086H139.665C138.41 95.3086 137.387 96.3423 137.387 97.608V156.591H240.172V97.608Z" fill="#0A0A0A"/>
        <path d="M137.398 155.98V163.353C137.398 164.63 138.422 165.653 139.677 165.653H237.905C239.16 165.653 240.184 164.619 240.184 163.353V155.98H137.398Z" fill="#C9C9C9"/>
        <path d="M199.966 165.652C199.818 165.652 188.213 165.652 188.213 165.652C188.213 165.652 176.609 165.652 176.461 165.652C176.461 165.652 176.588 167.055 176.524 168.426H199.902C199.839 167.055 199.966 165.652 199.966 165.652Z" fill="#7F7F7F"/>
        <path d="M200.233 170.419C200.022 169.924 199.938 169.185 199.895 168.426H176.517C176.486 169.185 176.391 169.924 176.19 170.419C176.159 170.493 176.116 170.578 176.074 170.672H200.349C200.307 170.588 200.265 170.493 200.233 170.419Z" fill="#AFAFAF"/>
        <path d="M200.347 170.66H176.073C175.324 172.221 172.887 175.829 172.887 175.829H203.533C203.533 175.829 201.096 172.221 200.347 170.66Z" fill="#C9C9C9"/>
        <path d="M237.292 98.4414H139.93V153.511H237.292V98.4414Z" fill="#0C0B0A"/>
        <g opacity="0.4">
            <path d="M165.915 95.3711H158.414V155.978H165.915V95.3711Z" fill="#44413F"/>
        </g>
        <g opacity="0.5">
            <path d="M174.279 95.3711H170.523V155.978H174.279V95.3711Z" fill="#44413F"/>
        </g>
        <path d="M176.453 165.652L176.527 167.034H199.894L199.968 165.652H176.453Z" fill="#7F7F7F"/>
        <path d="M220.698 173.785C220.698 172.013 218.504 170.578 215.792 170.578C213.081 170.578 210.887 172.013 210.887 173.785C210.887 174.386 211.15 174.955 211.594 175.441H219.981C220.424 174.955 220.687 174.396 220.687 173.785H220.698Z" fill="#C9C9C9"/>
        <path d="M219.726 175.238H211.855V175.597H219.726V175.238Z" fill="#7F7F7F"/>
        <path d="M129.543 113.406L127.738 115.227L128.173 115.657L129.978 113.837L129.543 113.406Z" fill="#3A3A3A"/>
        <path d="M101.961 139.735L103.512 141.297L106.951 137.879C106.698 137.13 106.402 136.392 106.065 135.664L101.961 139.746V139.735Z" fill="#3A3A3A"/>
        <path d="M127.321 114.527L108.469 133.271C108.817 133.956 109.06 134.747 109.271 135.57L128.861 116.088L127.31 114.527H127.321Z" fill="#686868"/>
        <path d="M106.066 135.664C106.404 136.392 106.699 137.13 106.953 137.879L109.274 135.569C109.063 134.746 108.82 133.955 108.472 133.27L106.066 135.664Z" fill="#3A3A3A"/>
        <path d="M105.527 133.953H102.594L113.597 169.889C114.842 170.301 116.002 170.427 117.152 170.554L105.516 133.953H105.527Z" fill="#686868"/>
        <path d="M113.598 169.891L115.412 175.808H118.83L117.163 170.555L113.598 169.891Z" fill="#3A3A3A"/>
        <path d="M105.19 137.152C105.644 137.152 106.013 137.522 106.013 137.975C106.013 138.429 105.644 138.798 105.19 138.798C104.736 138.798 104.367 138.429 104.367 137.975C104.367 137.522 104.736 137.152 105.19 137.152Z" fill="#3A3A3A"/>
        <path d="M123.589 175.808H109.305C109.305 175.808 107.691 174.268 109.874 173.234H122.397C124.306 174.352 123.589 175.808 123.589 175.808Z" fill="#686868"/>
        <path d="M130.551 114.525V118.481L135.404 115.644L132.197 113.629L130.551 114.525Z" fill="#3A3A3A"/>
        <path d="M130.908 111.277C131.847 111.277 132.617 112.047 132.617 112.986C132.617 113.925 131.847 114.695 130.908 114.695C129.969 114.695 129.199 113.925 129.199 112.986C129.199 112.047 129.969 111.277 130.908 111.277Z" fill="#686868"/>
        <path d="M150.54 124.98L131.298 135.57L129.578 118.619L135.845 115.086L150.54 124.98Z" fill="#AD6D2D"/>
        <path d="M134.582 115.801L135.152 115.484L147.664 126.57L144.372 128.374L134.582 115.801Z" fill="#C19063"/>
        <path d="M222.199 223.731L191.191 245.086L191.814 245.989L222.821 224.635L222.199 223.731Z" fill="#A0887D"/>
        <path d="M197.796 222.906C198.07 221.83 197.501 220.754 196.509 220.501L196.034 220.385C195.053 220.132 194.03 220.807 193.756 221.883L191.551 230.775C193.08 230.11 194.61 229.446 196.224 228.908L197.786 222.906H197.796Z" fill="#A0887D"/>
        <path d="M191.56 230.773L178.341 284.134C178.067 285.21 178.278 286.286 179.259 286.539L179.734 286.655C180.715 286.908 181.369 286.233 181.643 285.147L196.244 228.906C194.63 229.434 193.1 230.098 191.57 230.773H191.56Z" fill="#C9AE9F"/>
        <path d="M197.353 225.277L196.73 226.18L227.723 247.556L228.346 246.653L197.353 225.277Z" fill="#A0887D"/>
        <path d="M224.984 221.883C224.709 220.807 223.697 220.132 222.705 220.385L222.23 220.501C221.249 220.754 220.669 221.83 220.943 222.906L222.357 228.359C223.865 228.507 225.363 228.876 226.83 229.372L224.973 221.883H224.984Z" fill="#A0887D"/>
        <path d="M240.407 284.136L226.84 229.372C225.384 228.876 223.886 228.507 222.367 228.359L237.105 285.148C237.379 286.224 238.033 286.899 239.015 286.646L239.489 286.53C240.47 286.277 240.681 285.201 240.407 284.125V284.136Z" fill="#C9AE9F"/>
        <path d="M237.641 188.804C234.033 175.756 230.636 168.721 227.724 165.092C216.151 160.251 202.025 160.705 190.325 165.873C187.551 169.702 184.375 176.642 181.01 188.804C177.476 201.556 176.157 207.473 175.672 210.026C196.423 220.341 223.81 222.757 242.842 209.372C242.261 206.524 240.89 200.586 237.63 188.793L237.641 188.804Z" fill="#DCA284"/>
        <path d="M227.727 165.094C226.302 163.311 224.984 162.351 223.823 161.908C220.658 160.706 211.29 160.674 209.328 160.685C207.376 160.685 198.008 160.706 194.833 161.908C193.504 162.415 191.984 163.585 190.328 165.874C202.017 160.706 216.143 160.242 227.727 165.094Z" fill="#C4876C"/>
        <path d="M175.683 210.026C175.43 211.366 175.398 211.788 175.398 211.788C175.398 211.788 182.351 223.369 209.411 223.158C236.344 223.327 243.264 211.788 243.264 211.788C243.264 211.788 243.222 211.229 242.853 209.383C223.821 222.768 196.434 220.342 175.683 210.026Z" fill="#C4876C"/>
        <path d="M308.293 136.066V175.43H319.549V136.066H308.293ZM313.916 167.551C312.935 167.551 312.144 166.76 312.144 165.779C312.144 164.798 312.935 164.007 313.916 164.007C314.897 164.007 315.688 164.798 315.688 165.779C315.688 166.76 314.897 167.551 313.916 167.551Z" fill="#F7E5DC"/>
        <path d="M296.91 136.066V175.43H308.156V136.066H296.91ZM302.533 167.551C301.552 167.551 300.761 166.76 300.761 165.779C300.761 164.798 301.552 164.007 302.533 164.007C303.514 164.007 304.305 164.798 304.305 165.779C304.305 166.76 303.514 167.551 302.533 167.551Z" fill="#F7EECB"/>
        <path d="M285.156 136.066V175.43H296.413V136.066H285.156ZM290.779 167.551C289.798 167.551 289.007 166.76 289.007 165.779C289.007 164.798 289.798 164.007 290.779 164.007C291.76 164.007 292.552 164.798 292.552 165.779C292.552 166.76 291.76 167.551 290.779 167.551Z" fill="#CCDBDB"/>
        <path d="M296.897 136.066H296.402V175.43H296.897V136.066Z" fill="#B6B7B6"/>
        <path d="M308.651 136.066H308.156V175.43H308.651V136.066Z" fill="#B6B7B6"/>
        <path d="M292.764 165.725C292.764 166.822 291.877 167.708 290.78 167.708C289.683 167.708 288.797 166.822 288.797 165.725C288.797 164.628 289.683 163.742 290.78 163.742C291.877 163.742 292.764 164.628 292.764 165.725Z" fill="#B6B7B6"/>
        <path d="M304.514 165.725C304.514 166.822 303.627 167.708 302.53 167.708C301.433 167.708 300.547 166.822 300.547 165.725C300.547 164.628 301.433 163.742 302.53 163.742C303.627 163.742 304.514 164.628 304.514 165.725Z" fill="#B6B7B6"/>
        <path d="M315.896 165.725C315.896 166.822 315.01 167.708 313.913 167.708C312.816 167.708 311.93 166.822 311.93 165.725C311.93 164.628 312.816 163.742 313.913 163.742C315.01 163.742 315.896 164.628 315.896 165.725Z" fill="#B6B7B6"/>
        <path d="M262.336 160.65C262.336 160.871 262.051 161.04 261.703 161.04C261.355 161.04 261.07 160.861 261.07 160.65V148.879C261.07 148.657 261.355 148.488 261.703 148.488C262.051 148.488 262.336 148.668 262.336 148.879V160.65Z" fill="#D69391"/>
        <path d="M267.468 148.1L263.652 164.312L264.987 164.627L268.802 148.414L267.468 148.1Z" fill="#466F9C"/>
        <path d="M256.215 150.755L259.654 165.575C259.738 165.954 260.129 166.197 260.509 166.113C260.899 166.028 261.131 165.638 261.047 165.258L257.607 150.449L256.215 150.766V150.755Z" fill="#D6C791"/>
        <path d="M257.398 149.563C257.314 149.183 256.923 148.94 256.544 149.025C256.153 149.12 255.921 149.499 256.006 149.879L256.206 150.754L257.599 150.438L257.398 149.552V149.563Z" fill="#D69391"/>
        <path d="M266.144 159.227H255.668L257.187 175.132H263.96L266.144 159.227Z" fill="#C5E2E1"/>
        <path d="M268.054 159.227H266.145L263.961 175.132H266.524L268.054 159.227Z" fill="#AECECC"/>
        <path d="M267.736 150.008C267.494 148.753 266.112 147.687 265.152 149.09C263.738 151.168 267.567 155.567 264.339 156.558C263.991 156.664 264.139 157.223 264.487 157.107C265.669 156.748 266.133 155.978 266.185 154.649C266.228 153.679 266.038 152.845 265.69 151.928C265.394 151.158 265.109 150.44 265.479 149.607C265.922 148.595 267.029 149.354 267.188 150.145C267.262 150.504 267.81 150.356 267.736 149.997V150.008Z" fill="#466F9C"/>
        <path fill-rule="evenodd" clip-rule="evenodd" d="M496.792 175.925C503.427 158.543 497.846 149.271 500.621 144.113C494.08 146.381 408.807 127.564 397.867 123.039C382.655 125.929 388.204 131.171 383.404 145.79C378.815 183.794 348.316 205.849 343.062 209.393L342.281 209.899L506.888 252.702C506.888 252.702 489.913 206.429 496.781 175.915L496.792 175.925Z" fill="#C62030"/>
        <path fill-rule="evenodd" clip-rule="evenodd" d="M388.879 160.41C388.879 160.41 374.806 163.849 369.911 161.423C365.016 158.997 360.279 149.177 365.174 142.564C370.069 135.961 377.538 131.879 382.054 127.248C386.569 122.618 391.728 121.943 394.755 125.055C397.783 128.166 393.975 159.377 388.879 160.4V160.41Z" fill="#F5333F"/>
        <path fill-rule="evenodd" clip-rule="evenodd" d="M412.943 119.621C411.361 119.769 387.825 119.621 384.386 146.243C383.521 152.91 382.634 157.54 382.36 158.89C382.086 160.24 374.216 191.694 341.301 209.909C356.893 226.838 360.797 224.086 380.735 225.562C400.674 227.039 412.933 225.836 431.321 216.006C458.877 220.309 480.166 232.439 483.943 214.255C487.719 196.071 482.445 171.421 487.772 161.854C493.1 152.287 485.958 138.818 485.557 138.818C485.156 138.818 412.933 119.621 412.933 119.621H412.943Z" fill="#F5333F"/>
        <path fill-rule="evenodd" clip-rule="evenodd" d="M392.213 109.296C386.97 110.288 383.552 107.187 378.941 105.879C381.737 112.186 396.612 119.327 390.789 123.757C398.311 132.301 407.457 139.526 415.559 144.315C428.335 151.856 431.468 166.391 430.941 171.865C430.677 174.639 429.2 177.445 426.89 177.445C425.244 177.445 423.261 176.032 421.298 173.458L418.408 174.671C419.526 182.276 424.558 187.001 431.542 187.001C436.648 187.001 441.986 184.438 445.837 180.135C446.512 179.386 447.303 178.458 448.221 177.392C457.125 167.045 471.135 138.809 499.102 131.974C497.952 125.445 503.311 126.183 504.493 123.989C497.952 126.257 403.142 113.811 392.202 109.275L392.213 109.296Z" fill="#C62030"/>
        <path fill-rule="evenodd" clip-rule="evenodd" d="M379.196 163.447C369.363 190.639 347.452 206.45 343.074 209.403L342.293 209.91C373.404 196.736 381.58 171.885 384.513 161.991C384.798 161.032 382.614 162.508 379.196 163.447Z" fill="#C62030"/>
        <path fill-rule="evenodd" clip-rule="evenodd" d="M399.072 65.1969C398.059 66.6209 391.191 66.8107 387.551 59.132C383.912 51.4533 391.908 46.8017 396.497 48.7214C401.087 50.6411 401.087 62.3596 399.072 65.1864V65.1969Z" fill="#FAD7CC"/>
        <path fill-rule="evenodd" clip-rule="evenodd" d="M392.171 64.5844C395.283 66.5252 398.416 66.1138 399.07 65.1962C401.096 62.3694 401.096 50.6509 396.496 48.7312C395.272 48.2144 393.806 48.1827 392.371 48.5308C393.975 49.2375 396.38 51.3259 396.085 54.4902C395.789 57.6546 395.125 63.5085 392.16 64.5844H392.171Z" fill="#F7D0C6"/>
        <path fill-rule="evenodd" clip-rule="evenodd" d="M486.665 65.1969C487.678 66.6209 494.546 66.8107 498.185 59.132C501.825 51.4533 493.828 46.8017 489.239 48.7214C484.65 50.6411 484.65 62.3596 486.665 65.1864V65.1969Z" fill="#FAD7CC"/>
        <path fill-rule="evenodd" clip-rule="evenodd" d="M494.957 49.1106C493.09 48.2035 490.927 48.0136 489.239 48.7308C484.65 50.6505 484.65 62.369 486.665 65.1958C487.287 66.0713 490.104 66.4721 493.037 64.8899C486.992 61.3775 493.564 49.6801 494.957 49.1106Z" fill="#F7D0C6"/>
        <path fill-rule="evenodd" clip-rule="evenodd" d="M405.244 93.8843C405.244 93.8843 394.737 82.767 397.363 60.543C399.99 38.319 396.92 38.7198 396.942 34.6801C396.963 30.6403 415.952 16.2954 448.297 21.5482C480.632 26.8009 495.591 37.5068 493.977 40.5446C492.363 43.5718 487.711 54.6891 488.924 67.4201C490.137 80.1512 491.35 109.252 478.216 113.292C465.082 117.332 430.321 136.529 405.255 93.8949L405.244 93.8843Z" fill="#FAD7CC"/>
        <path fill-rule="evenodd" clip-rule="evenodd" d="M483.783 109.159C490.914 99.6765 489.912 77.9483 488.91 67.4216C487.697 54.6906 492.349 43.5733 493.963 40.5461C494.881 38.8163 490.429 34.6078 480.46 30.3359C479.289 36.2637 479.405 47.1173 480.017 62.7807C480.829 83.5913 454.022 84.0132 454.149 84.6039C458.949 106.554 470.944 111.458 483.783 109.169V109.159Z" fill="#F7D0C6"/>
        <path fill-rule="evenodd" clip-rule="evenodd" d="M488.91 34.7031C487.897 43.194 484.87 55.018 486.188 68.3503C487.507 81.6826 483.256 92.6838 474.162 96.924C467.463 100.046 478.867 103.2 487.243 101.892C490.503 91.1544 489.712 75.7759 488.921 67.4221C487.707 54.691 492.36 43.5737 493.974 40.5465C494.575 39.4285 492.887 37.2557 488.921 34.7031H488.91Z" fill="#EFC4B1"/>
        <path fill-rule="evenodd" clip-rule="evenodd" d="M413.691 81.5757C400.367 77.5359 405.22 50.6287 405.241 43.604C405.262 36.5792 407.488 34.1849 415.168 31.7483C422.848 29.3013 421.413 24.1856 419.346 23.5211C418.523 23.2574 417.637 23.0781 416.719 22.9727C406.549 25.6518 400.768 30.2822 400.578 32.4234C400.24 36.4526 403.331 36.2944 398.932 58.2336C394.533 80.1834 404.122 92.1023 404.122 92.1023C406.211 96.4058 408.437 100.14 410.758 103.367C412.372 102.988 413.849 102.597 415.126 102.397C421.698 101.321 427.015 85.626 413.691 81.5862V81.5757Z" fill="#FBE3DE"/>
        <path d="M397.362 60.5457C397.362 60.5457 393.322 84.1831 374.723 99.3401C380.377 117.124 400.59 130.456 413.936 138.335C427.27 146.214 430.71 161.171 430.108 167.436C429.507 173.701 424.042 178.342 417.575 169.862C419.601 183.606 434.086 183.542 442.198 174.482C450.311 165.421 476.791 130.456 517.618 129.855C497.605 105.605 490.336 74.4898 488.923 67.4123C488.923 94.4882 477.202 96.102 477.202 96.102C477.202 96.102 484.281 67.2013 460.629 75.6922C436.987 84.1831 427.893 75.6922 421.415 74.0784C414.938 72.4646 406.055 75.8926 410.296 93.8764C399.388 86.1977 396.961 67.0009 397.362 60.5352V60.5457Z" fill="#AF6520"/>
        <path fill-rule="evenodd" clip-rule="evenodd" d="M423.905 87.7069C429.697 90.4704 446.756 96.9361 465.45 87.9916C465.84 87.8018 466.23 88.2553 465.988 88.614C459.679 97.917 458.054 109.446 444.403 109.446C430.752 109.446 431.037 95.5227 423.61 88.1393C423.388 87.9178 423.631 87.5697 423.916 87.7069H423.905Z" fill="#7C1E10"/>
        <path fill-rule="evenodd" clip-rule="evenodd" d="M444.39 108.643C436.141 108.643 433.261 102.947 430.212 96.9139C428.914 94.3508 427.585 91.7244 425.812 89.4461C430.117 91.2287 437.037 93.3698 445.372 93.3698C452.018 93.3698 458.474 91.9987 464.572 89.2773C463.327 91.2498 462.262 93.2855 461.217 95.2684C457.451 102.441 454.202 108.643 444.38 108.643H444.39Z" fill="white"/>
        <path d="M446.535 40.2088C437.104 38.8587 433.453 31.4542 422.935 31.0534C412.428 30.6525 401.562 37.9199 396.93 34.6923C392.299 31.4647 406.647 9.63098 446.155 11.0549C485.664 12.4683 495.57 36.939 493.956 40.5568C492.342 44.1747 489.103 31.4647 471.527 33.6903C452.928 36.0424 455.966 41.5694 446.535 40.2193V40.2088Z" fill="#AF6520"/>
        <path fill-rule="evenodd" clip-rule="evenodd" d="M443.623 70.2056C440.563 70.2056 437.641 69.9947 434.983 69.6255C434.276 69.5306 433.907 70.4482 434.497 70.8385C436.797 72.3468 440.036 73.2855 443.623 73.2855C447.21 73.2855 450.448 72.3468 452.748 70.8385C453.339 70.4482 452.97 69.52 452.263 69.6255C449.594 70.0052 446.672 70.2056 443.623 70.2056Z" fill="#635643"/>
        <path fill-rule="evenodd" clip-rule="evenodd" d="M487.95 129.866C488.383 129.434 493.468 132.83 496.063 133.231C502.699 145.962 512.436 155.455 512.436 155.455C512.436 155.455 493.805 161.108 489.965 165.855C482.686 159.695 477.031 140.646 487.94 129.866H487.95Z" fill="#C62030"/>
        <path fill-rule="evenodd" clip-rule="evenodd" d="M423.155 59.6079C426.193 59.6079 429.02 59.8822 431.383 60.3463C429.643 59.0911 426.615 58.2578 423.155 58.2578C419.694 58.2578 416.666 59.0911 414.926 60.3463C417.289 59.8822 420.116 59.6079 423.155 59.6079Z" fill="#131313"/>
        <path fill-rule="evenodd" clip-rule="evenodd" d="M426.731 57.6131C426.731 58.2776 426.52 58.9 426.172 59.4062C425.898 59.7965 424.822 59.1742 423.704 59.1742C422.501 59.1742 421.246 59.7543 420.961 59.3008C420.655 58.8156 420.465 58.2354 420.465 57.6131C420.465 55.8833 421.868 54.4805 423.598 54.4805C425.328 54.4805 426.731 55.8833 426.731 57.6131Z" fill="#131313"/>
        <path fill-rule="evenodd" clip-rule="evenodd" d="M465.725 59.6079C462.687 59.6079 459.859 59.8822 457.496 60.3463C459.237 59.0911 462.265 58.2578 465.725 58.2578C469.185 58.2578 472.213 59.0911 473.954 60.3463C471.59 59.8822 468.763 59.6079 465.725 59.6079Z" fill="#131313"/>
        <path fill-rule="evenodd" clip-rule="evenodd" d="M462.148 57.6131C462.148 58.2776 462.359 58.9 462.708 59.4062C462.982 59.7965 464.058 59.1742 465.176 59.1742C466.379 59.1742 467.634 59.7543 467.919 59.3008C468.225 58.8156 468.415 58.2354 468.415 57.6131C468.415 55.8833 467.012 54.4805 465.282 54.4805C463.552 54.4805 462.148 55.8833 462.148 57.6131Z" fill="#131313"/>
        <path fill-rule="evenodd" clip-rule="evenodd" d="M454.603 97.5244C452.451 98.0835 447.134 98.6003 446.216 98.7058C445.298 98.8113 444.528 98.5476 444.581 97.8409C444.634 97.1342 444.423 94.9297 444.423 94.9297V97.6405C444.423 99.1699 443.705 99.0222 441.458 99.1699C439.211 99.3175 437.418 98.9695 437.312 98.5581C437.207 98.1467 437.565 96.5119 437.26 94.8242C437.26 96.1005 437.101 97.1236 436.7 98.5054C434.717 98.7796 432.586 98.6741 430.824 98.4421C433.652 103.927 436.743 108.726 444.37 108.726C454.255 108.726 457.568 102.524 461.344 95.3094C458.591 96.4169 455.785 97.208 454.593 97.5244H454.603Z" fill="#6B1B0D"/>
        <path fill-rule="evenodd" clip-rule="evenodd" d="M506.9 252.714C504.885 260.994 482.108 268.715 435.964 257.461C389.82 246.207 340.279 218.192 342.294 209.912C360.777 206.642 389.989 205.935 426.448 214.553C472.677 225.48 504.242 244.603 506.9 252.714Z" fill="#131313"/>
        <path d="M488.91 67.4102C488.91 81.7445 485.629 88.938 482.538 92.5453C484.658 100.203 487.011 106.563 487.496 108.641C488.572 113.219 494.775 116.721 487.496 121.098C471.06 125.465 448.42 148.522 443.62 160.378C438.82 172.233 431.172 172.497 430.095 167.455C429.494 173.72 424.029 178.361 417.562 169.881C419.588 183.625 434.073 183.561 442.185 174.501C450.298 165.44 476.778 130.475 517.605 129.874C497.592 105.624 490.323 74.5088 488.91 67.4313V67.4102Z" fill="#9E5518"/>
        <path d="M467.589 82.4716C473.043 87.1232 471.028 97.0696 470.216 98.5674C469.404 100.055 471.123 104.2 475.87 103.092C480.618 101.985 487.507 98.4619 488.361 97.2912C488.825 96.6477 487.971 90.414 486.758 84.4019C483.371 95.2554 477.189 96.1204 477.189 96.1204C477.189 96.1204 484.268 67.2197 460.616 75.7106C436.974 84.2015 427.88 75.7106 421.403 74.0968C420.179 73.7909 418.86 73.6643 417.562 73.7909C420.39 74.5081 426.656 81.6806 439.39 82.4822C452.123 83.2943 462.124 77.8306 467.578 82.4822L467.589 82.4716Z" fill="#9E5518"/>
        <path d="M410.59 132.584C391.59 120.19 383.108 114.8 378.256 101.763C394.724 82.8725 396.412 69.6984 397.35 60.543C397.35 60.543 393.31 84.1804 374.711 99.3374C380.366 117.121 400.579 130.453 413.924 138.332C427.259 146.211 430.698 161.168 430.097 167.433C430.076 167.613 430.054 167.803 430.033 167.982C433.873 152.297 424.273 141.507 410.601 132.584H410.59Z" fill="#9E5518"/>
        <path d="M407.057 109.444C404.831 100.953 412.089 104.022 415.127 98.949C418.176 93.8755 414.125 83.1696 417.564 80.5432C421.004 77.9169 419.168 76.1027 414.927 77.516C414.167 77.7692 413.186 77.2945 412.089 76.3558C409.41 79.1931 408.091 84.5936 410.285 93.8861C403.533 89.1291 400.031 79.9631 398.438 72.1367C397.752 77.7059 396.571 83.6865 394.524 87.6735C389.671 97.1137 382.983 98.5271 386.633 104.792C390.283 111.058 399.176 121.162 412.511 127.829C419.991 132.881 409.272 117.924 407.057 109.444Z" fill="#B46A2C"/>
        <path d="M422.438 65.891C426.581 65.891 429.939 64.8757 429.939 63.6232C429.939 62.3708 426.581 61.3555 422.438 61.3555C418.296 61.3555 414.938 62.3708 414.938 63.6232C414.938 64.8757 418.296 65.891 422.438 65.891Z" fill="#FBE3DE"/>
        <path d="M400.887 35.474C404.611 35.1892 409.643 33.1219 415.034 31.9089C415.076 31.8456 415.129 31.7928 415.171 31.7296C420.055 21.3084 422.218 22.3421 440.859 13.4609C413.821 13.4609 401.604 27.405 400.887 35.474Z" fill="#BE743B"/>
        <path d="M478.406 29.7155C473.247 28.1861 466.685 29.7366 455.334 36.4977C445.28 42.4888 436.26 35.2952 431.386 33.1857C431.375 33.1857 431.365 33.1857 431.344 33.1751C436.376 35.5906 440.121 39.2928 446.535 40.2105C455.967 41.5606 452.928 36.023 471.527 33.6814C489.114 31.4559 492.342 44.1764 493.956 40.548C495.507 37.0672 486.402 14.337 450.618 11.3203C448.202 11.8477 457.802 16.5414 465.282 17.9126C473.563 19.4315 483.554 31.2344 478.395 29.7155H478.406Z" fill="#9E5518"/>
        <path fill-rule="evenodd" clip-rule="evenodd" d="M382.106 163.692C383.013 161.878 383.393 152.722 382.707 151.425C382.021 150.128 394.565 141.331 397.782 130.931C399.312 128.832 398.753 127.904 398.753 128.843C398.753 129.781 399.987 132.503 397.782 136.131C395.577 139.759 395.419 141.036 393.383 146.077C391.336 151.119 389.374 155.054 394.364 154.146C399.365 153.239 401.369 155.054 403.701 156.267C406.022 157.48 412.151 159.948 415.527 161.667C418.903 163.386 431.721 167.067 430.096 167.426C428.471 167.785 417.183 166.403 409.862 168.523C402.54 170.643 399.112 171.402 395.831 172.837C392.55 174.271 390.165 175.179 385.376 176.697C380.586 178.216 377.559 179.893 375.744 180.79C373.93 181.686 376.957 172.457 377.559 170.791C378.16 169.124 382.106 163.671 382.106 163.671V163.692Z" fill="#C62030"/>
        <path fill-rule="evenodd" clip-rule="evenodd" d="M493.944 149.579C493.923 148.904 493.88 148.187 493.828 147.459C493.764 146.732 493.691 145.983 493.596 145.213C493.226 142.154 492.614 138.863 491.95 135.804C491.697 134.654 491.443 133.547 491.19 132.482C490.937 131.427 490.684 130.425 490.452 129.507C490.22 128.59 489.998 127.746 489.798 127.018C489.661 126.533 489.545 126.09 489.439 125.699C489.112 124.539 488.912 123.854 488.912 123.854C488.912 123.854 490.114 124.075 485.715 121.417C485.852 126.712 487.403 139.707 483.806 146.447C485.536 135.066 471.969 116.027 471.969 116.027C471.969 116.027 470.618 114.498 467.19 116.27C471.631 125.415 474.131 135.055 474.975 141.816C474.522 144.358 472.064 139.201 471.578 138.874C471.093 138.557 466.863 132.06 464.479 130.921C462.094 129.781 454.477 130.13 449.35 132.798C447.757 133.621 448.485 135.108 449.087 136.722C455.733 135.33 460.997 135.477 462.548 137.123C465.386 140.129 467.506 144.601 468.266 147.839C469.753 154.104 467.538 156.552 466.821 158.123C466.789 158.028 466.747 157.923 466.726 157.828C466.705 158.028 466.673 158.218 466.652 158.418C458.296 164.431 448.96 166.456 449.118 166.888C449.53 167.975 449.445 168.956 450.648 169.42C450.732 169.451 450.817 169.483 450.922 169.504C450.933 169.504 450.954 169.504 450.964 169.515C451.049 169.536 451.144 169.557 451.249 169.578C451.27 169.578 451.281 169.578 451.302 169.588C451.418 169.61 451.534 169.631 451.671 169.641C451.946 169.673 452.251 169.694 452.6 169.694C452.631 169.694 452.673 169.694 452.716 169.694C452.853 169.694 452.99 169.694 453.138 169.694C453.19 169.694 453.243 169.694 453.296 169.694C453.444 169.694 453.602 169.683 453.76 169.673C453.813 169.673 453.866 169.673 453.918 169.673C454.119 169.662 454.33 169.641 454.551 169.631C454.572 169.631 454.583 169.631 454.594 169.631C454.836 169.61 455.089 169.588 455.353 169.557C455.406 169.557 455.469 169.546 455.522 169.536C455.733 169.515 455.944 169.483 456.165 169.462C456.26 169.451 456.366 169.441 456.461 169.42C456.661 169.399 456.862 169.367 457.073 169.335C457.178 169.325 457.284 169.304 457.4 169.293C457.621 169.261 457.853 169.23 458.096 169.188C458.202 169.167 458.307 169.156 458.412 169.135C458.761 169.082 459.119 169.019 459.489 168.956C459.784 168.903 460.058 168.861 460.311 168.808C460.818 168.713 461.229 168.618 461.577 168.544C461.746 168.502 461.904 168.46 462.052 168.428C462.337 168.354 462.569 168.281 462.77 168.217C463.36 168.027 463.666 167.911 464.299 167.869C464.721 167.838 465.291 167.848 466.198 167.89C466.726 167.922 476.315 166.424 476.315 166.424C476.611 166.762 481.115 165.675 482.856 165.201C484.597 164.737 487.044 163.608 488.606 163.081C490.262 162.722 491.349 161.952 492.087 160.749C492.92 159.621 493.427 158.091 493.596 155.929C493.564 155.929 493.532 155.908 493.501 155.908C493.648 154.864 493.764 153.714 493.88 152.427C493.954 151.562 493.975 150.603 493.944 149.579Z" fill="#FAD7CC"/>
        <path fill-rule="evenodd" clip-rule="evenodd" d="M505.898 155.707C510.361 155.707 517.555 173.047 520.077 178.458C518.695 185.757 511.289 190.061 507.786 186.021C504.284 181.981 500.381 177.404 498.893 174.703C497.416 172.014 494.452 164.061 497.279 160.833C500.106 157.595 502.67 155.707 505.898 155.707Z" fill="#EFC4B1"/>
        <path fill-rule="evenodd" clip-rule="evenodd" d="M470.051 163.439C469.629 164.156 464.776 168.027 471.169 167.204C477.562 166.382 481.022 164.525 486.92 171.634C492.817 178.744 500.634 186.559 507.639 190.726C514.644 194.892 524.413 185.832 520.067 178.448C515.72 171.054 492.194 166.867 493.059 159.273C493.925 151.678 473.416 157.69 470.051 163.428V163.439Z" fill="#FAD7CC"/>
        <path fill-rule="evenodd" clip-rule="evenodd" d="M372.929 143.451C369.785 141.732 366.63 142.217 364.974 142.861C360.427 149.464 365.09 159.03 369.911 161.425C372.538 162.722 377.803 162.342 382.117 161.699C383.89 160.718 385.071 159.547 385.293 158.218C386.39 151.415 376.811 145.561 372.929 143.441V143.451Z" fill="#131313"/>
        <path fill-rule="evenodd" clip-rule="evenodd" d="M378.93 172.855C376.504 172.939 360.785 173.762 359.751 169.712C358.717 165.662 362.378 150.821 369.34 147.836C378.318 148.49 382.369 152.73 383.983 160.409C385.197 167.486 378.93 172.855 378.93 172.855Z" fill="#FAD7CC"/>
        <path fill-rule="evenodd" clip-rule="evenodd" d="M383.983 160.409C382.369 152.73 378.328 148.49 369.34 147.836C372.737 149.682 377.516 150.093 373.676 155.399C369.825 160.694 380.85 162.835 383.656 162.286C383.814 162.255 383.972 162.223 384.13 162.202C384.13 161.622 384.099 161.021 383.993 160.409H383.983Z" fill="#EFC4B1"/>
        <path fill-rule="evenodd" clip-rule="evenodd" d="M382.056 127.258C377.54 131.889 370.071 135.971 365.176 142.573C364.512 143.47 364.037 144.419 363.699 145.4C366.052 143.238 369.85 142.067 372.93 143.459C375.272 137.975 387.257 123.429 392.131 125.275C392.584 124.843 392.637 124.4 393.017 123.988C389.947 122.206 385.948 123.282 382.056 127.269V127.258Z" fill="#EF4858"/>
        <path fill-rule="evenodd" clip-rule="evenodd" d="M414.926 155.705C418.333 158.194 423.64 167.814 417.563 166.326C411.486 164.839 393.109 169.459 385.576 173.752C378.055 178.045 355.879 177.127 360.331 164.734C364.773 152.34 380.776 154.84 386.716 155.716C392.666 156.591 399.365 157.023 401.57 151.549C403.775 146.075 414.915 155.716 414.915 155.716L414.926 155.705Z" fill="#FAD7CC"/>
        <path fill-rule="evenodd" clip-rule="evenodd" d="M366.345 150.011C366.25 150.074 367.411 147.732 369.816 147.585C372.221 147.437 375.428 148.872 376.979 149.768C378.53 150.665 376.367 151.002 374.943 150.253C373.519 149.504 372.432 149.336 371.863 149.262C371.293 149.188 369.405 147.933 366.345 150.011Z" fill="#EFC4B1"/>
        <path fill-rule="evenodd" clip-rule="evenodd" d="M360.121 169.913C362.769 177.276 379.29 177.339 385.588 173.753C393.11 169.46 411.487 164.84 417.575 166.327C419.959 166.907 420.592 165.789 420.275 164.059C415.992 162.868 409.261 163.522 404.271 163.922C397.667 164.46 387.16 168.774 379.48 171.643C372.074 174.417 363.55 171.675 360.132 169.913H360.121Z" fill="#EFC4B1"/>
        <path fill-rule="evenodd" clip-rule="evenodd" d="M401.573 149.579C401.594 148.904 401.636 148.187 401.689 147.459C401.752 146.732 401.826 145.983 401.921 145.213C402.29 142.154 402.902 138.863 403.567 135.804C403.82 134.654 404.073 133.547 404.326 132.482C404.58 131.427 404.833 130.425 405.065 129.507C405.297 128.59 405.518 127.746 405.719 127.018C405.856 126.533 405.972 126.09 406.078 125.699C406.405 124.539 406.605 123.854 406.605 123.854C406.605 123.854 405.402 124.075 409.802 121.417C409.664 126.712 407.438 136.479 411.046 143.219C415.825 127.915 423.548 116.027 423.548 116.027C423.548 116.027 424.898 114.498 428.327 116.27C423.885 125.415 421.385 135.055 420.541 141.816C420.995 144.358 423.453 139.201 423.938 138.874C424.423 138.557 428.654 132.06 431.038 130.921C433.422 129.781 441.039 130.13 446.166 132.798C447.759 133.621 447.031 135.108 446.43 136.722C439.784 135.33 434.519 135.477 432.969 137.123C430.131 140.129 428.01 144.601 427.251 147.839C425.763 154.104 427.979 156.552 428.696 158.123C428.728 158.028 428.77 157.923 428.791 157.828C428.812 158.028 428.844 158.218 428.865 158.418C437.22 164.431 446.557 166.456 446.398 166.888C445.987 167.975 446.071 168.956 444.869 169.42C444.784 169.451 444.7 169.483 444.594 169.504C444.584 169.504 444.563 169.504 444.552 169.515C444.468 169.536 444.373 169.557 444.267 169.578C444.246 169.578 444.236 169.578 444.215 169.588C444.099 169.61 443.982 169.631 443.845 169.641C443.571 169.673 443.265 169.694 442.917 169.694C442.885 169.694 442.843 169.694 442.801 169.694C442.664 169.694 442.527 169.694 442.379 169.694C442.326 169.694 442.273 169.694 442.221 169.694C442.073 169.694 441.915 169.683 441.756 169.673C441.704 169.673 441.651 169.673 441.598 169.673C441.398 169.662 441.187 169.641 440.965 169.631C440.944 169.631 440.934 169.631 440.923 169.631C440.68 169.61 440.427 169.588 440.163 169.557C440.111 169.557 440.047 169.546 439.995 169.536C439.784 169.515 439.573 169.483 439.351 169.462C439.256 169.451 439.151 169.441 439.056 169.42C438.855 169.399 438.655 169.367 438.444 169.335C438.338 169.325 438.233 169.304 438.117 169.293C437.895 169.261 437.663 169.23 437.421 169.188C437.315 169.167 437.21 169.156 437.104 169.135C436.756 169.082 436.397 169.019 436.028 168.956C435.733 168.903 435.458 168.861 435.205 168.808C434.699 168.713 434.287 168.618 433.939 168.544C433.77 168.502 433.612 168.46 433.464 168.428C433.18 168.354 432.948 168.281 432.747 168.217C432.156 168.027 431.85 167.911 431.217 167.869C430.795 167.838 430.226 167.848 429.318 167.89C428.791 167.922 419.201 166.424 419.201 166.424C418.906 166.762 414.401 165.675 412.661 165.201C410.92 164.737 408.472 163.608 406.911 163.081C405.255 162.722 404.168 161.952 403.43 160.749C402.596 159.621 402.09 158.091 401.921 155.929C401.953 155.929 401.984 155.908 402.016 155.908C401.868 154.864 401.752 153.714 401.636 152.427C401.562 151.562 401.541 150.603 401.573 149.579Z" fill="#FAD7CC"/>
        <path fill-rule="evenodd" clip-rule="evenodd" d="M437.786 163.479C438.198 164.007 439.717 164.977 440.445 165.209C450.921 168.595 439.854 169.228 432.047 167.087C428.492 166.116 424.884 166.338 420.348 166.591C422.911 166.981 428.903 167.909 429.315 167.888C430.212 167.846 430.792 167.835 431.214 167.867C431.847 167.909 432.153 168.036 432.744 168.215C432.944 168.279 433.176 168.352 433.461 168.426C433.609 168.468 433.756 168.5 433.936 168.542C434.284 168.627 434.695 168.711 435.202 168.806C435.455 168.859 435.729 168.901 436.024 168.954C436.404 169.017 436.752 169.08 437.1 169.133C437.206 169.154 437.311 169.165 437.417 169.186C437.66 169.217 437.892 169.259 438.113 169.291C438.219 169.312 438.335 169.323 438.44 169.333C438.651 169.365 438.852 169.386 439.052 169.418C439.147 169.428 439.253 169.439 439.348 169.46C439.569 169.491 439.78 169.513 439.991 169.534C440.044 169.534 440.107 169.544 440.16 169.555C440.424 169.586 440.687 169.608 440.919 169.629C440.941 169.629 440.951 169.629 440.962 169.629C441.183 169.65 441.394 169.66 441.595 169.671C441.647 169.671 441.7 169.671 441.753 169.671C441.911 169.671 442.069 169.692 442.217 169.692C442.27 169.692 442.323 169.692 442.375 169.692C442.523 169.692 442.66 169.692 442.797 169.692C442.84 169.692 442.871 169.692 442.913 169.692C443.261 169.692 443.567 169.671 443.842 169.639C443.968 169.629 444.095 169.608 444.211 169.586C444.232 169.586 444.243 169.586 444.264 169.576C444.359 169.555 444.454 169.534 444.549 169.513C444.559 169.513 444.58 169.513 444.591 169.502C444.686 169.47 444.781 169.449 444.865 169.418C446.068 168.954 445.983 167.973 446.395 166.886C446.5 166.612 442.713 165.673 437.776 163.469L437.786 163.479Z" fill="#EFC4B1"/>
        <path fill-rule="evenodd" clip-rule="evenodd" d="M425.813 146.94C425.876 147.151 426.583 147.53 427.195 148.047C427.205 147.973 427.216 147.91 427.237 147.847C428.007 144.609 430.117 140.136 432.955 137.13C434.432 135.569 439.285 135.358 445.498 136.55C442.144 134.778 437.808 133.607 433.356 134.957C428.914 136.308 425.676 146.539 425.813 146.95V146.94Z" fill="#EFC4B1"/>
        <path fill-rule="evenodd" clip-rule="evenodd" d="M406.625 145.39C405.528 145.643 418.251 137.743 426.733 145.39C426.627 147.078 426.733 147.679 426.733 147.679C426.733 147.679 422.291 141.688 406.625 145.39Z" fill="#EFC4B1"/>
        <path d="M420.731 142.341C420.647 142.225 420.583 142.067 420.541 141.825C421.364 135.201 423.79 125.813 428.063 116.848C424.613 120.845 422.672 128.397 420.984 133.144C419.011 138.671 417.809 142.637 417.598 142.721C417.84 142.721 420.362 143.343 420.362 143.343C420.362 143.343 420.499 142.964 420.741 142.352L420.731 142.341Z" fill="#EFC4B1"/>
        <path d="M409.22 144.852L411.372 143.745C411.372 143.745 411.53 142.679 411.783 140.971C411.53 141.72 411.288 142.468 411.045 143.228C407.448 136.488 409.674 126.721 409.8 121.426C406.308 136.488 409.22 144.852 409.22 144.852Z" fill="#EFC4B1"/>
        <path d="M471.948 116.016C471.948 116.279 472.001 116.554 472.138 116.849C473.52 119.802 479.386 133.44 480.388 137.986C481.401 142.533 483.299 147.511 483.795 146.456C485.525 135.075 471.959 116.037 471.959 116.037C471.959 116.037 471.959 116.037 471.938 116.016H471.948Z" fill="#EFC4B1"/>
        <path d="M493.826 147.458C493.763 146.73 493.689 145.982 493.594 145.212C493.225 142.153 492.613 138.862 491.948 135.803C491.695 134.653 491.442 133.546 491.188 132.48C490.935 131.426 490.682 130.424 490.45 129.506C490.218 128.588 489.996 127.745 489.796 127.017C489.659 126.532 489.543 126.089 489.437 125.698C489.11 124.538 488.91 123.852 488.91 123.852C488.91 123.852 489.775 124 487.306 122.418C488.435 126.521 489.965 134.864 490.387 138.893C490.893 143.64 494.86 158.09 489.743 160.717C484.627 163.343 478.36 162.13 476.946 164.662C476.63 165.221 476.134 165.864 475.617 166.528C476.05 166.465 476.313 166.423 476.313 166.423C476.609 166.761 481.114 165.674 482.854 165.199C484.595 164.735 487.042 163.607 488.604 163.079C490.26 162.721 491.347 161.951 492.085 160.748C492.919 159.62 493.425 158.09 493.594 155.928C493.562 155.928 493.531 155.907 493.499 155.907C493.647 154.863 493.763 153.713 493.879 152.426C493.952 151.561 493.974 150.601 493.942 149.578C493.921 148.903 493.879 148.186 493.826 147.458Z" fill="#EFC4B1"/>
        <path d="M471.167 141.203C472.908 143.734 474.205 143.375 474.11 142.342C473.203 141.646 471.916 139.104 471.578 138.882C471.093 138.566 466.863 132.068 464.478 130.929C463.392 130.402 461.187 130.201 458.645 130.381C462.506 131.414 469.437 138.671 471.167 141.203Z" fill="#EFC4B1"/>
        <path d="M480.45 162.964C477.074 162.679 472.537 165.148 470.491 165.854C468.444 166.561 465.543 166.582 462.104 167.384C458.665 168.175 458.369 166.877 455.236 167.985C452.103 169.092 450.383 167.985 449.117 166.899C449.529 167.985 449.444 168.966 450.647 169.43C450.731 169.462 450.816 169.493 450.921 169.514C450.932 169.514 450.953 169.514 450.963 169.525C451.048 169.546 451.143 169.567 451.248 169.588C451.269 169.588 451.28 169.588 451.301 169.599C451.417 169.62 451.533 169.641 451.67 169.652C451.945 169.683 452.25 169.704 452.599 169.704C452.63 169.704 452.672 169.704 452.715 169.704C452.852 169.704 452.989 169.704 453.137 169.704C453.189 169.704 453.242 169.704 453.295 169.704C453.443 169.704 453.601 169.694 453.759 169.683C453.812 169.683 453.865 169.683 453.917 169.683C454.118 169.673 454.329 169.652 454.55 169.641C454.571 169.641 454.582 169.641 454.592 169.641C454.835 169.62 455.088 169.599 455.352 169.567C455.405 169.567 455.468 169.557 455.521 169.546C455.732 169.525 455.943 169.493 456.164 169.472C456.259 169.462 456.365 169.451 456.46 169.43C456.66 169.409 456.861 169.377 457.072 169.346C457.177 169.335 457.283 169.314 457.399 169.303C457.62 169.272 457.852 169.24 458.095 169.198C458.2 169.177 458.306 169.166 458.411 169.145C458.76 169.093 459.118 169.029 459.487 168.966C459.783 168.913 460.057 168.871 460.31 168.818C460.817 168.723 461.228 168.628 461.576 168.555C461.745 168.512 461.903 168.47 462.051 168.439C462.336 168.365 462.568 168.291 462.768 168.228C463.359 168.038 463.665 167.922 464.298 167.88C464.72 167.848 465.29 167.858 466.197 167.901C466.725 167.932 476.314 166.434 476.314 166.434C476.61 166.772 481.114 165.686 482.855 165.211C484.258 164.831 486.115 164.03 487.613 163.46C487.613 163.439 487.634 163.407 487.645 163.386C488.235 162.099 483.826 163.26 480.439 162.975L480.45 162.964Z" fill="#EFC4B1"/>
        <path d="M485.44 149.101C487.054 149.502 485.44 148.395 477.949 146.981C473.825 146.201 470.491 146.38 468.012 146.907C468.107 147.224 468.202 147.551 468.275 147.857C468.423 148.5 468.529 149.08 468.613 149.65C476.705 146.654 484.079 148.774 485.45 149.112L485.44 149.101Z" fill="#EFC4B1"/>
        <path d="M414.496 335.162C398.883 335.394 366.263 330.743 360.566 336.006C354.869 341.27 337.336 347.166 360.566 348.822C383.797 350.488 405.381 352.155 414.496 352.999C423.611 353.832 409.791 356.775 425.921 360.54C442.052 364.316 441.64 367.249 453.794 365.571C465.947 363.894 468.373 365.698 483.723 366.057C499.073 366.415 527.156 371.025 541.831 368.926C556.505 366.827 589.198 361.574 574.946 357.502C560.693 353.42 553.583 349.307 538.687 344.444C523.801 339.582 517.144 336.797 507.47 334.203C497.807 331.618 490.665 334.361 481.244 334.878C471.823 335.394 461.759 335.859 453.372 333.116C444.985 330.363 434.519 327.652 428.854 328.169" fill="#EBEBEB"/>
        <path fill-rule="evenodd" clip-rule="evenodd" d="M442.981 331.219C442.981 336.662 435.248 338.645 413.527 338.645C391.805 338.645 364.312 336.662 364.312 331.219C364.312 325.776 391.805 318.941 413.527 318.941C435.248 318.941 442.981 325.776 442.981 331.219Z" fill="#A3131C"/>
        <path fill-rule="evenodd" clip-rule="evenodd" d="M427.567 324.691C427.567 324.691 426.554 323.436 427.039 322.486C427.525 321.537 426.712 321.199 426.723 315.546C430.12 313.879 432.979 314.681 432.979 314.681C432.979 314.681 436.713 323.256 440.87 326.336C442.864 330.123 440.247 331.41 440.247 331.41C440.247 331.41 426.554 326.442 427.567 324.68V324.691Z" fill="#A3131C"/>
        <path d="M442.979 331.229C442.979 336.672 435.246 338.655 413.524 338.655C391.803 338.655 364.352 336.672 364.31 331.24C364.31 332.674 364.289 336.461 364.289 337.537C364.268 342.979 391.76 345.057 413.482 345.121C435.204 345.194 442.937 343.233 442.958 337.79C442.958 336.64 442.979 332.379 442.979 331.219V331.229Z" fill="#C5C5C5"/>
        <path d="M364.449 331.862C364.365 331.661 364.312 331.461 364.312 331.25C364.312 331.408 364.312 331.609 364.312 331.82C364.365 331.83 364.407 331.851 364.46 331.862H364.449Z" fill="#ACABAC"/>
        <path d="M442.981 331.229C442.981 333.792 441.261 335.586 437.189 336.767C435.237 340.659 426.914 342.115 408.178 342.051C392.385 341.999 373.543 340.891 364.449 338.191C366.549 343.138 392.659 345.057 413.495 345.121C435.216 345.194 442.949 343.233 442.97 337.79C442.97 336.64 442.991 332.379 442.991 331.219L442.981 331.229Z" fill="#ACABAC"/>
        <path fill-rule="evenodd" clip-rule="evenodd" d="M361.957 211.47C362.337 222.661 371.737 280.23 425.551 321.957C427.112 323.17 429.665 321.514 428.726 319.774C422.217 307.675 416.615 280.8 419.906 270.864C420.297 269.683 421.616 269.113 422.744 269.662C430.667 273.543 441.396 275.02 454.952 275.136C455.955 275.136 456.799 275.853 457.01 276.823C461.219 296.178 480.156 316.694 492.53 325.923C494.134 327.115 496.307 325.512 495.632 323.634C488.026 302.37 483.489 269.229 489.861 241.995C490.062 241.141 489.703 240.255 488.943 239.801C447.03 214.835 377.803 209.951 364.035 209.392C362.864 209.35 361.904 210.299 361.947 211.47H361.957Z" fill="#1A171B"/>
        <path fill-rule="evenodd" clip-rule="evenodd" d="M489.861 241.995C490.062 241.141 489.703 240.255 488.943 239.801C447.03 214.835 377.803 209.951 364.035 209.392C362.864 209.35 361.904 210.299 361.947 211.47C362.052 214.666 362.896 221.638 365.301 230.941C365.28 220.446 381.411 216.955 397.13 219.222C412.849 221.49 459.805 231.964 470.914 246.847C471.779 265.411 478.985 295.968 485.23 310.038C485.863 311.462 484.207 312.812 482.941 311.905C477.339 307.876 472.465 304.764 469.121 301.748C476.463 311.905 485.525 320.712 492.509 325.923C494.113 327.115 496.286 325.512 495.611 323.634C488.005 302.37 483.468 269.229 489.84 241.995H489.861Z" fill="#020202"/>
        <path fill-rule="evenodd" clip-rule="evenodd" d="M422.746 269.664C423.453 270.012 424.191 270.329 424.94 270.634C424.297 270.297 423.58 269.97 422.746 269.664Z" fill="#2D569E"/>
        <path fill-rule="evenodd" clip-rule="evenodd" d="M422.745 269.662C415.171 266.825 403.577 259.421 400.496 256.91C405.665 265.433 407.628 265.148 410.001 267.806C412.132 270.19 412.808 295.715 420.931 310.904C421.543 312.043 420.245 313.245 419.169 312.549C415.002 309.849 410.824 306.948 403.65 301.706C409.98 308.689 417.238 315.524 425.562 321.968C427.123 323.181 429.676 321.525 428.738 319.785C422.228 307.687 416.627 280.811 419.918 270.875C420.308 269.694 421.627 269.124 422.756 269.673L422.745 269.662Z" fill="#020202"/>
        <path fill-rule="evenodd" clip-rule="evenodd" d="M450.532 268.997C449.994 271.592 431.458 272.657 427.133 271.413C434.486 273.955 443.749 274.988 454.952 275.083C455.954 275.083 456.798 275.8 457.009 276.771C456.007 272.995 452.357 260.19 450.532 268.997Z" fill="#020202"/>
        <path fill-rule="evenodd" clip-rule="evenodd" d="M373.881 244.546C377.057 252.129 384.568 270.947 399.032 285.618C413.495 300.29 403.642 278.014 400.498 269.66C397.354 261.306 390.434 261.728 386.667 252.921C382.891 244.124 369.239 233.439 373.881 244.535V244.546Z" fill="#272528"/>
        <path fill-rule="evenodd" clip-rule="evenodd" d="M460.881 259.358C458.444 261.183 459.868 280.084 465.766 289.64C471.663 299.207 470.851 286.392 467.802 274.494C464.753 262.607 467.39 254.474 460.892 259.347L460.881 259.358Z" fill="#272528"/>
        <path d="M383.142 322.473C372.34 324.93 364.301 328.274 364.301 331.217C364.301 334.824 376.401 337.746 390.875 338.748C389.588 332.693 386.856 326.523 383.132 322.483L383.142 322.473Z" fill="#D6D5D5"/>
        <path d="M383.753 323.172C383.753 323.172 383.69 323.193 383.658 323.204C378.067 324.954 366.473 327.465 369.405 329.912C372.022 332.095 375.872 328.382 387.435 328.847C386.369 326.748 385.135 324.817 383.753 323.172Z" fill="#E2E3E4"/>
        <path d="M387.613 322.739L392.023 330.375C392.548 331.283 393.709 331.595 394.617 331.07L394.974 330.865C395.882 330.34 396.193 329.179 395.669 328.271L391.259 320.635C390.734 319.726 389.573 319.415 388.665 319.94L388.309 320.145C387.4 320.67 387.089 321.831 387.613 322.739Z" fill="#E2E3E4"/>
        <path d="M394.633 321.918L399.043 329.555C399.567 330.463 400.728 330.774 401.637 330.25L401.993 330.044C402.901 329.52 403.212 328.359 402.688 327.451L398.278 319.814C397.754 318.906 396.593 318.595 395.684 319.119L395.328 319.325C394.42 319.849 394.109 321.01 394.633 321.918Z" fill="#E2E3E4"/>
        <path d="M401.672 321.102L406.082 328.739C406.606 329.647 407.768 329.958 408.676 329.434L409.032 329.228C409.94 328.704 410.252 327.542 409.727 326.634L405.317 318.998C404.793 318.09 403.632 317.779 402.723 318.303L402.367 318.509C401.459 319.033 401.148 320.194 401.672 321.102Z" fill="#E2E3E4"/>
        <path fill-rule="evenodd" clip-rule="evenodd" d="M409.401 319.027C412.059 318.752 417.302 316.39 415.425 314.08C413.547 311.759 421.079 312.825 422.503 314.396C423.917 315.968 426.977 318.193 425.552 321.98C422.662 322.993 416.532 324.469 411.395 324.701C407.206 322.297 408.599 319.122 409.401 319.037V319.027Z" fill="#A3131C"/>
        <path fill-rule="evenodd" clip-rule="evenodd" d="M425.554 321.968C425.554 321.968 415.099 325.807 409.613 326.461C411.396 327.748 424.246 324.689 427.041 322.474C425.997 322.358 425.554 321.957 425.554 321.957V321.968Z" fill="#831519"/>
        <path fill-rule="evenodd" clip-rule="evenodd" d="M516.785 340.151C521.047 348.104 512.122 349.011 499.916 349.011C487.71 349.011 476.253 344.992 472.582 340.151C472.582 330.679 478.121 323 490.327 323C502.533 323 510.656 328.748 516.775 340.151H516.785Z" fill="#A3131C"/>
        <path d="M517.873 344.495C517.873 344.495 517.82 344.464 517.799 344.453C516.966 348.461 509.444 349.02 499.928 349.02C487.722 349.02 476.265 345.002 472.594 340.16C472.942 340.614 472.594 346.088 472.594 348.651C476.265 353.492 487.722 357.511 499.928 357.511C512.134 357.511 522.114 357.184 517.873 344.506V344.495Z" fill="#C5C5C5"/>
        <path d="M472.92 340.532C472.815 340.406 472.689 340.279 472.594 340.152C472.625 340.195 472.657 340.3 472.678 340.427C472.762 340.458 472.847 340.49 472.931 340.532H472.92Z" fill="#ACABAC"/>
        <path d="M517.871 344.499C517.871 344.499 517.818 344.468 517.797 344.457C517.312 346.767 514.601 347.927 510.571 348.497C508.071 352.537 500.834 352.684 492.573 352.684C485.241 352.684 478.194 351.229 472.93 349.024C476.896 353.697 488.058 357.505 499.937 357.505C511.816 357.505 522.123 357.178 517.882 344.499H517.871Z" fill="#ACABAC"/>
        <path d="M484.727 346.911C489.231 348.219 494.506 349.01 499.929 349.01C512.135 349.01 521.06 348.103 516.798 340.15C515.816 338.315 514.772 336.648 513.685 335.119C512.324 334.982 510.942 334.887 509.518 334.887C497.608 334.887 487.617 340.002 484.748 346.911H484.727Z" fill="#D6D5D5"/>
        <path d="M510.475 346.461C510.697 345.891 513.587 339.911 504.768 335.164C497.731 335.987 491.718 338.624 487.973 342.273C490.019 343.697 493.786 345.48 498.797 346.039C506.498 346.893 510.232 347.072 510.475 346.461Z" fill="#E2E3E4"/>
        <path fill-rule="evenodd" clip-rule="evenodd" d="M488.353 329.846C487.161 329.414 480.261 318.286 488.353 316.63C496.444 314.974 502.932 316.556 502.742 319.214C502.553 321.872 499.926 323.381 502.363 325.891C504.81 328.401 494.841 332.209 488.342 329.836L488.353 329.846Z" fill="#A3131C"/>
        <path fill-rule="evenodd" clip-rule="evenodd" d="M484.587 323.655C484.587 323.655 484.123 323.782 483.817 323.866C483.511 323.95 483.311 329.657 494.029 332.694C485.843 327.716 486.655 326.419 484.904 323.856C484.851 323.592 484.587 323.655 484.587 323.655Z" fill="#831519"/>
        <path d="M493.788 331.174L506.331 329.423C508.051 329.18 509.728 330.066 510.045 331.374C510.361 332.693 509.211 333.969 507.481 334.201L494.938 335.952C493.218 336.194 491.541 335.308 491.224 334.001C490.908 332.682 492.058 331.406 493.788 331.174Z" fill="#E2E3E4"/>
        <path d="M487.182 326.459L499.726 324.708C501.446 324.465 503.123 325.351 503.439 326.659C503.756 327.978 502.606 329.254 500.876 329.486L488.332 331.237C486.613 331.48 484.935 330.594 484.619 329.286C484.302 327.967 485.452 326.691 487.182 326.459Z" fill="#E2E3E4"/>
        <path d="M414.718 114.557C419.513 114.557 423.4 110.67 423.4 105.876C423.4 101.082 419.513 97.1953 414.718 97.1953C409.922 97.1953 406.035 101.082 406.035 105.876C406.035 110.67 409.922 114.557 414.718 114.557Z" fill="#15100D"/>
        <path d="M489.547 42.4961H495.001C500.223 42.4961 504.496 46.7679 504.496 51.989V72.114C504.496 77.3352 500.223 81.607 495.001 81.607H489.547V42.4961Z" fill="#1A171B"/>
        <path d="M398.914 81.607H393.46C388.237 81.607 383.965 77.3352 383.965 72.114V51.989C383.965 46.7679 388.237 42.4961 393.46 42.4961H398.914V81.607Z" fill="#1A171B"/>
        <path d="M488.49 80.4369C488.49 82.0272 489.779 83.3164 491.37 83.3164C492.961 83.3164 494.25 82.0272 494.25 80.4369V43.6887C494.25 42.0984 492.961 40.8092 491.37 40.8092C489.779 40.8092 488.49 42.0984 488.49 43.6887V80.4369Z" fill="#1A171B"/>
        <path d="M399.971 43.6764C399.971 42.0861 398.682 40.7969 397.091 40.7969C395.5 40.7969 394.211 42.0861 394.211 43.6764V80.4246C394.211 82.0149 395.5 83.3041 397.091 83.3041C398.682 83.3041 399.971 82.0149 399.971 80.4246V43.6764Z" fill="#1A171B"/>
        <path d="M388.384 77.5273C388.247 77.9493 383.848 90.5221 394.197 97.1988C404.557 103.876 413.06 105.88 413.06 105.88" stroke="#15100D" stroke-width="2.96" stroke-miterlimit="10" stroke-linecap="round"/>
        <path d="M483.609 32.9173C484.01 33.9826 479.262 43.2857 478.144 41.9778C477.026 40.6699 476.868 40.1108 475.57 41.7985C472.31 38.6131 468.459 26.325 470.137 26.2933C471.825 26.2617 481.857 28.2658 483.598 32.9067L483.609 32.9173Z" fill="#44351E"/>
        <path d="M452.687 5.4859C453.225 5.51755 483.608 6.34027 485.76 36.9708C480.274 44.8816 478.133 41.9809 478.133 41.9809C478.133 41.9809 476.898 34.5976 474.335 31.0957C477.141 37.2872 475.569 41.8122 475.569 41.8122C475.569 41.8122 472.288 44.2065 465.083 39.2175C467.994 27.6466 456.538 14.1667 451.104 13.0275C445.671 11.8884 450.851 5.36988 452.697 5.4859H452.687Z" fill="#AF6520"/>
        <path d="M465.083 39.2072C467.277 40.7261 469.102 41.5593 470.579 41.9812C474.356 32.0875 468.986 21.3077 463.87 17.3102C458.753 13.3231 455.62 10.644 456.232 8.48174C456.464 7.64847 457.719 6.95232 459.28 6.42494C455.525 5.57057 452.845 5.49674 452.697 5.48619C450.851 5.35962 445.671 11.8886 451.104 13.0278C456.548 14.1564 468.005 27.6364 465.083 39.2177V39.2072Z" fill="#9E5518"/>
        <path d="M446.41 14.652C441.568 14.3144 434.953 13.7027 437.517 5.14848C440.08 -3.40571 457.867 -0.230849 457.456 6.88885C457.055 14.0191 455.567 15.2848 446.41 14.652Z" fill="#9E5518"/>
        <path d="M437.515 5.1468C436.85 7.35127 436.808 9.02835 437.177 10.3152C439.108 11.7602 442.146 12.0239 444.699 12.1927C453.856 12.8255 455.344 11.5598 455.745 4.42956C455.777 3.91272 455.703 3.41698 455.544 2.94233C450.955 -1.05525 439.519 -1.58263 437.504 5.13625L437.515 5.1468Z" fill="#AF6520"/>
        <path d="M439.574 5.00059C439.205 6.24522 439.174 7.19451 439.385 7.9223C440.482 8.74503 442.201 8.88215 443.636 8.98762C448.826 9.34624 449.66 8.629 449.892 4.59978C449.913 4.30444 449.86 4.0302 449.776 3.75596C447.181 1.48821 440.703 1.19287 439.564 5.00059H439.574Z" fill="#BE743B"/>
        <path d="M484.474 38.7112C483.25 29.83 478.893 15.5379 463.691 10.3906C477.079 16.0125 480.36 31.254 480.919 42.0443C481.837 41.538 483.018 40.5465 484.474 38.7112Z" fill="#BE743B"/>
        <path d="M505.275 63.9944C505.771 63.8573 508.64 33.6697 493.385 21.3395C478.131 9.00921 462.865 6.17188 444.003 6.17188C425.14 6.17188 409.874 9.00921 394.62 21.3395C379.365 33.6697 382.234 63.8573 382.73 63.9944" stroke="#15100D" stroke-width="2.88" stroke-miterlimit="10" stroke-linecap="round"/>
    </g>
    <defs>
        <radialGradient id="paint0_radial_4314_38086" cx="0" cy="0" r="1" gradientUnits="userSpaceOnUse" gradientTransform="translate(327.25 121.36) scale(394.315 216.833)">
            <stop/>
            <stop offset="1" stop-color="white"/>
        </radialGradient>
        <clipPath id="clip0_4314_38086">
            <rect width="628" height="379" fill="white"/>
        </clipPath>
    </defs>
</svg>
