<svg width="628" height="268" viewBox="0 0 628 268" fill="none" xmlns="http://www.w3.org/2000/svg">
    <g clip-path="url(#clip0_4380_51203)">
        <g clip-path="url(#clip1_4380_51203)">
            <path d="M846.854 267.495L779.391 240.583V240.527H779.251L711.783 213.615V213.56H711.642L644.174 186.648V186.592H561.634V186.764L561.426 186.633L561.227 186.926V186.587H506.689V187.037L506.449 186.779V186.587H478.833V186.749L478.818 186.724V186.587H451.202V186.784L451.066 186.825V186.587H396.033V186.881L395.897 186.84V186.582H368.281V186.815L368.266 186.805V186.582H340.65V186.744L340.561 186.663L340.41 186.825V186.582H285.872V187.088H312.46L287.743 206.81H287.493V207.013L279.292 213.555H244.242L285.767 187.053L285.481 186.628L285.465 186.638V186.587H202.925V186.84L202.826 186.607L0 267.515L0.0990564 267.748V268.001H53.0577V267.829L53.1307 267.975L54.0744 267.545V268.001H158.615V267.495H106.96L144.038 247.778H189.683L158.72 267.54L158.819 267.692V268.006H264.533V267.606L264.637 267.697V268.001H423.117V267.495H370.888L379.183 241.033H423.195V267.748H423.716V207.326H457.166L463.344 227.048H423.716V227.554H463.501L469.679 247.277H423.847V247.783H469.835L476.013 267.5H423.977V268.006H582.457V267.5H582.316L563.454 247.434V247.277H563.302L557.443 241.038H601.225L634.394 267.5H582.561V268.006H688.275V267.5H688.119L656.515 247.327V247.272H656.431L646.661 241.033H690.194L702.331 247.489V247.778H702.873L739.951 267.495H688.489V268.001H793.03V267.636L793.775 267.975L794 267.52L735.9 241.033H779.146L845.483 267.495H794.041V268.001H847V267.495H846.859H846.854ZM675.831 213.651L617.58 187.098H643.929L710.266 213.56H675.831V213.651ZM690.324 240.527L665.925 227.549H704.88V227.453L748.35 247.272H703.003L690.71 240.735V240.532H690.324V240.527ZM664.971 227.043L639.977 213.752V213.56H639.618L627.892 207.321H660.722L703.978 227.043H664.971ZM659.611 206.815H626.944L589.865 187.093H616.355L659.611 206.815ZM588.781 187.093L638.533 213.555H603.916V213.747L562.15 187.093H588.781ZM568.042 213.899V213.555H567.614L559.799 207.316H592.899L623.8 227.038H584.521L568.047 213.899H568.042ZM592.102 206.815H559.163L534.446 187.093H561.207L592.107 206.815H592.102ZM533.612 187.093H533.622L566.79 213.555H531.98V213.939L525.453 206.992V206.81H525.28L506.741 187.088H533.612V187.093ZM504.166 227.175L495.793 213.813V213.555H495.631L491.721 207.316H525.046L543.585 227.038H504.166V227.175ZM459.726 213.772L451.364 187.093H478.432L495.016 213.555H459.726V213.772ZM506.032 187.093L524.571 206.815H491.497V206.962L479.047 187.093H506.037H506.032ZM378.776 240.522V240.553L376.67 247.267H330.744L343.105 227.544H382.848L378.781 240.522H378.771H378.776ZM245.67 241.028L262.567 227.544H302.127L283.494 247.363V247.262H237.85L245.665 241.023L245.67 241.028ZM279.574 214.061V213.975L287.92 207.316H321.141L302.466 227.185V227.038H263.203L279.469 214.061H279.574ZM315.505 214.061H350.946L342.813 227.038L334.367 240.522H290.637L315.516 214.061H315.505ZM383.004 227.038H343.418L355.779 207.316H389.187L383.009 227.038H383.004ZM389.344 206.81H356.097L368.459 187.088H395.527L389.349 206.81H389.344ZM396.069 187.088H423.179V213.55H387.775L396.069 187.088ZM340.858 187.088H367.849L351.264 213.55H315.985L340.863 187.088H340.858ZM313.268 187.088H340.149L321.428 207.002V206.805H288.551L313.268 187.083V187.088ZM278.646 214.056L262.38 227.033H262.176V227.195L245.477 240.517H201.976L243.512 214.01V214.056H278.646ZM181.742 227.033V227.129L156.566 240.517H113.331L171.587 213.959V214.056H206.314L181.914 227.033H181.737H181.742ZM97.3203 247.262H52.1245L101.559 227.539H140.582L97.3255 247.262H97.3203ZM230.536 187.088H257.025L219.947 206.81H219.791V206.896L207.273 213.555H172.488L230.536 187.093V187.088ZM141.687 227.033H102.821L152.255 207.311H184.938L141.682 227.033H141.687ZM207.408 214.056H207.659V213.924L220.088 207.316H253.053L222.032 227.114V227.038H183.009L207.408 214.061V214.056ZM253.746 206.871V206.805H221.037L258.115 187.083H284.745L253.746 206.866V206.871ZM202.967 187.088H229.316L186.033 206.82V206.81H153.532L202.967 187.088ZM52.9587 267.495H1.41807L50.8524 247.778H96.215L52.9587 267.495ZM105.651 267.495H54.1839L112.83 240.76V241.033H155.618L143.892 247.272H143.694V247.378L105.865 267.5H105.646L105.651 267.495ZM144.982 247.272L156.707 241.033H157.343V240.694L182.06 227.549H221.365L190.324 247.363V247.272H144.982ZM159.726 267.495L201.189 241.033H244.852L237.037 247.272H236.88V247.398L211.684 267.5H159.731L159.726 267.495ZM212.502 267.495L237.219 247.778H283.114L264.528 267.55V267.5H212.502V267.495ZM265.283 267.495L290.162 241.033H334.049L330.139 247.272H330.077V247.368L317.46 267.495H265.278H265.283ZM370.304 267.495H318.075L330.437 247.778H376.519L370.341 267.495H370.309H370.304ZM379.334 240.527L387.629 214.066H423.19V240.527H379.334ZM423.711 206.82V187.098H450.821L456.999 206.82H423.706H423.711ZM459.82 214.071H495.339L511.923 240.532H468.26V241.003L464.001 227.418V227.048H463.886L459.82 214.071ZM476.79 267.5H476.566L470.388 247.783H470.476V247.277H470.231L468.276 241.038H512.247L528.831 267.5H476.795H476.79ZM529.748 267.5H529.436L517.074 247.783H563.078L581.617 267.5H529.748ZM516.835 247.277V247.398L512.768 240.912V240.532H512.534L504.4 227.554H544.065L562.604 247.277H516.835ZM557.271 240.532V240.856L544.451 227.221V227.048H544.289L532.089 214.071H567.421L600.589 240.532H557.265H557.271ZM635.52 267.5H635.217L610.5 247.783H656.275L687.17 267.5H635.52ZM609.89 247.277V247.297L601.778 240.826V240.532H601.413L585.147 227.554H624.582L655.482 247.277H609.89ZM646.197 240.532V240.745L624.749 227.059L624.738 227.054L604.406 214.076H639.487L664.59 227.428V227.56H664.841L689.24 240.537H646.197V240.532ZM741.437 267.5H741.025L703.947 247.783H748.945V247.55L792.707 267.5H741.432H741.437ZM734.931 240.532V240.598L676.738 214.071H711.533L777.869 240.532H734.931Z" fill="url(#paint0_linear_4380_51203)"/>
        </g>
        <g clip-path="url(#clip2_4380_51203)">
            <path d="M274.117 77.8633H264.688L251.217 106.405L237.747 77.8633H232.235H228.324H220.601L199.237 95.0222V77.8633H190.051V114.651H199.237V105.119L206.52 99.2834L220.601 114.651H231.382V113.365L213.685 94.1267L229.44 81.4093L245.889 114.651H256.545L274.117 79.1495V77.8633Z" fill="#231F20"/>
            <path d="M289.457 77.8633L271.643 113.365V114.657H280.822L284.497 107.031H304.575L308.249 114.657H317.436V113.365L299.621 77.8633H289.457ZM287.987 99.7342L294.542 86.0491L301.097 99.7342H287.994H287.987Z" fill="#231F20"/>
            <path d="M343.099 77.8615H323.08V114.65H343.099C350.652 114.65 356.347 113.135 360.186 110.106C364.017 107.077 365.94 102.569 365.94 96.5891V95.9761C365.94 89.99 364.011 85.4763 360.153 82.4292C356.295 79.382 350.612 77.8555 343.099 77.8555V77.8615ZM356.57 96.7033C356.57 100.255 355.474 102.876 353.296 104.559C351.111 106.241 347.719 107.083 343.106 107.083H332.266V85.4403H343.04C347.574 85.4403 350.96 86.3118 353.204 88.0427C355.448 89.7796 356.57 92.406 356.57 95.922V96.7033Z" fill="#231F20"/>
            <path d="M399.415 77.8633H373.943V114.651H383.13V101.471H391.515L404.002 114.651H414.533V113.359L402.84 101.303C406.633 100.816 409.566 99.62 411.626 97.7148C413.687 95.8096 414.717 93.3634 414.717 90.3704V89.7513C414.717 86.0491 413.358 83.1462 410.642 81.0306C407.926 78.9151 404.185 77.8633 399.409 77.8633H399.415ZM405.353 90.2021C405.353 91.6265 404.822 92.7023 403.759 93.4296C402.696 94.1568 401.167 94.5234 399.166 94.5234H383.13V85.3279H399.166C401.207 85.3279 402.748 85.6885 403.792 86.4217C404.828 87.1489 405.353 88.2067 405.353 89.5891V90.2021Z" fill="#231F20"/>
            <path d="M437.598 77.8633L419.783 113.365V114.657H428.963L432.637 107.031H452.716L456.39 114.657H465.576V113.365L447.762 77.8633H437.598ZM436.128 99.7342L442.683 86.0491L449.238 99.7342H436.135H436.128Z" fill="#231F20"/>
            <path d="M462.389 85.4361H478.058V114.651H487.309V85.4361H502.985V77.8633H462.389V85.4361Z" fill="#231F20"/>
            <path d="M544.408 85.2678V77.8633H508.713V114.651H544.408V107.247H517.899V99.9025H543.187V92.5581H517.899V85.2678H544.408Z" fill="#231F20"/>
            <path d="M151.923 77.8555V79.1477L134.351 114.65H123.695L106.123 79.1477V77.8555H115.552L129.023 106.404L142.494 77.8555H151.923Z" fill="#231F20"/>
            <path d="M174.502 66.076V70.0968H151.799V66.3645L162.678 60.7631C164.154 59.9998 165.237 59.3928 165.939 58.93C166.648 58.4672 167.12 58.0345 167.376 57.6318C167.632 57.2291 167.756 56.7543 167.756 56.2074V55.9189C167.756 55.0114 167.304 54.3202 166.392 53.8454C165.48 53.3706 164.174 53.1302 162.468 53.1302C160.67 53.1302 159.305 53.4127 158.373 53.9716C157.442 54.5305 156.976 55.3479 156.976 56.4237V57.0548H151.864V56.3877C151.864 53.9656 152.763 52.1145 154.555 50.8523C156.346 49.5902 158.957 48.9531 162.363 48.9531C165.768 48.9531 168.301 49.5481 170.171 50.7442C172.035 51.9402 172.966 53.5869 172.966 55.6965V56.015C172.966 57.0488 172.737 57.9804 172.277 58.7977C171.818 59.6211 171.037 60.4385 169.941 61.2499C168.846 62.0613 167.323 62.9748 165.362 63.9845L161.287 66.07H174.495L174.502 66.076Z" fill="#231F20"/>
            <path d="M167.349 77.8615L167.395 127.253L90.6182 127.241L90.5722 57.0544L143.327 57.0604V50.5273H83.4727V133.78H174.481V77.8615H167.349Z" fill="#F5333F"/>
            <path d="M551.145 182.551L547.044 207.144C547.044 208.749 540.68 210.053 532.826 210.053C524.972 210.053 518.607 208.749 518.607 207.144L514.506 182.551H551.152H551.145Z" fill="#BEC1C3" stroke="white" stroke-width="0.53" stroke-linecap="round" stroke-linejoin="round"/>
            <path d="M514.57 181.032C514.57 179.433 522.772 178.141 532.897 178.141C543.021 178.141 551.223 179.439 551.223 181.032V182.618C551.223 184.217 543.021 185.509 532.897 185.509C522.772 185.509 514.57 184.211 514.57 182.618V181.032Z" fill="#77797D" stroke="white" stroke-width="0.53" stroke-linecap="round" stroke-linejoin="round"/>
            <path d="M551.217 181.035C551.217 182.634 543.015 183.926 532.891 183.926C522.766 183.926 514.564 182.628 514.564 181.035" stroke="white" stroke-width="0.6" stroke-linecap="round" stroke-linejoin="round"/>
            <path d="M514.276 182.551L510.175 207.144C510.175 208.749 503.811 210.053 495.957 210.053C488.102 210.053 481.738 208.749 481.738 207.144L477.637 182.551H514.283H514.276Z" fill="#BEC1C3" stroke="white" stroke-width="0.53" stroke-linecap="round" stroke-linejoin="round"/>
            <path d="M477.701 181.032C477.701 179.433 485.903 178.141 496.027 178.141C506.152 178.141 514.354 179.439 514.354 181.032V182.618C514.354 184.217 506.152 185.509 496.027 185.509C485.903 185.509 477.701 184.211 477.701 182.618V181.032Z" fill="#77797D" stroke="white" stroke-width="0.53" stroke-linecap="round" stroke-linejoin="round"/>
            <path d="M514.348 181.035C514.348 182.634 506.146 183.926 496.022 183.926C485.897 183.926 477.695 182.628 477.695 181.035" stroke="white" stroke-width="0.6" stroke-linecap="round" stroke-linejoin="round"/>
            <path d="M532.858 155.031L528.757 179.625C528.757 181.229 522.393 182.534 514.539 182.534C506.684 182.534 500.32 181.229 500.32 179.625L496.219 155.031H532.865H532.858Z" fill="#BEC1C3" stroke="white" stroke-width="0.53" stroke-linecap="round" stroke-linejoin="round"/>
            <path d="M496.285 153.512C496.285 151.913 504.487 150.621 514.612 150.621C524.736 150.621 532.938 151.919 532.938 153.512V155.099C532.938 156.697 524.736 157.99 514.612 157.99C504.487 157.99 496.285 156.691 496.285 155.099V153.512Z" fill="#77797D" stroke="white" stroke-width="0.53" stroke-linecap="round" stroke-linejoin="round"/>
            <path d="M532.938 153.512C532.938 155.11 524.736 156.403 514.612 156.403C504.487 156.403 496.285 155.104 496.285 153.512" stroke="white" stroke-width="0.6" stroke-linecap="round" stroke-linejoin="round"/>
            <path d="M472.113 184.949L468.366 207.391C468.366 208.858 462.553 210.048 455.387 210.048C448.222 210.048 442.409 208.858 442.409 207.391L438.662 184.949H472.106H472.113Z" fill="#BEC1C3" stroke="white" stroke-width="0.48" stroke-linecap="round" stroke-linejoin="round"/>
            <path d="M438.734 183.568C438.734 182.108 446.221 180.93 455.46 180.93C464.698 180.93 472.185 182.114 472.185 183.568V185.017C472.185 186.477 464.698 187.655 455.46 187.655C446.221 187.655 438.734 186.471 438.734 185.017V183.568Z" fill="#77797D" stroke="white" stroke-width="0.48" stroke-linecap="round" stroke-linejoin="round"/>
            <path d="M472.179 183.566C472.179 185.027 464.692 186.205 455.454 186.205C446.215 186.205 438.729 185.021 438.729 183.566" stroke="white" stroke-width="0.55" stroke-linecap="round" stroke-linejoin="round"/>
            <path d="M438.458 184.949L434.712 207.391C434.712 208.858 428.898 210.048 421.733 210.048C414.568 210.048 408.754 208.858 408.754 207.391L405.008 184.949H438.452H438.458Z" fill="#BEC1C3" stroke="white" stroke-width="0.48" stroke-linecap="round" stroke-linejoin="round"/>
            <path d="M405.08 183.568C405.08 182.108 412.567 180.93 421.805 180.93C431.044 180.93 438.531 182.114 438.531 183.568V185.017C438.531 186.477 431.044 187.655 421.805 187.655C412.567 187.655 405.08 186.471 405.08 185.017V183.568Z" fill="#77797D" stroke="white" stroke-width="0.48" stroke-linecap="round" stroke-linejoin="round"/>
            <path d="M438.531 183.566C438.531 185.027 431.044 186.205 421.805 186.205C412.567 186.205 405.08 185.021 405.08 183.566" stroke="white" stroke-width="0.55" stroke-linecap="round" stroke-linejoin="round"/>
            <path d="M455.419 159.84L451.673 182.282C451.673 183.748 445.859 184.938 438.694 184.938C431.529 184.938 425.715 183.748 425.715 182.282L421.969 159.84H455.413H455.419Z" fill="#BEC1C3" stroke="white" stroke-width="0.48" stroke-linecap="round" stroke-linejoin="round"/>
            <path d="M422.041 158.451C422.041 156.99 429.528 155.812 438.766 155.812C448.005 155.812 455.492 156.997 455.492 158.451V159.899C455.492 161.36 448.005 162.538 438.766 162.538C429.528 162.538 422.041 161.354 422.041 159.899V158.451Z" fill="#77797D" stroke="white" stroke-width="0.48" stroke-linecap="round" stroke-linejoin="round"/>
            <path d="M455.492 158.453C455.492 159.914 448.005 161.092 438.766 161.092C429.528 161.092 422.041 159.908 422.041 158.453" stroke="white" stroke-width="0.55" stroke-linecap="round" stroke-linejoin="round"/>
            <path d="M488.871 159.84L485.124 182.282C485.124 183.748 479.31 184.938 472.145 184.938C464.98 184.938 459.167 183.748 459.167 182.282L455.42 159.84H488.864H488.871Z" fill="#BEC1C3" stroke="white" stroke-width="0.48" stroke-linecap="round" stroke-linejoin="round"/>
            <path d="M455.492 158.451C455.492 156.99 462.979 155.812 472.218 155.812C481.456 155.812 488.943 156.997 488.943 158.451V159.899C488.943 161.36 481.456 162.538 472.218 162.538C462.979 162.538 455.492 161.354 455.492 159.899V158.451Z" fill="#77797D" stroke="white" stroke-width="0.48" stroke-linecap="round" stroke-linejoin="round"/>
            <path d="M488.937 158.453C488.937 159.914 481.45 161.092 472.212 161.092C462.973 161.092 455.486 159.908 455.486 158.453" stroke="white" stroke-width="0.55" stroke-linecap="round" stroke-linejoin="round"/>
            <path opacity="0.69" d="M306.485 243.627C295.002 243.784 271.007 240.646 266.82 244.192C262.627 247.738 249.741 251.711 266.82 252.829C283.9 253.947 299.779 255.077 306.485 255.642C313.191 256.207 303.027 258.184 314.89 260.726C326.753 263.269 326.445 265.246 335.388 264.116C344.332 262.986 346.11 264.2 357.396 264.441C368.682 264.681 389.337 267.788 400.131 266.376C410.925 264.963 434.973 261.423 424.487 258.677C414.002 255.93 408.773 253.153 397.821 249.884C386.87 246.608 381.975 244.727 374.863 242.984C367.756 241.241 362.507 243.086 355.572 243.435C348.636 243.784 341.241 244.096 335.073 242.245C328.906 240.394 321.209 238.561 317.042 238.915" fill="#E3E3E4"/>
            <path fill-rule="evenodd" clip-rule="evenodd" d="M327.436 240.965C327.436 244.631 321.754 245.966 305.776 245.966C289.799 245.966 269.576 244.625 269.576 240.965C269.576 237.305 289.799 232.695 305.776 232.695C321.754 232.695 327.436 237.299 327.436 240.965Z" fill="#A11D21"/>
            <path fill-rule="evenodd" clip-rule="evenodd" d="M316.104 236.566C316.104 236.566 315.356 235.718 315.717 235.075C316.078 234.432 315.48 234.204 315.48 230.405C317.974 229.281 320.08 229.828 320.08 229.828C320.08 229.828 322.823 235.604 325.887 237.684C327.357 240.238 325.428 241.103 325.428 241.103C325.428 241.103 315.356 237.756 316.104 236.572V236.566Z" fill="#A11D21"/>
            <path d="M327.436 240.979C327.436 244.645 321.754 245.979 305.777 245.979C289.8 245.979 269.616 244.645 269.583 240.985C269.583 241.952 269.57 244.501 269.57 245.228C269.557 248.894 289.773 250.294 305.751 250.336C321.728 250.385 327.417 249.062 327.43 245.396C327.43 244.621 327.443 241.748 327.443 240.973L327.436 240.979Z" fill="#BBBDC0"/>
            <path d="M269.681 241.399C269.622 241.267 269.576 241.129 269.576 240.984C269.576 241.093 269.576 241.225 269.576 241.369C269.609 241.381 269.648 241.387 269.681 241.399Z" fill="#A3A4AA"/>
            <path d="M327.436 240.979C327.436 242.704 326.176 243.912 323.171 244.711C321.74 247.331 315.618 248.311 301.833 248.269C290.212 248.233 276.361 247.482 269.668 245.667C271.216 249.002 290.416 250.294 305.737 250.336C321.714 250.385 327.403 249.062 327.416 245.396C327.416 244.621 327.429 241.748 327.429 240.973L327.436 240.979Z" fill="#A3A4AA"/>
            <path fill-rule="evenodd" clip-rule="evenodd" d="M367.717 134.561C372.875 140.012 382.514 146.064 382.514 146.064L394.16 129.987C382.652 120.239 375.801 111.482 377.914 107.882C372.927 109.463 300.613 100.766 292.266 97.6046C282.188 99.3595 272.116 93.704 269.636 92.1834C269.367 92.0152 268.999 92.1654 268.947 92.4659L266.945 104.023L263.973 114.475C263.973 114.475 268.212 114.445 281.236 113.507C277.733 140.06 254.479 155.476 250.469 157.952L249.879 158.307L375.434 188.214C375.434 188.214 362.488 155.879 367.724 134.555L367.717 134.561Z" fill="#C72D39"/>
            <path fill-rule="evenodd" clip-rule="evenodd" d="M304.517 95.2188C303.303 95.3269 292.227 101.013 270.266 95.7837C263.619 102.04 264.439 109.385 264.747 109.571C265.056 109.757 270.036 108.856 270.036 108.856C270.036 108.856 281.768 109.21 282.732 113.82C283.697 118.43 281.394 121.717 281.191 122.655C280.987 123.599 274.983 145.578 249.879 158.307C278.468 161.012 275.141 164.017 279.964 169.252C289.793 179.932 304.517 169.444 318.552 162.574C339.569 165.586 355.808 174.054 358.689 161.348C361.569 148.643 357.547 131.412 361.609 124.729C365.677 118.045 360.231 108.633 359.922 108.633C359.614 108.633 304.53 95.2248 304.53 95.2248L304.517 95.2188Z" fill="#F5333F"/>
            <path fill-rule="evenodd" clip-rule="evenodd" d="M269.4 96.2572C277.07 98.9378 282.569 98.8656 286.552 97.898C276.749 98.2706 267.714 92.6211 267.714 92.6211L267.195 95.4038C267.851 95.6863 268.586 95.9687 269.4 96.2512V96.2572Z" fill="#F05462"/>
            <path fill-rule="evenodd" clip-rule="evenodd" d="M292.267 97.6052C288.271 98.3024 284.275 97.8336 280.752 96.9141C286.185 108.135 299.892 116.573 310.069 122.079C319.813 127.349 322.208 137.507 321.801 141.329C321.598 143.27 320.469 145.23 318.71 145.23C317.457 145.23 315.941 144.244 314.452 142.447L312.254 143.294C313.107 148.607 316.945 151.907 322.267 151.907C326.158 151.907 330.239 150.116 333.172 147.111C333.684 146.588 334.287 145.945 334.99 145.2C341.781 137.969 356.295 122.517 377.626 117.739C376.747 113.178 377.016 109.415 377.915 107.877C372.928 109.457 300.614 100.761 292.267 97.5992V97.6052Z" fill="#C72D39"/>
            <path fill-rule="evenodd" clip-rule="evenodd" d="M332.069 97.146C325.776 97.146 323.578 93.1673 321.255 88.9542C320.271 87.1632 319.254 85.3301 317.902 83.7374C321.183 84.9815 326.465 86.478 332.823 86.478C337.895 86.478 342.816 85.5164 347.469 83.6172C346.517 84.9995 345.704 86.4179 344.91 87.8063C342.042 92.8187 339.562 97.152 332.069 97.152V97.146Z" fill="white"/>
            <path fill-rule="evenodd" clip-rule="evenodd" d="M375.428 188.22C373.886 194.007 356.518 199.398 321.322 191.537C286.119 183.676 248.338 164.095 249.873 158.307C263.974 156.023 286.251 155.53 314.058 161.552C349.32 169.191 373.394 182.552 375.422 188.213L375.428 188.22Z" fill="#0B070C"/>
            <path fill-rule="evenodd" clip-rule="evenodd" d="M267.851 160.288C268.133 167.831 275.042 206.614 314.621 234.736C315.77 235.553 317.646 234.435 316.957 233.263C312.174 225.114 308.047 207.005 310.474 200.31C310.763 199.51 311.734 199.126 312.561 199.498C318.388 202.113 326.281 203.11 336.248 203.189C336.983 203.189 337.606 203.669 337.764 204.324C340.861 217.366 354.791 231.184 363.885 237.404C365.066 238.21 366.667 237.128 366.169 235.86C360.572 221.531 357.232 199.204 361.923 180.855C362.068 180.278 361.805 179.683 361.248 179.376C330.422 162.554 279.504 159.266 269.386 158.888C268.527 158.858 267.818 159.495 267.851 160.288Z" fill="#120C14"/>
            <path fill-rule="evenodd" clip-rule="evenodd" d="M282.628 123.124C284.373 117.95 284.274 112.955 281.236 113.502C277.733 140.055 254.479 155.471 250.469 157.947L249.879 158.302C275.909 148.205 280.882 128.293 282.634 123.118L282.628 123.124Z" fill="#C72D39"/>
            <path fill-rule="evenodd" clip-rule="evenodd" d="M361.918 180.851C362.062 180.274 361.799 179.679 361.242 179.372C330.416 162.55 279.498 159.262 269.38 158.884C268.521 158.854 267.812 159.491 267.845 160.284C267.924 162.436 268.547 167.136 270.312 173.404C270.292 166.33 282.162 163.98 293.724 165.507C305.285 167.034 339.818 174.096 347.987 184.12C348.624 196.628 353.919 217.218 358.512 226.696C358.978 227.658 357.764 228.565 356.832 227.952C352.712 225.236 349.123 223.144 346.669 221.113C352.062 227.958 358.735 233.89 363.873 237.4C365.054 238.206 366.655 237.124 366.156 235.856C360.559 221.528 357.22 199.2 361.911 180.851H361.918Z" fill="black"/>
            <path fill-rule="evenodd" clip-rule="evenodd" d="M312.555 199.492C313.073 199.727 313.618 199.943 314.169 200.147C313.696 199.919 313.171 199.703 312.555 199.492Z" fill="#355EAA"/>
            <path fill-rule="evenodd" clip-rule="evenodd" d="M312.554 199.493C306.983 197.582 298.453 192.593 296.189 190.898C299.995 196.638 301.432 196.452 303.178 198.243C304.746 199.848 305.238 217.049 311.215 227.278C311.662 228.047 310.717 228.859 309.916 228.384C306.852 226.563 303.781 224.609 298.506 221.075C303.158 225.781 308.499 230.385 314.621 234.73C315.769 235.548 317.646 234.43 316.957 233.258C312.173 225.108 308.046 207 310.474 200.304C310.763 199.505 311.734 199.12 312.56 199.493H312.554Z" fill="black"/>
            <path fill-rule="evenodd" clip-rule="evenodd" d="M332.988 199.044C332.595 200.793 318.96 201.508 315.777 200.672C321.184 202.385 328.001 203.082 336.236 203.142C336.971 203.142 337.594 203.623 337.752 204.278C337.017 201.736 334.333 193.106 332.988 199.038V199.044Z" fill="black"/>
            <path fill-rule="evenodd" clip-rule="evenodd" d="M276.618 182.57C278.954 187.679 284.479 200.36 295.115 210.247C305.751 220.133 298.507 205.12 296.191 199.495C293.881 193.869 288.79 194.152 286.014 188.22C283.238 182.288 273.193 175.093 276.611 182.57H276.618Z" fill="#232227"/>
            <path fill-rule="evenodd" clip-rule="evenodd" d="M340.606 192.551C338.808 193.783 339.858 206.512 344.195 212.955C348.532 219.398 347.935 210.761 345.691 202.75C343.447 194.738 345.389 189.257 340.606 192.544V192.551Z" fill="#232227"/>
            <path d="M283.428 235.082C275.482 236.735 269.57 238.989 269.57 240.972C269.57 243.4 278.468 245.371 289.117 246.045C288.172 241.964 286.158 237.805 283.428 235.082Z" fill="#CDCECF"/>
            <path d="M283.881 235.551C283.881 235.551 283.835 235.563 283.808 235.569C279.701 236.747 271.171 238.442 273.323 240.088C275.246 241.561 278.08 239.061 286.584 239.373C285.803 237.955 284.898 236.657 283.881 235.551Z" fill="#D9DBDE"/>
            <path d="M286.711 235.251L289.959 240.404C290.343 241.014 291.194 241.223 291.859 240.871L292.126 240.729C292.791 240.378 293.019 239.598 292.635 238.989L289.387 233.836C289.003 233.227 288.152 233.018 287.487 233.37L287.22 233.511C286.555 233.863 286.327 234.642 286.711 235.251Z" fill="#D9DBDE"/>
            <path d="M291.877 234.701L295.125 239.854C295.509 240.463 296.36 240.672 297.025 240.32L297.292 240.179C297.957 239.827 298.185 239.048 297.801 238.438L294.553 233.285C294.169 232.676 293.318 232.467 292.653 232.819L292.386 232.96C291.721 233.312 291.493 234.091 291.877 234.701Z" fill="#D9DBDE"/>
            <path d="M297.053 234.146L300.301 239.299C300.685 239.908 301.535 240.117 302.201 239.765L302.468 239.624C303.133 239.272 303.361 238.493 302.977 237.884L299.729 232.731C299.345 232.121 298.494 231.912 297.829 232.264L297.562 232.405C296.896 232.757 296.668 233.537 297.053 234.146Z" fill="#D9DBDE"/>
            <path fill-rule="evenodd" clip-rule="evenodd" d="M302.739 232.746C304.695 232.56 308.553 230.973 307.175 229.411C305.797 227.848 311.335 228.563 312.378 229.621C313.422 230.679 315.666 232.175 314.622 234.73C312.496 235.409 307.989 236.407 304.209 236.563C301.125 234.946 302.155 232.801 302.739 232.746Z" fill="#A11D21"/>
            <path fill-rule="evenodd" clip-rule="evenodd" d="M314.622 234.73C314.622 234.73 306.932 237.321 302.896 237.76C304.209 238.625 313.664 236.564 315.718 235.073C314.95 234.995 314.622 234.73 314.622 234.73Z" fill="#801718"/>
            <path fill-rule="evenodd" clip-rule="evenodd" d="M381.713 246.987C384.849 252.348 378.288 252.955 369.312 252.955C360.335 252.955 351.91 250.251 349.207 246.987C349.207 240.604 353.282 235.43 362.258 235.43C371.234 235.43 377.212 239.3 381.713 246.987Z" fill="#A11D21"/>
            <path d="M382.513 249.911C382.513 249.911 382.474 249.893 382.454 249.881C381.844 252.586 376.313 252.952 369.312 252.952C360.335 252.952 351.91 250.248 349.207 246.984C349.456 247.291 349.207 250.981 349.207 252.706C351.91 255.97 360.335 258.674 369.312 258.674C378.288 258.674 385.624 258.458 382.507 249.911H382.513Z" fill="#BBBDC0"/>
            <path d="M349.449 247.236C349.37 247.152 349.279 247.068 349.207 246.984C349.233 247.014 349.253 247.08 349.266 247.17C349.325 247.194 349.39 247.218 349.449 247.242V247.236Z" fill="#A3A4AA"/>
            <path d="M382.513 249.913C382.513 249.913 382.473 249.895 382.454 249.883C382.099 251.439 380.105 252.221 377.139 252.605C375.302 255.328 369.98 255.43 363.898 255.43C358.504 255.43 353.327 254.451 349.449 252.966C352.369 256.115 360.571 258.682 369.311 258.682C378.051 258.682 385.623 258.465 382.506 249.919L382.513 249.913Z" fill="#A3A4AA"/>
            <path d="M358.137 251.541C361.451 252.419 365.329 252.954 369.312 252.954C378.288 252.954 384.849 252.341 381.713 246.986C380.991 245.754 380.224 244.63 379.423 243.59C378.419 243.494 377.402 243.434 376.352 243.434C367.586 243.434 360.244 246.877 358.131 251.535L358.137 251.541Z" fill="#CDCECF"/>
            <path d="M377.079 251.24C377.243 250.855 379.369 246.822 372.88 243.625C367.703 244.184 363.281 245.957 360.531 248.415C362.034 249.377 364.809 250.579 368.497 250.951C374.166 251.522 376.909 251.649 377.086 251.24H377.079Z" fill="#D9DBDE"/>
            <path fill-rule="evenodd" clip-rule="evenodd" d="M360.807 240.039C359.934 239.744 354.856 232.25 360.807 231.138C366.758 230.026 371.528 231.09 371.391 232.881C371.253 234.672 369.317 235.687 371.115 237.382C372.913 239.077 365.584 241.637 360.807 240.045V240.039Z" fill="#A11D21"/>
            <path fill-rule="evenodd" clip-rule="evenodd" d="M358.039 235.875C358.039 235.875 357.698 235.96 357.475 236.02C357.252 236.08 357.101 239.926 364.988 241.97C358.971 238.616 359.562 237.745 358.276 236.014C358.236 235.833 358.046 235.875 358.046 235.875H358.039Z" fill="#801718"/>
            <path d="M364.798 240.941L374.023 239.757C375.29 239.595 376.517 240.19 376.753 241.073C376.982 241.963 376.136 242.816 374.87 242.979L365.644 244.163C364.378 244.325 363.151 243.73 362.915 242.846C362.685 241.957 363.531 241.103 364.798 240.941Z" fill="#D9DBDE"/>
            <path d="M359.948 237.761L369.174 236.577C370.44 236.415 371.667 237.01 371.903 237.894C372.133 238.783 371.286 239.637 370.02 239.799L360.795 240.983C359.528 241.145 358.301 240.55 358.065 239.667C357.835 238.777 358.682 237.924 359.948 237.761Z" fill="#D9DBDE"/>
            <path fill-rule="evenodd" clip-rule="evenodd" d="M297.503 66.7841C296.729 67.7757 291.493 67.914 288.717 62.5469C285.942 57.1798 292.037 53.9344 295.541 55.2746C299.045 56.6149 299.045 64.8067 297.503 66.7841Z" fill="#FCD1C3"/>
            <path fill-rule="evenodd" clip-rule="evenodd" d="M292.24 66.3562C294.616 67.7085 297.004 67.426 297.503 66.7829C299.045 64.8056 299.045 56.6138 295.541 55.2735C294.602 54.9129 293.487 54.8888 292.398 55.1353C293.625 55.6281 295.455 57.0886 295.232 59.2943C295.009 61.506 294.497 65.5929 292.24 66.3502V66.3562Z" fill="#ECBCA8"/>
            <path fill-rule="evenodd" clip-rule="evenodd" d="M364.313 66.7841C365.087 67.7757 370.323 67.914 373.099 62.5469C375.874 57.1798 369.779 53.9344 366.275 55.2746C362.771 56.6149 362.771 64.8067 364.313 66.7841Z" fill="#FCD1C3"/>
            <path fill-rule="evenodd" clip-rule="evenodd" d="M370.638 55.5467C369.214 54.9156 367.567 54.7834 366.275 55.2762C362.771 56.6165 362.771 64.8083 364.313 66.7857C364.785 67.3927 366.937 67.6812 369.175 66.5753C364.569 64.1172 369.575 55.9434 370.645 55.5467H370.638Z" fill="#ECBCA8"/>
            <path fill-rule="evenodd" clip-rule="evenodd" d="M302.202 86.8361C302.202 86.8361 294.184 79.0709 296.192 63.5407C298.193 48.0105 295.857 48.293 295.87 45.4682C295.883 42.6435 310.371 32.6185 335.036 36.2907C359.701 39.9629 371.105 47.4456 369.878 49.5611C368.644 51.6767 365.101 59.4478 366.026 68.3428C366.951 77.2379 367.877 97.5702 357.857 100.395C347.838 103.22 321.323 116.634 302.209 86.8421L302.202 86.8361Z" fill="#FCD1C3"/>
            <path fill-rule="evenodd" clip-rule="evenodd" d="M362.115 97.507C367.548 90.8838 366.793 75.7021 366.025 68.3397C365.1 59.4447 368.643 51.6796 369.877 49.558C370.579 48.35 367.18 45.411 359.582 42.418C358.69 46.559 358.781 54.1498 359.241 65.0882C359.857 79.6328 339.412 79.9213 339.51 80.336C343.171 95.6739 352.325 99.0996 362.115 97.5009V97.507Z" fill="#F5C9BD"/>
            <path fill-rule="evenodd" clip-rule="evenodd" d="M366.026 45.4805C365.251 51.4125 362.942 59.6764 363.946 68.9862C364.95 78.3079 361.708 85.9888 354.773 88.9579C349.661 91.1395 358.362 93.3453 364.746 92.4317C367.233 84.9251 366.629 74.1789 366.026 68.3431C365.101 59.448 368.644 51.6829 369.877 49.5614C370.33 48.78 369.051 47.2655 366.019 45.4805H366.026Z" fill="#ECBCA8"/>
            <path d="M354.74 1.39164C355.442 1.13921 361.308 4.71525 360.423 5.4545C359.537 6.19374 359.169 6.29592 360.219 7.24552C358.041 9.4272 349.937 11.7832 349.977 10.6052C350.016 9.4272 351.67 2.47947 354.74 1.39164Z" fill="#3F331B"/>
            <path d="M335.863 22.2135C335.903 21.8409 337.51 0.655106 357.444 0C362.378 4.04483 360.423 5.45721 360.423 5.45721C360.423 5.45721 355.594 6.11833 353.232 7.81319C357.339 6.02217 360.22 7.24824 360.22 7.24824C360.22 7.24824 361.657 9.60421 358.166 14.4965C350.764 12.1405 341.618 19.7674 340.692 23.5357C339.767 27.2981 335.719 23.5057 335.863 22.2195V22.2135Z" fill="#AA662B"/>
            <path d="M358.166 14.494C359.229 13.0035 359.832 11.7533 360.16 10.7316C353.881 7.82271 346.696 11.2725 343.927 14.7404C341.158 18.2022 339.315 20.3178 337.93 19.831C337.399 19.6447 336.985 18.7552 336.703 17.6433C336.021 20.2457 335.87 22.1088 335.863 22.217C335.719 23.5032 339.767 27.3016 340.692 23.5332C341.618 19.7709 350.764 12.144 358.166 14.494Z" fill="#965724"/>
            <path fill-rule="evenodd" clip-rule="evenodd" d="M308.652 78.2344C298.488 75.4096 302.195 56.6039 302.209 51.6996C302.222 46.7893 303.921 45.1185 309.781 43.4116C315.64 41.7047 314.544 38.1287 312.969 37.6659C312.339 37.4796 311.664 37.3594 310.962 37.2812C303.206 39.1504 298.79 42.3839 298.652 43.8864C298.39 46.6991 300.752 46.591 297.399 61.9228C294.046 77.2607 301.362 85.5848 301.362 85.5848C302.956 88.5899 304.649 91.1983 306.428 93.4581C307.655 93.1876 308.783 92.9232 309.754 92.7789C314.767 92.0277 318.822 81.0592 308.658 78.2344H308.652Z" fill="#FBDDD5"/>
            <path d="M296.191 63.5391C296.191 63.5391 293.107 80.061 278.928 90.6508C283.245 103.074 298.658 112.396 308.835 117.901C319.012 123.406 321.63 133.858 321.164 138.233C320.705 142.609 316.538 145.86 311.604 139.928C313.146 149.532 324.196 149.49 330.383 143.155C336.577 136.821 356.767 112.396 387.908 111.969C372.646 95.0262 367.095 73.2815 366.019 68.3412C366.019 87.2611 357.076 88.391 357.076 88.391C357.076 88.391 362.469 68.1969 344.438 74.1289C326.4 80.0609 319.465 74.1289 314.531 72.999C309.596 71.8691 302.812 74.2672 306.053 86.8344C297.727 81.4673 295.876 68.0527 296.185 63.5391H296.191Z" fill="#AA662B"/>
            <path d="M333.704 49.3246C326.512 48.381 323.724 43.2062 315.705 42.9238C307.687 42.6413 299.4 47.7199 295.87 45.4661C292.34 43.2063 303.284 27.9585 333.421 28.9442C363.559 29.9298 371.111 47.0287 369.877 49.559C368.644 52.0892 366.177 43.2063 352.765 44.7569C338.579 46.3976 340.895 50.2622 333.704 49.3246Z" fill="#AA662B"/>
            <path d="M336.374 29.9382C332.68 29.7399 327.641 29.3733 329.59 24.2887C331.545 19.2041 345.108 21.0853 344.799 25.3225C344.491 29.5596 343.362 30.3109 336.374 29.9322V29.9382Z" fill="#965724"/>
            <path d="M329.595 24.2845C329.09 25.5948 329.057 26.5924 329.339 27.3557C330.816 28.2152 333.132 28.3714 335.074 28.4736C342.062 28.8523 343.191 28.095 343.499 23.8638C343.519 23.5573 343.46 23.2628 343.348 22.9803C339.851 20.6003 331.124 20.2878 329.589 24.2845H329.595Z" fill="#AA662B"/>
            <path fill-rule="evenodd" clip-rule="evenodd" d="M331.479 70.2892C329.143 70.2892 326.918 70.145 324.884 69.8806C324.346 69.8084 324.064 70.4575 324.517 70.728C326.269 71.7798 328.736 72.4409 331.479 72.4409C334.221 72.4409 336.689 71.7858 338.44 70.728C338.893 70.4575 338.611 69.8084 338.073 69.8806C336.039 70.145 333.815 70.2892 331.479 70.2892Z" fill="#5D5446"/>
            <path d="M366.026 68.3438C366.026 78.3567 363.52 83.3871 361.164 85.9054C362.778 91.2604 364.576 95.7019 364.95 97.1504C365.77 100.354 370.501 102.8 364.95 105.853C352.411 108.906 335.148 125.013 331.486 133.301C327.825 141.583 321.992 141.776 321.171 138.242C320.712 142.617 316.546 145.869 311.611 139.937C313.153 149.541 324.203 149.499 330.39 143.164C336.585 136.829 356.774 112.404 387.915 111.977C372.653 95.0348 367.102 73.2901 366.026 68.3498V68.3438Z" fill="#965724"/>
            <path d="M349.759 78.8584C353.919 82.1039 352.377 89.0636 351.76 90.1034C351.143 91.1431 352.456 94.04 356.078 93.2647C359.7 92.4894 364.949 90.0252 365.598 89.2079C365.953 88.7631 365.303 84.3998 364.378 80.1987C361.799 87.7835 357.075 88.3905 357.075 88.3905C357.075 88.3905 362.469 68.1964 344.437 74.1284C326.4 80.0604 319.464 74.1284 314.53 72.9985C313.592 72.7821 312.588 72.698 311.604 72.7821C313.762 73.281 318.539 78.2934 328.25 78.8584C337.961 79.4234 345.592 75.6129 349.752 78.8584H349.759Z" fill="#965724"/>
            <path d="M306.289 113.876C291.801 105.216 285.325 101.453 281.625 92.3418C294.19 79.1375 295.469 69.936 296.191 63.5352C296.191 63.5352 293.107 80.057 278.928 90.6469C283.245 103.07 298.658 112.392 308.835 117.897C319.012 123.402 321.63 133.854 321.164 138.229C321.151 138.355 321.132 138.488 321.112 138.614C324.038 127.651 316.722 120.115 306.289 113.876Z" fill="#965724"/>
            <path d="M303.592 97.7087C301.899 91.7767 307.424 93.9223 309.746 90.3764C312.069 86.8364 308.985 79.3537 311.603 77.5146C314.221 75.6815 312.824 74.4074 309.596 75.3991C309.018 75.5734 308.27 75.2428 307.43 74.5877C305.39 76.565 304.379 80.3394 306.052 86.8364C300.902 83.5128 298.231 77.112 297.017 71.6367C296.499 75.5313 295.593 79.7023 294.032 82.491C290.331 89.0902 285.226 90.0758 288.008 94.4572C290.79 98.8326 297.575 105.895 307.752 110.552C313.454 114.08 305.285 103.635 303.592 97.7027V97.7087Z" fill="#B16C37"/>
            <path d="M298.881 46.0206C301.715 45.8222 305.56 44.3798 309.675 43.5324C309.707 43.4903 309.747 43.4543 309.78 43.4122C313.5 36.1339 315.153 36.8551 329.372 30.6406C308.749 30.6406 299.432 40.3831 298.881 46.0206Z" fill="#BA7546"/>
            <path d="M358.007 41.9906C354.076 40.9268 349.063 42.0026 340.409 46.7266C332.738 50.9157 325.862 45.8852 322.141 44.4127C322.128 44.4127 322.122 44.4067 322.115 44.4007C325.954 46.0895 328.815 48.6799 333.696 49.317C340.888 50.2606 338.572 46.3961 352.758 44.7493C366.169 43.1987 368.637 52.0816 369.87 49.5514C371.058 47.1173 364.109 31.2385 336.813 29.1289C334.969 29.5015 342.299 32.7831 347.994 33.7327C354.313 34.7905 361.931 43.0424 358 41.9786L358.007 41.9906Z" fill="#965724"/>
            <path d="M331.164 24.1972C330.881 24.9424 330.855 25.5014 331.019 25.9341C331.853 26.4209 333.165 26.5051 334.267 26.5652C338.224 26.7755 338.86 26.3548 339.037 23.9568C339.051 23.7825 339.018 23.6142 338.952 23.4579C336.971 22.1117 332.036 21.9314 331.164 24.1972Z" fill="#BA7546"/>
            <path d="M358.526 0.951323C352.719 1.55835 343.304 4.20882 339.426 14.6725C343.546 5.48297 353.54 3.61382 360.56 3.51765C360.265 2.86255 359.662 2.01512 358.526 0.945312V0.951323Z" fill="#BA7546"/>
            <path fill-rule="evenodd" clip-rule="evenodd" d="M315.882 82.3435C320.298 84.2788 333.31 88.7864 347.568 82.5419C347.87 82.4096 348.165 82.7282 347.975 82.9806C343.158 89.4776 341.925 97.5372 331.505 97.5372C321.085 97.5372 321.315 87.8128 315.639 82.6501C315.475 82.4998 315.659 82.2534 315.869 82.3435H315.882Z" fill="#782016"/>
            <path fill-rule="evenodd" clip-rule="evenodd" d="M331.518 96.9742C325.225 96.9742 323.027 92.9954 320.705 88.7823C319.72 86.9913 318.703 85.1582 317.352 83.5655C320.632 84.8096 325.914 86.3061 332.272 86.3061C337.345 86.3061 342.266 85.3445 346.918 83.4453C345.966 84.8276 345.153 86.246 344.359 87.6344C341.491 92.6468 339.011 96.9802 331.518 96.9802V96.9742Z" fill="white"/>
            <path fill-rule="evenodd" clip-rule="evenodd" d="M315.318 62.7092C317.634 62.7092 319.793 62.9015 321.591 63.2261C320.265 62.3486 317.955 61.7656 315.318 61.7656C312.68 61.7656 310.364 62.3486 309.045 63.2261C310.849 62.9015 313.002 62.7092 315.318 62.7092Z" fill="#0B070C"/>
            <path fill-rule="evenodd" clip-rule="evenodd" d="M318.041 61.3205C318.041 61.7893 317.884 62.216 317.608 62.5766C317.398 62.8471 316.578 62.4144 315.725 62.4144C314.806 62.4144 313.855 62.817 313.632 62.4985C313.396 62.1559 313.258 61.7532 313.258 61.3205C313.258 60.1125 314.327 59.1328 315.646 59.1328C316.965 59.1328 318.035 60.1125 318.035 61.3205H318.041Z" fill="#0B070C"/>
            <path fill-rule="evenodd" clip-rule="evenodd" d="M347.785 62.7092C345.468 62.7092 343.31 62.9015 341.512 63.2261C342.837 62.3486 345.147 61.7656 347.785 61.7656C350.422 61.7656 352.738 62.3486 354.057 63.2261C352.253 62.9015 350.101 62.7092 347.785 62.7092Z" fill="#0B070C"/>
            <path fill-rule="evenodd" clip-rule="evenodd" d="M345.061 61.3205C345.061 61.7893 345.218 62.216 345.494 62.5766C345.704 62.8471 346.524 62.4144 347.377 62.4144C348.295 62.4144 349.247 62.817 349.47 62.4985C349.706 62.1559 349.844 61.7532 349.844 61.3205C349.844 60.1125 348.774 59.1328 347.455 59.1328C346.137 59.1328 345.067 60.1125 345.067 61.3205H345.061Z" fill="#0B070C"/>
            <path fill-rule="evenodd" clip-rule="evenodd" d="M339.3 89.2018C337.66 89.5924 333.605 89.9531 332.903 90.0252C332.201 90.0973 331.617 89.917 331.656 89.4182C331.695 88.9193 331.538 87.3807 331.538 87.3807V89.2739C331.538 90.3437 330.993 90.2415 329.274 90.3437C327.555 90.4519 326.19 90.1995 326.111 89.917C326.033 89.6345 326.308 88.4866 326.072 87.3086C326.072 88.2041 325.954 88.9193 325.646 89.8809C324.13 90.0733 322.509 89.9951 321.164 89.8389C323.323 93.6673 325.678 97.027 331.498 97.027C339.044 97.027 341.564 92.6937 344.451 87.6572C342.351 88.4325 340.206 88.9854 339.307 89.2018H339.3Z" fill="#661B0E"/>
            <path d="M392.934 140.859C396.183 136.416 396.58 131.443 393.822 129.751C391.064 128.059 386.195 130.289 382.946 134.732C379.698 139.175 379.3 144.149 382.058 145.841C384.816 147.533 389.686 145.302 392.934 140.859Z" fill="#0B070C"/>
            <path fill-rule="evenodd" clip-rule="evenodd" d="M384.79 142.003C384.993 142.147 387.513 145.687 391.902 150.339C395.872 149.365 400.701 151.252 400.334 146.961C396.076 141.221 392.421 135.434 391.01 132.008C385.512 133.871 384.783 141.997 384.783 141.997L384.79 142.003Z" fill="#FCD1C3"/>
            <path d="M416.523 163.891C416.437 164.066 416.444 164.054 416.523 163.891V163.891Z" fill="#ECBCA8"/>
            <path d="M391.019 132.012C388.079 133.009 386.504 135.792 385.678 138.172C388.092 136.7 389.779 135.678 392.797 140.011C393.919 141.622 396.019 144.982 398.761 148.702C401.432 149.904 403.197 151.286 400.546 147.241C396.202 141.412 392.456 135.498 391.019 132.018V132.012Z" fill="#ECBCA8"/>
            <path fill-rule="evenodd" clip-rule="evenodd" d="M398.287 146.2C392.015 149.433 383.176 154.74 375.88 162.114C375.88 162.114 375.88 162.126 375.867 162.138C375.65 162.361 375.427 162.583 375.211 162.806C375.007 162.902 374.778 162.914 374.541 162.709C372.52 160.756 370.099 160.918 367.829 160.696C368.045 162.782 367.665 163.683 365.185 164.789C365.204 164.777 365.224 164.777 365.244 164.765C362.37 165.829 361.11 167.68 360.191 168.822C358.643 170.751 359.187 175.956 365.552 178.636C371.923 181.323 376.293 176.328 377.212 167.157C380.486 163.31 391.339 157.763 401.863 153.874C406.863 152.023 404.606 150.166 398.301 146.188L398.287 146.2Z" fill="#FCD1C3"/>
            <path fill-rule="evenodd" clip-rule="evenodd" d="M367.869 160.963C367.869 160.963 367.849 160.951 367.843 160.945C368 162.857 367.554 163.728 365.172 164.792C365.192 164.78 365.212 164.78 365.231 164.768C362.357 165.832 361.097 167.683 360.179 168.825C359.142 170.111 359.044 172.863 360.986 175.346C358.42 168.662 363.525 168.518 367.324 166.775C370.08 165.513 370.106 164.167 370.27 163.013C370.435 161.859 369.129 161.558 367.869 160.957V160.963Z" fill="#ECBCA8"/>
            <path d="M403.412 153.404C408.393 151.505 400.565 147.424 395.965 140.723C395.276 141.089 395.388 142.363 394.64 142.778C394.659 142.796 397.12 147.4 399.804 150.339C402.303 153.08 398.458 154.816 389.443 158.573C380.434 162.329 377.311 167.3 377.311 167.3C380.539 163.423 392.934 157.395 403.412 153.404Z" fill="#ECBCA8"/>
            <path fill-rule="evenodd" clip-rule="evenodd" d="M371.55 166.878C369.011 167.527 367.108 169.588 366.235 170.796C365.363 172.004 371.183 173.201 372.357 175.13C373.532 177.059 376.688 165.568 371.55 166.878Z" fill="#FBDDD5"/>
            <path fill-rule="evenodd" clip-rule="evenodd" d="M378.55 161.838C379.81 161.021 382.835 158.953 385.066 157.318C387.297 155.684 384.456 156.399 388.517 154.211C392.579 152.023 393.714 151.368 395.309 150.28C396.91 149.193 398.196 149.932 398.596 150.299C398.996 150.665 399.757 151.236 398.511 151.597C397.264 151.957 396.752 152.588 393.714 153.67C390.676 154.752 389.331 154.776 388.412 155.822C387.494 156.868 385.027 158.683 384.521 159.115C384.016 159.548 377.487 162.529 378.55 161.832V161.838Z" fill="#FBDDD5"/>
            <path d="M297.883 125.946L297.863 126.126L294.891 130.832L293.415 130.7L291.512 125.555L291.531 125.375L292.837 125.495L294.274 129.624L296.571 125.832L297.876 125.952L297.883 125.946Z" fill="white"/>
            <path d="M301.197 124.595L301.138 125.154L297.988 124.866L298.047 124.349L299.642 123.712C299.858 123.628 300.016 123.555 300.121 123.495C300.226 123.441 300.298 123.387 300.337 123.333C300.377 123.279 300.403 123.219 300.409 123.141V123.099C300.429 122.972 300.377 122.87 300.259 122.792C300.14 122.714 299.963 122.666 299.727 122.642C299.478 122.618 299.281 122.642 299.143 122.708C299.005 122.774 298.927 122.882 298.913 123.033V123.123L298.192 123.057L298.205 122.966C298.244 122.63 298.395 122.383 298.664 122.233C298.933 122.083 299.301 122.023 299.773 122.071C300.245 122.119 300.587 122.227 300.829 122.42C301.072 122.606 301.177 122.852 301.144 123.141V123.183C301.125 123.327 301.079 123.453 301 123.561C300.921 123.67 300.803 123.772 300.639 123.874C300.475 123.976 300.252 124.078 299.963 124.199L299.366 124.439L301.197 124.607V124.595Z" fill="white"/>
            <path d="M300.029 126.139L299.287 132.991L288.638 132.023L289.688 122.281L297.011 122.948L297.109 122.04L288.802 121.289L287.549 132.835L300.173 133.989L301.013 126.229L300.029 126.139Z" fill="white"/>
            <path fill-rule="evenodd" clip-rule="evenodd" d="M239.827 59.7051C239.827 59.7051 237.058 46.7412 232.34 38.1947C227.623 29.6483 225.674 26.5471 229.571 24.8582C233.469 23.1694 237.675 30.2133 239.722 37.9123C239.21 24.7621 239.827 18.7519 244.952 19.2207C250.076 19.6895 248.436 27.2022 247.209 32.3709C245.975 37.5396 246.185 45.425 247.104 47.21C248.029 48.995 253.77 53.2201 251.513 56.135C249.256 59.0439 244.538 64.5913 239.82 59.7051H239.827Z" fill="#FCD1C5"/>
            <path fill-rule="evenodd" clip-rule="evenodd" d="M239.827 59.7022C244.545 64.5884 249.263 59.0471 251.52 56.1322C253.777 53.2232 248.036 48.9921 247.111 47.2071C246.185 45.4221 245.982 37.5308 247.216 32.368C248.39 27.4397 249.932 20.3838 245.621 19.332C247.104 21.0449 246.186 22.6016 245.575 24.1041C244.959 25.6066 245.47 32.2779 245.162 35.6616C244.854 39.0453 243.213 42.423 242.701 43.6911C242.19 44.9593 240.648 47.9644 237.472 49.7494C237.367 49.8095 237.268 49.8756 237.17 49.9477C238.889 55.3088 239.827 59.7082 239.827 59.7082V59.7022Z" fill="#ECBCAA"/>
            <path d="M271.391 104.126C272.791 97.883 271.65 92.394 268.842 91.8656C266.034 91.3372 262.623 95.9695 261.223 102.212C259.823 108.455 260.964 113.944 263.771 114.472C266.579 115.001 269.991 110.368 271.391 104.126Z" fill="#080608"/>
            <path fill-rule="evenodd" clip-rule="evenodd" d="M240.85 62.9459C240.85 63.6131 242.005 99.0849 268.54 107.962C271.978 102.499 270.318 96.3503 269.76 94.9379C262.378 93.808 250.548 87.1788 244.544 66.2575C250.62 65.8368 255.233 60.4097 254.616 53.504C253.999 46.5983 250.384 43.2868 243.54 45.4023C239.774 46.8087 238.698 49.6996 242.772 51.3223C246.244 52.6986 247.202 52.344 248.599 52.4703C248.999 52.5063 249.242 52.903 249.052 53.2275C246.939 56.8156 240.85 61.9002 240.85 62.952V62.9459Z" fill="#FCD1C5"/>
            <path fill-rule="evenodd" clip-rule="evenodd" d="M269.852 97.4209C269.622 100.192 266.978 101.592 264.182 100.504C251.788 95.702 245.915 81.0072 244.235 74.9189C242.392 68.2477 242.798 66.3725 244.025 63.5057C244.668 62.0091 243.717 61.2218 242.542 60.7109C241.545 61.7747 240.85 62.5861 240.85 62.9407C240.85 63.6078 242.004 99.0797 268.539 107.957C271.978 102.493 270.317 96.3451 269.76 94.9327C269.845 95.8162 269.93 96.5795 269.858 97.4149L269.852 97.4209Z" fill="#ECBCAA"/>
            <path fill-rule="evenodd" clip-rule="evenodd" d="M240.594 45.2383C240.647 44.8176 240.935 44.487 239.715 37.6775C239.715 37.7557 239.715 37.8278 239.721 37.9119C237.878 30.9943 234.302 24.6115 230.771 24.6055C232.655 25.9397 236.152 31.6674 237.169 36.3613C238.186 41.0552 237.661 43.8259 237.418 43.874C238.088 45.6169 240.548 45.659 240.601 45.2383H240.594Z" fill="#ECBCAA"/>
            <path fill-rule="evenodd" clip-rule="evenodd" d="M243.987 59.2118C244.577 59.1878 242.477 65.6667 243.304 65.4744C248.691 64.2123 251.204 53.0334 250.922 51.8314C250.64 50.6233 249.662 49.4694 245.41 49.7519C241.165 50.0343 242.333 46.6086 243.186 45.5508C239.708 47.0052 238.823 49.7519 242.766 51.3205C246.237 52.6968 247.195 52.3422 248.593 52.4685C248.993 52.5045 249.236 52.9012 249.046 53.2257C247.956 55.0769 245.811 57.3247 243.987 59.2118Z" fill="#ECBCAA"/>
            <path fill-rule="evenodd" clip-rule="evenodd" d="M245.542 44.7704C245.542 44.7704 237.465 41.8074 233.929 45.6839C230.392 49.5605 229.086 61.0398 233.929 64.4235C238.771 67.8073 244.466 65.6917 245.542 63.6482C246.619 61.6048 248.718 55.4324 246.081 53.5031C243.443 51.5739 237.544 47.7995 245.542 44.7704Z" fill="#FCD1C5"/>
            <path fill-rule="evenodd" clip-rule="evenodd" d="M246.079 53.5028C245.745 53.2624 245.364 52.9859 244.964 52.6914C246.125 53.5989 245.725 53.8754 246.027 55.5102C246.335 57.1449 246.132 59.7473 241.821 63.0349C237.517 66.3164 232.294 61.6826 231.119 59.5911C231.572 61.6465 232.464 63.4015 233.927 64.4172C238.77 67.8009 244.465 65.6853 245.541 63.6419C246.617 61.5984 248.717 55.426 246.079 53.4968V53.5028Z" fill="#ECBCAA"/>
            <path fill-rule="evenodd" clip-rule="evenodd" d="M238.58 43.1833C238.462 43.1833 237.825 43.5079 237.412 43.8745C237.005 44.2411 240.719 44.734 242.149 46.7954C243.626 45.6535 246.04 44.5236 246.04 44.5236C246.04 44.5236 244.774 42.1256 244.347 42.378C243.927 42.6244 243.383 42.8348 242.694 43.4718C242.005 44.1029 240.581 43.6822 240.384 43.1894C240.194 42.6965 238.58 43.1894 238.58 43.1894V43.1833Z" fill="#ECBCAA"/>
            <path fill-rule="evenodd" clip-rule="evenodd" d="M230.063 26.6546C229.65 26.1858 228.895 28.3916 229.151 29.0887C229.407 29.7919 232.209 36.1627 233.449 36.6615C234.689 37.1604 232.281 29.1548 230.063 26.6546Z" fill="#FBDDD6"/>
            <path fill-rule="evenodd" clip-rule="evenodd" d="M241.71 26.591C242.327 24.4634 241.67 22.0413 243.206 21.4282C244.741 20.8212 244.643 22.3237 244.131 23.5438C243.619 24.7639 243.206 25.7976 242.596 28.0514C241.979 30.3052 241.979 34.4102 241.362 35.0352C240.745 35.6603 240.214 31.7537 241.71 26.591Z" fill="#FBDDD6"/>
            <path fill-rule="evenodd" clip-rule="evenodd" d="M235.903 47.4245C236.9 46.7454 238.731 46.6973 239.354 48.4042C239.977 50.1111 240.168 51.0126 239.079 52.4791C237.983 53.9455 236.874 53.2904 236.651 55.0995C236.421 56.9085 236.52 57.9363 236.323 59.0842C236.126 60.2321 233.652 61.2839 233.547 60.16C233.436 59.0361 233.39 49.1374 235.909 47.4245H235.903Z" fill="#FBDDD6"/>
            <path d="M100.126 221.82H44.8516V230.367H100.126V221.82Z" fill="#77797D" stroke="white" stroke-linecap="round" stroke-linejoin="round"/>
            <path d="M155.401 221.82H100.127V230.367H155.401V221.82Z" fill="#77797D" stroke="white" stroke-linecap="round" stroke-linejoin="round"/>
            <path d="M210.681 221.82H155.406V230.367H210.681V221.82Z" fill="#77797D" stroke="white" stroke-linecap="round" stroke-linejoin="round"/>
            <path d="M100.126 213.273H44.8516V221.82H100.126V213.273Z" fill="#77797D" stroke="white" stroke-linecap="round" stroke-linejoin="round"/>
            <path d="M155.401 213.273H100.127V221.82H155.401V213.273Z" fill="#77797D" stroke="white" stroke-linecap="round" stroke-linejoin="round"/>
            <path d="M210.681 213.273H155.406V221.82H210.681V213.273Z" fill="#77797D" stroke="white" stroke-linecap="round" stroke-linejoin="round"/>
            <path d="M100.126 204.73H44.8516V213.277H100.126V204.73Z" fill="#77797D" stroke="white" stroke-linecap="round" stroke-linejoin="round"/>
            <path d="M155.401 204.73H100.127V213.277H155.401V204.73Z" fill="#77797D" stroke="white" stroke-linecap="round" stroke-linejoin="round"/>
            <path d="M210.681 204.73H155.406V213.277H210.681V204.73Z" fill="#77797D" stroke="white" stroke-linecap="round" stroke-linejoin="round"/>
            <path d="M237.662 184.91H195.465V191.437H237.662V184.91Z" fill="#77797D" stroke="white" stroke-width="0.76" stroke-linecap="round" stroke-linejoin="round"/>
            <path d="M237.662 178.391H195.465V184.918H237.662V178.391Z" fill="#77797D" stroke="white" stroke-width="0.76" stroke-linecap="round" stroke-linejoin="round"/>
            <path d="M237.662 171.867H195.465V178.394H237.662V171.867Z" fill="#77797D" stroke="white" stroke-width="0.76" stroke-linecap="round" stroke-linejoin="round"/>
            <path d="M100.126 204.731H44.8516L111.071 171.867H153.268L100.126 204.731Z" fill="#BEC1C3" stroke="white" stroke-linecap="round" stroke-linejoin="round"/>
            <path d="M155.408 204.731H100.127L153.269 171.867H195.466L155.408 204.731Z" fill="#BEC1C3" stroke="white" stroke-linecap="round" stroke-linejoin="round"/>
            <path d="M210.681 204.731H155.406L195.464 171.867H237.662L210.681 204.731Z" fill="#BEC1C3" stroke="white" stroke-linecap="round" stroke-linejoin="round"/>
            <path d="M210.682 230.365L237.663 191.437V184.91L210.682 221.818V230.365Z" fill="#77797D" stroke="white" stroke-linecap="round" stroke-linejoin="round"/>
            <path d="M210.682 221.82L237.663 184.912V178.391L210.682 213.273V221.82Z" fill="#77797D" stroke="white" stroke-linecap="round" stroke-linejoin="round"/>
            <path d="M210.682 213.277L237.663 178.394V171.867L210.682 204.731V213.277Z" fill="#77797D" stroke="white" stroke-linecap="round" stroke-linejoin="round"/>
            <path d="M127.763 196.18H72.4883V204.726H127.763V196.18Z" fill="#77797D" stroke="white" stroke-linecap="round" stroke-linejoin="round"/>
            <path d="M183.044 196.18H127.77V204.726H183.044V196.18Z" fill="#77797D" stroke="white" stroke-linecap="round" stroke-linejoin="round"/>
            <path d="M127.769 196.182H72.4883L132.172 165.344H174.369L127.769 196.182Z" fill="#BEC1C3" stroke="white" stroke-linecap="round" stroke-linejoin="round"/>
            <path d="M216.566 171.865L183.043 204.728V196.182L216.566 165.344V171.865Z" fill="#77797D" stroke="white" stroke-linecap="round" stroke-linejoin="round"/>
            <path d="M216.567 165.344H174.37L127.77 196.182H183.044L216.567 165.344Z" fill="#BEC1C3" stroke="white" stroke-linecap="round" stroke-linejoin="round"/>
            <path d="M537.57 193.086L531.586 228.942C531.586 231.286 522.301 233.186 510.851 233.186C499.401 233.186 490.117 231.286 490.117 228.942L484.133 193.086H537.57Z" fill="#BEC1C3" stroke="white" stroke-width="0.77" stroke-linecap="round" stroke-linejoin="round"/>
            <path d="M484.244 190.875C484.244 188.543 496.206 186.656 510.963 186.656C525.72 186.656 537.681 188.543 537.681 190.875V193.189C537.681 195.521 525.72 197.408 510.963 197.408C496.206 197.408 484.244 195.521 484.244 193.189V190.875Z" fill="#77797D" stroke="white" stroke-width="0.77" stroke-linecap="round" stroke-linejoin="round"/>
            <path d="M537.681 190.875C537.681 193.207 525.72 195.094 510.963 195.094C496.206 195.094 484.244 193.207 484.244 190.875" stroke="white" stroke-width="0.87" stroke-linecap="round" stroke-linejoin="round"/>
            <path d="M483.812 193.086L477.828 228.942C477.828 231.286 468.543 233.186 457.094 233.186C445.644 233.186 436.359 231.286 436.359 228.942L430.375 193.086H483.812Z" fill="#BEC1C3" stroke="white" stroke-width="0.77" stroke-linecap="round" stroke-linejoin="round"/>
            <path d="M430.486 190.875C430.486 188.543 442.448 186.656 457.205 186.656C471.962 186.656 483.923 188.543 483.923 190.875V193.189C483.923 195.521 471.962 197.408 457.205 197.408C442.448 197.408 430.486 195.521 430.486 193.189V190.875Z" fill="#77797D" stroke="white" stroke-width="0.77" stroke-linecap="round" stroke-linejoin="round"/>
            <path d="M483.923 190.875C483.923 193.207 471.962 195.094 457.205 195.094C442.448 195.094 430.486 193.207 430.486 190.875" stroke="white" stroke-width="0.87" stroke-linecap="round" stroke-linejoin="round"/>
            <path d="M510.912 152.965L504.928 188.821C504.928 191.165 495.643 193.065 484.193 193.065C472.743 193.065 463.459 191.165 463.459 188.821L457.475 152.965H510.912Z" fill="#BEC1C3" stroke="white" stroke-width="0.77" stroke-linecap="round" stroke-linejoin="round"/>
            <path d="M457.586 150.75C457.586 148.418 469.548 146.531 484.304 146.531C499.061 146.531 511.023 148.418 511.023 150.75V153.064C511.023 155.396 499.061 157.283 484.304 157.283C469.548 157.283 457.586 155.396 457.586 153.064V150.75Z" fill="#77797D" stroke="white" stroke-width="0.77" stroke-linecap="round" stroke-linejoin="round"/>
            <path d="M511.023 150.75C511.023 153.082 499.061 154.969 484.304 154.969C469.548 154.969 457.586 153.082 457.586 150.75" stroke="white" stroke-width="0.87" stroke-linecap="round" stroke-linejoin="round"/>
        </g>
    </g>
    <defs>
        <linearGradient id="paint0_linear_4380_51203" x1="0" y1="227.296" x2="846.995" y2="227.296" gradientUnits="userSpaceOnUse">
            <stop stop-color="white"/>
            <stop offset="1" stop-color="#82735E"/>
        </linearGradient>
        <clipPath id="clip0_4380_51203">
            <rect width="628" height="292" fill="white"/>
        </clipPath>
        <clipPath id="clip1_4380_51203">
            <rect width="847" height="81.4237" fill="white" transform="translate(0 186.582)"/>
        </clipPath>
        <clipPath id="clip2_4380_51203">
            <rect width="506.372" height="266.742" fill="white" transform="translate(44.8516)"/>
        </clipPath>
    </defs>
</svg>
