<svg width="954" height="305" viewBox="0 0 954 305" fill="none" xmlns="http://www.w3.org/2000/svg">
    <g clip-path="url(#clip0_4308_40556)">
        <g clip-path="url(#clip1_4308_40556)">
            <path d="M133.139 0.800781L265.29 46.3208H481.635V199.841H265.29H133.139H0.988281V46.3208L133.139 0.800781Z" fill="#E1E2E4"/>
            <path d="M394.802 87.1602L469.135 87.1602V61.6602L394.802 61.6602V87.1602Z" fill="#62CCED"/>
            <path d="M419.061 61.6719L394.812 85.9419V76.0719L409.2 61.6719H419.061Z" fill="#9ED8E7"/>
            <path d="M422.029 87.1619H412.178L437.645 61.6719H447.506L422.029 87.1619Z" fill="#9ED8E7"/>
            <path d="M406.082 87.1619H402.955L428.432 61.6719H431.559L406.082 87.1619Z" fill="#9ED8E7"/>
            <path d="M434.676 87.1619H431.549L457.016 61.6719H460.153L434.676 87.1619Z" fill="#9ED8E7"/>
            <path d="M469.136 67.8633V77.7333L459.715 87.1633H449.854L469.136 67.8633Z" fill="#9ED8E7"/>
            <path d="M431.979 87.1602H450.562V61.6602H431.979V87.1602Z" stroke="#E1E2E4" stroke-width="0.38" stroke-miterlimit="10"/>
            <path d="M413.395 87.1602H431.979V61.6602H413.395V87.1602Z" stroke="#E1E2E4" stroke-width="0.38" stroke-miterlimit="10"/>
            <path d="M394.804 87.1602H413.387V61.6602H394.804V87.1602Z" stroke="#E1E2E4" stroke-width="0.38" stroke-miterlimit="10"/>
            <path d="M450.563 87.1602H469.146V61.6602H450.563V87.1602Z" stroke="#E1E2E4" stroke-width="0.38" stroke-miterlimit="10"/>
            <path d="M394.804 199.832H469.137V130.682H394.804V199.832Z" fill="#3C3E41"/>
            <path d="M468.667 131.172H395.293V141.732H468.667V131.172Z" fill="#494A4E"/>
            <path d="M468.177 131.651V141.251H395.772V131.651H468.177ZM469.136 130.691H394.803V142.211H469.136V130.691Z" fill="#3C3E41"/>
            <path d="M468.667 142.691H395.293V153.251H468.667V142.691Z" fill="#494A4E"/>
            <path d="M468.177 143.171V152.771H395.772V143.171H468.177ZM469.136 142.211H394.803V153.731H469.136V142.211Z" fill="#3C3E41"/>
            <path d="M468.667 154.223H395.293V164.783H468.667V154.223Z" fill="#494A4E"/>
            <path d="M468.177 154.702V164.302H395.772V154.702H468.177ZM469.136 153.742H394.803V165.262H469.136V153.742Z" fill="#3C3E41"/>
            <path d="M468.667 165.742H395.293V176.302H468.667V165.742Z" fill="#494A4E"/>
            <path d="M468.177 166.222V175.822H395.772V166.222H468.177ZM469.136 165.262H394.803V176.782H469.136V165.262Z" fill="#3C3E41"/>
            <path d="M468.667 177.27H395.293V187.83H468.667V177.27Z" fill="#494A4E"/>
            <path d="M468.177 177.749V187.349H395.772V177.749H468.177ZM469.136 176.789H394.803V188.309H469.136V176.789Z" fill="#3C3E41"/>
            <path d="M468.667 188.793H395.293V199.353H468.667V188.793Z" fill="#494A4E"/>
            <path d="M468.177 189.273V198.872H395.772V189.273H468.177ZM469.136 188.312H394.803V199.833H469.136V188.312Z" fill="#3C3E41"/>
            <path d="M284.843 199.832H359.176V130.682H284.843V199.832Z" fill="#3C3E41"/>
            <path d="M0.988281 49.3498L133.139 3.83984L265.29 49.3498H481.635" stroke="#CFD0D2" stroke-width="6.07" stroke-miterlimit="10"/>
            <path d="M116.163 199.84H145.027V158.29H116.163V199.84Z" fill="#8E9195" stroke="#E1E2E4" stroke-width="1.52" stroke-miterlimit="10"/>
            <path d="M130.592 199.841V158.281" stroke="#E1E2E4" stroke-width="1.52" stroke-miterlimit="10"/>
            <path d="M0.988281 46.3208L133.139 0.800781L265.29 46.3208H481.635" stroke="#353739" stroke-width="1.52" stroke-miterlimit="10"/>
            <path d="M394.802 121.93L469.135 121.93V96.4297L394.802 96.4297V121.93Z" fill="#62CCED"/>
            <path d="M419.061 96.4414L394.812 120.711V110.841L409.2 96.4414H419.061Z" fill="#9ED8E7"/>
            <path d="M422.029 121.931H412.178L437.645 96.4414H447.506L422.029 121.931Z" fill="#9ED8E7"/>
            <path d="M406.082 121.931H402.955L428.432 96.4414H431.559L406.082 121.931Z" fill="#9ED8E7"/>
            <path d="M434.676 121.931H431.549L457.016 96.4414H460.153L434.676 121.931Z" fill="#9ED8E7"/>
            <path d="M469.136 102.633V112.503L459.715 121.933H449.854L469.136 102.633Z" fill="#9ED8E7"/>
            <path d="M431.979 121.93H450.562V96.4297H431.979V121.93Z" stroke="#E1E2E4" stroke-width="0.38" stroke-miterlimit="10"/>
            <path d="M413.395 121.93H431.979V96.4297H413.395V121.93Z" stroke="#E1E2E4" stroke-width="0.38" stroke-miterlimit="10"/>
            <path d="M394.804 121.93H413.387V96.4297H394.804V121.93Z" stroke="#E1E2E4" stroke-width="0.38" stroke-miterlimit="10"/>
            <path d="M450.563 121.93H469.146V96.4297H450.563V121.93Z" stroke="#E1E2E4" stroke-width="0.38" stroke-miterlimit="10"/>
            <path d="M284.841 87.1602L359.174 87.1602V61.6602L284.841 61.6602V87.1602Z" fill="#62CCED"/>
            <path d="M309.09 61.6719L284.842 85.9419V76.0719L299.229 61.6719H309.09Z" fill="#9ED8E7"/>
            <path d="M312.058 87.1619H302.207L327.674 61.6719H337.535L312.058 87.1619Z" fill="#9ED8E7"/>
            <path d="M296.122 87.1619H292.984L318.461 61.6719H321.589L296.122 87.1619Z" fill="#9ED8E7"/>
            <path d="M324.705 87.1619H321.578L347.055 61.6719H350.182L324.705 87.1619Z" fill="#9ED8E7"/>
            <path d="M359.175 67.8633V77.7333L349.744 87.1633H339.883L359.175 67.8633Z" fill="#9ED8E7"/>
            <path d="M322.009 87.1602H340.592V61.6602H322.009V87.1602Z" stroke="#E1E2E4" stroke-width="0.38" stroke-miterlimit="10"/>
            <path d="M303.425 87.1602H322.008V61.6602H303.425V87.1602Z" stroke="#E1E2E4" stroke-width="0.38" stroke-miterlimit="10"/>
            <path d="M284.843 87.1602H303.426V61.6602H284.843V87.1602Z" stroke="#E1E2E4" stroke-width="0.38" stroke-miterlimit="10"/>
            <path d="M340.581 87.1602H359.164V61.6602H340.581V87.1602Z" stroke="#E1E2E4" stroke-width="0.38" stroke-miterlimit="10"/>
            <path d="M284.841 121.93L359.174 121.93V96.4297L284.841 96.4297V121.93Z" fill="#62CCED"/>
            <path d="M309.09 96.4414L284.842 120.711V110.841L299.229 96.4414H309.09Z" fill="#9ED8E7"/>
            <path d="M312.058 121.931H302.207L327.674 96.4414H337.535L312.058 121.931Z" fill="#9ED8E7"/>
            <path d="M296.122 121.931H292.984L318.461 96.4414H321.589L296.122 121.931Z" fill="#9ED8E7"/>
            <path d="M324.705 121.931H321.578L347.055 96.4414H350.182L324.705 121.931Z" fill="#9ED8E7"/>
            <path d="M359.175 102.633V112.503L349.744 121.933H339.883L359.175 102.633Z" fill="#9ED8E7"/>
            <path d="M322.009 121.93H340.592V96.4297H322.009V121.93Z" stroke="#E1E2E4" stroke-width="0.38" stroke-miterlimit="10"/>
            <path d="M303.425 121.93H322.008V96.4297H303.425V121.93Z" stroke="#E1E2E4" stroke-width="0.38" stroke-miterlimit="10"/>
            <path d="M284.843 121.93H303.426V96.4297H284.843V121.93Z" stroke="#E1E2E4" stroke-width="0.38" stroke-miterlimit="10"/>
            <path d="M340.581 121.93H359.164V96.4297H340.581V121.93Z" stroke="#E1E2E4" stroke-width="0.38" stroke-miterlimit="10"/>
            <path d="M174.091 94.7383L236.295 94.7383V54.0983L174.091 54.0983V94.7383Z" fill="#62CCED"/>
            <path d="M194.384 54.0898L174.082 92.7898V77.0598L186.131 54.0898H194.384Z" fill="#9ED8E7"/>
            <path d="M196.872 94.7398H188.619L209.94 54.0898H218.182L196.872 94.7398Z" fill="#9ED8E7"/>
            <path d="M183.524 94.7398H180.906L202.227 54.0898H204.845L183.524 94.7398Z" fill="#9ED8E7"/>
            <path d="M207.452 94.7398H204.834L226.145 54.0898H228.772L207.452 94.7398Z" fill="#9ED8E7"/>
            <path d="M236.296 63.9688V79.6987L228.403 94.7387H220.15L236.296 63.9688Z" fill="#9ED8E7"/>
            <path d="M205.184 94.7383H220.74V54.0983H205.184V94.7383Z" stroke="#E1E2E4" stroke-width="0.44" stroke-miterlimit="10"/>
            <path d="M189.637 94.7383H205.193V54.0983H189.637V94.7383Z" stroke="#E1E2E4" stroke-width="0.44" stroke-miterlimit="10"/>
            <path d="M174.083 94.7383H189.639V54.0983H174.083V94.7383Z" stroke="#E1E2E4" stroke-width="0.44" stroke-miterlimit="10"/>
            <path d="M220.739 94.7383H236.295V54.0983H220.739V94.7383Z" stroke="#E1E2E4" stroke-width="0.44" stroke-miterlimit="10"/>
            <path d="M100.958 94.7383L163.162 94.7383V54.0983L100.958 54.0983V94.7383Z" fill="#62CCED"/>
            <path d="M121.251 54.0898L100.959 92.7898V77.0598L113.008 54.0898H121.251Z" fill="#9ED8E7"/>
            <path d="M123.739 94.7398H115.496L136.807 54.0898H145.059L123.739 94.7398Z" fill="#9ED8E7"/>
            <path d="M110.401 94.7398H107.773L129.094 54.0898H131.712L110.401 94.7398Z" fill="#9ED8E7"/>
            <path d="M134.329 94.7398H131.701L153.022 54.0898H155.64L134.329 94.7398Z" fill="#9ED8E7"/>
            <path d="M163.163 63.9688V79.6987L155.28 94.7387H147.027L163.163 63.9688Z" fill="#9ED8E7"/>
            <path d="M132.061 94.7383H147.617V54.0983H132.061V94.7383Z" stroke="#E1E2E4" stroke-width="0.44" stroke-miterlimit="10"/>
            <path d="M116.505 94.7383H132.061V54.0983H116.505V94.7383Z" stroke="#E1E2E4" stroke-width="0.44" stroke-miterlimit="10"/>
            <path d="M100.96 94.7383H116.516V54.0983H100.96V94.7383Z" stroke="#E1E2E4" stroke-width="0.44" stroke-miterlimit="10"/>
            <path d="M147.606 94.7383H163.162V54.0983H147.606V94.7383Z" stroke="#E1E2E4" stroke-width="0.44" stroke-miterlimit="10"/>
            <path d="M27.8332 94.7383L90.0371 94.7383V54.0983L27.8332 54.0983L27.8332 94.7383Z" fill="#62CCED"/>
            <path d="M48.1257 54.0898L27.834 92.7898V77.0598L39.8731 54.0898H48.1257Z" fill="#9ED8E7"/>
            <path d="M50.6139 94.7398H42.3613L63.6821 54.0898H71.9346L50.6139 94.7398Z" fill="#9ED8E7"/>
            <path d="M37.2661 94.7398H34.6484L55.9692 54.0898H58.5868L37.2661 94.7398Z" fill="#9ED8E7"/>
            <path d="M61.1938 94.7398H58.5762L79.8969 54.0898H82.5146L61.1938 94.7398Z" fill="#9ED8E7"/>
            <path d="M90.0378 63.9688V79.6987L82.1449 94.7387H73.9023L90.0378 63.9688Z" fill="#9ED8E7"/>
            <path d="M58.9265 94.7383H74.4824V54.0983H58.9265L58.9265 94.7383Z" stroke="#E1E2E4" stroke-width="0.44" stroke-miterlimit="10"/>
            <path d="M43.3796 94.7383H58.9355L58.9355 54.0983H43.3796L43.3796 94.7383Z" stroke="#E1E2E4" stroke-width="0.44" stroke-miterlimit="10"/>
            <path d="M27.8249 94.7383H43.3809L43.3809 54.0983H27.8249L27.8249 94.7383Z" stroke="#E1E2E4" stroke-width="0.44" stroke-miterlimit="10"/>
            <path d="M74.4811 94.7383H90.0371V54.0983H74.4811V94.7383Z" stroke="#E1E2E4" stroke-width="0.44" stroke-miterlimit="10"/>
            <path d="M174.091 167.062H236.295V126.423H174.091V167.062Z" fill="#62CCED"/>
            <path d="M194.384 126.422L174.082 165.112V149.382L186.131 126.422H194.384Z" fill="#9ED8E7"/>
            <path d="M196.872 167.062H188.619L209.94 126.422H218.182L196.872 167.062Z" fill="#9ED8E7"/>
            <path d="M183.524 167.062H180.906L202.227 126.422H204.845L183.524 167.062Z" fill="#9ED8E7"/>
            <path d="M207.452 167.062H204.834L226.145 126.422H228.772L207.452 167.062Z" fill="#9ED8E7"/>
            <path d="M236.296 136.293V152.023L228.403 167.063H220.15L236.296 136.293Z" fill="#9ED8E7"/>
            <path d="M205.184 167.062H220.74V126.423H205.184V167.062Z" stroke="#E1E2E4" stroke-width="0.44" stroke-miterlimit="10"/>
            <path d="M189.637 167.062H205.193V126.423H189.637V167.062Z" stroke="#E1E2E4" stroke-width="0.44" stroke-miterlimit="10"/>
            <path d="M174.083 167.062H189.639V126.423H174.083V167.062Z" stroke="#E1E2E4" stroke-width="0.44" stroke-miterlimit="10"/>
            <path d="M220.739 167.062H236.295V126.423H220.739V167.062Z" stroke="#E1E2E4" stroke-width="0.44" stroke-miterlimit="10"/>
            <path d="M27.8332 167.062H90.0371V126.423H27.8332L27.8332 167.062Z" fill="#62CCED"/>
            <path d="M48.1257 126.422L27.834 165.112V149.382L39.8731 126.422H48.1257Z" fill="#9ED8E7"/>
            <path d="M50.6139 167.062H42.3613L63.6821 126.422H71.9346L50.6139 167.062Z" fill="#9ED8E7"/>
            <path d="M37.2661 167.062H34.6484L55.9692 126.422H58.5868L37.2661 167.062Z" fill="#9ED8E7"/>
            <path d="M61.1938 167.062H58.5762L79.8969 126.422H82.5146L61.1938 167.062Z" fill="#9ED8E7"/>
            <path d="M90.0378 136.293V152.023L82.1449 167.063H73.9023L90.0378 136.293Z" fill="#9ED8E7"/>
            <path d="M58.9265 167.062H74.4824V126.423H58.9265L58.9265 167.062Z" stroke="#E1E2E4" stroke-width="0.44" stroke-miterlimit="10"/>
            <path d="M43.3796 167.062H58.9355L58.9355 126.423H43.3796L43.3796 167.062Z" stroke="#E1E2E4" stroke-width="0.44" stroke-miterlimit="10"/>
            <path d="M27.8249 167.062H43.3809L43.3809 126.423H27.8249L27.8249 167.062Z" stroke="#E1E2E4" stroke-width="0.44" stroke-miterlimit="10"/>
            <path d="M74.4811 167.062H90.0371V126.423H74.4811V167.062Z" stroke="#E1E2E4" stroke-width="0.44" stroke-miterlimit="10"/>
            <path d="M166.09 139.289H100.959V144.289H166.09V139.289Z" fill="#8E9195"/>
            <path opacity="0.28" d="M199.07 199.839H132.94L100.959 139.289H167.089L199.07 199.839Z" fill="#8E9195"/>
            <path d="M542.999 205.44H0.988281V199.84H481.635L542.999 205.44Z" fill="#EDEDED"/>
        </g>
        <g clip-path="url(#clip2_4308_40556)">
            <path d="M859.511 273.183H655.802L601.225 250.293H804.933L859.511 273.183Z" fill="#E8E7E7"/>
            <path d="M829.767 247.047H608.768V252.613H829.767V247.047Z" fill="#B7AE70"/>
            <path d="M836.012 258.035H646.674V263.386H836.012V258.035Z" fill="#B7AE70"/>
            <path d="M798.106 247.047H612.584V249.368H798.106V247.047Z" fill="#CCC48D"/>
            <path d="M722.439 258.717L729.983 261.039V250.463L722.439 248.133V258.717Z" fill="#B7AE70"/>
            <path d="M813.041 258.717L820.584 261.039V250.463L813.041 248.133V258.717Z" fill="#B7AE70"/>
            <path d="M621.131 237.012H608.768V249.38H621.131V237.012Z" fill="#B7AE70"/>
            <path d="M813.292 233.389H623.953L601.225 226.398H790.563L813.292 233.389Z" fill="#F7F7F7" stroke="#B7B6B6" stroke-width="0.5" stroke-linecap="round" stroke-linejoin="round"/>
            <path d="M813.291 233.391H623.953V240.22H813.291V233.391Z" fill="#F7F7F7" stroke="#B7B6B6" stroke-width="0.5" stroke-linecap="round" stroke-linejoin="round"/>
            <path d="M601.225 233.228L623.953 240.218V233.389L601.225 226.398V233.228Z" fill="#F7F7F7" stroke="#B7B6B6" stroke-width="0.5" stroke-linecap="round" stroke-linejoin="round"/>
            <path d="M813.292 226.562H623.953L601.225 219.562H790.563L813.292 226.562Z" fill="#F7F7F7" stroke="#B7B6B6" stroke-width="0.5" stroke-linecap="round" stroke-linejoin="round"/>
            <path d="M813.291 226.562H623.953V233.392H813.291V226.562Z" fill="#F7F7F7" stroke="#B7B6B6" stroke-width="0.5" stroke-linecap="round" stroke-linejoin="round"/>
            <path d="M601.225 226.401L623.953 233.392V226.562L601.225 219.562V226.401Z" fill="#F7F7F7" stroke="#B7B6B6" stroke-width="0.5" stroke-linecap="round" stroke-linejoin="round"/>
            <path d="M813.292 219.721H623.953L601.225 212.73H790.563L813.292 219.721Z" fill="#F7F7F7" stroke="#B7B6B6" stroke-width="0.5" stroke-linecap="round" stroke-linejoin="round"/>
            <path d="M813.291 219.723H623.953V226.552H813.291V219.723Z" fill="#F7F7F7" stroke="#B7B6B6" stroke-width="0.5" stroke-linecap="round" stroke-linejoin="round"/>
            <path d="M601.225 219.56L623.953 226.559V219.721L601.225 212.73V219.56Z" fill="#F7F7F7" stroke="#B7B6B6" stroke-width="0.5" stroke-linecap="round" stroke-linejoin="round"/>
            <path d="M813.292 212.893H623.953L601.225 205.902H790.563L813.292 212.893Z" fill="#F7F7F7" stroke="#B7B6B6" stroke-width="0.5" stroke-linecap="round" stroke-linejoin="round"/>
            <path d="M813.291 212.895H623.953V219.724H813.291V212.895Z" fill="#F7F7F7" stroke="#B7B6B6" stroke-width="0.5" stroke-linecap="round" stroke-linejoin="round"/>
            <path d="M601.225 212.732L623.953 219.722V212.893L601.225 205.902V212.732Z" fill="#F7F7F7" stroke="#B7B6B6" stroke-width="0.5" stroke-linecap="round" stroke-linejoin="round"/>
            <path d="M813.292 206.065H623.953L601.225 199.074H790.563L813.292 206.065Z" fill="#F7F7F7" stroke="#B7B6B6" stroke-width="0.5" stroke-linecap="round" stroke-linejoin="round"/>
            <path d="M813.291 206.066H623.953V212.896H813.291V206.066Z" fill="#F7F7F7" stroke="#B7B6B6" stroke-width="0.5" stroke-linecap="round" stroke-linejoin="round"/>
            <path d="M601.225 205.904L623.953 212.894V206.065L601.225 199.074V205.904Z" fill="#F7F7F7" stroke="#B7B6B6" stroke-width="0.5" stroke-linecap="round" stroke-linejoin="round"/>
            <path d="M813.292 199.233H623.953L601.225 192.242H790.563L813.292 199.233Z" fill="#F7F7F7" stroke="#B7B6B6" stroke-width="0.5" stroke-linecap="round" stroke-linejoin="round"/>
            <path d="M813.291 199.234H623.953V206.064H813.291V199.234Z" fill="#F7F7F7" stroke="#B7B6B6" stroke-width="0.5" stroke-linecap="round" stroke-linejoin="round"/>
            <path d="M601.225 199.072L623.953 206.062V199.233L601.225 192.242V199.072Z" fill="#F7F7F7" stroke="#B7B6B6" stroke-width="0.5" stroke-linecap="round" stroke-linejoin="round"/>
            <path d="M813.292 192.406H623.953L601.225 185.406H790.563L813.292 192.406Z" fill="#F7F7F7" stroke="#B7B6B6" stroke-width="0.5" stroke-linecap="round" stroke-linejoin="round"/>
            <path d="M813.291 192.406H623.953V199.236H813.291V192.406Z" fill="#F7F7F7" stroke="#B7B6B6" stroke-width="0.5" stroke-linecap="round" stroke-linejoin="round"/>
            <path d="M601.225 192.245L623.953 199.235V192.406L601.225 185.406V192.245Z" fill="#F7F7F7" stroke="#B7B6B6" stroke-width="0.5" stroke-linecap="round" stroke-linejoin="round"/>
            <path d="M813.292 185.574H623.953L601.225 178.574H790.563L813.292 185.574Z" fill="#F7F7F7" stroke="#B7B6B6" stroke-width="0.5" stroke-linecap="round" stroke-linejoin="round"/>
            <path d="M813.291 185.574H623.953V192.404H813.291V185.574Z" fill="#F7F7F7" stroke="#B7B6B6" stroke-width="0.5" stroke-linecap="round" stroke-linejoin="round"/>
            <path d="M601.225 185.404L623.953 192.403V185.574L601.225 178.574V185.404Z" fill="#F7F7F7" stroke="#B7B6B6" stroke-width="0.5" stroke-linecap="round" stroke-linejoin="round"/>
            <path d="M813.292 178.737H623.953L601.225 171.746H790.563L813.292 178.737Z" fill="#F7F7F7" stroke="#B7B6B6" stroke-width="0.5" stroke-linecap="round" stroke-linejoin="round"/>
            <path d="M813.291 178.738H623.953V185.568H813.291V178.738Z" fill="#F7F7F7" stroke="#B7B6B6" stroke-width="0.5" stroke-linecap="round" stroke-linejoin="round"/>
            <path d="M601.225 178.575L623.953 185.575V178.737L601.225 171.746V178.575Z" fill="#F7F7F7" stroke="#B7B6B6" stroke-width="0.5" stroke-linecap="round" stroke-linejoin="round"/>
            <path d="M836.011 240.381H646.673L623.953 233.391H813.291L836.011 240.381Z" fill="#F7F7F7" stroke="#B7B6B6" stroke-width="0.5" stroke-linecap="round" stroke-linejoin="round"/>
            <path d="M836.012 240.383H646.674V247.212H836.012V240.383Z" fill="#EAEAEA" stroke="#B7B6B6" stroke-width="0.5" stroke-linecap="round" stroke-linejoin="round"/>
            <path d="M623.953 240.22L646.673 247.211V240.381L623.953 233.391V240.22Z" fill="#F7F7F7" stroke="#B7B6B6" stroke-width="0.5" stroke-linecap="round" stroke-linejoin="round"/>
            <path d="M836.012 247.211H646.674V250.455H836.012V247.211Z" fill="#CCC48D"/>
            <path d="M601.225 236.471L646.673 250.461V247.208L601.225 233.227V236.471Z" fill="#D8D195"/>
            <path d="M836.012 261.039H646.674V264.283H836.012V261.039Z" fill="#CCC48D"/>
            <path d="M601.225 250.291L646.673 264.282V261.037L601.225 247.047V250.291Z" fill="#D8D195"/>
            <path d="M608.768 249.371L654.225 263.361L666.58 263.827L621.131 249.837L608.768 249.371Z" fill="#CCC48D"/>
            <path d="M639.129 258.717L646.672 261.039V250.463L639.129 248.133V258.717Z" fill="#D8D195"/>
            <path d="M601.225 247.048L608.768 249.37V238.794L601.225 236.473V247.048Z" fill="#D8D195"/>
            <path d="M836.011 233.549H646.673L623.953 226.559H813.291L836.011 233.549Z" fill="#F7F7F7" stroke="#B7B6B6" stroke-width="0.5" stroke-linecap="round" stroke-linejoin="round"/>
            <path d="M836.012 233.551H646.674V240.38H836.012V233.551Z" fill="#EAEAEA" stroke="#B7B6B6" stroke-width="0.5" stroke-linecap="round" stroke-linejoin="round"/>
            <path d="M623.953 233.388L646.673 240.379V233.549L623.953 226.559V233.388Z" fill="#F7F7F7" stroke="#B7B6B6" stroke-width="0.5" stroke-linecap="round" stroke-linejoin="round"/>
            <path d="M836.011 226.722H646.673L623.953 219.723H813.291L836.011 226.722Z" fill="#F7F7F7" stroke="#B7B6B6" stroke-width="0.5" stroke-linecap="round" stroke-linejoin="round"/>
            <path d="M836.012 226.723H646.674V233.552H836.012V226.723Z" fill="#EAEAEA" stroke="#B7B6B6" stroke-width="0.5" stroke-linecap="round" stroke-linejoin="round"/>
            <path d="M623.953 226.561L646.673 233.552V226.722L623.953 219.723V226.561Z" fill="#F7F7F7" stroke="#B7B6B6" stroke-width="0.5" stroke-linecap="round" stroke-linejoin="round"/>
            <path d="M836.011 219.89H646.673L623.953 212.891H813.291L836.011 219.89Z" fill="#F7F7F7" stroke="#B7B6B6" stroke-width="0.5" stroke-linecap="round" stroke-linejoin="round"/>
            <path d="M836.012 219.891H646.674V226.72H836.012V219.891Z" fill="#EAEAEA" stroke="#B7B6B6" stroke-width="0.5" stroke-linecap="round" stroke-linejoin="round"/>
            <path d="M623.953 219.72L646.673 226.72V219.89L623.953 212.891V219.72Z" fill="#F7F7F7" stroke="#B7B6B6" stroke-width="0.5" stroke-linecap="round" stroke-linejoin="round"/>
            <path d="M836.011 213.053H646.673L623.953 206.062H813.291L836.011 213.053Z" fill="#F7F7F7" stroke="#B7B6B6" stroke-width="0.5" stroke-linecap="round" stroke-linejoin="round"/>
            <path d="M836.012 213.055H646.674V219.884H836.012V213.055Z" fill="#EAEAEA" stroke="#B7B6B6" stroke-width="0.5" stroke-linecap="round" stroke-linejoin="round"/>
            <path d="M623.953 212.892L646.673 219.892V213.053L623.953 206.062V212.892Z" fill="#F7F7F7" stroke="#B7B6B6" stroke-width="0.5" stroke-linecap="round" stroke-linejoin="round"/>
            <path d="M836.011 206.225H646.673L623.953 199.234H813.291L836.011 206.225Z" fill="#F7F7F7" stroke="#B7B6B6" stroke-width="0.5" stroke-linecap="round" stroke-linejoin="round"/>
            <path d="M836.012 206.227H646.674V213.056H836.012V206.227Z" fill="#EAEAEA" stroke="#B7B6B6" stroke-width="0.5" stroke-linecap="round" stroke-linejoin="round"/>
            <path d="M623.953 206.064L646.673 213.054V206.225L623.953 199.234V206.064Z" fill="#F7F7F7" stroke="#B7B6B6" stroke-width="0.5" stroke-linecap="round" stroke-linejoin="round"/>
            <path d="M836.011 199.397H646.673L623.953 192.406H813.291L836.011 199.397Z" fill="#F7F7F7" stroke="#B7B6B6" stroke-width="0.5" stroke-linecap="round" stroke-linejoin="round"/>
            <path d="M836.012 199.398H646.674V206.228H836.012V199.398Z" fill="#EAEAEA" stroke="#B7B6B6" stroke-width="0.5" stroke-linecap="round" stroke-linejoin="round"/>
            <path d="M623.953 199.236L646.673 206.226V199.397L623.953 192.406V199.236Z" fill="#F7F7F7" stroke="#B7B6B6" stroke-width="0.5" stroke-linecap="round" stroke-linejoin="round"/>
            <path d="M836.011 192.565H646.673L623.953 185.574H813.291L836.011 192.565Z" fill="#F7F7F7" stroke="#B7B6B6" stroke-width="0.5" stroke-linecap="round" stroke-linejoin="round"/>
            <path d="M836.012 192.566H646.674V199.396H836.012V192.566Z" fill="#EAEAEA" stroke="#B7B6B6" stroke-width="0.5" stroke-linecap="round" stroke-linejoin="round"/>
            <path d="M623.953 192.404L646.673 199.394V192.565L623.953 185.574V192.404Z" fill="#F7F7F7" stroke="#B7B6B6" stroke-width="0.5" stroke-linecap="round" stroke-linejoin="round"/>
            <path d="M836.011 185.738H646.673L623.953 178.738H813.291L836.011 185.738Z" fill="#F7F7F7" stroke="#B7B6B6" stroke-width="0.5" stroke-linecap="round" stroke-linejoin="round"/>
            <path d="M836.012 185.738H646.674V192.568H836.012V185.738Z" fill="#EAEAEA" stroke="#B7B6B6" stroke-width="0.5" stroke-linecap="round" stroke-linejoin="round"/>
            <path d="M623.953 185.577L646.673 192.567V185.738L623.953 178.738V185.577Z" fill="#F7F7F7" stroke="#B7B6B6" stroke-width="0.5" stroke-linecap="round" stroke-linejoin="round"/>
            <path d="M662.101 250.465H646.674V261.041H662.101V250.465Z" fill="#CCC48D"/>
            <path d="M745.41 250.465H729.982V261.041H745.41V250.465Z" fill="#CCC48D"/>
            <path d="M836.011 250.465H820.584V261.041H836.011V250.465Z" fill="#CCC48D"/>
            <path d="M825.189 278.568C813.166 278.747 788.045 275.163 783.664 279.214C779.274 283.265 765.782 287.808 783.664 289.09C801.546 290.372 818.174 291.662 825.189 292.308C832.204 292.953 821.57 295.211 833.987 298.124C846.413 301.028 846.09 303.287 855.443 301.996C864.805 300.705 866.669 302.095 878.486 302.372C890.303 302.65 911.929 306.199 923.227 304.586C934.524 302.973 959.698 298.922 948.724 295.785C937.749 292.648 932.275 289.476 920.808 285.729C909.34 281.983 904.216 279.832 896.771 277.842C889.326 275.853 883.834 277.959 876.577 278.362C869.321 278.756 861.571 279.124 855.121 277C848.661 274.885 840.598 272.787 836.244 273.191" fill="#E8E7E7"/>
            <path fill-rule="evenodd" clip-rule="evenodd" d="M847.11 275.522C847.11 279.716 841.162 281.24 824.435 281.24C807.709 281.24 786.539 279.707 786.539 275.522C786.539 271.336 807.709 266.066 824.435 266.066C841.162 266.066 847.11 271.327 847.11 275.522Z" fill="#A3131C"/>
            <path fill-rule="evenodd" clip-rule="evenodd" d="M835.251 270.494C835.251 270.494 834.471 269.526 834.847 268.791C835.224 268.056 834.597 267.796 834.606 263.449C837.222 262.167 839.425 262.786 839.425 262.786C839.425 262.786 842.301 269.391 845.5 271.766C847.041 274.688 845.016 275.674 845.016 275.674C845.016 275.674 834.471 271.847 835.251 270.494Z" fill="#A3131C"/>
            <path d="M847.111 275.539C847.111 279.733 841.162 281.257 824.436 281.257C807.709 281.257 786.575 279.733 786.539 275.548C786.539 276.65 786.53 279.572 786.521 280.397C786.504 284.591 807.674 286.186 824.4 286.24C841.126 286.294 847.084 284.788 847.093 280.594C847.093 279.707 847.111 276.426 847.111 275.539Z" fill="#C5C5C5"/>
            <path d="M786.647 276.022C786.584 275.87 786.539 275.708 786.539 275.547C786.539 275.672 786.539 275.825 786.539 275.986C786.575 275.995 786.611 276.004 786.647 276.022Z" fill="#ACABAC"/>
            <path d="M847.11 275.539C847.11 277.511 845.793 278.891 842.648 279.805C841.152 282.799 834.737 283.919 820.313 283.874C808.147 283.838 793.652 282.978 786.637 280.899C788.258 284.717 808.362 286.186 824.399 286.24C841.125 286.294 847.083 284.788 847.092 280.594C847.092 279.707 847.11 276.426 847.11 275.539Z" fill="#ACABAC"/>
            <path fill-rule="evenodd" clip-rule="evenodd" d="M889.29 153.868C892.837 164.202 895.005 171.121 895.005 171.121L911.212 156.718C899.162 145.569 897.756 127.492 899.969 123.369C894.746 125.179 819.034 115.231 810.299 111.619C798.15 113.932 786.002 104.996 786.002 104.996L783.789 118.951L780.68 130.906C780.68 130.906 785.115 130.871 798.751 129.804C795.086 160.169 770.736 177.798 766.534 180.63L765.916 181.033L897.362 215.234C897.362 215.234 883.807 178.264 889.29 153.886V153.868Z" fill="#C62030"/>
            <path fill-rule="evenodd" clip-rule="evenodd" d="M823.12 108.876C821.848 109.002 810.255 115.499 787.257 109.521C780.296 116.673 781.156 125.071 781.479 125.286C781.801 125.501 787.015 124.462 787.015 124.462C787.015 124.462 799.298 124.865 800.311 130.144C801.314 135.414 798.913 139.169 798.689 140.245C798.474 141.32 792.185 166.46 765.908 181.015C778.28 185.738 781.479 192.343 797.399 193.526C813.319 194.709 823.111 193.75 837.795 185.89C859.798 189.332 876.802 199.02 879.812 184.483C882.822 169.955 878.612 150.256 882.876 142.611C887.132 134.966 881.434 124.202 881.111 124.202C880.789 124.202 823.12 108.867 823.12 108.867V108.876Z" fill="#F5333F"/>
            <path fill-rule="evenodd" clip-rule="evenodd" d="M786.352 110.069C794.38 113.134 800.14 113.053 804.306 111.942C794.039 112.372 784.588 105.91 784.588 105.91L784.041 109.092C784.731 109.414 785.492 109.737 786.352 110.06V110.069Z" fill="#EF4858"/>
            <path fill-rule="evenodd" clip-rule="evenodd" d="M810.299 111.601C806.115 112.399 801.931 111.861 798.24 110.812C803.929 123.638 818.281 133.29 828.934 139.591C839.138 145.623 841.637 157.229 841.216 161.603C841.001 163.816 839.819 166.066 837.982 166.066C836.665 166.066 835.088 164.937 833.521 162.884L831.218 163.852C832.114 169.929 836.128 173.702 841.7 173.702C845.776 173.702 850.041 171.649 853.114 168.217C853.651 167.616 854.287 166.881 855.013 166.03C862.117 157.758 877.312 140.093 899.646 134.635C898.724 129.418 899.01 125.117 899.951 123.36C894.728 125.17 819.016 115.222 810.281 111.61L810.299 111.601Z" fill="#C62030"/>
            <path fill-rule="evenodd" clip-rule="evenodd" d="M851.967 111.079C845.373 111.079 843.08 106.526 840.643 101.713C839.612 99.6693 838.546 97.5721 837.131 95.7438C840.571 97.1688 846.09 98.8807 852.755 98.8807C858.068 98.8807 863.219 97.7783 868.093 95.6094C867.098 97.1868 866.247 98.8179 865.414 100.395C862.413 106.131 859.815 111.079 851.967 111.079Z" fill="white"/>
            <path fill-rule="evenodd" clip-rule="evenodd" d="M897.362 215.213C895.75 221.827 877.563 228.002 840.715 219.004C803.867 210.014 764.304 187.626 765.917 181.012C780.681 178.404 804.001 177.839 833.118 184.723C870.029 193.452 895.239 208.733 897.362 215.213Z" fill="#151415"/>
            <path fill-rule="evenodd" clip-rule="evenodd" d="M784.731 183.271C785.027 191.893 792.266 236.239 833.701 268.396C834.901 269.328 836.863 268.055 836.147 266.711C831.138 257.39 826.82 236.687 829.356 229.033C829.66 228.119 830.673 227.68 831.542 228.101C837.643 231.085 845.903 232.232 856.34 232.313C857.11 232.313 857.764 232.86 857.926 233.613C861.169 248.526 875.754 264.327 885.277 271.434C886.514 272.357 888.189 271.12 887.669 269.668C881.81 253.285 878.316 227.751 883.226 206.77C883.378 206.116 883.1 205.426 882.518 205.085C850.248 185.852 796.942 182.088 786.344 181.658C785.439 181.622 784.704 182.357 784.731 183.253V183.271Z" fill="#1A171B"/>
            <path fill-rule="evenodd" clip-rule="evenodd" d="M800.203 140.783C802.031 134.858 801.923 129.158 798.743 129.786C795.078 160.15 770.728 177.779 766.526 180.612L765.908 181.015C793.161 169.471 798.366 146.707 800.203 140.783Z" fill="#C62030"/>
            <path fill-rule="evenodd" clip-rule="evenodd" d="M883.216 206.79C883.368 206.135 883.091 205.445 882.508 205.105C850.238 185.871 796.932 182.107 786.334 181.677C785.429 181.641 784.695 182.376 784.721 183.272C784.802 185.737 785.456 191.105 787.302 198.275C787.284 190.191 799.71 187.503 811.813 189.25C823.917 190.998 860.066 199.073 868.622 210.536C869.294 224.831 874.83 248.384 879.641 259.22C880.125 260.313 878.853 261.353 877.885 260.654C873.576 257.544 869.813 255.151 867.251 252.83C872.904 260.654 879.883 267.438 885.259 271.454C886.495 272.377 888.17 271.14 887.651 269.688C881.791 253.305 878.298 227.771 883.207 206.79H883.216Z" fill="#020202"/>
            <path fill-rule="evenodd" clip-rule="evenodd" d="M831.541 228.105C832.088 228.374 832.652 228.616 833.225 228.858C832.733 228.598 832.177 228.347 831.541 228.105Z" fill="#020202"/>
            <path fill-rule="evenodd" clip-rule="evenodd" d="M831.542 228.104C825.709 225.917 816.777 220.217 814.412 218.281C818.39 224.851 819.895 224.636 821.732 226.679C823.38 228.516 823.891 248.18 830.153 259.876C830.619 260.754 829.624 261.686 828.791 261.14C825.584 259.06 822.368 256.829 816.84 252.787C821.714 258.164 827.304 263.425 833.71 268.399C834.91 269.331 836.872 268.059 836.155 266.714C831.147 257.393 826.829 236.69 829.365 229.036C829.669 228.122 830.682 227.683 831.551 228.104H831.542Z" fill="#020202"/>
            <path fill-rule="evenodd" clip-rule="evenodd" d="M852.934 227.593C852.522 229.592 838.251 230.407 834.918 229.457C840.58 231.42 847.711 232.209 856.339 232.28C857.109 232.28 857.763 232.827 857.925 233.58C857.154 230.676 854.341 220.8 852.943 227.593H852.934Z" fill="#020202"/>
            <path fill-rule="evenodd" clip-rule="evenodd" d="M793.914 208.752C796.36 214.595 802.147 229.097 813.283 240.398C824.419 251.7 816.831 234.537 814.412 228.102C811.993 221.667 806.663 221.989 803.76 215.214C800.857 208.429 790.339 200.202 793.914 208.752Z" fill="#272528"/>
            <path fill-rule="evenodd" clip-rule="evenodd" d="M860.908 220.172C859.026 221.579 860.128 236.134 864.661 243.501C869.204 250.868 868.576 240.991 866.229 231.832C863.882 222.672 865.916 216.407 860.908 220.163V220.172Z" fill="#272528"/>
            <path d="M801.044 268.79C792.721 270.681 786.539 273.262 786.539 275.521C786.539 278.299 795.856 280.558 807.001 281.32C806.016 276.659 803.901 271.9 801.044 268.781V268.79Z" fill="#D6D5D5"/>
            <path d="M801.52 269.328C801.52 269.328 801.475 269.346 801.448 269.346C797.148 270.69 788.216 272.626 790.473 274.508C792.489 276.184 795.454 273.334 804.351 273.693C803.535 272.071 802.586 270.583 801.52 269.328Z" fill="#E2E3E4"/>
            <path d="M804.488 268.996L807.883 274.879C808.286 275.578 809.179 275.818 809.878 275.414L810.15 275.257C810.848 274.854 811.087 273.96 810.684 273.262L807.289 267.378C806.885 266.68 805.992 266.44 805.294 266.844L805.022 267C804.324 267.404 804.084 268.297 804.488 268.996Z" fill="#E2E3E4"/>
            <path d="M809.894 268.363L813.289 274.247C813.693 274.945 814.586 275.185 815.284 274.781L815.556 274.624C816.254 274.221 816.494 273.328 816.09 272.629L812.695 266.746C812.292 266.047 811.398 265.807 810.7 266.211L810.428 266.368C809.73 266.771 809.491 267.664 809.894 268.363Z" fill="#E2E3E4"/>
            <path d="M815.308 267.734L818.703 273.618C819.107 274.316 820 274.556 820.698 274.152L820.97 273.996C821.668 273.592 821.908 272.699 821.504 272L818.109 266.117C817.706 265.418 816.813 265.178 816.114 265.582L815.843 265.739C815.144 266.142 814.905 267.036 815.308 267.734Z" fill="#E2E3E4"/>
            <path fill-rule="evenodd" clip-rule="evenodd" d="M821.264 266.131C823.316 265.915 827.348 264.105 825.905 262.313C824.463 260.529 830.259 261.345 831.352 262.555C832.445 263.764 834.801 265.476 833.699 268.398C831.469 269.178 826.756 270.316 822.796 270.495C819.571 268.649 820.646 266.193 821.264 266.131Z" fill="#A3131C"/>
            <path fill-rule="evenodd" clip-rule="evenodd" d="M833.7 268.398C833.7 268.398 825.654 271.356 821.426 271.858C822.796 272.844 832.696 270.487 834.846 268.793C834.04 268.703 833.7 268.398 833.7 268.398Z" fill="#831519"/>
            <path fill-rule="evenodd" clip-rule="evenodd" d="M903.948 282.407C907.236 288.537 900.364 289.236 890.966 289.236C881.568 289.236 872.744 286.144 869.922 282.407C869.922 275.112 874.186 269.188 883.584 269.188C892.982 269.188 899.235 273.615 903.948 282.407Z" fill="#A3131C"/>
            <path d="M904.781 285.758C904.781 285.758 904.745 285.731 904.718 285.722C904.073 288.814 898.286 289.236 890.966 289.236C881.568 289.236 872.744 286.144 869.922 282.406C870.191 282.756 869.922 286.977 869.922 288.949C872.753 292.677 881.568 295.778 890.966 295.778C900.364 295.778 908.042 295.527 904.781 285.758Z" fill="#C5C5C5"/>
            <path d="M870.162 282.701C870.082 282.603 869.984 282.504 869.912 282.406C869.939 282.442 869.957 282.522 869.975 282.621C870.037 282.647 870.1 282.674 870.162 282.701Z" fill="#ACABAC"/>
            <path d="M904.78 285.759C904.78 285.759 904.744 285.732 904.718 285.723C904.35 287.506 902.254 288.393 899.154 288.833C897.228 291.943 891.655 292.059 885.295 292.059C879.65 292.059 874.221 290.939 870.172 289.236C873.227 292.83 881.818 295.77 890.966 295.77C900.113 295.77 908.041 295.519 904.78 285.75V285.759Z" fill="#ACABAC"/>
            <path d="M879.257 287.623C882.733 288.626 886.783 289.245 890.957 289.245C900.355 289.245 907.227 288.546 903.939 282.415C903.186 281.008 902.38 279.718 901.538 278.535C900.49 278.427 899.424 278.355 898.322 278.355C889.148 278.355 881.461 282.29 879.248 287.623H879.257Z" fill="#D6D5D5"/>
            <path d="M899.092 287.273C899.262 286.834 901.484 282.227 894.693 278.57C889.273 279.207 884.641 281.241 881.766 284.046C883.342 285.149 886.245 286.52 890.097 286.941C896.028 287.595 898.904 287.739 899.092 287.264V287.273Z" fill="#E2E3E4"/>
            <path fill-rule="evenodd" clip-rule="evenodd" d="M882.06 274.467C881.146 274.135 875.833 265.558 882.06 264.285C888.286 263.013 893.285 264.231 893.142 266.275C892.999 268.318 890.965 269.483 892.855 271.419C894.746 273.355 887.059 276.286 882.06 274.467Z" fill="#A3131C"/>
            <path fill-rule="evenodd" clip-rule="evenodd" d="M879.158 269.697C879.158 269.697 878.799 269.786 878.566 269.858C878.333 269.93 878.172 274.321 886.432 276.66C880.134 272.825 880.752 271.83 879.399 269.849C879.355 269.643 879.158 269.688 879.158 269.688V269.697Z" fill="#831519"/>
            <path d="M886.235 275.498L895.893 274.145C897.219 273.956 898.509 274.637 898.751 275.65C898.993 276.663 898.106 277.649 896.78 277.828L887.122 279.181C885.796 279.37 884.506 278.689 884.264 277.676C884.022 276.663 884.909 275.677 886.235 275.498Z" fill="#E2E3E4"/>
            <path d="M881.155 271.857L890.813 270.504C892.139 270.316 893.429 270.997 893.671 272.01C893.913 273.022 893.026 274.008 891.7 274.187L882.042 275.541C880.716 275.729 879.426 275.048 879.184 274.035C878.942 273.022 879.829 272.036 881.155 271.857Z" fill="#E2E3E4"/>
            <path d="M781.077 130.811C784.118 130.717 786.399 124.657 786.171 117.275C785.943 109.893 783.293 103.986 780.251 104.08C777.21 104.174 774.929 110.234 775.157 117.616C775.385 124.997 778.035 130.905 781.077 130.811Z" fill="#131313"/>
            <path fill-rule="evenodd" clip-rule="evenodd" d="M782.705 114.729C783.01 117.391 782.669 121.146 779.775 124.883C761.974 126.694 750.704 111.368 749.906 97.4492C761.186 111.547 773.307 112.183 778.772 111.583C780.725 111.368 782.49 112.775 782.705 114.729Z" fill="#FAD7CA"/>
            <path fill-rule="evenodd" clip-rule="evenodd" d="M760.29 118.789C765.271 123.109 771.874 125.681 779.775 124.874C782.678 121.137 783.01 117.382 782.705 114.72C782.481 112.775 780.716 111.359 778.772 111.574C773.907 112.103 763.757 111.646 753.624 101.59C752.424 101.921 751.591 102.334 751.286 102.818C751.161 103.024 751.017 103.239 750.883 103.454C751.859 107.111 753.508 110.678 755.774 113.824C762.305 113.877 774.794 113.671 774.794 113.671C774.794 113.671 777.607 114.908 777.688 119.524C777.76 123.987 767.098 124.516 760.29 118.789Z" fill="#EFC4AF"/>
            <path d="M814.768 138.672V138.887L812.125 144.713H810.522L807.879 138.887V138.672H809.294L811.319 143.359L813.344 138.672H814.759H814.768Z" fill="white"/>
            <path d="M818.165 136.747V137.41H814.752V136.8L816.391 135.877C816.615 135.752 816.777 135.653 816.884 135.573C816.992 135.492 817.063 135.429 817.099 135.357C817.135 135.286 817.153 135.214 817.153 135.124V135.08C817.153 134.927 817.081 134.82 816.947 134.739C816.813 134.658 816.615 134.623 816.356 134.623C816.087 134.623 815.881 134.667 815.737 134.757C815.594 134.847 815.531 134.981 815.531 135.16V135.268H814.761V135.16C814.761 134.766 814.895 134.461 815.164 134.255C815.433 134.049 815.827 133.941 816.338 133.941C816.848 133.941 817.234 134.04 817.511 134.237C817.789 134.434 817.932 134.703 817.932 135.053V135.107C817.932 135.277 817.897 135.429 817.825 135.564C817.753 135.698 817.637 135.832 817.475 135.967C817.314 136.101 817.081 136.254 816.786 136.415L816.176 136.756H818.165V136.747Z" fill="white"/>
            <path d="M817.09 138.682L817.099 146.784H805.559L805.55 135.258L813.479 135.267V134.191H804.484V147.859H818.165V138.682H817.09Z" fill="white"/>
            <path d="M908.14 169.349C912.421 164.788 913.792 159.119 911.203 156.686C908.613 154.253 903.043 155.978 898.762 160.539C894.48 165.1 893.109 170.769 895.699 173.202C898.289 175.635 903.859 173.91 908.14 169.349Z" fill="#141414"/>
            <path fill-rule="evenodd" clip-rule="evenodd" d="M897.209 166.515C897.361 166.748 898.58 171.534 901.285 178.202C905.675 178.498 909.859 182.253 911.104 177.369C908.945 169.545 907.422 161.873 907.279 157.598C901.008 157.759 897.209 166.515 897.209 166.515Z" fill="#FAD6CB"/>
            <path fill-rule="evenodd" clip-rule="evenodd" d="M907.279 157.598C901.008 157.759 897.209 166.515 897.209 166.515C897.254 166.578 897.388 167.035 897.621 167.797C897.209 165.574 899.897 163.119 902.665 161.577C905.424 160.035 906.562 168.236 907.01 171.221C907.207 172.538 908.632 173.425 910.19 173.873C908.533 167.322 907.404 161.236 907.288 157.598H907.279Z" fill="#EEC3B0"/>
            <path fill-rule="evenodd" clip-rule="evenodd" d="M909.654 171.715C901.403 170.074 888.771 168.488 876.129 170.693C869.249 162.833 864.178 164.598 861.446 165.235C858.713 165.871 855.201 170.863 858.337 177.692C861.473 184.522 868.828 183.133 876.551 175.631C882.141 174.502 896.762 177.943 908.283 181.824C913.757 183.67 911.75 179.646 909.654 171.715Z" fill="#FAD6CB"/>
            <path d="M908.282 181.825C913.756 183.671 911.749 179.647 909.653 171.716C908.82 171.554 907.924 171.384 907.01 171.223C907.01 171.25 907.503 174.055 909.232 177.837C910.961 181.637 903.202 179.567 893.052 176.519C882.902 173.463 876.559 175.641 876.559 175.641C882.149 174.512 896.77 177.953 908.291 181.834L908.282 181.825Z" fill="#EEC3B0"/>
            <path fill-rule="evenodd" clip-rule="evenodd" d="M872.17 171.429C869.608 170.228 866.49 170.739 864.868 171.205C863.238 171.671 867.063 176.789 866.544 179.316C866.033 181.852 877.339 173.849 872.17 171.429Z" fill="#FAE3DD"/>
            <path fill-rule="evenodd" clip-rule="evenodd" d="M880.994 171.896C882.642 171.949 886.692 171.976 889.747 171.896C892.802 171.815 889.872 170.641 894.889 171.232C899.906 171.815 901.331 171.94 903.463 171.958C905.595 171.976 906.177 173.5 906.258 174.1C906.339 174.701 906.59 175.731 905.264 175.256C903.938 174.781 903.069 175.041 899.709 174.091C896.35 173.132 895.185 172.281 893.662 172.666C892.139 173.052 888.752 173.141 888.009 173.222C887.265 173.303 879.587 171.851 880.994 171.896Z" fill="#FAE3DD"/>
            <path fill-rule="evenodd" clip-rule="evenodd" d="M866.974 166.254C866.759 165.976 865.478 164.497 866.49 164.668C867.503 164.838 869.285 164.219 868.587 160.652C870.817 161.952 873.344 166.281 873.729 166.989C874.114 167.697 875.987 170.825 875.987 170.825C875.987 170.825 867.744 167.231 866.974 166.254Z" fill="#FAD6CB"/>
            <path fill-rule="evenodd" clip-rule="evenodd" d="M870.871 166.183C870.871 166.183 867.762 166.64 867.977 164.946C868.192 163.252 865.603 159.067 866.302 155.276C867 151.485 869.805 151.368 870.871 152.309C871.937 153.25 870.217 160.868 871.883 163.763C873.549 166.658 870.871 166.183 870.871 166.183Z" fill="#FAD6CB"/>
            <path d="M953.776 69.9688H687.4V110.56H953.776V69.9688Z" fill="#F7F7F7" stroke="#B7B6B6" stroke-width="0.5" stroke-miterlimit="10"/>
            <path d="M899.468 69.9699H804.234C805.005 73.6624 805.73 77.4894 807.809 79.3356C802.218 93.4066 794.075 102.826 794.075 102.826C794.075 102.826 793.86 106.241 795.633 110.561H901.698C896.762 103.704 890.562 92.8778 891.019 82.1229C895.615 78.5559 898.303 74.4601 899.468 69.9609V69.9699Z" fill="#B7B6B6"/>
            <path d="M767.718 69.9688H743.824C745.07 75.5523 746.306 84.0218 755.784 80.8491C762.611 78.5637 766.024 73.6971 767.718 69.9688Z" fill="#B7B6B6"/>
            <path d="M806.528 85.0625H803.195L798.438 96.0683L793.681 85.0625H791.737H790.357H787.624L780.081 91.6768V85.0625H776.838V99.25H780.081V95.5754L782.652 93.3258L787.624 99.25H791.432V98.7481L785.188 91.3362L790.751 86.4248L796.557 99.25H800.319L806.528 85.5554V85.0625Z" fill="#1A171B"/>
            <path d="M811.94 85.0625L805.65 98.7571V99.259H808.894L810.193 96.3193H817.279L818.578 99.259H821.821V98.7571L815.532 85.0625H811.94ZM811.42 93.4961L813.731 88.2173L816.043 93.4961H811.411H811.42Z" fill="#1A171B"/>
            <path d="M830.887 85.0625H823.818V99.25H830.887C833.557 99.25 835.564 98.6674 836.916 97.5023C838.269 96.3372 838.95 94.5985 838.95 92.2862V92.0532C838.95 89.7409 838.269 88.0022 836.907 86.8281C835.546 85.654 833.539 85.0625 830.887 85.0625ZM835.644 92.331C835.644 93.7023 835.259 94.715 834.488 95.3603C833.718 96.0056 832.517 96.3372 830.887 96.3372H827.061V87.9932H830.869C832.473 87.9932 833.664 88.3248 834.462 88.997C835.259 89.6692 835.653 90.6819 835.653 92.0353V92.34L835.644 92.331Z" fill="#1A171B"/>
            <path d="M850.766 85.0625H841.771V99.25H845.015V94.1683H847.98L852.388 99.25H856.106V98.7481L851.976 94.0966C853.32 93.9084 854.35 93.4513 855.076 92.7164C855.801 91.9815 856.169 91.0404 856.169 89.8843V89.6423C856.169 88.2173 855.685 87.097 854.726 86.2814C853.767 85.4658 852.442 85.0625 850.757 85.0625H850.766ZM852.863 89.8215C852.863 90.3682 852.675 90.7805 852.298 91.0673C851.922 91.3452 851.384 91.4886 850.677 91.4886H845.015V87.9394H850.677C851.402 87.9394 851.94 88.0828 852.307 88.3607C852.675 88.6385 852.863 89.0508 852.863 89.5796V89.8126V89.8215Z" fill="#1A171B"/>
            <path d="M864.25 85.0625L857.961 98.7571V99.259H861.204L862.503 96.3193H869.59L870.889 99.259H874.132V98.7571L867.843 85.0625H864.25ZM863.73 93.4961L866.042 88.2173L868.353 93.4961H863.722H863.73Z" fill="#1A171B"/>
            <path d="M873.004 87.9842H878.541V99.25H881.811V87.9842H887.338V85.0625H873.004V87.9842Z" fill="#1A171B"/>
            <path d="M901.967 87.9125V85.0625H889.361V99.25H901.967V96.391H892.604V93.5589H901.537V90.7267H892.604V87.9125H901.967Z" fill="#1A171B"/>
            <path d="M763.373 85.0625V85.5644L757.173 99.259H753.411L747.211 85.5644V85.0625H750.544L755.301 96.0683L760.058 85.0625H763.391H763.373Z" fill="#1A171B"/>
            <path d="M771.346 80.5194V82.0699H763.328V80.6269L767.172 78.467C767.691 78.1712 768.076 77.9382 768.327 77.7589C768.578 77.5797 768.748 77.4094 768.838 77.257C768.927 77.1047 768.972 76.9165 768.972 76.7103V76.6028C768.972 76.2533 768.811 75.9844 768.488 75.8051C768.166 75.6259 767.709 75.5273 767.1 75.5273C766.464 75.5273 765.98 75.6348 765.657 75.8499C765.335 76.065 765.165 76.3787 765.165 76.8V77.0419H763.355V76.782C763.355 75.8499 763.669 75.133 764.305 74.649C764.941 74.165 765.864 73.9141 767.064 73.9141C768.264 73.9141 769.16 74.1471 769.823 74.6042C770.477 75.0612 770.809 75.6976 770.809 76.5132V76.6386C770.809 77.033 770.728 77.3915 770.567 77.7141C770.406 78.0278 770.128 78.3505 769.743 78.6641C769.357 78.9778 768.82 79.3274 768.13 79.7217L766.688 80.5283H771.346V80.5194Z" fill="#1A171B"/>
            <path d="M768.819 85.0644L768.837 104.11H741.728L741.71 77.0341L760.344 77.043V74.5156H739.201V106.628H771.346V85.0644H768.819Z" fill="#F5333F"/>
            <path fill-rule="evenodd" clip-rule="evenodd" d="M815.782 76.3693C814.967 77.5076 809.484 77.6599 806.581 71.5296C803.678 65.3904 810.057 61.6799 813.73 63.2125C817.395 64.7451 817.395 74.1108 815.782 76.3693Z" fill="#FAD7CA"/>
            <path fill-rule="evenodd" clip-rule="evenodd" d="M810.262 75.8749C812.743 77.4254 815.243 77.1027 815.771 76.3589C817.384 74.1003 817.384 64.7346 813.72 63.202C812.743 62.7898 811.57 62.7629 810.432 63.0497C811.713 63.6143 813.63 65.2813 813.397 67.8087C813.164 70.3361 812.627 75.0145 810.262 75.8749Z" fill="#EFC4AF"/>
            <path fill-rule="evenodd" clip-rule="evenodd" d="M885.723 76.3693C886.538 77.5076 892.021 77.6599 894.924 71.5296C897.827 65.3904 891.448 61.6799 887.775 63.2125C884.111 64.7451 884.111 74.1108 885.723 76.3693Z" fill="#FAD7CA"/>
            <path fill-rule="evenodd" clip-rule="evenodd" d="M892.344 63.518C890.857 62.7921 889.128 62.6487 887.775 63.2133C884.111 64.7459 884.111 74.1116 885.723 76.3701C886.216 77.0692 888.474 77.3918 890.812 76.1281C885.992 73.3229 891.233 63.9751 892.344 63.518Z" fill="#EFC4AF"/>
            <path fill-rule="evenodd" clip-rule="evenodd" d="M820.699 99.2959C820.699 99.2959 812.305 90.4141 814.401 72.6596C816.497 54.8961 814.052 55.2187 814.061 51.9923C814.078 48.7658 829.246 37.3029 855.066 41.4973C880.885 45.6917 892.828 54.2508 891.537 56.6706C890.247 59.0905 886.538 67.9723 887.506 78.1446C888.473 88.3169 889.441 111.565 878.95 114.792C868.459 118.018 840.704 133.362 820.69 99.2959H820.699Z" fill="#FAD7CA"/>
            <path fill-rule="evenodd" clip-rule="evenodd" d="M883.422 111.492C889.111 103.919 888.322 86.5583 887.516 78.1426C886.548 67.9703 890.257 59.0885 891.548 56.6687C892.282 55.2885 888.725 51.9275 880.77 48.5039C879.838 53.2361 879.928 61.9117 880.412 74.4232C881.057 91.0485 859.654 91.3891 859.752 91.8641C863.587 109.404 873.164 113.32 883.413 111.492H883.422Z" fill="#F6D0C4"/>
            <path fill-rule="evenodd" clip-rule="evenodd" d="M887.515 52C886.709 58.7756 884.29 68.2309 885.338 78.8783C886.386 89.5346 883 98.3178 875.734 101.715C870.386 104.215 879.497 106.733 886.18 105.685C888.778 97.0989 888.151 84.8114 887.515 78.1434C886.547 67.971 890.256 59.0893 891.547 56.6694C892.021 55.7732 890.678 54.0434 887.506 52H887.515Z" fill="#EFC4AF"/>
            <path d="M875.699 1.59642C876.434 1.30962 882.571 5.39648 881.648 6.24791C880.725 7.09934 880.34 7.20689 881.433 8.29134C879.157 10.7919 870.673 13.4806 870.709 12.1362C870.754 10.7919 872.483 2.84219 875.699 1.59642Z" fill="#44351E"/>
            <path d="M855.936 25.3995C855.98 24.9693 857.656 0.752843 878.53 0C883.69 4.62461 881.648 6.2468 881.648 6.2468C881.648 6.2468 876.595 6.99965 874.113 8.93553C878.414 6.8921 881.433 8.29024 881.433 8.29024C881.433 8.29024 882.938 10.979 879.283 16.5805C871.533 13.8917 861.956 22.6122 860.988 26.9141C860.021 31.2161 855.783 26.8783 855.936 25.4085V25.3995Z" fill="#AE641F"/>
            <path d="M879.282 16.5725C880.393 14.8696 881.029 13.4446 881.369 12.2705C874.793 8.94548 867.277 12.8889 864.374 16.8503C861.48 20.8117 859.545 23.2316 858.094 22.6669C857.538 22.4518 857.108 21.4391 856.813 20.1664C856.096 23.142 855.944 25.266 855.926 25.3915C855.774 26.8614 860.011 31.2081 860.979 26.8972C861.946 22.5952 871.523 13.8748 879.273 16.5635L879.282 16.5725Z" fill="#9C5419"/>
            <path fill-rule="evenodd" clip-rule="evenodd" d="M827.455 89.4536C816.812 86.2272 820.691 64.7263 820.709 59.1069C820.727 53.4964 822.501 51.5874 828.638 49.6336C834.775 47.6798 833.619 43.5929 831.979 43.0642C831.325 42.8491 830.618 42.7146 829.883 42.625C821.757 44.767 817.143 48.4595 817 50.1714C816.731 53.3889 819.195 53.2634 815.683 70.7939C812.171 88.3333 819.831 97.8514 819.831 97.8514C821.497 101.293 823.271 104.269 825.135 106.85C826.425 106.545 827.607 106.24 828.62 106.07C833.87 105.21 838.116 92.6711 827.473 89.4447L827.455 89.4536Z" fill="#FBE3DD"/>
            <path d="M814.411 72.6484C814.411 72.6484 811.186 91.5412 796.332 103.649C800.847 117.855 816.991 128.511 827.644 134.812C838.296 141.112 841.037 153.059 840.553 158.06C840.07 163.061 835.716 166.781 830.546 159.996C832.159 170.975 843.725 170.93 850.211 163.689C856.688 156.447 877.831 128.511 910.433 128.027C894.459 108.65 888.645 83.7887 887.516 78.1424C887.516 99.7777 878.154 101.068 878.154 101.068C878.154 101.068 883.798 77.9811 864.922 84.7656C846.036 91.5502 838.779 84.7656 833.61 83.475C828.45 82.1845 821.345 84.927 824.732 99.2937C816.015 93.1544 814.08 77.8198 814.402 72.6574L814.411 72.6484Z" fill="#AE641F"/>
            <path d="M853.676 56.4016C846.142 55.3262 843.23 49.411 834.836 49.0883C826.441 48.7657 817.769 54.5733 814.069 51.9921C810.369 49.411 821.827 31.9701 853.381 33.0994C884.934 34.2286 892.836 53.7757 891.546 56.6705C890.256 59.5654 887.676 49.402 873.628 51.1855C858.774 53.0676 861.202 57.4861 853.668 56.4016H853.676Z" fill="#AE641F"/>
            <path d="M856.473 34.228C852.603 34.004 847.326 33.5827 849.369 27.7661C851.412 21.9495 865.611 24.1095 865.289 28.9492C864.966 33.7889 863.784 34.6582 856.464 34.2191L856.473 34.228Z" fill="#9C5419"/>
            <path d="M849.378 27.7652C848.849 29.2619 848.814 30.4001 849.109 31.2784C850.65 32.2643 853.078 32.4346 855.112 32.5601C862.431 32.9902 863.614 32.1299 863.936 27.2901C863.963 26.9406 863.9 26.6 863.775 26.2774C860.111 23.5618 850.982 23.1943 849.369 27.7741L849.378 27.7652Z" fill="#AE641F"/>
            <path fill-rule="evenodd" clip-rule="evenodd" d="M851.348 80.3667C848.902 80.3667 846.573 80.2054 844.441 79.9007C843.876 79.82 843.58 80.5639 844.055 80.8686C845.892 82.0696 848.472 82.8224 851.339 82.8224C854.206 82.8224 856.795 82.0696 858.623 80.8686C859.097 80.5549 858.802 79.82 858.237 79.9007C856.105 80.1964 853.776 80.3667 851.33 80.3667H851.348Z" fill="#625642"/>
            <path d="M887.515 78.1418C887.515 89.5957 884.89 95.3406 882.426 98.2176C884.119 104.339 886.001 109.421 886.386 111.07C887.246 114.726 892.2 117.532 886.386 121.018C873.261 124.513 855.182 142.931 851.348 152.404C847.513 161.878 841.412 162.093 840.552 158.051C840.068 163.052 835.714 166.771 830.545 159.987C832.158 170.966 843.724 170.921 850.21 163.679C856.687 156.437 877.83 128.502 910.432 128.018C894.458 108.641 888.644 83.7791 887.515 78.1328V78.1418Z" fill="#9C5419"/>
            <path d="M870.485 90.1689C874.839 93.8794 873.226 101.838 872.581 103.03C871.936 104.222 873.307 107.529 877.097 106.642C880.886 105.755 886.387 102.94 887.068 102.008C887.444 101.497 886.763 96.5054 885.787 91.7105C883.081 100.386 878.145 101.076 878.145 101.076C878.145 101.076 883.789 77.989 864.913 84.7736C846.027 91.5581 838.77 84.7736 833.601 83.483C832.625 83.241 831.567 83.1424 830.537 83.241C832.795 83.8146 837.803 89.5416 847.962 90.1869C858.131 90.8321 866.122 86.4764 870.476 90.1869L870.485 90.1689Z" fill="#9C5419"/>
            <path d="M824.973 130.205C809.805 120.302 803.024 116 799.153 105.585C812.305 90.4926 813.649 79.9707 814.401 72.6484C814.401 72.6484 811.176 91.5412 796.322 103.649C800.838 117.855 816.982 128.511 827.634 134.812C838.286 141.112 841.027 153.059 840.544 158.06C840.526 158.204 840.508 158.356 840.49 158.499C843.554 145.97 835.894 137.348 824.973 130.214V130.205Z" fill="#9C5419"/>
            <path d="M822.151 111.727C820.377 104.942 826.165 107.398 828.592 103.347C831.02 99.2961 827.795 90.737 830.537 88.6398C833.278 86.5426 831.818 85.0907 828.431 86.2199C827.831 86.4171 827.043 86.0407 826.165 85.2878C824.023 87.5553 822.975 91.8663 824.722 99.2961C819.329 95.496 816.534 88.1737 815.262 81.918C814.715 86.3723 813.774 91.1403 812.135 94.3309C808.265 101.877 802.916 103.007 805.828 108.008C808.739 113.009 815.844 121.084 826.496 126.416C832.472 130.449 823.916 118.503 822.142 111.727H822.151Z" fill="#B46A2C"/>
            <path d="M817.224 52.6284C820.198 52.4043 824.212 50.7463 828.521 49.7783C828.557 49.7335 828.593 49.6887 828.629 49.6349C832.526 41.3088 834.255 42.1334 849.136 35.0352C827.545 35.0352 817.788 46.1754 817.215 52.6194L817.224 52.6284Z" fill="#BE743C"/>
            <path d="M879.121 48.0097C875.009 46.7908 869.759 48.0276 860.702 53.432C852.675 58.2179 845.472 52.473 841.584 50.7881C841.575 50.7881 841.566 50.7881 841.557 50.7791C845.579 52.706 848.571 55.6726 853.687 56.3985C861.221 57.474 858.794 53.0556 873.648 51.1824C887.686 49.4079 890.266 59.5623 891.565 56.6674C892.802 53.8891 885.536 35.7312 856.957 33.3203C855.031 33.7415 862.7 37.4968 868.666 38.5902C875.287 39.8001 883.252 49.2376 879.139 48.0187L879.121 48.0097Z" fill="#9C5419"/>
            <path d="M851.017 27.6682C850.722 28.5196 850.695 29.1649 850.865 29.6579C851.743 30.2135 853.114 30.3121 854.26 30.3838C858.399 30.6258 859.071 30.1418 859.25 27.3993C859.259 27.2022 859.232 27.014 859.161 26.8257C857.082 25.2842 851.922 25.087 851.008 27.6682H851.017Z" fill="#BE743C"/>
            <path d="M879.668 1.08594C873.594 1.78501 863.73 4.80534 859.672 16.7791C863.981 6.27518 874.454 4.13316 881.8 4.02561C881.496 3.27277 880.86 2.30483 879.668 1.08594Z" fill="#BE743C"/>
            <path fill-rule="evenodd" clip-rule="evenodd" d="M835.025 94.1602C839.647 96.3739 853.265 101.527 868.199 94.3843C868.513 94.2319 868.827 94.5904 868.629 94.8862C863.586 102.316 862.295 111.529 851.392 111.529C840.489 111.529 840.722 100.407 834.783 94.5098C834.603 94.3395 834.801 94.0527 835.025 94.1602Z" fill="#7C2018"/>
            <path fill-rule="evenodd" clip-rule="evenodd" d="M851.383 110.883C844.789 110.883 842.496 106.33 840.059 101.517C839.028 99.474 837.962 97.3768 836.547 95.5485C839.987 96.9735 845.506 98.6853 852.171 98.6853C857.484 98.6853 862.635 97.583 867.509 95.4141C866.515 96.9914 865.663 98.6226 864.83 100.2C861.829 105.936 859.231 110.883 851.383 110.883Z" fill="white"/>
            <path fill-rule="evenodd" clip-rule="evenodd" d="M834.424 71.7005C836.852 71.7005 839.11 71.9156 840.991 72.292C839.603 71.2882 837.184 70.625 834.424 70.625C831.665 70.625 829.237 71.2882 827.857 72.292C829.748 71.9156 831.996 71.7005 834.424 71.7005Z" fill="#151415"/>
            <path fill-rule="evenodd" clip-rule="evenodd" d="M837.282 70.1138C837.282 70.6426 837.112 71.1445 836.834 71.5478C836.619 71.8615 835.75 71.3685 834.863 71.3596C833.896 71.3596 832.901 71.8167 832.677 71.4582C832.427 71.0728 832.283 70.6067 832.283 70.1138C832.283 68.7336 833.403 67.6133 834.783 67.6133C836.162 67.6133 837.282 68.7336 837.282 70.1138Z" fill="#151415"/>
            <path fill-rule="evenodd" clip-rule="evenodd" d="M868.415 71.7005C865.987 71.7005 863.729 71.9156 861.848 72.292C863.236 71.2882 865.655 70.625 868.415 70.625C871.174 70.625 873.602 71.2882 874.981 72.292C873.091 71.9156 870.842 71.7005 868.415 71.7005Z" fill="#151415"/>
            <path fill-rule="evenodd" clip-rule="evenodd" d="M865.566 70.1138C865.566 70.6426 865.737 71.1445 866.014 71.5478C866.229 71.8615 867.098 71.3685 867.985 71.3596C868.953 71.3596 869.947 71.8167 870.171 71.4582C870.422 71.0728 870.566 70.6067 870.566 70.1138C870.566 68.7336 869.446 67.6133 868.066 67.6133C866.686 67.6133 865.566 68.7336 865.566 70.1138Z" fill="#151415"/>
            <path fill-rule="evenodd" clip-rule="evenodd" d="M859.536 102.004C857.825 102.452 853.569 102.864 852.835 102.945C852.1 103.025 851.491 102.819 851.527 102.255C851.562 101.69 851.401 99.9244 851.401 99.9244V102.093C851.401 103.321 850.828 103.196 849.036 103.321C847.244 103.447 845.811 103.16 845.73 102.828C845.65 102.497 845.936 101.197 845.685 99.8438C845.685 100.865 845.56 101.681 845.237 102.783C843.652 103.007 841.958 102.918 840.543 102.739C842.801 107.121 845.273 110.957 851.365 110.957C859.258 110.957 861.901 106.001 864.92 100.238C862.725 101.125 860.477 101.762 859.527 102.004H859.536Z" fill="#6B1E15"/>
            <path fill-rule="evenodd" clip-rule="evenodd" d="M745.113 68.1756C744.97 64.4652 750.847 65.236 754.475 65.1374C758.104 65.0388 764.312 65.1015 763.927 68.1756C763.542 71.2498 762.7 79.9792 752.711 79.298C742.721 78.6169 745.212 70.6403 745.113 68.1756Z" fill="#FAD7CA"/>
            <path fill-rule="evenodd" clip-rule="evenodd" d="M763.918 68.1779C764.097 66.726 762.807 65.9552 761.025 65.543C763.461 68.5902 761.213 75.0162 756.24 77.3644C751.268 79.7036 746.027 76.2351 745.311 74.7474C746.036 76.988 747.962 78.9687 752.711 79.2913C762.7 79.9814 763.542 71.252 763.927 68.169L763.918 68.1779Z" fill="#EFC4AF"/>
            <path fill-rule="evenodd" clip-rule="evenodd" d="M749.288 74.7192C747.935 74.8267 746.807 73.9305 746.807 72.7206V69.1266C746.807 67.9167 747.944 66.9219 749.288 66.9219C750.605 66.9219 751.644 67.8629 751.644 69.0191V72.4338C751.644 73.581 750.596 74.6116 749.288 74.7192Z" fill="#FBE3DD"/>
            <path fill-rule="evenodd" clip-rule="evenodd" d="M753.893 75.7958C752.675 75.9123 751.645 75.0788 751.645 73.9227V69.0113C751.645 67.8641 752.666 66.9141 753.893 66.9141C755.085 66.9141 756.034 67.8103 756.034 68.9037V73.5821C756.034 74.6755 755.085 75.6703 753.893 75.7868V75.7958Z" fill="#FBE3DD"/>
            <path fill-rule="evenodd" clip-rule="evenodd" d="M758.149 73.4734H757.997C756.931 73.563 756.035 72.7743 756.035 71.7168V68.8398C756.035 67.7823 756.931 66.9219 757.997 66.9219H758.149C759.189 66.9219 760.022 67.7464 760.022 68.7592V71.5017C760.022 72.5055 759.189 73.4017 758.149 73.4734Z" fill="#FBE3DD"/>
        </g>
    </g>
    <defs>
        <clipPath id="clip0_4308_40556">
            <rect width="954" height="305" fill="white"/>
        </clipPath>
        <clipPath id="clip1_4308_40556">
            <rect width="543" height="205.44" fill="white"/>
        </clipPath>
        <clipPath id="clip2_4308_40556">
            <rect width="353" height="305" fill="white" transform="translate(601)"/>
        </clipPath>
    </defs>
</svg>
