<svg width="410" height="237" viewBox="0 0 410 237" fill="none" xmlns="http://www.w3.org/2000/svg">
    <g clip-path="url(#clip0_4305_36002)">
        <path fill-rule="evenodd" clip-rule="evenodd" d="M93.0236 215.759C80.243 216.218 67.0998 218.952 51.8576 219.51C18.4172 220.735 -29.2434 220.615 23.6481 230.076C49.2312 234.647 57.3193 232.318 88.9575 231.41C120.596 230.502 109.804 235.118 130.893 236.299C151.981 237.48 296.194 236.944 333.074 236.299C369.954 235.654 417.516 223.962 408.988 215.091C400.46 206.221 233.071 211.034 207.774 211.034C182.477 211.034 113.266 215.026 93.0236 215.759Z" fill="#EFEFEF"/>
        <path d="M143.442 236.301C148.098 236.301 151.871 232.545 151.871 227.912C151.871 223.279 148.098 219.523 143.442 219.523C138.787 219.523 135.014 223.279 135.014 227.912C135.014 232.545 138.787 236.301 143.442 236.301Z" fill="#040404"/>
        <path d="M143.444 233.17C146.363 233.17 148.73 230.815 148.73 227.909C148.73 225.004 146.363 222.648 143.444 222.648C140.525 222.648 138.158 225.004 138.158 227.909C138.158 230.815 140.525 233.17 143.444 233.17Z" fill="#A3A3A3"/>
        <path fill-rule="evenodd" clip-rule="evenodd" d="M142.004 228.632V221.949H149.784L144.663 229.452C143.861 230.633 142.004 230.065 142.004 228.643V228.632Z" fill="#DDDDDD"/>
        <path d="M318.712 236.301C323.367 236.301 327.141 232.545 327.141 227.912C327.141 223.279 323.367 219.523 318.712 219.523C314.057 219.523 310.283 223.279 310.283 227.912C310.283 232.545 314.057 236.301 318.712 236.301Z" fill="#040404"/>
        <path d="M318.712 233.174C321.631 233.174 323.997 230.819 323.997 227.913C323.997 225.008 321.631 222.652 318.712 222.652C315.792 222.652 313.426 225.008 313.426 227.913C313.426 230.819 315.792 233.174 318.712 233.174Z" fill="#A3A3A3"/>
        <path fill-rule="evenodd" clip-rule="evenodd" d="M317.262 228.636V221.953H325.042L319.921 229.456C319.119 230.637 317.262 230.069 317.262 228.647V228.636Z" fill="#DDDDDD"/>
        <path d="M382.187 215.094C386.842 215.094 390.615 211.338 390.615 206.705C390.615 202.072 386.842 198.316 382.187 198.316C377.532 198.316 373.758 202.072 373.758 206.705C373.758 211.338 377.532 215.094 382.187 215.094Z" fill="#040404"/>
        <path d="M382.186 211.967C385.106 211.967 387.472 209.612 387.472 206.706C387.472 203.801 385.106 201.445 382.186 201.445C379.267 201.445 376.9 203.801 376.9 206.706C376.9 209.612 379.267 211.967 382.186 211.967Z" fill="#A3A3A3"/>
        <path fill-rule="evenodd" clip-rule="evenodd" d="M380.736 207.429V200.746H388.517L383.396 208.249C382.594 209.43 380.736 208.862 380.736 207.44V207.429Z" fill="#DDDDDD"/>
        <path d="M204.786 215.094C209.441 215.094 213.215 211.338 213.215 206.705C213.215 202.072 209.441 198.316 204.786 198.316C200.131 198.316 196.357 202.072 196.357 206.705C196.357 211.338 200.131 215.094 204.786 215.094Z" fill="#040404"/>
        <path d="M204.786 211.967C207.705 211.967 210.072 209.612 210.072 206.706C210.072 203.801 207.705 201.445 204.786 201.445C201.867 201.445 199.5 203.801 199.5 206.706C199.5 209.612 201.867 211.967 204.786 211.967Z" fill="#A3A3A3"/>
        <path fill-rule="evenodd" clip-rule="evenodd" d="M203.346 207.429V200.746H211.126L206.005 208.249C205.203 209.43 203.346 208.862 203.346 207.44V207.429Z" fill="#DDDDDD"/>
        <path d="M200.407 116.498L172.626 94.3706C171.578 93.536 169.981 93.7884 169.06 94.9344L168.188 96.0189C167.266 97.165 167.369 98.7706 168.417 99.6052L196.197 121.733C197.245 122.567 198.842 122.315 199.763 121.169L200.635 120.084C201.557 118.938 201.455 117.333 200.407 116.498Z" fill="#58524F"/>
        <path d="M202.9 196.123V119.878C202.9 117.969 201.334 116.422 199.402 116.422C197.47 116.422 195.904 117.969 195.904 119.878V196.123C195.904 198.032 197.47 199.58 199.402 199.58C201.334 199.58 202.9 198.032 202.9 196.123Z" fill="#58524F"/>
        <path fill-rule="evenodd" clip-rule="evenodd" d="M406.803 195.422H197.094L134.334 215.12H344.043L406.803 195.422Z" fill="#444140"/>
        <path d="M155.624 98.31L122.322 107.552C120.761 107.985 119.849 109.595 120.284 111.149L120.517 111.981C120.953 113.535 122.571 114.443 124.132 114.01L157.434 104.768C158.995 104.335 159.907 102.724 159.472 101.171L159.239 100.339C158.804 98.7851 157.185 97.8768 155.624 98.31Z" fill="#58524F"/>
        <path d="M170.305 93.7014L163.848 95.4933C162.521 95.8616 161.745 97.2309 162.115 98.5517L162.585 100.227C162.955 101.548 164.33 102.32 165.658 101.952L172.115 100.16C173.442 99.7913 174.218 98.4221 173.848 97.1012L173.378 95.4261C173.008 94.1053 171.632 93.3331 170.305 93.7014Z" fill="#58524F"/>
        <path fill-rule="evenodd" clip-rule="evenodd" d="M75.7168 216.383C75.7168 219.676 80.4092 220.879 93.6184 220.879C106.828 220.879 123.531 219.676 123.531 216.383C123.531 213.091 106.817 208.957 93.6184 208.957C80.4202 208.957 75.7168 213.091 75.7168 216.383Z" fill="#A41D1C"/>
        <path fill-rule="evenodd" clip-rule="evenodd" d="M85.0789 212.436C85.0789 212.436 85.6943 211.67 85.3976 211.102C85.1009 210.533 85.5954 210.325 85.5954 206.902C83.5294 205.895 81.7931 206.377 81.7931 206.377C81.7931 206.377 79.5293 211.561 77.0018 213.431C75.7929 215.728 77.3864 216.505 77.3864 216.505C77.3864 216.505 85.7053 213.497 85.0899 212.436H85.0789Z" fill="#A41D1C"/>
        <path d="M75.7168 216.395C75.7168 219.687 80.4092 220.89 93.6184 220.89C106.828 220.89 123.509 219.687 123.531 216.405C123.531 217.27 123.531 219.566 123.542 220.212C123.542 223.504 106.849 224.762 93.6404 224.805C80.4312 224.849 75.7388 223.668 75.7278 220.376C75.7278 219.676 75.7278 217.095 75.7168 216.405V216.395Z" fill="#C6C5C5"/>
        <path d="M123.443 216.778C123.498 216.658 123.531 216.537 123.531 216.406C123.531 216.505 123.531 216.625 123.531 216.756C123.498 216.756 123.476 216.778 123.443 216.778Z" fill="#ACACAC"/>
        <path d="M75.7168 216.395C75.7168 217.948 76.7608 219.03 79.2444 219.741C80.4312 222.093 85.4863 222.979 96.8822 222.935C106.487 222.902 117.927 222.235 123.465 220.594C122.191 223.591 106.322 224.751 93.6623 224.794C80.4532 224.838 75.7608 223.657 75.7498 220.365C75.7498 219.665 75.7498 217.084 75.7388 216.395H75.7168Z" fill="#ACACAC"/>
        <path fill-rule="evenodd" clip-rule="evenodd" d="M42.4182 120.834C29.5607 99.3099 52.5833 99.1677 50.847 95.9412C54.968 97.3631 97.8812 90.4944 104.783 87.6507C116.464 87.0273 126.113 85.8242 126.113 85.8242L125.706 93.4038L124.97 106.474C124.97 106.474 123.937 106.014 120.981 104.8C117.827 103.499 114.53 106.397 115.475 109.678C120.959 128.775 136.388 139.865 139.333 141.845L139.827 142.162L36.0664 169.024C36.0664 169.024 46.77 139.986 42.4402 120.845L42.4182 120.834Z" fill="#A52123"/>
        <path fill-rule="evenodd" clip-rule="evenodd" d="M94.6511 85.507C95.6511 85.6055 104.805 90.7022 122.96 86.0101C128.454 91.6319 127.773 98.2271 127.52 98.3912C127.267 98.5552 123.146 97.7459 123.146 97.7459C123.146 97.7459 113.454 98.063 112.652 102.208C111.86 106.353 113.761 109.296 113.926 110.138C114.091 110.98 119.058 130.722 139.806 142.151C131.169 149.184 127.52 151.043 114.948 151.973C102.377 152.903 94.6511 152.148 83.0574 145.979C65.6833 148.681 52.2653 156.293 49.8917 144.875C47.518 133.467 50.8367 117.991 47.474 111.997C44.1113 105.993 48.6169 97.538 48.8696 97.538C49.1224 97.538 94.6511 85.4961 94.6511 85.4961V85.507Z" fill="#D54141"/>
        <path fill-rule="evenodd" clip-rule="evenodd" d="M123.29 88.1429C116.949 90.5491 112.795 88.7773 109.498 87.9132C117.597 88.2523 126.103 85.8242 126.103 85.8242L125.74 87.1476C124.949 85.9336 123.96 87.8914 123.279 88.1429H123.29Z" fill="#D77676"/>
        <path fill-rule="evenodd" clip-rule="evenodd" d="M104.782 87.6508C108.09 88.2742 111.387 87.8586 114.299 87.0273C109.804 97.1006 98.4744 104.68 90.0675 109.624C82.0124 114.36 80.0343 123.481 80.375 126.916C80.5398 128.655 81.4739 130.416 82.9245 130.416C83.9575 130.416 85.2103 129.53 86.4411 127.911L88.2653 128.677C87.562 133.445 84.3861 136.409 79.9903 136.409C76.7705 136.409 73.4077 134.801 70.9791 132.1C70.5615 131.63 70.056 131.05 69.4736 130.383C67.5944 128.206 65.0009 125.209 61.7151 122.016C73.8693 110.335 49.4071 96.2365 64.1987 94.3881C81.7376 92.1897 101.035 89.182 104.782 87.6398V87.6508Z" fill="#A52123"/>
        <path fill-rule="evenodd" clip-rule="evenodd" d="M100.454 59.9703C101.092 60.8672 105.421 60.9875 107.718 56.1641C110.015 51.3408 104.971 48.4315 102.081 49.6346C99.1905 50.8377 99.1905 58.1985 100.454 59.9703Z" fill="#EFC4B1"/>
        <path fill-rule="evenodd" clip-rule="evenodd" d="M104.804 59.5855C102.848 60.7995 100.87 60.5479 100.452 59.9683C99.1777 58.1964 99.1777 50.8356 102.079 49.6325C102.848 49.3154 103.782 49.2825 104.672 49.5122C103.661 49.9497 102.145 51.2622 102.332 53.2528C102.518 55.2434 102.936 58.9074 104.804 59.5855Z" fill="#DBA896"/>
        <path fill-rule="evenodd" clip-rule="evenodd" d="M45.2427 59.9703C44.6053 60.8672 40.2755 60.9875 37.9788 56.1641C35.682 51.3408 40.7261 48.4315 43.6163 49.6346C46.5065 50.8377 46.5065 58.1985 45.2427 59.9703Z" fill="#FBD8CC"/>
        <path fill-rule="evenodd" clip-rule="evenodd" d="M40.0117 49.8848C41.1876 49.316 42.5502 49.1957 43.6162 49.6441C46.5064 50.8472 46.5064 58.208 45.2426 59.9799C44.847 60.5267 43.0777 60.7783 41.2315 59.7939C45.0448 57.5846 40.9019 50.2457 40.0227 49.8957L40.0117 49.8848Z" fill="#EFC4B1"/>
        <path fill-rule="evenodd" clip-rule="evenodd" d="M96.5632 77.9829C96.5632 77.9829 103.19 71.0049 101.53 57.0598C99.871 43.1148 101.805 43.3664 101.794 40.8289C101.783 38.2915 89.8048 29.2901 69.4196 32.5822C49.0344 35.8743 39.6056 42.6007 40.6276 44.5038C41.6496 46.4069 44.5728 53.3849 43.8145 61.3691C43.0453 69.3533 42.287 87.6186 50.562 90.1561C58.8479 92.6935 80.7606 104.735 96.5522 77.9829H96.5632Z" fill="#FBD8CC"/>
        <path fill-rule="evenodd" clip-rule="evenodd" d="M47.0571 87.5631C42.5625 81.6132 43.1889 67.9853 43.8262 61.3683C44.5955 53.3841 41.6613 46.4061 40.6393 44.503C40.0569 43.4202 42.8702 40.7734 49.1451 38.0938C49.8813 41.8124 49.8044 48.6264 49.4198 58.448C48.9143 71.5071 65.8048 71.7696 65.7279 72.1415C62.7059 85.9225 55.1452 88.9959 47.0461 87.5522L47.0571 87.5631Z" fill="#F8D2C7"/>
        <path fill-rule="evenodd" clip-rule="evenodd" d="M43.8246 40.8398C44.462 46.1663 46.3741 53.5818 45.5389 61.9488C44.7147 70.3158 47.3851 77.2172 53.1215 79.8859C57.3414 81.8437 50.1544 83.8234 44.8796 83.0031C42.8246 76.2657 43.3191 66.6081 43.8246 61.3691C44.5938 53.3849 41.6597 46.4069 40.6377 44.5038C40.2641 43.8038 41.319 42.4367 43.8246 40.8398Z" fill="#EFC4B1"/>
        <path d="M53.1561 1.24609C52.5737 1.01641 47.7274 4.23197 48.4527 4.89914C49.178 5.56632 49.4857 5.65382 48.6175 6.50693C50.4198 8.4647 57.1123 10.5865 57.0793 9.52562C57.0463 8.4647 55.6727 2.23045 53.1451 1.24609H53.1561Z" fill="#45361F"/>
        <path d="M68.7497 19.9496C68.7167 19.6105 67.387 0.590613 50.9141 0C46.837 3.63118 48.4525 4.8999 48.4525 4.8999C48.4525 4.8999 52.4416 5.49052 54.3977 7.0108C51.002 5.40302 48.6173 6.50768 48.6173 6.50768C48.6173 6.50768 47.4305 8.61858 50.3206 13.0154C56.4307 10.9045 63.9913 17.7512 64.7606 21.1308C65.5298 24.5105 68.8706 21.098 68.7497 19.9496Z" fill="#AF6520"/>
        <path d="M50.3203 13.0154C49.4411 11.6811 48.9466 10.5545 48.6719 9.63578C53.8588 7.02177 59.7931 10.128 62.0898 13.2341C64.3756 16.3403 65.9031 18.2434 67.046 17.8059C67.4856 17.6419 67.8262 16.8435 68.057 15.8482C68.6175 18.1778 68.7383 19.8512 68.7493 19.9496C68.8702 21.109 65.5185 24.5105 64.7602 21.1309C63.991 17.7512 56.4413 10.9045 50.3203 13.0154Z" fill="#9E5619"/>
        <path fill-rule="evenodd" clip-rule="evenodd" d="M91.2328 70.2516C99.6397 67.7142 96.5737 50.827 96.5517 46.4193C96.5407 42.0115 95.134 40.5131 90.2988 38.9819C85.4525 37.4507 86.3646 34.2351 87.6613 33.8195C88.1778 33.6555 88.7383 33.5461 89.3207 33.4805C95.7275 35.1648 99.3759 38.0632 99.4968 39.4085C99.7166 41.935 97.7605 41.8366 100.53 55.6066C103.299 69.3766 97.255 76.8577 97.255 76.8577C95.9363 79.5592 94.5406 81.8998 93.0681 83.9232C92.057 83.6826 91.123 83.442 90.3207 83.3107C86.1778 82.6326 82.826 72.7891 91.2328 70.2516Z" fill="#FBE4DE"/>
        <path d="M101.541 57.0617C101.541 57.0617 104.091 71.8927 115.805 81.4081C112.234 92.5641 99.4973 100.931 91.0905 105.875C82.6836 110.818 80.5187 120.203 80.9034 124.129C81.288 128.056 84.7276 130.976 88.8047 125.649C87.5299 134.268 78.3978 134.235 73.2878 128.548C68.1668 122.86 51.485 100.92 25.748 100.548C38.3638 85.3346 42.9463 65.8115 43.8364 61.371C43.8364 78.3566 51.2213 79.3738 51.2213 79.3738C51.2213 79.3738 46.7596 61.2398 61.6721 66.5662C76.5736 71.8927 82.31 66.5662 86.387 65.5491C90.4641 64.5319 96.0686 66.6865 93.3982 77.9738C100.278 73.1505 101.805 61.1085 101.552 57.0508L101.541 57.0617Z" fill="#AF6520"/>
        <path fill-rule="evenodd" clip-rule="evenodd" d="M84.8049 74.1014C81.1564 75.8404 70.4089 79.8872 58.6174 74.2764C58.3646 74.1561 58.1229 74.4405 58.2767 74.6701C62.2548 80.5107 63.2769 87.7402 71.8815 87.7402C80.4861 87.7402 80.2993 79.0013 84.9917 74.3748C85.1346 74.2436 84.9697 74.0139 84.8049 74.1014Z" fill="#7D2018"/>
        <path fill-rule="evenodd" clip-rule="evenodd" d="M71.8811 87.2365C77.0791 87.2365 78.9033 83.66 80.8154 79.8757C81.6287 78.2679 82.4638 76.6164 83.5847 75.1836C80.8704 76.2992 76.5076 77.6445 71.2547 77.6445C67.0568 77.6445 62.9908 76.7804 59.1445 75.0742C59.9358 76.3101 60.6061 77.5898 61.2545 78.8366C63.6282 83.3428 65.6722 87.2255 71.8701 87.2255L71.8811 87.2365Z" fill="white"/>
        <path d="M70.5411 44.2972C76.4864 43.455 78.7941 38.8067 85.4097 38.5551C92.0362 38.3036 98.8826 42.8644 101.806 40.8301C104.729 38.8067 95.6847 25.1023 70.7719 25.9991C45.8701 26.8851 39.6282 42.241 40.6392 44.516C41.6612 46.7909 43.6943 38.8067 54.7825 40.2067C66.5081 41.6832 64.5959 45.1503 70.5411 44.3082V44.2972Z" fill="#AF6520"/>
        <path d="M68.3308 26.8856C71.3858 26.7106 75.5508 26.3825 73.9353 21.8107C72.3199 17.2389 61.1108 18.9342 61.3636 22.7404C61.6163 26.5466 62.5504 27.2247 68.3308 26.8856Z" fill="#9E5619"/>
        <path d="M73.9352 21.8096C74.3528 22.9908 74.3858 23.8877 74.144 24.5658C72.9242 25.3424 71.0121 25.4736 69.4076 25.572C63.6272 25.9111 62.6931 25.233 62.4404 21.4268C62.4184 21.1534 62.4734 20.8909 62.5613 20.6393C65.4515 18.5065 72.6604 18.2222 73.9352 21.8096Z" fill="#AF6520"/>
        <path fill-rule="evenodd" clip-rule="evenodd" d="M72.3762 63.12C74.2994 63.12 76.1456 62.9887 77.8269 62.759C78.2665 62.6934 78.5083 63.2731 78.1346 63.5247C76.684 64.4762 74.64 65.0559 72.3872 65.0559C70.1344 65.0559 68.0794 64.4653 66.6398 63.5247C66.2662 63.284 66.497 62.6934 66.9475 62.759C68.6289 62.9997 70.4641 63.12 72.3982 63.12H72.3762Z" fill="#635643"/>
        <path fill-rule="evenodd" clip-rule="evenodd" d="M85.267 56.4703C83.3549 56.4703 81.5746 56.6453 80.0801 56.9297C81.179 56.1422 83.0802 55.6172 85.267 55.6172C87.4539 55.6172 89.355 56.1422 90.454 56.9297C88.9594 56.6344 87.1792 56.4703 85.267 56.4703Z" fill="#141414"/>
        <path fill-rule="evenodd" clip-rule="evenodd" d="M83.0247 55.2226C83.0247 55.6382 83.1565 56.032 83.3763 56.3492C83.5521 56.5898 84.2335 56.207 84.9368 56.207C85.6951 56.207 86.4863 56.5679 86.6621 56.2835C86.8599 55.9773 86.9698 55.6164 86.9698 55.2226C86.9698 54.1398 86.0907 53.2539 84.9917 53.2539C83.8928 53.2539 83.0137 54.1289 83.0137 55.2226H83.0247Z" fill="#141414"/>
        <path fill-rule="evenodd" clip-rule="evenodd" d="M58.4409 56.4703C60.353 56.4703 62.1333 56.6453 63.6278 56.9297C62.5289 56.1422 60.6277 55.6172 58.4409 55.6172C56.254 55.6172 54.3528 56.1422 53.2539 56.9297C54.7485 56.6344 56.5287 56.4703 58.4409 56.4703Z" fill="#141414"/>
        <path fill-rule="evenodd" clip-rule="evenodd" d="M60.6932 55.2226C60.6932 55.6382 60.5613 56.032 60.3416 56.3492C60.1657 56.5898 59.4844 56.207 58.7811 56.207C58.0228 56.207 57.2316 56.5679 57.0557 56.2835C56.8579 55.9773 56.748 55.6164 56.748 55.2226C56.748 54.1398 57.6272 53.2539 58.7261 53.2539C59.8251 53.2539 60.7042 54.1289 60.7042 55.2226H60.6932Z" fill="#141414"/>
        <path fill-rule="evenodd" clip-rule="evenodd" d="M65.4521 80.257C66.8038 80.607 70.1555 80.9351 70.7379 80.9898C71.3204 81.0445 71.8039 80.8914 71.7709 80.4429C71.738 79.9945 71.8698 78.6164 71.8698 78.6164V80.3117C71.8698 81.2742 72.3204 81.1757 73.738 81.2742C75.1556 81.3726 76.2875 81.1429 76.3535 80.8914C76.4194 80.6398 76.1886 79.6117 76.3864 78.5508C76.3864 79.3492 76.4853 79.9945 76.7381 80.8585C77.9909 81.0335 79.3316 80.9679 80.4415 80.8257C78.6612 84.26 76.7051 87.2787 71.9028 87.2787C65.6719 87.2787 63.5839 83.3851 61.1992 78.868C62.9355 79.557 64.7048 80.0601 65.4521 80.257Z" fill="#6B1E15"/>
        <path d="M130.111 96.3344C130.278 90.5983 128.491 85.8928 126.119 85.8244C123.747 85.756 121.688 90.3505 121.521 96.0866C121.354 101.823 123.142 106.528 125.514 106.597C127.886 106.665 129.944 102.07 130.111 96.3344Z" fill="#141414"/>
        <path fill-rule="evenodd" clip-rule="evenodd" d="M36.0566 169.014C37.3314 174.21 51.6834 179.055 80.7721 171.989C109.861 164.924 141.092 147.348 139.818 142.152C128.169 140.096 109.751 139.659 86.7723 145.062C57.6286 151.919 37.738 163.918 36.0566 169.003V169.014Z" fill="#141414"/>
        <path fill-rule="evenodd" clip-rule="evenodd" d="M124.959 143.934C124.728 150.704 119.014 185.54 86.2984 210.783C85.3533 211.516 83.8038 210.509 84.3643 209.459C88.3204 202.142 91.7271 185.879 89.7271 179.863C89.4853 179.141 88.6831 178.802 88.0017 179.13C83.1884 181.482 76.6608 182.368 68.4298 182.444C67.8254 182.444 67.3089 182.871 67.177 183.461C64.6165 195.175 53.1107 207.578 45.583 213.167C44.605 213.889 43.2862 212.926 43.6929 211.778C48.3194 198.916 51.0777 178.857 47.1984 162.385C47.0776 161.871 47.2973 161.335 47.7589 161.062C73.2321 145.958 115.31 143.004 123.673 142.665C124.387 142.633 124.97 143.212 124.948 143.923L124.959 143.934Z" fill="#515050"/>
        <path d="M43.8255 61.3672C43.8255 70.3576 45.8914 74.8747 47.8475 77.1387C46.5178 81.9512 45.0233 85.9323 44.7156 87.2339C44.0343 90.1104 40.133 92.3088 44.7156 95.0431C55.0785 97.7883 69.3426 112.247 72.3757 119.685C75.3977 127.122 80.222 127.297 80.9034 124.125C81.288 128.052 84.7276 130.972 88.8047 125.646C87.5299 134.264 78.3978 134.231 73.2878 128.544C68.1668 122.857 51.485 100.916 25.748 100.545C38.3638 85.3308 42.9463 65.8077 43.8364 61.3672H43.8255Z" fill="#9E5619"/>
        <path d="M57.2661 70.8182C53.8264 73.7385 55.1012 79.9836 55.6067 80.9133C56.1122 81.843 55.0352 84.4461 52.0351 83.7461C49.0461 83.0461 44.7053 80.8367 44.1668 80.1039C43.8701 79.6993 44.4086 75.7837 45.1778 72.0213C47.3097 78.8352 51.211 79.3712 51.211 79.3712C51.211 79.3712 46.7493 61.2371 61.6618 66.5636C76.5633 71.8901 82.2997 66.5636 86.3767 65.5464C87.146 65.3496 87.9812 65.273 88.7944 65.3496C87.0141 65.798 83.058 70.2932 75.0358 70.8073C67.0136 71.3104 60.7057 67.887 57.2661 70.8073V70.8182Z" fill="#9E5619"/>
        <path d="M93.1901 102.262C105.168 94.486 110.52 91.1064 113.575 82.9253C103.19 71.0693 102.135 62.8116 101.531 57.0586C101.531 57.0586 104.08 71.8896 115.795 81.405C112.224 92.561 99.487 100.928 91.0801 105.872C82.6733 110.815 80.5084 120.2 80.8931 124.126C80.904 124.246 80.915 124.356 80.937 124.465C78.5194 114.622 84.5635 107.851 93.1901 102.251V102.262Z" fill="#9E5619"/>
        <path d="M95.4205 87.737C96.8271 82.4106 92.2556 84.3355 90.3325 81.1528C88.4093 77.97 90.9589 71.2545 88.794 69.603C86.6291 67.9515 87.7829 66.814 90.4533 67.6999C90.9259 67.8531 91.5523 67.5577 92.2446 66.9671C93.937 68.7499 94.7612 72.1295 93.3765 77.97C97.6404 74.9842 99.8382 69.2312 100.849 64.3203C101.278 67.8202 102.025 71.5608 103.322 74.0654C106.377 79.9934 110.597 80.8794 108.3 84.8058C106.003 88.7323 100.399 95.076 91.9809 99.2649C87.2664 102.437 94.0139 93.0526 95.4205 87.7261V87.737Z" fill="#B56B2D"/>
        <path d="M85.7274 60.4179C88.3371 60.4179 90.4528 59.7813 90.4528 58.9961C90.4528 58.2108 88.3371 57.5742 85.7274 57.5742C83.1176 57.5742 81.002 58.2108 81.002 58.9961C81.002 59.7813 83.1176 60.4179 85.7274 60.4179Z" fill="#FBD8CC"/>
        <path d="M99.3098 41.3302C96.9691 41.1552 93.7932 39.8537 90.3865 39.099C90.3535 39.0662 90.3315 39.0224 90.2986 38.9896C87.2216 32.4491 85.8589 33.1054 74.1113 27.5273C91.1557 27.5273 98.8592 36.2772 99.3098 41.3411V41.3302Z" fill="#BF753C"/>
        <path d="M50.4518 37.7107C53.7047 36.7482 57.8367 37.7216 64.9907 41.9653C71.3315 45.7277 77.013 41.2106 80.09 39.8872C80.09 39.8872 80.101 39.8872 80.112 39.8872C76.9361 41.3966 74.5734 43.7262 70.5403 44.3059C64.5951 45.1481 66.5072 41.6809 54.7816 40.2044C43.6934 38.8044 41.6604 46.7887 40.6384 44.5137C39.6603 42.3262 45.3968 28.064 67.9578 26.1719C69.4853 26.5 63.4302 29.4531 58.7158 30.3062C53.4959 31.2577 47.199 38.6732 50.4518 37.7107Z" fill="#9E5619"/>
        <path d="M72.6385 21.7321C72.8693 22.3993 72.8912 22.9024 72.7594 23.2961C72.067 23.7336 70.9901 23.8102 70.078 23.8649C66.8141 24.0508 66.2757 23.6789 66.1328 21.5243C66.1328 21.3712 66.1548 21.218 66.1987 21.0758C67.8362 19.8618 71.9132 19.7087 72.6385 21.743V21.7321Z" fill="#BF753C"/>
        <path d="M50.0232 0.851562C54.8255 1.39843 62.6059 3.77182 65.8038 13.1779C62.3971 4.93117 54.1332 3.24683 48.3418 3.15933C48.5836 2.56872 49.0891 1.80311 50.0232 0.851562Z" fill="#BF753C"/>
        <path fill-rule="evenodd" clip-rule="evenodd" d="M112.75 110.564C111.31 105.916 111.387 101.432 113.903 101.924C116.794 125.767 136.014 139.614 139.333 141.834L139.827 142.151C118.31 133.084 114.2 115.202 112.761 110.553L112.75 110.564Z" fill="#A52123"/>
        <path fill-rule="evenodd" clip-rule="evenodd" d="M47.2212 162.409C47.1003 161.895 47.3201 161.359 47.7816 161.085C73.2548 145.981 115.333 143.028 123.696 142.689C124.41 142.656 124.992 143.236 124.97 143.947C124.905 145.883 124.388 150.104 122.937 155.726C122.948 149.372 113.146 147.261 103.585 148.639C94.0356 150.006 65.4964 156.349 58.7379 165.351C58.2105 176.583 53.8367 195.067 50.0344 203.588C49.6498 204.452 50.6498 205.261 51.4191 204.714C54.8258 202.275 57.7929 200.394 59.8149 198.567C55.3532 204.714 49.8366 210.041 45.5947 213.191C44.6167 213.912 43.298 212.95 43.7046 211.802C48.3311 198.939 51.0894 178.88 47.2102 162.409H47.2212Z" fill="#2D2D2D"/>
        <path fill-rule="evenodd" clip-rule="evenodd" d="M88.0133 179.141C87.5847 179.348 87.1342 179.545 86.6836 179.731C87.0682 179.523 87.5078 179.327 88.0133 179.141Z" fill="#2E569F"/>
        <path fill-rule="evenodd" clip-rule="evenodd" d="M88.0128 179.14C92.6173 177.423 99.6615 172.95 101.53 171.43C98.3867 176.581 97.1999 176.417 95.7493 178.025C94.4525 179.469 94.0459 194.912 89.1008 204.099C88.7271 204.788 89.5183 205.521 90.1777 205.095C92.7162 203.465 95.2438 201.704 99.6065 198.532C95.7603 202.754 91.3536 206.888 86.2875 210.793C85.3424 211.526 83.7929 210.52 84.3534 209.47C88.3095 202.153 91.7162 185.889 89.7162 179.873C89.4744 179.151 88.6722 178.812 87.9908 179.14H88.0128Z" fill="#2D2D2D"/>
        <path fill-rule="evenodd" clip-rule="evenodd" d="M71.1229 178.736C71.4526 180.311 82.7166 180.946 85.3431 180.202C80.8704 181.744 75.2439 182.367 68.4305 182.422C67.8261 182.422 67.3096 182.849 67.1777 183.439C67.7821 181.153 70.002 173.41 71.1119 178.736H71.1229Z" fill="#2D2D2D"/>
        <path fill-rule="evenodd" clip-rule="evenodd" d="M117.718 163.95C115.794 168.533 111.223 179.93 102.431 188.8C93.64 197.681 99.6292 184.195 101.541 179.142C103.453 174.089 107.651 174.341 109.948 169.014C112.245 163.688 120.542 157.224 117.718 163.939V163.95Z" fill="#60605F"/>
        <path fill-rule="evenodd" clip-rule="evenodd" d="M64.8252 172.906C66.3088 174.011 65.4406 185.44 61.8581 191.226C58.2756 197.012 58.7701 189.257 60.6273 182.061C62.4845 174.864 60.8691 169.942 64.8252 172.895V172.906Z" fill="#60605F"/>
        <path d="M112.08 211.102C118.652 212.589 123.531 214.612 123.531 216.384C123.531 218.572 116.179 220.333 107.377 220.945C108.157 217.281 109.828 213.552 112.08 211.102Z" fill="#D5D6D6"/>
        <path d="M111.716 211.516C111.716 211.516 111.749 211.527 111.771 211.538C115.167 212.598 122.222 214.119 120.431 215.595C118.837 216.919 116.497 214.676 109.475 214.95C110.123 213.681 110.87 212.511 111.705 211.516H111.716Z" fill="#E2E1E2"/>
        <path d="M107.1 210.081L104.54 214.495C104.188 215.102 104.397 215.878 105.006 216.228L105.016 216.234C105.626 216.584 106.405 216.376 106.757 215.769L109.318 211.355C109.67 210.748 109.461 209.972 108.851 209.622L108.842 209.617C108.232 209.266 107.452 209.474 107.1 210.081Z" fill="#E2E1E2"/>
        <path d="M102.831 209.593L100.27 214.007C99.9182 214.614 100.127 215.389 100.737 215.74L100.746 215.745C101.356 216.096 102.136 215.888 102.488 215.281L105.048 210.867C105.4 210.26 105.191 209.484 104.582 209.134L104.572 209.128C103.962 208.778 103.183 208.986 102.831 209.593Z" fill="#E2E1E2"/>
        <path d="M98.5514 209.105L95.9909 213.518C95.6389 214.125 95.8478 214.901 96.4575 215.252L96.467 215.257C97.0767 215.607 97.8563 215.399 98.2084 214.793L100.769 210.379C101.121 209.772 100.912 208.996 100.302 208.646L100.293 208.64C99.6831 208.29 98.9034 208.498 98.5514 209.105Z" fill="#E2E1E2"/>
        <path fill-rule="evenodd" clip-rule="evenodd" d="M96.124 209.011C94.5086 208.847 91.3217 207.414 92.4645 206.014C93.6074 204.614 89.0249 205.248 88.1677 206.2C87.3106 207.151 85.4534 208.497 86.3105 210.783C88.0688 211.395 91.7942 212.292 94.9152 212.423C97.4647 210.968 96.6075 209.043 96.124 209V209.011Z" fill="#A41D1C"/>
        <path fill-rule="evenodd" clip-rule="evenodd" d="M86.3093 210.793C86.3093 210.793 92.6611 213.112 96.0019 213.516C94.914 214.293 87.1006 212.445 85.4082 211.11C86.0456 211.045 86.3203 210.804 86.3203 210.804L86.3093 210.793Z" fill="#841A19"/>
        <path fill-rule="evenodd" clip-rule="evenodd" d="M31.2859 215.762C28.6924 220.575 34.1211 221.122 41.5389 221.122C48.9567 221.122 55.9239 218.693 58.1547 215.762C58.1547 210.031 54.781 205.383 47.3632 205.383C39.9454 205.383 35.0003 208.861 31.2859 215.762Z" fill="#A41D1C"/>
        <path d="M30.6274 218.398C30.6274 218.398 30.6604 218.376 30.6714 218.365C31.1769 220.793 35.7484 221.121 41.5288 221.121C48.9466 221.121 55.9138 218.693 58.1446 215.762C57.9358 216.035 58.1446 219.349 58.1446 220.902C55.9138 223.833 48.9466 226.262 41.5288 226.262C34.111 226.262 28.0449 226.065 30.6164 218.387L30.6274 218.398Z" fill="#C6C5C5"/>
        <path d="M57.9473 215.999C58.0156 215.92 58.0953 215.841 58.1522 215.762C58.1295 215.784 58.1181 215.852 58.1067 215.931C58.0497 215.954 58.0042 215.976 57.9473 215.999Z" fill="#EFC4B1"/>
        <path d="M30.6273 218.396C30.6273 218.396 30.6603 218.374 30.6713 218.363C30.968 219.763 32.6164 220.463 35.067 220.813C36.5835 223.252 40.9793 223.351 46.0124 223.351C50.463 223.351 54.7489 222.476 57.9467 221.13C55.5291 223.952 48.7597 226.26 41.5287 226.26C34.2978 226.26 28.0449 226.063 30.6163 218.385L30.6273 218.396Z" fill="#EFC4B1"/>
        <path d="M30.6273 218.396C30.6273 218.396 30.6603 218.374 30.6713 218.363C30.968 219.763 32.6164 220.463 35.067 220.813C36.5835 223.252 40.9793 223.351 46.0124 223.351C50.463 223.351 54.7489 222.476 57.9467 221.13C55.5291 223.952 48.7597 226.26 41.5287 226.26C34.2978 226.26 28.0449 226.063 30.6163 218.385L30.6273 218.396Z" fill="#C6C5C5"/>
        <path d="M50.7711 219.851C48.0348 220.638 44.8259 221.119 41.5291 221.119C34.1113 221.119 28.6826 220.572 31.2761 215.76C31.8695 214.655 32.5069 213.638 33.1663 212.709C33.9905 212.621 34.8366 212.566 35.7048 212.566C42.9467 212.566 49.0128 215.662 50.7601 219.84L50.7711 219.851Z" fill="#D5D6D6"/>
        <path d="M35.1217 219.59C34.9898 219.24 33.2316 215.63 38.5943 212.754C42.8692 213.257 46.5286 214.854 48.8034 217.052C47.5616 217.916 45.2648 218.999 42.2208 219.327C37.5394 219.841 35.2646 219.951 35.1217 219.579V219.59Z" fill="#E2E1E2"/>
        <path fill-rule="evenodd" clip-rule="evenodd" d="M48.5622 209.527C49.2875 209.264 53.4744 202.527 48.5622 201.531C43.65 200.536 39.7048 201.488 39.8147 203.096C39.9246 204.703 41.5291 205.611 40.0455 207.131C38.562 208.652 44.6171 210.959 48.5622 209.527Z" fill="#A41D1C"/>
        <path fill-rule="evenodd" clip-rule="evenodd" d="M50.8595 205.787C50.8595 205.787 51.1452 205.863 51.332 205.918C51.5188 205.972 51.6397 209.429 45.123 211.255C50.1012 208.247 49.6067 207.46 50.6726 205.907C50.7056 205.743 50.8595 205.787 50.8595 205.787Z" fill="#841A19"/>
        <path d="M45.2653 210.334L37.6387 209.273C36.5947 209.131 35.5727 209.656 35.3859 210.454C35.1991 211.253 35.8914 212.018 36.9464 212.172L44.573 213.233C45.6169 213.375 46.6389 212.85 46.8258 212.051C47.0126 211.253 46.3203 210.487 45.2653 210.334Z" fill="#E2E1E2"/>
        <path d="M49.277 207.483L41.6504 206.422C40.6064 206.279 39.5844 206.804 39.3976 207.603C39.2108 208.401 39.9031 209.167 40.9581 209.32L48.5847 210.381C49.6287 210.523 50.6507 209.998 50.8375 209.2C51.0243 208.401 50.332 207.636 49.277 207.483Z" fill="#E2E1E2"/>
        <path fill-rule="evenodd" clip-rule="evenodd" d="M46.9565 110.727C46.6927 110.749 45.8795 115.004 48.1214 116.502C50.3632 118.001 65.5394 118.219 68.8252 116.83C72.6165 117.99 75.4627 119.313 75.155 119.565C74.8473 119.816 75.0012 119.926 73.177 120.713C71.3527 121.501 57.1875 122.813 55.8688 122.616C54.5501 122.419 45.1762 117.607 45.2861 113.757C45.396 109.918 46.9565 110.727 46.9565 110.727Z" fill="#A52123"/>
        <path fill-rule="evenodd" clip-rule="evenodd" d="M70.7374 112.511L70.8912 119.632C70.8912 119.632 50.9017 120.835 46.3191 114.644C41.7366 108.454 40.7585 104.899 46.8796 102.088C53.0006 99.2773 74.6276 102.646 74.6276 102.646L70.7374 112.522V112.511Z" fill="#D54141"/>
        <path d="M77.6053 113.036C79.1626 108.49 78.3202 104.092 75.7238 103.21C73.1273 102.329 69.7599 105.299 68.2026 109.844C66.6453 114.39 67.4877 118.789 70.0841 119.67C72.6806 120.551 76.0479 117.581 77.6053 113.036Z" fill="#141414"/>
        <path fill-rule="evenodd" clip-rule="evenodd" d="M108.101 111.899C92.8479 105.381 75.7376 106.846 75.287 106.726C75.287 106.726 69.8253 111.637 71.2539 116.242C78.5838 114.054 101.013 112.807 106.903 115.509C110.782 116.34 110.585 112.053 108.101 111.899Z" fill="#FBD8CC"/>
        <path d="M106.902 115.513C106.984 115.366 106.995 115.354 106.902 115.513V115.513Z" fill="#EFC4B1"/>
        <path d="M71.2539 116.24C70.4956 113.78 71.6934 111.231 72.9902 109.383C73.144 111.767 73.2649 113.419 77.8804 113.036C82.4959 112.642 99.7821 109.962 106.903 115.508C101.002 112.806 78.5727 114.042 71.2539 116.24Z" fill="#EFC4B1"/>
        <path d="M74.3411 107.69C74.8905 107.089 75.2752 106.728 75.2752 106.728C75.7147 106.848 92.1218 105.448 107.111 111.507C97.012 107.625 76.5499 107.308 74.3301 107.69H74.3411Z" fill="#EFC4B1"/>
        <path fill-rule="evenodd" clip-rule="evenodd" d="M108.035 110.817C108.651 108.083 110.981 106.06 113.783 105.732L116.464 105.425C116.464 105.425 123.42 104.189 124.014 110.358C124.607 116.516 119.321 121.295 111.706 118.944C107.508 117.653 107.343 113.913 108.035 110.817Z" fill="#FBD8CC"/>
        <path fill-rule="evenodd" clip-rule="evenodd" d="M115.442 117.73C109.277 118.835 107.595 113.322 107.54 113.158C107.419 115.477 108.255 117.883 111.694 118.944C119.31 121.296 124.596 116.516 124.002 110.358C123.783 108.061 121.695 116.625 115.431 117.741L115.442 117.73Z" fill="#EFC4B1"/>
        <path fill-rule="evenodd" clip-rule="evenodd" d="M112.563 108.223C112.794 109.568 113.442 111.602 114.267 111.996C115.091 112.39 120.608 109.021 120.443 107.884C120.278 106.746 112.014 104.974 112.563 108.223Z" fill="#FBE4DE"/>
        <path fill-rule="evenodd" clip-rule="evenodd" d="M159.521 93.4932C144.268 86.9746 127.157 88.4402 126.707 88.3199C126.707 88.3199 121.245 93.2307 122.674 97.8353C130.004 95.6479 152.433 94.401 158.323 97.1025C162.202 97.9337 162.005 93.6463 159.521 93.4932Z" fill="#FBD8CC"/>
        <path d="M158.334 97.115C158.415 96.9674 158.427 96.956 158.334 97.115V97.115Z" fill="#EFC4B1"/>
        <path d="M122.674 97.8342C121.916 95.3733 123.113 92.825 124.41 90.9766C124.564 93.3609 124.685 95.0124 129.3 94.6296C133.916 94.2359 151.202 91.5562 158.323 97.1014C152.422 94.3999 129.993 95.6358 122.674 97.8342Z" fill="#EFC4B1"/>
        <path d="M125.773 89.2841C126.322 88.6826 126.707 88.3216 126.707 88.3216C127.146 88.442 143.553 87.042 158.543 93.1012C148.444 89.2185 127.982 88.9013 125.762 89.2841H125.773Z" fill="#EFC4B1"/>
        <path fill-rule="evenodd" clip-rule="evenodd" d="M153.576 97.5831C154.192 94.8487 156.522 92.8254 159.324 92.4972L162.005 92.191C162.005 92.191 168.961 90.9551 169.555 97.1237C170.148 103.281 164.862 108.061 157.247 105.709C153.049 104.419 152.884 100.678 153.576 97.5831Z" fill="#FBD8CC"/>
        <path fill-rule="evenodd" clip-rule="evenodd" d="M160.983 104.496C154.818 105.6 153.136 100.088 153.081 99.9238C152.961 102.243 153.796 104.649 157.235 105.71C164.851 108.061 170.137 103.282 169.543 97.1239C169.324 94.827 167.236 103.391 160.972 104.507L160.983 104.496Z" fill="#EFC4B1"/>
        <path fill-rule="evenodd" clip-rule="evenodd" d="M158.102 94.9921C158.333 96.3374 158.982 98.3718 159.806 98.7655C160.63 99.1593 166.147 95.7906 165.982 94.6531C165.817 93.5156 157.553 91.7438 158.102 94.9921Z" fill="#FBE4DE"/>
        <path d="M137.641 214.929V140.862C137.641 139.007 136.133 137.504 134.272 137.504C132.412 137.504 130.904 139.007 130.904 140.862V214.929C130.904 216.783 132.412 218.287 134.272 218.287C136.133 218.287 137.641 216.783 137.641 214.929Z" fill="#58524F"/>
        <path d="M343.966 214.93H130.895V221.94H343.966V214.93Z" fill="#58524F"/>
        <path fill-rule="evenodd" clip-rule="evenodd" d="M343.977 221.939L406.736 202.241V195.23L343.977 214.929V221.939Z" fill="#605D5B"/>
        <path d="M108.909 111.326L102.452 113.118C101.125 113.487 100.349 114.856 100.719 116.177L101.188 117.852C101.558 119.173 102.934 119.945 104.261 119.577L110.718 117.785C112.045 117.416 112.821 116.047 112.451 114.726L111.982 113.051C111.612 111.73 110.236 110.958 108.909 111.326Z" fill="#58524F"/>
        <path d="M136.087 137.714L105.56 113.399C104.408 112.482 102.728 112.667 101.806 113.813L100.934 114.898C100.012 116.044 100.199 117.716 101.35 118.634L131.878 142.949C133.029 143.866 134.71 143.681 135.631 142.534L136.504 141.45C137.425 140.304 137.239 138.631 136.087 137.714Z" fill="#58524F"/>
        <path d="M156.096 98.1745L134.512 104.164C133.214 104.524 132.455 105.864 132.817 107.155L133.316 108.936C133.678 110.227 135.024 110.983 136.321 110.622L157.905 104.633C159.203 104.273 159.962 102.933 159.6 101.642L159.101 99.8613C158.739 98.5696 157.394 97.8144 156.096 98.1745Z" fill="#58524F"/>
    </g>
    <defs>
        <clipPath id="clip0_4305_36002">
            <rect width="410" height="237" fill="white"/>
        </clipPath>
    </defs>
</svg>
