<svg width="1280" height="268" viewBox="0 0 1280 268" fill="none" xmlns="http://www.w3.org/2000/svg">
    <rect x="109" y="131" width="1062" height="4" fill="#CACDD2"/>
    <path d="M229 2.2265L223.226 8L229 13.7735L234.774 8L229 2.2265ZM228 128V129H230V128H228ZM228 8L228 128H230L230 8H228Z" fill="#F5333F"/>
    <path d="M641 140V139H639V140H641ZM640 265.774L645.774 260L640 254.227L634.226 260L640 265.774ZM639 140V260H641V140H639Z" fill="#F5333F"/>
    <path d="M1051 7.2265L1045.23 13L1051 18.7735L1056.77 13L1051 7.2265ZM1050 133V134H1052V133H1050ZM1050 13V133H1052V13H1050Z" fill="#F5333F"/>
    <rect x="218" y="121" width="22" height="22" rx="1" fill="#F7F8FA" stroke="#F5333F" stroke-width="2"/>
    <rect x="629" y="121" width="22" height="22" rx="1" fill="#F7F8FA" stroke="#F5333F" stroke-width="2"/>
    <rect x="1040" y="120" width="22" height="22" rx="1" fill="#F7F8FA" stroke="#F5333F" stroke-width="2"/>
    <path d="M666.096 205.416C667.104 204.744 667.8 204.12 668.232 203.496C668.664 202.872 668.88 202.2 668.88 201.48C668.88 201.12 668.808 200.784 668.712 200.472C668.616 200.16 668.424 199.896 668.16 199.656C667.896 199.44 667.56 199.272 667.128 199.152C666.696 199.032 666.144 198.96 665.472 198.96C664.896 198.96 664.392 199.008 663.96 199.104C663.504 199.2 663.12 199.392 662.808 199.632C662.496 199.896 662.256 200.256 662.112 200.688C661.968 201.12 661.896 201.696 661.944 202.368H658.608C658.56 201.216 658.68 200.256 658.992 199.44C659.304 198.648 659.76 198 660.36 197.496C660.96 197.016 661.704 196.656 662.568 196.416C663.432 196.2 664.416 196.08 665.496 196.08C666.792 196.08 667.872 196.224 668.736 196.488C669.6 196.776 670.32 197.136 670.848 197.616C671.376 198.096 671.736 198.672 671.976 199.32C672.192 199.968 672.312 200.664 672.312 201.432C672.312 202.008 672.24 202.536 672.096 203.04C671.952 203.544 671.736 204.024 671.4 204.504C671.064 204.984 670.656 205.44 670.128 205.896C669.6 206.352 668.928 206.808 668.16 207.288L664.008 210.048V210.192H672.552V213H658.344V210.696L666.096 205.416ZM682.417 198.96C681.697 198.96 681.049 199.032 680.521 199.152C679.993 199.272 679.537 199.536 679.201 199.92C678.841 200.328 678.577 200.904 678.409 201.672C678.241 202.44 678.169 203.472 678.169 204.744C678.169 205.992 678.241 206.976 678.409 207.72C678.577 208.488 678.841 209.064 679.201 209.472C679.537 209.88 679.993 210.144 680.521 210.288C681.049 210.432 681.697 210.48 682.417 210.48C683.137 210.48 683.785 210.432 684.313 210.288C684.841 210.144 685.297 209.88 685.633 209.472C685.969 209.064 686.233 208.488 686.401 207.72C686.569 206.976 686.665 205.992 686.665 204.744C686.665 203.472 686.569 202.44 686.401 201.672C686.233 200.904 685.969 200.328 685.633 199.92C685.297 199.536 684.841 199.272 684.313 199.152C683.785 199.032 683.137 198.96 682.417 198.96ZM682.417 213.36C681.121 213.36 679.993 213.24 679.033 212.952C678.073 212.688 677.305 212.232 676.681 211.56C676.057 210.912 675.601 210.024 675.313 208.92C675.001 207.816 674.857 206.424 674.857 204.744C674.857 203.016 675.001 201.576 675.337 200.448C675.673 199.344 676.153 198.456 676.777 197.808C677.401 197.16 678.193 196.704 679.153 196.464C680.089 196.224 681.169 196.08 682.417 196.08C683.665 196.08 684.745 196.224 685.681 196.464C686.617 196.704 687.409 197.16 688.057 197.808C688.681 198.456 689.161 199.344 689.497 200.448C689.809 201.576 689.977 203.016 689.977 204.744C689.977 206.424 689.809 207.816 689.521 208.92C689.233 210.024 688.777 210.912 688.153 211.56C687.529 212.232 686.737 212.688 685.777 212.952C684.817 213.24 683.713 213.36 682.417 213.36ZM699.752 205.416C700.76 204.744 701.456 204.12 701.888 203.496C702.32 202.872 702.536 202.2 702.536 201.48C702.536 201.12 702.464 200.784 702.368 200.472C702.272 200.16 702.08 199.896 701.816 199.656C701.552 199.44 701.216 199.272 700.784 199.152C700.352 199.032 699.8 198.96 699.128 198.96C698.552 198.96 698.048 199.008 697.616 199.104C697.16 199.2 696.776 199.392 696.464 199.632C696.152 199.896 695.912 200.256 695.768 200.688C695.624 201.12 695.552 201.696 695.6 202.368H692.264C692.216 201.216 692.336 200.256 692.648 199.44C692.96 198.648 693.416 198 694.016 197.496C694.616 197.016 695.36 196.656 696.224 196.416C697.088 196.2 698.072 196.08 699.152 196.08C700.448 196.08 701.528 196.224 702.392 196.488C703.256 196.776 703.976 197.136 704.504 197.616C705.032 198.096 705.392 198.672 705.632 199.32C705.848 199.968 705.968 200.664 705.968 201.432C705.968 202.008 705.896 202.536 705.752 203.04C705.608 203.544 705.392 204.024 705.056 204.504C704.72 204.984 704.312 205.44 703.784 205.896C703.256 206.352 702.584 206.808 701.816 207.288L697.664 210.048V210.192H706.208V213H692V210.696L699.752 205.416ZM715.653 213.36C714.501 213.36 713.445 213.264 712.533 213.048C711.597 212.856 710.805 212.496 710.157 212.016C709.509 211.536 709.005 210.912 708.669 210.12C708.333 209.352 708.165 208.368 708.189 207.192H711.525C711.525 207.864 711.645 208.392 711.837 208.824C712.029 209.256 712.293 209.592 712.653 209.832C712.989 210.072 713.421 210.24 713.925 210.336C714.405 210.432 714.981 210.48 715.605 210.48C716.421 210.48 717.069 210.432 717.597 210.288C718.125 210.168 718.533 209.976 718.845 209.736C719.157 209.496 719.373 209.184 719.493 208.824C719.613 208.488 719.685 208.08 719.685 207.624C719.685 207.216 719.637 206.856 719.541 206.52C719.445 206.184 719.277 205.92 718.989 205.68C718.701 205.44 718.317 205.272 717.789 205.128C717.261 205.008 716.541 204.936 715.653 204.936H713.637V202.896L717.621 199.248H709.053V196.44H721.773V198.672L717.093 202.848L718.005 202.872C719.589 202.92 720.837 203.352 721.725 204.168C722.589 204.984 723.045 206.184 723.045 207.72C723.045 208.608 722.901 209.4 722.661 210.096C722.397 210.792 721.989 211.392 721.413 211.872C720.837 212.352 720.069 212.736 719.133 212.976C718.173 213.24 717.021 213.36 715.653 213.36Z" fill="#4E5359"/>
    <path d="M667.672 239.88C667.672 240.936 667.272 241.768 666.472 242.36C665.672 242.952 664.44 243.24 662.76 243.24C662.056 243.24 661.416 243.192 660.808 243.064C660.2 242.952 659.656 242.744 659.192 242.456C658.728 242.168 658.36 241.784 658.072 241.304C657.784 240.824 657.608 240.2 657.56 239.464H659.128C659.176 239.976 659.304 240.392 659.528 240.712C659.752 241.032 660.024 241.272 660.344 241.432C660.664 241.592 661.048 241.704 661.464 241.752C661.88 241.816 662.312 241.832 662.76 241.832C663.384 241.832 663.912 241.8 664.344 241.704C664.76 241.608 665.112 241.48 665.384 241.32C665.656 241.16 665.848 240.952 665.976 240.696C666.088 240.456 666.152 240.184 666.152 239.864C666.152 239.576 666.12 239.32 666.056 239.096C665.992 238.872 665.88 238.68 665.72 238.52C665.544 238.36 665.304 238.248 665 238.168C664.696 238.088 664.296 238.04 663.8 238.04H662.136V236.68H663.768C664.232 236.68 664.6 236.632 664.872 236.52C665.128 236.408 665.336 236.264 665.48 236.088C665.624 235.928 665.72 235.736 665.752 235.528C665.784 235.336 665.816 235.128 665.816 234.936C665.816 234.36 665.56 233.928 665.048 233.608C664.536 233.288 663.784 233.128 662.792 233.128C662.392 233.128 661.992 233.16 661.576 233.224C661.16 233.288 660.792 233.4 660.472 233.576C660.152 233.768 659.88 234.008 659.688 234.328C659.496 234.648 659.4 235.08 659.432 235.608H657.896C657.864 234.872 657.976 234.264 658.248 233.752C658.504 233.256 658.872 232.856 659.336 232.552C659.784 232.264 660.312 232.04 660.92 231.912C661.528 231.784 662.152 231.72 662.792 231.72C664.264 231.72 665.384 232.024 666.168 232.6C666.952 233.192 667.352 233.96 667.352 234.904C667.352 235.512 667.16 236.024 666.792 236.424C666.408 236.824 665.928 237.096 665.32 237.24V237.352C666.168 237.448 666.776 237.72 667.128 238.168C667.48 238.616 667.672 239.192 667.672 239.88ZM670.649 238.232H675.273V235H676.681V243H675.273V239.432H670.649V243H669.241V235H670.649V238.232ZM681.177 243.24C680.729 243.24 680.329 243.208 679.961 243.112C679.593 243.016 679.273 242.872 679.017 242.664C678.745 242.472 678.537 242.2 678.393 241.88C678.233 241.56 678.169 241.16 678.169 240.696C678.169 240.424 678.201 240.136 678.297 239.848C678.393 239.56 678.553 239.288 678.809 239.048C679.049 238.808 679.385 238.616 679.817 238.456C680.249 238.312 680.809 238.232 681.497 238.232C681.817 238.232 682.089 238.248 682.345 238.248C682.601 238.248 682.825 238.264 683.049 238.264C683.257 238.28 683.465 238.296 683.673 238.296C683.881 238.312 684.105 238.328 684.361 238.328V237.656C684.361 237.048 684.185 236.616 683.833 236.36C683.481 236.104 682.921 235.96 682.121 235.96C681.769 235.96 681.449 235.992 681.193 236.024C680.921 236.072 680.697 236.152 680.505 236.28C680.313 236.408 680.169 236.568 680.057 236.776C679.929 236.984 679.849 237.24 679.801 237.56H678.441C678.505 237.032 678.633 236.584 678.825 236.232C679.017 235.88 679.257 235.592 679.561 235.368C679.865 235.16 680.233 235 680.665 234.904C681.081 234.808 681.577 234.76 682.121 234.76C683.257 234.76 684.153 234.984 684.793 235.432C685.433 235.88 685.769 236.632 685.769 237.656V243H684.361V241.672H684.201C683.945 242.216 683.545 242.616 683.001 242.872C682.457 243.128 681.849 243.24 681.177 243.24ZM681.641 242.04C681.961 242.04 682.265 242.024 682.585 241.976C682.905 241.928 683.193 241.832 683.449 241.704C683.705 241.576 683.913 241.384 684.073 241.144C684.233 240.904 684.329 240.584 684.361 240.2V239.368C683.913 239.352 683.481 239.336 683.097 239.32C682.713 239.32 682.361 239.304 682.041 239.304C681.497 239.304 681.049 239.352 680.729 239.416C680.409 239.496 680.153 239.592 679.993 239.72C679.817 239.848 679.705 240.008 679.657 240.168C679.593 240.328 679.577 240.504 679.577 240.68C679.577 241.208 679.737 241.56 680.073 241.752C680.409 241.944 680.937 242.04 681.641 242.04ZM687.376 235H688.768V237.624C688.768 238.104 688.896 238.456 689.184 238.712C689.472 238.968 689.92 239.08 690.56 239.08C691.008 239.08 691.424 239.064 691.808 239.032C692.192 239 692.608 238.92 693.056 238.808V235H694.464V243H693.056V239.96C692.624 240.056 692.224 240.136 691.84 240.2C691.456 240.264 691.04 240.28 690.576 240.28C689.504 240.28 688.704 240.056 688.176 239.576C687.632 239.112 687.376 238.456 687.376 237.624V235ZM702.207 243V237.384L697.119 243H696.319V235H697.727V240.68L702.815 235H703.615V243H702.207ZM706.883 237.544V243H705.475V235H706.307L709.891 239.016L713.475 235H714.307V243H712.899V237.56L709.875 240.776L706.883 237.544ZM720.066 242.04C720.482 242.04 720.866 242.008 721.218 241.928C721.554 241.848 721.842 241.704 722.082 241.48C722.322 241.256 722.514 240.952 722.642 240.568C722.77 240.184 722.834 239.672 722.834 239.048C722.834 238.408 722.77 237.896 722.642 237.496C722.514 237.096 722.322 236.776 722.082 236.552C721.842 236.328 721.554 236.168 721.218 236.088C720.866 236.008 720.482 235.96 720.066 235.96C719.634 235.96 719.25 236.008 718.914 236.088C718.562 236.168 718.274 236.312 718.05 236.536C717.81 236.76 717.634 237.08 717.506 237.48C717.378 237.896 717.314 238.408 717.314 239.048C717.314 239.672 717.378 240.184 717.506 240.568C717.634 240.952 717.81 241.256 718.05 241.48C718.274 241.704 718.562 241.848 718.914 241.928C719.25 242.008 719.634 242.04 720.066 242.04ZM720.066 234.76C720.706 234.76 721.298 234.84 721.81 234.968C722.322 235.112 722.77 235.352 723.122 235.672C723.474 236.008 723.746 236.456 723.938 237C724.13 237.544 724.226 238.232 724.226 239.048C724.226 239.848 724.13 240.52 723.938 241.048C723.746 241.592 723.474 242.024 723.122 242.344C722.77 242.664 722.322 242.904 721.81 243.032C721.298 243.176 720.706 243.24 720.066 243.24C719.41 243.24 718.834 243.176 718.322 243.032C717.81 242.904 717.362 242.664 717.01 242.344C716.658 242.024 716.386 241.592 716.194 241.048C716.002 240.52 715.906 239.848 715.906 239.048C715.906 238.232 716.002 237.544 716.194 237C716.386 236.456 716.658 236.008 717.01 235.672C717.362 235.352 717.81 235.112 718.322 234.968C718.834 234.84 719.41 234.76 720.066 234.76ZM733.611 239.528H726.971C726.971 240.04 727.051 240.472 727.179 240.792C727.307 241.112 727.499 241.368 727.739 241.56C727.979 241.752 728.267 241.88 728.603 241.944C728.939 242.008 729.307 242.04 729.723 242.04C730.043 242.04 730.331 242.024 730.619 241.976C730.891 241.944 731.131 241.864 731.355 241.752C731.579 241.656 731.755 241.512 731.915 241.32C732.059 241.128 732.155 240.888 732.219 240.584H733.611C733.531 241.08 733.387 241.496 733.163 241.832C732.939 242.184 732.667 242.456 732.331 242.664C731.995 242.872 731.611 243.016 731.179 243.112C730.731 243.208 730.251 243.24 729.723 243.24C729.067 243.24 728.491 243.176 727.979 243.032C727.467 242.904 727.019 242.664 726.667 242.344C726.315 242.024 726.043 241.592 725.851 241.048C725.659 240.52 725.563 239.848 725.563 239.048C725.563 238.232 725.659 237.544 725.851 237C726.043 236.456 726.315 236.008 726.667 235.672C727.019 235.352 727.451 235.112 727.963 234.968C728.475 234.84 729.051 234.76 729.691 234.76C730.907 234.76 731.867 235.064 732.571 235.672C733.259 236.28 733.611 237.208 733.611 238.456V239.528ZM729.691 235.96C729.307 235.96 728.971 235.992 728.651 236.056C728.331 236.12 728.043 236.248 727.803 236.424C727.563 236.6 727.371 236.84 727.227 237.16C727.083 237.48 727.003 237.88 726.987 238.392H732.187C732.187 237.912 732.123 237.528 731.995 237.208C731.867 236.888 731.707 236.648 731.483 236.456C731.259 236.28 731.003 236.152 730.699 236.072C730.395 236.008 730.059 235.96 729.691 235.96ZM746.501 240.392C746.421 240.936 746.277 241.384 746.053 241.736C745.829 242.104 745.557 242.392 745.221 242.616C744.885 242.84 744.501 243 744.069 243.096C743.621 243.192 743.141 243.24 742.613 243.24C741.957 243.24 741.381 243.176 740.869 243.032C740.357 242.904 739.909 242.664 739.557 242.344C739.205 242.024 738.933 241.592 738.741 241.048C738.549 240.52 738.453 239.848 738.453 239.048C738.453 238.232 738.549 237.544 738.741 237C738.933 236.456 739.205 236.008 739.557 235.672C739.909 235.352 740.357 235.112 740.869 234.968C741.381 234.84 741.957 234.76 742.613 234.76C743.125 234.76 743.589 234.808 744.037 234.904C744.469 235 744.853 235.16 745.173 235.368C745.493 235.592 745.765 235.88 745.989 236.232C746.213 236.584 746.357 237.032 746.453 237.56H745.045C744.981 237.24 744.869 236.984 744.725 236.776C744.565 236.568 744.389 236.408 744.181 236.28C743.957 236.152 743.717 236.072 743.461 236.024C743.205 235.992 742.917 235.96 742.613 235.96C742.181 235.96 741.797 236.008 741.461 236.088C741.109 236.168 740.821 236.312 740.597 236.536C740.357 236.76 740.181 237.08 740.053 237.48C739.925 237.896 739.861 238.408 739.861 239.048C739.861 239.672 739.925 240.184 740.053 240.568C740.181 240.952 740.357 241.256 740.597 241.48C740.821 241.704 741.109 241.848 741.461 241.928C741.797 242.008 742.181 242.04 742.613 242.04C742.933 242.04 743.221 242.024 743.509 241.976C743.781 241.928 744.021 241.848 744.245 241.72C744.453 241.592 744.629 241.432 744.789 241.208C744.933 241 745.045 240.728 745.109 240.392H746.501ZM751.848 242.04C752.264 242.04 752.648 242.008 753 241.928C753.336 241.848 753.624 241.704 753.864 241.48C754.104 241.256 754.296 240.952 754.424 240.568C754.552 240.184 754.616 239.672 754.616 239.048C754.616 238.408 754.552 237.896 754.424 237.496C754.296 237.096 754.104 236.776 753.864 236.552C753.624 236.328 753.336 236.168 753 236.088C752.648 236.008 752.264 235.96 751.848 235.96C751.416 235.96 751.032 236.008 750.696 236.088C750.344 236.168 750.056 236.312 749.832 236.536C749.592 236.76 749.416 237.08 749.288 237.48C749.16 237.896 749.096 238.408 749.096 239.048C749.096 239.672 749.16 240.184 749.288 240.568C749.416 240.952 749.592 241.256 749.832 241.48C750.056 241.704 750.344 241.848 750.696 241.928C751.032 242.008 751.416 242.04 751.848 242.04ZM751.848 234.76C752.488 234.76 753.08 234.84 753.592 234.968C754.104 235.112 754.552 235.352 754.904 235.672C755.256 236.008 755.528 236.456 755.72 237C755.912 237.544 756.008 238.232 756.008 239.048C756.008 239.848 755.912 240.52 755.72 241.048C755.528 241.592 755.256 242.024 754.904 242.344C754.552 242.664 754.104 242.904 753.592 243.032C753.08 243.176 752.488 243.24 751.848 243.24C751.192 243.24 750.616 243.176 750.104 243.032C749.592 242.904 749.144 242.664 748.792 242.344C748.44 242.024 748.168 241.592 747.976 241.048C747.784 240.52 747.688 239.848 747.688 239.048C747.688 238.232 747.784 237.544 747.976 237C748.168 236.456 748.44 236.008 748.792 235.672C749.144 235.352 749.592 235.112 750.104 234.968C750.616 234.84 751.192 234.76 751.848 234.76ZM761.6 243.24C760.928 243.24 760.32 243.176 759.792 243.032C759.264 242.904 758.816 242.664 758.464 242.328C758.096 241.992 757.824 241.544 757.632 240.984C757.44 240.424 757.344 239.72 757.344 238.888C757.344 238.12 757.344 237.4 757.376 236.712C757.392 236.024 757.504 235.4 757.696 234.84C757.888 234.28 758.192 233.784 758.624 233.368C759.056 232.952 759.68 232.648 760.496 232.424C761.552 232.152 762.416 231.928 763.056 231.752C763.696 231.576 764.192 231.416 764.512 231.256L764.912 232.488C764.672 232.6 764.432 232.696 764.208 232.776C763.984 232.856 763.712 232.936 763.424 233.016C763.136 233.096 762.784 233.192 762.4 233.288C762 233.4 761.504 233.528 760.928 233.672C760.368 233.816 759.936 234.024 759.648 234.312C759.36 234.6 759.152 234.92 759.024 235.24C758.896 235.56 758.816 235.896 758.8 236.216C758.768 236.552 758.752 236.84 758.752 237.064H758.912C759.168 236.52 759.552 236.12 760.064 235.832C760.576 235.544 761.216 235.4 761.984 235.4C762.496 235.4 762.96 235.464 763.408 235.576C763.856 235.688 764.24 235.88 764.576 236.168C764.896 236.456 765.168 236.856 765.36 237.336C765.552 237.832 765.648 238.456 765.648 239.208C765.648 239.976 765.552 240.616 765.376 241.128C765.184 241.64 764.928 242.056 764.576 242.376C764.224 242.696 763.808 242.92 763.312 243.048C762.8 243.176 762.24 243.24 761.6 243.24ZM761.6 242.04C762.016 242.04 762.384 242.008 762.704 241.928C763.024 241.864 763.312 241.72 763.536 241.512C763.76 241.304 763.936 241.016 764.064 240.648C764.192 240.28 764.256 239.8 764.256 239.208C764.256 238.68 764.192 238.248 764.08 237.896C763.952 237.56 763.792 237.288 763.568 237.096C763.344 236.904 763.056 236.776 762.736 236.712C762.4 236.648 762.016 236.6 761.584 236.6C761.168 236.6 760.8 236.648 760.448 236.712C760.096 236.776 759.808 236.904 759.552 237.096C759.296 237.288 759.088 237.56 758.944 237.896C758.8 238.248 758.736 238.68 758.736 239.208C758.736 239.8 758.8 240.28 758.928 240.648C759.056 241.016 759.248 241.304 759.504 241.512C759.744 241.72 760.048 241.864 760.4 241.928C760.752 242.008 761.152 242.04 761.6 242.04ZM770.665 237.912C771.177 237.912 771.625 237.976 771.977 238.104C772.329 238.232 772.617 238.392 772.841 238.616C773.065 238.84 773.225 239.112 773.321 239.4C773.417 239.704 773.465 240.024 773.465 240.376C773.465 241.16 773.241 241.8 772.825 242.28C772.393 242.76 771.737 243 770.841 243H767.241V235H768.649V237.912H770.665ZM776.185 235V243H774.777V235H776.185ZM768.649 239.048V241.8H770.521C770.985 241.8 771.353 241.704 771.641 241.496C771.929 241.304 772.073 240.92 772.073 240.376C772.073 239.992 771.977 239.688 771.785 239.432C771.593 239.176 771.209 239.048 770.649 239.048H768.649ZM784.453 235V236.2H781.541V243H780.133V236.2H777.221V235H784.453ZM791.379 243V237.384L786.291 243H785.491V235H786.899V240.68L791.987 235H792.786V243H791.379ZM802.439 239.528H795.799C795.799 240.04 795.879 240.472 796.007 240.792C796.135 241.112 796.327 241.368 796.567 241.56C796.807 241.752 797.095 241.88 797.431 241.944C797.767 242.008 798.135 242.04 798.551 242.04C798.871 242.04 799.159 242.024 799.447 241.976C799.719 241.944 799.959 241.864 800.183 241.752C800.407 241.656 800.583 241.512 800.743 241.32C800.887 241.128 800.983 240.888 801.047 240.584H802.439C802.359 241.08 802.215 241.496 801.991 241.832C801.767 242.184 801.495 242.456 801.159 242.664C800.823 242.872 800.439 243.016 800.007 243.112C799.559 243.208 799.079 243.24 798.551 243.24C797.895 243.24 797.319 243.176 796.807 243.032C796.295 242.904 795.847 242.664 795.495 242.344C795.143 242.024 794.871 241.592 794.679 241.048C794.487 240.52 794.391 239.848 794.391 239.048C794.391 238.232 794.487 237.544 794.679 237C794.871 236.456 795.143 236.008 795.495 235.672C795.847 235.352 796.279 235.112 796.791 234.968C797.303 234.84 797.879 234.76 798.519 234.76C799.735 234.76 800.695 235.064 801.399 235.672C802.087 236.28 802.439 237.208 802.439 238.456V239.528ZM798.519 235.96C798.135 235.96 797.799 235.992 797.479 236.056C797.159 236.12 796.871 236.248 796.631 236.424C796.391 236.6 796.199 236.84 796.055 237.16C795.911 237.48 795.831 237.88 795.815 238.392H801.015C801.015 237.912 800.951 237.528 800.823 237.208C800.695 236.888 800.535 236.648 800.311 236.456C800.087 236.28 799.831 236.152 799.527 236.072C799.223 236.008 798.887 235.96 798.519 235.96ZM811.165 235.96C810.813 235.96 810.509 235.992 810.237 236.024C809.949 236.072 809.709 236.152 809.501 236.28C809.293 236.408 809.133 236.568 809.005 236.776C808.877 236.984 808.813 237.24 808.781 237.56H807.373C807.421 237.032 807.549 236.584 807.741 236.232C807.933 235.88 808.189 235.592 808.509 235.368C808.829 235.16 809.213 235 809.661 234.904C810.109 234.808 810.605 234.76 811.165 234.76C811.821 234.76 812.381 234.824 812.829 234.952C813.277 235.08 813.629 235.24 813.917 235.448C814.189 235.656 814.381 235.896 814.509 236.168C814.637 236.44 814.701 236.728 814.701 237.016C814.701 237.592 814.541 238.04 814.253 238.328C813.949 238.616 813.533 238.792 812.989 238.84V239.048C813.597 239.112 814.077 239.272 814.413 239.544C814.733 239.832 814.909 240.264 814.909 240.872C814.909 241.224 814.829 241.544 814.701 241.832C814.557 242.12 814.333 242.376 814.029 242.584C813.725 242.792 813.341 242.952 812.861 243.064C812.381 243.192 811.805 243.24 811.133 243.24C809.933 243.24 809.005 243.032 808.365 242.616C807.725 242.2 807.357 241.464 807.277 240.392H808.669C808.733 241.064 808.973 241.496 809.373 241.72C809.773 241.944 810.365 242.04 811.133 242.04C811.901 242.04 812.493 241.96 812.909 241.768C813.309 241.576 813.517 241.224 813.517 240.696C813.517 240.36 813.421 240.088 813.229 239.864C813.037 239.64 812.653 239.528 812.093 239.528H810.221V238.392H812.109C812.557 238.392 812.877 238.28 813.053 238.056C813.213 237.832 813.309 237.576 813.309 237.256C813.309 237.08 813.277 236.92 813.229 236.76C813.165 236.6 813.069 236.472 812.909 236.344C812.749 236.232 812.525 236.136 812.253 236.072C811.965 236.008 811.613 235.96 811.165 235.96ZM819.006 243.24C818.558 243.24 818.158 243.208 817.789 243.112C817.422 243.016 817.102 242.872 816.846 242.664C816.574 242.472 816.366 242.2 816.222 241.88C816.062 241.56 815.998 241.16 815.998 240.696C815.998 240.424 816.03 240.136 816.126 239.848C816.222 239.56 816.382 239.288 816.638 239.048C816.878 238.808 817.214 238.616 817.646 238.456C818.078 238.312 818.638 238.232 819.326 238.232C819.646 238.232 819.918 238.248 820.174 238.248C820.43 238.248 820.654 238.264 820.878 238.264C821.086 238.28 821.294 238.296 821.502 238.296C821.71 238.312 821.934 238.328 822.19 238.328V237.656C822.19 237.048 822.014 236.616 821.662 236.36C821.31 236.104 820.75 235.96 819.95 235.96C819.598 235.96 819.278 235.992 819.022 236.024C818.75 236.072 818.526 236.152 818.334 236.28C818.142 236.408 817.998 236.568 817.886 236.776C817.758 236.984 817.678 237.24 817.63 237.56H816.27C816.334 237.032 816.462 236.584 816.654 236.232C816.846 235.88 817.086 235.592 817.39 235.368C817.694 235.16 818.062 235 818.494 234.904C818.91 234.808 819.406 234.76 819.95 234.76C821.086 234.76 821.982 234.984 822.622 235.432C823.262 235.88 823.598 236.632 823.598 237.656V243H822.19V241.672H822.03C821.774 242.216 821.374 242.616 820.83 242.872C820.286 243.128 819.678 243.24 819.006 243.24ZM819.47 242.04C819.79 242.04 820.094 242.024 820.414 241.976C820.734 241.928 821.022 241.832 821.278 241.704C821.534 241.576 821.742 241.384 821.902 241.144C822.062 240.904 822.158 240.584 822.19 240.2V239.368C821.742 239.352 821.31 239.336 820.926 239.32C820.542 239.32 820.19 239.304 819.87 239.304C819.326 239.304 818.878 239.352 818.558 239.416C818.238 239.496 817.982 239.592 817.822 239.72C817.646 239.848 817.534 240.008 817.486 240.168C817.422 240.328 817.406 240.504 817.406 240.68C817.406 241.208 817.566 241.56 817.902 241.752C818.238 241.944 818.766 242.04 819.47 242.04ZM663.416 257.96C664.024 257.512 664.504 257.064 664.84 256.632C665.176 256.2 665.352 255.704 665.352 255.128C665.352 254.84 665.304 254.584 665.224 254.328C665.144 254.088 665 253.88 664.792 253.704C664.584 253.528 664.312 253.384 663.96 253.288C663.608 253.192 663.144 253.128 662.6 253.128C662.216 253.128 661.848 253.16 661.496 253.224C661.144 253.288 660.824 253.4 660.568 253.576C660.296 253.768 660.088 254.008 659.944 254.328C659.8 254.648 659.736 255.08 659.768 255.608H658.232C658.2 254.872 658.28 254.264 658.504 253.752C658.728 253.256 659.032 252.856 659.432 252.552C659.816 252.264 660.296 252.04 660.84 251.912C661.384 251.784 661.96 251.72 662.6 251.72C663.448 251.72 664.152 251.816 664.712 251.992C665.272 252.168 665.72 252.408 666.04 252.712C666.36 253.016 666.6 253.368 666.728 253.784C666.856 254.2 666.936 254.648 666.936 255.128C666.936 255.528 666.872 255.896 666.776 256.216C666.68 256.552 666.52 256.872 666.312 257.176C666.088 257.496 665.816 257.8 665.48 258.104C665.128 258.408 664.728 258.728 664.248 259.064L660.76 261.512V261.592H667.208V263H657.976V261.96L663.416 257.96ZM673.803 253.128C673.243 253.128 672.763 253.176 672.347 253.272C671.931 253.368 671.579 253.56 671.307 253.864C671.019 254.168 670.811 254.6 670.667 255.176C670.523 255.752 670.459 256.536 670.459 257.496C670.459 258.424 670.523 259.176 670.667 259.752C670.811 260.328 671.019 260.76 671.307 261.064C671.579 261.384 671.931 261.592 672.347 261.688C672.763 261.784 673.243 261.832 673.803 261.832C674.347 261.832 674.843 261.784 675.259 261.688C675.675 261.592 676.011 261.384 676.299 261.064C676.587 260.76 676.795 260.328 676.939 259.752C677.067 259.176 677.147 258.424 677.147 257.496C677.147 256.536 677.067 255.752 676.939 255.176C676.795 254.6 676.587 254.168 676.299 253.864C676.011 253.56 675.675 253.368 675.259 253.272C674.843 253.176 674.347 253.128 673.803 253.128ZM673.803 263.24C672.987 263.24 672.283 263.16 671.675 262.968C671.067 262.792 670.555 262.488 670.155 262.04C669.739 261.608 669.435 261.016 669.243 260.28C669.051 259.544 668.955 258.616 668.955 257.496C668.955 256.344 669.051 255.384 669.275 254.632C669.483 253.896 669.787 253.304 670.203 252.872C670.619 252.44 671.115 252.136 671.723 251.976C672.331 251.816 673.019 251.72 673.803 251.72C674.571 251.72 675.259 251.816 675.867 251.976C676.475 252.136 676.971 252.44 677.387 252.872C677.803 253.304 678.107 253.896 678.331 254.632C678.539 255.384 678.651 256.344 678.651 257.496C678.651 258.616 678.539 259.544 678.347 260.28C678.155 261.016 677.851 261.608 677.451 262.04C677.035 262.488 676.539 262.792 675.931 262.968C675.323 263.16 674.619 263.24 673.803 263.24ZM685.666 257.96C686.274 257.512 686.754 257.064 687.09 256.632C687.426 256.2 687.602 255.704 687.602 255.128C687.602 254.84 687.554 254.584 687.474 254.328C687.394 254.088 687.25 253.88 687.042 253.704C686.834 253.528 686.562 253.384 686.21 253.288C685.858 253.192 685.394 253.128 684.85 253.128C684.466 253.128 684.098 253.16 683.746 253.224C683.394 253.288 683.074 253.4 682.818 253.576C682.546 253.768 682.338 254.008 682.194 254.328C682.05 254.648 681.986 255.08 682.018 255.608H680.482C680.45 254.872 680.53 254.264 680.754 253.752C680.978 253.256 681.282 252.856 681.682 252.552C682.066 252.264 682.546 252.04 683.09 251.912C683.634 251.784 684.21 251.72 684.85 251.72C685.698 251.72 686.402 251.816 686.962 251.992C687.522 252.168 687.97 252.408 688.29 252.712C688.61 253.016 688.85 253.368 688.978 253.784C689.106 254.2 689.186 254.648 689.186 255.128C689.186 255.528 689.122 255.896 689.026 256.216C688.93 256.552 688.77 256.872 688.562 257.176C688.338 257.496 688.066 257.8 687.73 258.104C687.378 258.408 686.978 258.728 686.498 259.064L683.01 261.512V261.592H689.458V263H680.226V261.96L685.666 257.96ZM695.805 263.24C695.101 263.24 694.461 263.192 693.869 263.064C693.277 262.952 692.765 262.744 692.333 262.456C691.901 262.168 691.565 261.784 691.309 261.304C691.053 260.824 690.925 260.2 690.925 259.464H692.493C692.493 259.976 692.589 260.392 692.765 260.712C692.941 261.032 693.181 261.272 693.485 261.432C693.773 261.592 694.125 261.704 694.525 261.752C694.925 261.816 695.357 261.832 695.805 261.832C696.461 261.832 697.005 261.784 697.421 261.688C697.837 261.592 698.157 261.432 698.397 261.24C698.637 261.048 698.797 260.824 698.893 260.552C698.989 260.28 699.037 259.976 699.037 259.64C699.037 259.32 699.005 259.016 698.941 258.76C698.877 258.504 698.733 258.296 698.525 258.104C698.317 257.928 698.013 257.784 697.613 257.688C697.197 257.592 696.653 257.544 695.981 257.544H694.445V256.44L697.693 253.368H691.517V251.96H699.741V253.064L696.205 256.376H697.005C698.189 256.376 699.069 256.664 699.661 257.224C700.253 257.784 700.557 258.6 700.557 259.656C700.557 260.216 700.461 260.712 700.301 261.16C700.141 261.608 699.869 261.976 699.485 262.28C699.101 262.6 698.621 262.84 698.013 263C697.405 263.16 696.669 263.24 695.805 263.24ZM706.147 255H712.035V256.2H707.555V263H706.147V255ZM716.848 262.04C717.264 262.04 717.648 262.008 718 261.928C718.336 261.848 718.624 261.704 718.864 261.48C719.104 261.256 719.296 260.952 719.424 260.568C719.552 260.184 719.616 259.672 719.616 259.048C719.616 258.408 719.552 257.896 719.424 257.496C719.296 257.096 719.104 256.776 718.864 256.552C718.624 256.328 718.336 256.168 718 256.088C717.648 256.008 717.264 255.96 716.848 255.96C716.416 255.96 716.032 256.008 715.696 256.088C715.344 256.168 715.056 256.312 714.832 256.536C714.592 256.76 714.416 257.08 714.288 257.48C714.16 257.896 714.096 258.408 714.096 259.048C714.096 259.672 714.16 260.184 714.288 260.568C714.416 260.952 714.592 261.256 714.832 261.48C715.056 261.704 715.344 261.848 715.696 261.928C716.032 262.008 716.416 262.04 716.848 262.04ZM716.848 254.76C717.488 254.76 718.08 254.84 718.592 254.968C719.104 255.112 719.552 255.352 719.904 255.672C720.256 256.008 720.528 256.456 720.72 257C720.912 257.544 721.008 258.232 721.008 259.048C721.008 259.848 720.912 260.52 720.72 261.048C720.528 261.592 720.256 262.024 719.904 262.344C719.552 262.664 719.104 262.904 718.592 263.032C718.08 263.176 717.488 263.24 716.848 263.24C716.192 263.24 715.616 263.176 715.104 263.032C714.592 262.904 714.144 262.664 713.792 262.344C713.44 262.024 713.168 261.592 712.976 261.048C712.784 260.52 712.688 259.848 712.688 259.048C712.688 258.232 712.784 257.544 712.976 257C713.168 256.456 713.44 256.008 713.792 255.672C714.144 255.352 714.592 255.112 715.104 254.968C715.616 254.84 716.192 254.76 716.848 254.76ZM723.468 255H730.028V261.8H731.356V265.4H729.948V263H723.036V265.4H721.628V261.8H722.492C722.7 261.688 722.86 261.496 722.988 261.208C723.116 260.936 723.212 260.6 723.292 260.216C723.356 259.832 723.404 259.416 723.436 258.936C723.452 258.472 723.468 257.992 723.468 257.496V255ZM724.828 257.688C724.828 258.744 724.748 259.592 724.62 260.248C724.492 260.92 724.316 261.432 724.108 261.8H728.62V256.2H724.828V257.688Z" fill="#4E5359"/>
    <path d="M1077.1 15.416C1078.1 14.744 1078.8 14.12 1079.23 13.496C1079.66 12.872 1079.88 12.2 1079.88 11.48C1079.88 11.12 1079.81 10.784 1079.71 10.472C1079.62 10.16 1079.42 9.896 1079.16 9.656C1078.9 9.44 1078.56 9.272 1078.13 9.152C1077.7 9.032 1077.14 8.96 1076.47 8.96C1075.9 8.96 1075.39 9.008 1074.96 9.104C1074.5 9.2 1074.12 9.392 1073.81 9.632C1073.5 9.896 1073.26 10.256 1073.11 10.688C1072.97 11.12 1072.9 11.696 1072.94 12.368H1069.61C1069.56 11.216 1069.68 10.256 1069.99 9.44C1070.3 8.648 1070.76 8 1071.36 7.496C1071.96 7.016 1072.7 6.656 1073.57 6.416C1074.43 6.2 1075.42 6.08 1076.5 6.08C1077.79 6.08 1078.87 6.224 1079.74 6.488C1080.6 6.776 1081.32 7.136 1081.85 7.616C1082.38 8.096 1082.74 8.672 1082.98 9.32C1083.19 9.968 1083.31 10.664 1083.31 11.432C1083.31 12.008 1083.24 12.536 1083.1 13.04C1082.95 13.544 1082.74 14.024 1082.4 14.504C1082.06 14.984 1081.66 15.44 1081.13 15.896C1080.6 16.352 1079.93 16.808 1079.16 17.288L1075.01 20.048V20.192H1083.55V23H1069.34V20.696L1077.1 15.416ZM1093.42 8.96C1092.7 8.96 1092.05 9.032 1091.52 9.152C1090.99 9.272 1090.54 9.536 1090.2 9.92C1089.84 10.328 1089.58 10.904 1089.41 11.672C1089.24 12.44 1089.17 13.472 1089.17 14.744C1089.17 15.992 1089.24 16.976 1089.41 17.72C1089.58 18.488 1089.84 19.064 1090.2 19.472C1090.54 19.88 1090.99 20.144 1091.52 20.288C1092.05 20.432 1092.7 20.48 1093.42 20.48C1094.14 20.48 1094.79 20.432 1095.31 20.288C1095.84 20.144 1096.3 19.88 1096.63 19.472C1096.97 19.064 1097.23 18.488 1097.4 17.72C1097.57 16.976 1097.67 15.992 1097.67 14.744C1097.67 13.472 1097.57 12.44 1097.4 11.672C1097.23 10.904 1096.97 10.328 1096.63 9.92C1096.3 9.536 1095.84 9.272 1095.31 9.152C1094.79 9.032 1094.14 8.96 1093.42 8.96ZM1093.42 23.36C1092.12 23.36 1090.99 23.24 1090.03 22.952C1089.07 22.688 1088.31 22.232 1087.68 21.56C1087.06 20.912 1086.6 20.024 1086.31 18.92C1086 17.816 1085.86 16.424 1085.86 14.744C1085.86 13.016 1086 11.576 1086.34 10.448C1086.67 9.344 1087.15 8.456 1087.78 7.808C1088.4 7.16 1089.19 6.704 1090.15 6.464C1091.09 6.224 1092.17 6.08 1093.42 6.08C1094.67 6.08 1095.75 6.224 1096.68 6.464C1097.62 6.704 1098.41 7.16 1099.06 7.808C1099.68 8.456 1100.16 9.344 1100.5 10.448C1100.81 11.576 1100.98 13.016 1100.98 14.744C1100.98 16.424 1100.81 17.816 1100.52 18.92C1100.23 20.024 1099.78 20.912 1099.15 21.56C1098.53 22.232 1097.74 22.688 1096.78 22.952C1095.82 23.24 1094.71 23.36 1093.42 23.36ZM1110.75 15.416C1111.76 14.744 1112.46 14.12 1112.89 13.496C1113.32 12.872 1113.54 12.2 1113.54 11.48C1113.54 11.12 1113.46 10.784 1113.37 10.472C1113.27 10.16 1113.08 9.896 1112.82 9.656C1112.55 9.44 1112.22 9.272 1111.78 9.152C1111.35 9.032 1110.8 8.96 1110.13 8.96C1109.55 8.96 1109.05 9.008 1108.62 9.104C1108.16 9.2 1107.78 9.392 1107.46 9.632C1107.15 9.896 1106.91 10.256 1106.77 10.688C1106.62 11.12 1106.55 11.696 1106.6 12.368H1103.26C1103.22 11.216 1103.34 10.256 1103.65 9.44C1103.96 8.648 1104.42 8 1105.02 7.496C1105.62 7.016 1106.36 6.656 1107.22 6.416C1108.09 6.2 1109.07 6.08 1110.15 6.08C1111.45 6.08 1112.53 6.224 1113.39 6.488C1114.26 6.776 1114.98 7.136 1115.5 7.616C1116.03 8.096 1116.39 8.672 1116.63 9.32C1116.85 9.968 1116.97 10.664 1116.97 11.432C1116.97 12.008 1116.9 12.536 1116.75 13.04C1116.61 13.544 1116.39 14.024 1116.06 14.504C1115.72 14.984 1115.31 15.44 1114.78 15.896C1114.26 16.352 1113.58 16.808 1112.82 17.288L1108.66 20.048V20.192H1117.21V23H1103V20.696L1110.75 15.416ZM1129.44 20.792H1118.74V18.272L1129.68 6.44H1132.59V18.104H1134.08V20.792H1132.59V23H1129.44V20.792ZM1129.44 18.104V10.856L1122.75 18.104H1129.44Z" fill="#4E5359"/>
    <path d="M1074.48 53.24C1073.55 53.24 1072.72 53.16 1072.02 52.968C1071.31 52.792 1070.72 52.488 1070.24 52.04C1069.76 51.608 1069.39 51.016 1069.15 50.28C1068.91 49.544 1068.8 48.616 1068.8 47.496C1068.8 46.344 1068.93 45.384 1069.18 44.632C1069.44 43.896 1069.82 43.304 1070.3 42.872C1070.78 42.44 1071.39 42.136 1072.1 41.976C1072.8 41.816 1073.58 41.72 1074.48 41.72C1075.36 41.72 1076.16 41.816 1076.86 41.976C1077.57 42.136 1078.16 42.44 1078.66 42.872C1079.14 43.304 1079.52 43.896 1079.78 44.632C1080.03 45.384 1080.16 46.344 1080.16 47.496C1080.16 48.616 1080.03 49.544 1079.79 50.28C1079.55 51.016 1079.2 51.608 1078.72 52.04C1078.24 52.488 1077.63 52.792 1076.93 52.968C1076.22 53.16 1075.41 53.24 1074.48 53.24ZM1074.48 51.832C1075.14 51.832 1075.73 51.784 1076.24 51.688C1076.75 51.592 1077.2 51.384 1077.55 51.064C1077.9 50.76 1078.18 50.328 1078.37 49.752C1078.56 49.176 1078.66 48.424 1078.66 47.496C1078.66 46.536 1078.56 45.768 1078.37 45.192C1078.18 44.616 1077.9 44.184 1077.55 43.88C1077.2 43.576 1076.75 43.368 1076.24 43.272C1075.73 43.176 1075.14 43.128 1074.48 43.128C1073.81 43.128 1073.22 43.176 1072.7 43.272C1072.19 43.368 1071.74 43.56 1071.39 43.864C1071.04 44.168 1070.77 44.6 1070.58 45.176C1070.38 45.752 1070.3 46.536 1070.3 47.496C1070.3 48.424 1070.38 49.176 1070.58 49.752C1070.77 50.328 1071.04 50.76 1071.39 51.064C1071.74 51.384 1072.19 51.592 1072.7 51.688C1073.22 51.784 1073.81 51.832 1074.48 51.832ZM1085.88 53.24C1085.21 53.24 1084.6 53.176 1084.07 53.032C1083.55 52.904 1083.1 52.664 1082.75 52.328C1082.38 51.992 1082.11 51.544 1081.91 50.984C1081.72 50.424 1081.63 49.72 1081.63 48.888C1081.63 48.12 1081.63 47.4 1081.66 46.712C1081.67 46.024 1081.79 45.4 1081.98 44.84C1082.17 44.28 1082.47 43.784 1082.91 43.368C1083.34 42.952 1083.96 42.648 1084.78 42.424C1085.83 42.152 1086.7 41.928 1087.34 41.752C1087.98 41.576 1088.47 41.416 1088.79 41.256L1089.19 42.488C1088.95 42.6 1088.71 42.696 1088.49 42.776C1088.27 42.856 1087.99 42.936 1087.71 43.016C1087.42 43.096 1087.07 43.192 1086.68 43.288C1086.28 43.4 1085.79 43.528 1085.21 43.672C1084.65 43.816 1084.22 44.024 1083.93 44.312C1083.64 44.6 1083.43 44.92 1083.31 45.24C1083.18 45.56 1083.1 45.896 1083.08 46.216C1083.05 46.552 1083.03 46.84 1083.03 47.064H1083.19C1083.45 46.52 1083.83 46.12 1084.35 45.832C1084.86 45.544 1085.5 45.4 1086.27 45.4C1086.78 45.4 1087.24 45.464 1087.69 45.576C1088.14 45.688 1088.52 45.88 1088.86 46.168C1089.18 46.456 1089.45 46.856 1089.64 47.336C1089.83 47.832 1089.93 48.456 1089.93 49.208C1089.93 49.976 1089.83 50.616 1089.66 51.128C1089.47 51.64 1089.21 52.056 1088.86 52.376C1088.51 52.696 1088.09 52.92 1087.59 53.048C1087.08 53.176 1086.52 53.24 1085.88 53.24ZM1085.88 52.04C1086.3 52.04 1086.67 52.008 1086.99 51.928C1087.31 51.864 1087.59 51.72 1087.82 51.512C1088.04 51.304 1088.22 51.016 1088.35 50.648C1088.47 50.28 1088.54 49.8 1088.54 49.208C1088.54 48.68 1088.47 48.248 1088.36 47.896C1088.23 47.56 1088.07 47.288 1087.85 47.096C1087.63 46.904 1087.34 46.776 1087.02 46.712C1086.68 46.648 1086.3 46.6 1085.87 46.6C1085.45 46.6 1085.08 46.648 1084.73 46.712C1084.38 46.776 1084.09 46.904 1083.83 47.096C1083.58 47.288 1083.37 47.56 1083.23 47.896C1083.08 48.248 1083.02 48.68 1083.02 49.208C1083.02 49.8 1083.08 50.28 1083.21 50.648C1083.34 51.016 1083.53 51.304 1083.79 51.512C1084.03 51.72 1084.33 51.864 1084.68 51.928C1085.03 52.008 1085.43 52.04 1085.88 52.04ZM1092.93 48.232H1097.55V45H1098.96V53H1097.55V49.432H1092.93V53H1091.52V45H1092.93V48.232ZM1104.72 52.04C1105.14 52.04 1105.52 52.008 1105.87 51.928C1106.21 51.848 1106.5 51.704 1106.74 51.48C1106.98 51.256 1107.17 50.952 1107.3 50.568C1107.43 50.184 1107.49 49.672 1107.49 49.048C1107.49 48.408 1107.43 47.896 1107.3 47.496C1107.17 47.096 1106.98 46.776 1106.74 46.552C1106.5 46.328 1106.21 46.168 1105.87 46.088C1105.52 46.008 1105.14 45.96 1104.72 45.96C1104.29 45.96 1103.91 46.008 1103.57 46.088C1103.22 46.168 1102.93 46.312 1102.71 46.536C1102.47 46.76 1102.29 47.08 1102.16 47.48C1102.03 47.896 1101.97 48.408 1101.97 49.048C1101.97 49.672 1102.03 50.184 1102.16 50.568C1102.29 50.952 1102.47 51.256 1102.71 51.48C1102.93 51.704 1103.22 51.848 1103.57 51.928C1103.91 52.008 1104.29 52.04 1104.72 52.04ZM1104.72 44.76C1105.36 44.76 1105.95 44.84 1106.47 44.968C1106.98 45.112 1107.43 45.352 1107.78 45.672C1108.13 46.008 1108.4 46.456 1108.59 47C1108.79 47.544 1108.88 48.232 1108.88 49.048C1108.88 49.848 1108.79 50.52 1108.59 51.048C1108.4 51.592 1108.13 52.024 1107.78 52.344C1107.43 52.664 1106.98 52.904 1106.47 53.032C1105.95 53.176 1105.36 53.24 1104.72 53.24C1104.07 53.24 1103.49 53.176 1102.98 53.032C1102.47 52.904 1102.02 52.664 1101.67 52.344C1101.31 52.024 1101.04 51.592 1100.85 51.048C1100.66 50.52 1100.56 49.848 1100.56 49.048C1100.56 48.232 1100.66 47.544 1100.85 47C1101.04 46.456 1101.31 46.008 1101.67 45.672C1102.02 45.352 1102.47 45.112 1102.98 44.968C1103.49 44.84 1104.07 44.76 1104.72 44.76ZM1110.47 45H1114.7C1115.21 45 1115.64 45.064 1115.99 45.176C1116.35 45.304 1116.62 45.448 1116.84 45.64C1117.07 45.832 1117.23 46.04 1117.32 46.28C1117.42 46.52 1117.47 46.76 1117.47 47.016C1117.47 47.592 1117.31 48.04 1117.02 48.328C1116.71 48.616 1116.3 48.792 1115.75 48.84V49.048C1116.36 49.112 1116.84 49.272 1117.18 49.544C1117.5 49.832 1117.67 50.264 1117.67 50.872C1117.67 51.176 1117.61 51.448 1117.51 51.704C1117.42 51.96 1117.26 52.184 1117.03 52.376C1116.81 52.568 1116.54 52.728 1116.22 52.84C1115.88 52.952 1115.5 53 1115.05 53H1110.47V45ZM1111.88 49.528V51.8H1114.73C1115.19 51.8 1115.56 51.72 1115.85 51.56C1116.14 51.4 1116.28 51.112 1116.28 50.696C1116.28 50.36 1116.19 50.088 1115.99 49.864C1115.8 49.64 1115.42 49.528 1114.86 49.528H1111.88ZM1111.88 46.2V48.392H1114.87C1115.32 48.392 1115.64 48.28 1115.82 48.056C1115.98 47.832 1116.07 47.576 1116.07 47.256C1116.07 47.096 1116.04 46.952 1116.01 46.824C1115.98 46.696 1115.9 46.6 1115.8 46.504C1115.69 46.408 1115.53 46.344 1115.34 46.28C1115.15 46.232 1114.89 46.2 1114.59 46.2H1111.88ZM1119.66 45H1126.16V53H1124.75V46.2H1121.02V49.288C1121.02 50.568 1120.83 51.512 1120.48 52.104C1120.12 52.712 1119.55 53 1118.75 53H1118.49V51.72C1118.7 51.72 1118.88 51.688 1119.02 51.608C1119.16 51.544 1119.29 51.4 1119.39 51.208C1119.48 51.016 1119.55 50.76 1119.6 50.408C1119.63 50.072 1119.66 49.64 1119.66 49.096V45ZM1135.8 49.528H1129.16C1129.16 50.04 1129.24 50.472 1129.37 50.792C1129.49 51.112 1129.69 51.368 1129.93 51.56C1130.17 51.752 1130.45 51.88 1130.79 51.944C1131.13 52.008 1131.49 52.04 1131.91 52.04C1132.23 52.04 1132.52 52.024 1132.81 51.976C1133.08 51.944 1133.32 51.864 1133.54 51.752C1133.77 51.656 1133.94 51.512 1134.1 51.32C1134.25 51.128 1134.34 50.888 1134.41 50.584H1135.8C1135.72 51.08 1135.57 51.496 1135.35 51.832C1135.13 52.184 1134.85 52.456 1134.52 52.664C1134.18 52.872 1133.8 53.016 1133.37 53.112C1132.92 53.208 1132.44 53.24 1131.91 53.24C1131.25 53.24 1130.68 53.176 1130.17 53.032C1129.65 52.904 1129.21 52.664 1128.85 52.344C1128.5 52.024 1128.23 51.592 1128.04 51.048C1127.85 50.52 1127.75 49.848 1127.75 49.048C1127.75 48.232 1127.85 47.544 1128.04 47C1128.23 46.456 1128.5 46.008 1128.85 45.672C1129.21 45.352 1129.64 45.112 1130.15 44.968C1130.66 44.84 1131.24 44.76 1131.88 44.76C1133.09 44.76 1134.05 45.064 1134.76 45.672C1135.45 46.28 1135.8 47.208 1135.8 48.456V49.528ZM1131.88 45.96C1131.49 45.96 1131.16 45.992 1130.84 46.056C1130.52 46.12 1130.23 46.248 1129.99 46.424C1129.75 46.6 1129.56 46.84 1129.41 47.16C1129.27 47.48 1129.19 47.88 1129.17 48.392H1134.37C1134.37 47.912 1134.31 47.528 1134.18 47.208C1134.05 46.888 1133.89 46.648 1133.67 46.456C1133.45 46.28 1133.19 46.152 1132.89 46.072C1132.58 46.008 1132.25 45.96 1131.88 45.96ZM1138.8 48.232H1143.43V45H1144.84V53H1143.43V49.432H1138.8V53H1137.4V45H1138.8V48.232ZM1152.58 53V47.384L1147.49 53H1146.69V45H1148.1V50.68L1153.19 45H1153.99V53H1152.58ZM1163.64 49.528H1157C1157 50.04 1157.08 50.472 1157.21 50.792C1157.34 51.112 1157.53 51.368 1157.77 51.56C1158.01 51.752 1158.3 51.88 1158.63 51.944C1158.97 52.008 1159.34 52.04 1159.75 52.04C1160.07 52.04 1160.36 52.024 1160.65 51.976C1160.92 51.944 1161.16 51.864 1161.39 51.752C1161.61 51.656 1161.79 51.512 1161.95 51.32C1162.09 51.128 1162.19 50.888 1162.25 50.584H1163.64C1163.56 51.08 1163.42 51.496 1163.19 51.832C1162.97 52.184 1162.7 52.456 1162.36 52.664C1162.03 52.872 1161.64 53.016 1161.21 53.112C1160.76 53.208 1160.28 53.24 1159.75 53.24C1159.1 53.24 1158.52 53.176 1158.01 53.032C1157.5 52.904 1157.05 52.664 1156.7 52.344C1156.35 52.024 1156.07 51.592 1155.88 51.048C1155.69 50.52 1155.59 49.848 1155.59 49.048C1155.59 48.232 1155.69 47.544 1155.88 47C1156.07 46.456 1156.35 46.008 1156.7 45.672C1157.05 45.352 1157.48 45.112 1157.99 44.968C1158.51 44.84 1159.08 44.76 1159.72 44.76C1160.94 44.76 1161.9 45.064 1162.6 45.672C1163.29 46.28 1163.64 47.208 1163.64 48.456V49.528ZM1159.72 45.96C1159.34 45.96 1159 45.992 1158.68 46.056C1158.36 46.12 1158.07 46.248 1157.83 46.424C1157.59 46.6 1157.4 46.84 1157.26 47.16C1157.11 47.48 1157.03 47.88 1157.02 48.392H1162.22C1162.22 47.912 1162.15 47.528 1162.03 47.208C1161.9 46.888 1161.74 46.648 1161.51 46.456C1161.29 46.28 1161.03 46.152 1160.73 46.072C1160.43 46.008 1160.09 45.96 1159.72 45.96ZM1176.53 50.392C1176.45 50.936 1176.31 51.384 1176.08 51.736C1175.86 52.104 1175.59 52.392 1175.25 52.616C1174.92 52.84 1174.53 53 1174.1 53.096C1173.65 53.192 1173.17 53.24 1172.64 53.24C1171.99 53.24 1171.41 53.176 1170.9 53.032C1170.39 52.904 1169.94 52.664 1169.59 52.344C1169.24 52.024 1168.96 51.592 1168.77 51.048C1168.58 50.52 1168.48 49.848 1168.48 49.048C1168.48 48.232 1168.58 47.544 1168.77 47C1168.96 46.456 1169.24 46.008 1169.59 45.672C1169.94 45.352 1170.39 45.112 1170.9 44.968C1171.41 44.84 1171.99 44.76 1172.64 44.76C1173.16 44.76 1173.62 44.808 1174.07 44.904C1174.5 45 1174.88 45.16 1175.2 45.368C1175.52 45.592 1175.8 45.88 1176.02 46.232C1176.24 46.584 1176.39 47.032 1176.48 47.56H1175.08C1175.01 47.24 1174.9 46.984 1174.76 46.776C1174.6 46.568 1174.42 46.408 1174.21 46.28C1173.99 46.152 1173.75 46.072 1173.49 46.024C1173.24 45.992 1172.95 45.96 1172.64 45.96C1172.21 45.96 1171.83 46.008 1171.49 46.088C1171.14 46.168 1170.85 46.312 1170.63 46.536C1170.39 46.76 1170.21 47.08 1170.08 47.48C1169.96 47.896 1169.89 48.408 1169.89 49.048C1169.89 49.672 1169.96 50.184 1170.08 50.568C1170.21 50.952 1170.39 51.256 1170.63 51.48C1170.85 51.704 1171.14 51.848 1171.49 51.928C1171.83 52.008 1172.21 52.04 1172.64 52.04C1172.96 52.04 1173.25 52.024 1173.54 51.976C1173.81 51.928 1174.05 51.848 1174.28 51.72C1174.48 51.592 1174.66 51.432 1174.82 51.208C1174.96 51 1175.08 50.728 1175.14 50.392H1176.53ZM1180.61 53.24C1180.17 53.24 1179.77 53.208 1179.4 53.112C1179.03 53.016 1178.71 52.872 1178.45 52.664C1178.18 52.472 1177.97 52.2 1177.83 51.88C1177.67 51.56 1177.61 51.16 1177.61 50.696C1177.61 50.424 1177.64 50.136 1177.73 49.848C1177.83 49.56 1177.99 49.288 1178.25 49.048C1178.49 48.808 1178.82 48.616 1179.25 48.456C1179.69 48.312 1180.25 48.232 1180.93 48.232C1181.25 48.232 1181.53 48.248 1181.78 48.248C1182.04 48.248 1182.26 48.264 1182.49 48.264C1182.69 48.28 1182.9 48.296 1183.11 48.296C1183.32 48.312 1183.54 48.328 1183.8 48.328V47.656C1183.8 47.048 1183.62 46.616 1183.27 46.36C1182.92 46.104 1182.36 45.96 1181.56 45.96C1181.21 45.96 1180.89 45.992 1180.63 46.024C1180.36 46.072 1180.13 46.152 1179.94 46.28C1179.75 46.408 1179.61 46.568 1179.49 46.776C1179.37 46.984 1179.29 47.24 1179.24 47.56H1177.88C1177.94 47.032 1178.07 46.584 1178.26 46.232C1178.45 45.88 1178.69 45.592 1179 45.368C1179.3 45.16 1179.67 45 1180.1 44.904C1180.52 44.808 1181.01 44.76 1181.56 44.76C1182.69 44.76 1183.59 44.984 1184.23 45.432C1184.87 45.88 1185.21 46.632 1185.21 47.656V53H1183.8V51.672H1183.64C1183.38 52.216 1182.98 52.616 1182.44 52.872C1181.89 53.128 1181.29 53.24 1180.61 53.24ZM1181.08 52.04C1181.4 52.04 1181.7 52.024 1182.02 51.976C1182.34 51.928 1182.63 51.832 1182.89 51.704C1183.14 51.576 1183.35 51.384 1183.51 51.144C1183.67 50.904 1183.77 50.584 1183.8 50.2V49.368C1183.35 49.352 1182.92 49.336 1182.53 49.32C1182.15 49.32 1181.8 49.304 1181.48 49.304C1180.93 49.304 1180.49 49.352 1180.17 49.416C1179.85 49.496 1179.59 49.592 1179.43 49.72C1179.25 49.848 1179.14 50.008 1179.09 50.168C1179.03 50.328 1179.01 50.504 1179.01 50.68C1179.01 51.208 1179.17 51.56 1179.51 51.752C1179.85 51.944 1180.37 52.04 1181.08 52.04ZM1192.91 53V47.384L1187.82 53H1187.02V45H1188.43V50.68L1193.52 45H1194.32V53H1192.91ZM1190.67 43.848C1189.84 43.848 1189.21 43.672 1188.83 43.288C1188.43 42.92 1188.24 42.344 1188.24 41.576H1189.41C1189.41 42.008 1189.5 42.312 1189.69 42.488C1189.89 42.68 1190.22 42.76 1190.67 42.76C1191.12 42.76 1191.44 42.68 1191.63 42.488C1191.82 42.312 1191.93 42.008 1191.93 41.576H1193.1C1193.1 42.344 1192.89 42.92 1192.51 43.288C1192.11 43.672 1191.5 43.848 1190.67 43.848ZM1202.59 45V46.2H1199.68V53H1198.27V46.2H1195.36V45H1202.59ZM1206.11 53.24C1205.67 53.24 1205.27 53.208 1204.9 53.112C1204.53 53.016 1204.21 52.872 1203.95 52.664C1203.68 52.472 1203.47 52.2 1203.33 51.88C1203.17 51.56 1203.11 51.16 1203.11 50.696C1203.11 50.424 1203.14 50.136 1203.23 49.848C1203.33 49.56 1203.49 49.288 1203.75 49.048C1203.99 48.808 1204.32 48.616 1204.75 48.456C1205.19 48.312 1205.75 48.232 1206.43 48.232C1206.75 48.232 1207.03 48.248 1207.28 48.248C1207.54 48.248 1207.76 48.264 1207.99 48.264C1208.19 48.28 1208.4 48.296 1208.61 48.296C1208.82 48.312 1209.04 48.328 1209.3 48.328V47.656C1209.3 47.048 1209.12 46.616 1208.77 46.36C1208.42 46.104 1207.86 45.96 1207.06 45.96C1206.71 45.96 1206.39 45.992 1206.13 46.024C1205.86 46.072 1205.63 46.152 1205.44 46.28C1205.25 46.408 1205.11 46.568 1204.99 46.776C1204.87 46.984 1204.79 47.24 1204.74 47.56H1203.38C1203.44 47.032 1203.57 46.584 1203.76 46.232C1203.95 45.88 1204.19 45.592 1204.5 45.368C1204.8 45.16 1205.17 45 1205.6 44.904C1206.02 44.808 1206.51 44.76 1207.06 44.76C1208.19 44.76 1209.09 44.984 1209.73 45.432C1210.37 45.88 1210.71 46.632 1210.71 47.656V53H1209.3V51.672H1209.14C1208.88 52.216 1208.48 52.616 1207.94 52.872C1207.39 53.128 1206.79 53.24 1206.11 53.24ZM1206.58 52.04C1206.9 52.04 1207.2 52.024 1207.52 51.976C1207.84 51.928 1208.13 51.832 1208.39 51.704C1208.64 51.576 1208.85 51.384 1209.01 51.144C1209.17 50.904 1209.27 50.584 1209.3 50.2V49.368C1208.85 49.352 1208.42 49.336 1208.03 49.32C1207.65 49.32 1207.3 49.304 1206.98 49.304C1206.43 49.304 1205.99 49.352 1205.67 49.416C1205.35 49.496 1205.09 49.592 1204.93 49.72C1204.75 49.848 1204.64 50.008 1204.59 50.168C1204.53 50.328 1204.51 50.504 1204.51 50.68C1204.51 51.208 1204.67 51.56 1205.01 51.752C1205.35 51.944 1205.87 52.04 1206.58 52.04Z" fill="#4E5359"/>
    <path d="M255.096 15.416C256.104 14.744 256.8 14.12 257.232 13.496C257.664 12.872 257.88 12.2 257.88 11.48C257.88 11.12 257.808 10.784 257.712 10.472C257.616 10.16 257.424 9.896 257.16 9.656C256.896 9.44 256.56 9.272 256.128 9.152C255.696 9.032 255.144 8.96 254.472 8.96C253.896 8.96 253.392 9.008 252.96 9.104C252.504 9.2 252.12 9.392 251.808 9.632C251.496 9.896 251.256 10.256 251.112 10.688C250.968 11.12 250.896 11.696 250.944 12.368H247.608C247.56 11.216 247.68 10.256 247.992 9.44C248.304 8.648 248.76 8 249.36 7.496C249.96 7.016 250.704 6.656 251.568 6.416C252.432 6.2 253.416 6.08 254.496 6.08C255.792 6.08 256.872 6.224 257.736 6.488C258.6 6.776 259.32 7.136 259.848 7.616C260.376 8.096 260.736 8.672 260.976 9.32C261.192 9.968 261.312 10.664 261.312 11.432C261.312 12.008 261.24 12.536 261.096 13.04C260.952 13.544 260.736 14.024 260.4 14.504C260.064 14.984 259.656 15.44 259.128 15.896C258.6 16.352 257.928 16.808 257.16 17.288L253.008 20.048V20.192H261.552V23H247.344V20.696L255.096 15.416ZM271.417 8.96C270.697 8.96 270.049 9.032 269.521 9.152C268.993 9.272 268.537 9.536 268.201 9.92C267.841 10.328 267.577 10.904 267.409 11.672C267.241 12.44 267.169 13.472 267.169 14.744C267.169 15.992 267.241 16.976 267.409 17.72C267.577 18.488 267.841 19.064 268.201 19.472C268.537 19.88 268.993 20.144 269.521 20.288C270.049 20.432 270.697 20.48 271.417 20.48C272.137 20.48 272.785 20.432 273.313 20.288C273.841 20.144 274.297 19.88 274.633 19.472C274.969 19.064 275.233 18.488 275.401 17.72C275.569 16.976 275.665 15.992 275.665 14.744C275.665 13.472 275.569 12.44 275.401 11.672C275.233 10.904 274.969 10.328 274.633 9.92C274.297 9.536 273.841 9.272 273.313 9.152C272.785 9.032 272.137 8.96 271.417 8.96ZM271.417 23.36C270.121 23.36 268.993 23.24 268.033 22.952C267.073 22.688 266.305 22.232 265.681 21.56C265.057 20.912 264.601 20.024 264.313 18.92C264.001 17.816 263.857 16.424 263.857 14.744C263.857 13.016 264.001 11.576 264.337 10.448C264.673 9.344 265.153 8.456 265.777 7.808C266.401 7.16 267.193 6.704 268.153 6.464C269.089 6.224 270.169 6.08 271.417 6.08C272.665 6.08 273.745 6.224 274.681 6.464C275.617 6.704 276.409 7.16 277.057 7.808C277.681 8.456 278.161 9.344 278.497 10.448C278.809 11.576 278.977 13.016 278.977 14.744C278.977 16.424 278.809 17.816 278.521 18.92C278.233 20.024 277.777 20.912 277.153 21.56C276.529 22.232 275.737 22.688 274.777 22.952C273.817 23.24 272.713 23.36 271.417 23.36ZM288.752 15.416C289.76 14.744 290.456 14.12 290.888 13.496C291.32 12.872 291.536 12.2 291.536 11.48C291.536 11.12 291.464 10.784 291.368 10.472C291.272 10.16 291.08 9.896 290.816 9.656C290.552 9.44 290.216 9.272 289.784 9.152C289.352 9.032 288.8 8.96 288.128 8.96C287.552 8.96 287.048 9.008 286.616 9.104C286.16 9.2 285.776 9.392 285.464 9.632C285.152 9.896 284.912 10.256 284.768 10.688C284.624 11.12 284.552 11.696 284.6 12.368H281.264C281.216 11.216 281.336 10.256 281.648 9.44C281.96 8.648 282.416 8 283.016 7.496C283.616 7.016 284.36 6.656 285.224 6.416C286.088 6.2 287.072 6.08 288.152 6.08C289.448 6.08 290.528 6.224 291.392 6.488C292.256 6.776 292.976 7.136 293.504 7.616C294.032 8.096 294.392 8.672 294.632 9.32C294.848 9.968 294.968 10.664 294.968 11.432C294.968 12.008 294.896 12.536 294.752 13.04C294.608 13.544 294.392 14.024 294.056 14.504C293.72 14.984 293.312 15.44 292.784 15.896C292.256 16.352 291.584 16.808 290.816 17.288L286.664 20.048V20.192H295.208V23H281V20.696L288.752 15.416ZM305.698 15.416C306.706 14.744 307.402 14.12 307.834 13.496C308.266 12.872 308.482 12.2 308.482 11.48C308.482 11.12 308.41 10.784 308.314 10.472C308.218 10.16 308.026 9.896 307.762 9.656C307.498 9.44 307.162 9.272 306.73 9.152C306.298 9.032 305.746 8.96 305.074 8.96C304.498 8.96 303.994 9.008 303.562 9.104C303.106 9.2 302.722 9.392 302.41 9.632C302.098 9.896 301.858 10.256 301.714 10.688C301.57 11.12 301.498 11.696 301.546 12.368H298.21C298.162 11.216 298.282 10.256 298.594 9.44C298.906 8.648 299.362 8 299.962 7.496C300.562 7.016 301.306 6.656 302.17 6.416C303.034 6.2 304.018 6.08 305.098 6.08C306.394 6.08 307.474 6.224 308.338 6.488C309.202 6.776 309.922 7.136 310.45 7.616C310.978 8.096 311.338 8.672 311.578 9.32C311.794 9.968 311.914 10.664 311.914 11.432C311.914 12.008 311.842 12.536 311.698 13.04C311.554 13.544 311.338 14.024 311.002 14.504C310.666 14.984 310.258 15.44 309.73 15.896C309.202 16.352 308.53 16.808 307.762 17.288L303.61 20.048V20.192H312.154V23H297.946V20.696L305.698 15.416Z" fill="#4E5359"/>
    <path d="M257.616 49.464C257.536 50.2 257.36 50.808 257.072 51.288C256.784 51.768 256.416 52.152 255.968 52.44C255.52 52.728 254.976 52.936 254.368 53.064C253.76 53.192 253.072 53.24 252.32 53.24C251.408 53.24 250.608 53.16 249.92 52.968C249.232 52.792 248.656 52.488 248.192 52.04C247.728 51.608 247.376 51.016 247.152 50.28C246.912 49.544 246.8 48.616 246.8 47.496C246.8 46.344 246.912 45.384 247.168 44.632C247.424 43.896 247.776 43.304 248.256 42.872C248.736 42.44 249.312 42.136 250 41.976C250.672 41.816 251.456 41.72 252.32 41.72C253.072 41.72 253.76 41.784 254.368 41.896C254.976 42.024 255.504 42.216 255.952 42.504C256.4 42.792 256.752 43.176 257.024 43.656C257.296 44.136 257.472 44.744 257.552 45.448H255.984C255.888 44.968 255.744 44.568 255.552 44.264C255.344 43.96 255.088 43.72 254.784 43.56C254.464 43.4 254.112 43.288 253.696 43.224C253.28 43.16 252.832 43.128 252.32 43.128C251.68 43.128 251.104 43.176 250.608 43.272C250.112 43.368 249.696 43.56 249.344 43.864C248.992 44.168 248.736 44.6 248.56 45.176C248.384 45.752 248.304 46.536 248.304 47.496C248.304 48.424 248.384 49.176 248.56 49.752C248.736 50.328 248.992 50.76 249.344 51.064C249.696 51.384 250.112 51.592 250.608 51.688C251.104 51.784 251.68 51.832 252.32 51.832C252.832 51.832 253.296 51.816 253.712 51.752C254.128 51.688 254.496 51.576 254.816 51.4C255.136 51.24 255.392 51 255.6 50.68C255.808 50.376 255.952 49.976 256.048 49.464H257.616ZM263.082 52.04C263.498 52.04 263.882 52.008 264.234 51.928C264.57 51.848 264.858 51.704 265.098 51.48C265.338 51.256 265.53 50.952 265.658 50.568C265.786 50.184 265.85 49.672 265.85 49.048C265.85 48.408 265.786 47.896 265.658 47.496C265.53 47.096 265.338 46.776 265.098 46.552C264.858 46.328 264.57 46.168 264.234 46.088C263.882 46.008 263.498 45.96 263.082 45.96C262.65 45.96 262.266 46.008 261.93 46.088C261.578 46.168 261.29 46.312 261.066 46.536C260.826 46.76 260.65 47.08 260.522 47.48C260.394 47.896 260.33 48.408 260.33 49.048C260.33 49.672 260.394 50.184 260.522 50.568C260.65 50.952 260.826 51.256 261.066 51.48C261.29 51.704 261.578 51.848 261.93 51.928C262.266 52.008 262.65 52.04 263.082 52.04ZM263.082 44.76C263.722 44.76 264.314 44.84 264.826 44.968C265.338 45.112 265.786 45.352 266.138 45.672C266.49 46.008 266.762 46.456 266.954 47C267.146 47.544 267.242 48.232 267.242 49.048C267.242 49.848 267.146 50.52 266.954 51.048C266.762 51.592 266.49 52.024 266.138 52.344C265.786 52.664 265.338 52.904 264.826 53.032C264.314 53.176 263.722 53.24 263.082 53.24C262.426 53.24 261.85 53.176 261.338 53.032C260.826 52.904 260.378 52.664 260.026 52.344C259.674 52.024 259.402 51.592 259.21 51.048C259.018 50.52 258.922 49.848 258.922 49.048C258.922 48.232 259.018 47.544 259.21 47C259.402 46.456 259.674 46.008 260.026 45.672C260.378 45.352 260.826 45.112 261.338 44.968C261.85 44.84 262.426 44.76 263.082 44.76ZM272.274 45.96C271.922 45.96 271.618 45.992 271.346 46.024C271.058 46.072 270.818 46.152 270.61 46.28C270.402 46.408 270.242 46.568 270.114 46.776C269.986 46.984 269.922 47.24 269.89 47.56H268.482C268.53 47.032 268.658 46.584 268.85 46.232C269.042 45.88 269.298 45.592 269.618 45.368C269.938 45.16 270.322 45 270.77 44.904C271.218 44.808 271.714 44.76 272.274 44.76C272.93 44.76 273.49 44.824 273.938 44.952C274.386 45.08 274.738 45.24 275.026 45.448C275.298 45.656 275.49 45.896 275.618 46.168C275.746 46.44 275.81 46.728 275.81 47.016C275.81 47.592 275.65 48.04 275.362 48.328C275.058 48.616 274.642 48.792 274.098 48.84V49.048C274.706 49.112 275.186 49.272 275.522 49.544C275.842 49.832 276.018 50.264 276.018 50.872C276.018 51.224 275.938 51.544 275.81 51.832C275.666 52.12 275.442 52.376 275.138 52.584C274.834 52.792 274.45 52.952 273.97 53.064C273.49 53.192 272.914 53.24 272.242 53.24C271.042 53.24 270.114 53.032 269.474 52.616C268.834 52.2 268.466 51.464 268.386 50.392H269.778C269.842 51.064 270.082 51.496 270.482 51.72C270.882 51.944 271.474 52.04 272.242 52.04C273.01 52.04 273.602 51.96 274.018 51.768C274.418 51.576 274.626 51.224 274.626 50.696C274.626 50.36 274.53 50.088 274.338 49.864C274.146 49.64 273.762 49.528 273.202 49.528H271.33V48.392H273.218C273.666 48.392 273.986 48.28 274.162 48.056C274.322 47.832 274.418 47.576 274.418 47.256C274.418 47.08 274.386 46.92 274.338 46.76C274.274 46.6 274.178 46.472 274.018 46.344C273.858 46.232 273.634 46.136 273.362 46.072C273.074 46.008 272.722 45.96 272.274 45.96ZM278.499 45H285.059V51.8H286.387V55.4H284.979V53H278.067V55.4H276.659V51.8H277.523C277.731 51.688 277.891 51.496 278.019 51.208C278.147 50.936 278.243 50.6 278.323 50.216C278.387 49.832 278.435 49.416 278.467 48.936C278.483 48.472 278.499 47.992 278.499 47.496V45ZM279.859 47.688C279.859 48.744 279.779 49.592 279.651 50.248C279.523 50.92 279.347 51.432 279.139 51.8H283.651V46.2H279.859V47.688ZM290.131 53.24C289.683 53.24 289.283 53.208 288.914 53.112C288.547 53.016 288.227 52.872 287.971 52.664C287.699 52.472 287.491 52.2 287.347 51.88C287.187 51.56 287.123 51.16 287.123 50.696C287.123 50.424 287.155 50.136 287.251 49.848C287.347 49.56 287.507 49.288 287.763 49.048C288.003 48.808 288.339 48.616 288.771 48.456C289.203 48.312 289.763 48.232 290.451 48.232C290.771 48.232 291.043 48.248 291.299 48.248C291.555 48.248 291.779 48.264 292.003 48.264C292.211 48.28 292.419 48.296 292.627 48.296C292.835 48.312 293.059 48.328 293.315 48.328V47.656C293.315 47.048 293.139 46.616 292.787 46.36C292.435 46.104 291.875 45.96 291.075 45.96C290.723 45.96 290.403 45.992 290.147 46.024C289.875 46.072 289.651 46.152 289.459 46.28C289.267 46.408 289.123 46.568 289.011 46.776C288.883 46.984 288.803 47.24 288.755 47.56H287.395C287.459 47.032 287.587 46.584 287.779 46.232C287.971 45.88 288.211 45.592 288.515 45.368C288.819 45.16 289.187 45 289.619 44.904C290.035 44.808 290.531 44.76 291.075 44.76C292.211 44.76 293.107 44.984 293.747 45.432C294.387 45.88 294.723 46.632 294.723 47.656V53H293.315V51.672H293.155C292.899 52.216 292.499 52.616 291.955 52.872C291.411 53.128 290.803 53.24 290.131 53.24ZM290.595 52.04C290.915 52.04 291.219 52.024 291.539 51.976C291.859 51.928 292.147 51.832 292.403 51.704C292.659 51.576 292.867 51.384 293.027 51.144C293.187 50.904 293.283 50.584 293.315 50.2V49.368C292.867 49.352 292.435 49.336 292.051 49.32C291.667 49.32 291.315 49.304 290.995 49.304C290.451 49.304 290.003 49.352 289.683 49.416C289.363 49.496 289.107 49.592 288.947 49.72C288.771 49.848 288.659 50.008 288.611 50.168C288.547 50.328 288.531 50.504 288.531 50.68C288.531 51.208 288.691 51.56 289.027 51.752C289.363 51.944 289.891 52.04 290.595 52.04ZM297.945 48.232H302.569V45H303.977V53H302.569V49.432H297.945V53H296.537V45H297.945V48.232ZM311.722 53V47.384L306.634 53H305.834V45H307.242V50.68L312.33 45H313.13V53H311.722ZM322.783 49.528H316.143C316.143 50.04 316.223 50.472 316.351 50.792C316.479 51.112 316.671 51.368 316.911 51.56C317.151 51.752 317.439 51.88 317.775 51.944C318.111 52.008 318.479 52.04 318.895 52.04C319.215 52.04 319.503 52.024 319.791 51.976C320.063 51.944 320.303 51.864 320.527 51.752C320.751 51.656 320.927 51.512 321.087 51.32C321.231 51.128 321.327 50.888 321.391 50.584H322.783C322.703 51.08 322.559 51.496 322.335 51.832C322.111 52.184 321.839 52.456 321.503 52.664C321.167 52.872 320.783 53.016 320.351 53.112C319.903 53.208 319.423 53.24 318.895 53.24C318.239 53.24 317.663 53.176 317.151 53.032C316.639 52.904 316.191 52.664 315.839 52.344C315.487 52.024 315.215 51.592 315.023 51.048C314.831 50.52 314.735 49.848 314.735 49.048C314.735 48.232 314.831 47.544 315.023 47C315.215 46.456 315.487 46.008 315.839 45.672C316.191 45.352 316.623 45.112 317.135 44.968C317.647 44.84 318.223 44.76 318.863 44.76C320.079 44.76 321.039 45.064 321.743 45.672C322.431 46.28 322.783 47.208 322.783 48.456V49.528ZM318.863 45.96C318.479 45.96 318.143 45.992 317.823 46.056C317.503 46.12 317.215 46.248 316.975 46.424C316.735 46.6 316.543 46.84 316.399 47.16C316.255 47.48 316.174 47.88 316.159 48.392H321.359C321.359 47.912 321.295 47.528 321.167 47.208C321.039 46.888 320.879 46.648 320.655 46.456C320.431 46.28 320.175 46.152 319.871 46.072C319.567 46.008 319.231 45.96 318.863 45.96ZM331.573 48.664L335.413 53H333.637L330.645 49.496H329.477V53H328.069V45H329.477V49.064L333.397 45H335.237L331.573 48.664ZM339.926 52.04C340.342 52.04 340.726 52.008 341.078 51.928C341.414 51.848 341.702 51.704 341.942 51.48C342.182 51.256 342.374 50.952 342.502 50.568C342.63 50.184 342.694 49.672 342.694 49.048C342.694 48.408 342.63 47.896 342.502 47.496C342.374 47.096 342.182 46.776 341.942 46.552C341.702 46.328 341.414 46.168 341.078 46.088C340.726 46.008 340.342 45.96 339.926 45.96C339.494 45.96 339.11 46.008 338.774 46.088C338.422 46.168 338.134 46.312 337.91 46.536C337.67 46.76 337.494 47.08 337.366 47.48C337.238 47.896 337.174 48.408 337.174 49.048C337.174 49.672 337.238 50.184 337.366 50.568C337.494 50.952 337.67 51.256 337.91 51.48C338.134 51.704 338.422 51.848 338.774 51.928C339.11 52.008 339.494 52.04 339.926 52.04ZM339.926 44.76C340.566 44.76 341.158 44.84 341.67 44.968C342.182 45.112 342.63 45.352 342.982 45.672C343.334 46.008 343.606 46.456 343.798 47C343.99 47.544 344.086 48.232 344.086 49.048C344.086 49.848 343.99 50.52 343.798 51.048C343.606 51.592 343.334 52.024 342.982 52.344C342.63 52.664 342.182 52.904 341.67 53.032C341.158 53.176 340.566 53.24 339.926 53.24C339.27 53.24 338.694 53.176 338.182 53.032C337.67 52.904 337.222 52.664 336.87 52.344C336.518 52.024 336.246 51.592 336.054 51.048C335.862 50.52 335.766 49.848 335.766 49.048C335.766 48.232 335.862 47.544 336.054 47C336.246 46.456 336.518 46.008 336.87 45.672C337.222 45.352 337.67 45.112 338.182 44.968C338.694 44.84 339.27 44.76 339.926 44.76ZM347.086 47.544V53H345.678V45H346.51L350.094 49.016L353.678 45H354.51V53H353.102V47.56L350.078 50.776L347.086 47.544ZM356.366 45H363.806V53H362.398V46.2H357.774V53H356.366V45ZM368.302 53.24C367.854 53.24 367.454 53.208 367.086 53.112C366.718 53.016 366.398 52.872 366.142 52.664C365.87 52.472 365.662 52.2 365.518 51.88C365.358 51.56 365.294 51.16 365.294 50.696C365.294 50.424 365.326 50.136 365.422 49.848C365.518 49.56 365.678 49.288 365.934 49.048C366.174 48.808 366.51 48.616 366.942 48.456C367.374 48.312 367.934 48.232 368.622 48.232C368.942 48.232 369.214 48.248 369.47 48.248C369.726 48.248 369.95 48.264 370.174 48.264C370.382 48.28 370.59 48.296 370.798 48.296C371.006 48.312 371.23 48.328 371.486 48.328V47.656C371.486 47.048 371.31 46.616 370.958 46.36C370.606 46.104 370.046 45.96 369.246 45.96C368.894 45.96 368.574 45.992 368.318 46.024C368.046 46.072 367.822 46.152 367.63 46.28C367.438 46.408 367.294 46.568 367.182 46.776C367.054 46.984 366.974 47.24 366.926 47.56H365.566C365.63 47.032 365.758 46.584 365.95 46.232C366.142 45.88 366.382 45.592 366.686 45.368C366.99 45.16 367.358 45 367.79 44.904C368.206 44.808 368.702 44.76 369.246 44.76C370.382 44.76 371.278 44.984 371.918 45.432C372.558 45.88 372.894 46.632 372.894 47.656V53H371.486V51.672H371.326C371.07 52.216 370.67 52.616 370.126 52.872C369.582 53.128 368.974 53.24 368.302 53.24ZM368.766 52.04C369.086 52.04 369.39 52.024 369.71 51.976C370.03 51.928 370.318 51.832 370.574 51.704C370.83 51.576 371.038 51.384 371.198 51.144C371.358 50.904 371.454 50.584 371.486 50.2V49.368C371.038 49.352 370.606 49.336 370.222 49.32C369.838 49.32 369.486 49.304 369.166 49.304C368.622 49.304 368.174 49.352 367.854 49.416C367.534 49.496 367.278 49.592 367.118 49.72C366.942 49.848 366.83 50.008 366.782 50.168C366.718 50.328 366.702 50.504 366.702 50.68C366.702 51.208 366.862 51.56 367.198 51.752C367.534 51.944 368.062 52.04 368.766 52.04ZM376.117 48.232H380.741V45H382.149V53H380.741V49.432H376.117V53H374.709V45H376.117V48.232ZM389.894 53V47.384L384.806 53H384.006V45H385.414V50.68L390.502 45H391.302V53H389.894ZM399.05 53V47.384L393.962 53H393.162V45H394.57V50.68L399.658 45H400.458V53H399.05Z" fill="#4E5359"/>
</svg>
