<svg width="100" height="60" viewBox="0 0 100 60" fill="none" xmlns="http://www.w3.org/2000/svg">
    <g clip-path="url(#clip0_6478_52003)">
        <rect width="100" height="60" fill="white"/>
        <g clip-path="url(#clip1_6478_52003)">
            <path d="M122.743 -11.8697L115.477 -19.1602L86.0543 10.3609L93.3203 17.6514L122.743 -11.8697Z" stroke="#CACDD2" stroke-width="0.5125" stroke-miterlimit="10"/>
            <path d="M20.3012 3.42717L13.0352 -3.86328L-16.3871 25.6578L-9.12108 32.9483L20.3012 3.42717Z" stroke="#CACDD2" stroke-width="0.5125" stroke-miterlimit="10"/>
            <path d="M49.7231 -26.0924L42.457 -33.3828L13.0347 -3.86172L20.3008 3.42873L49.7231 -26.0924Z" stroke="#CACDD2" stroke-width="0.5125" stroke-miterlimit="10"/>
            <path d="M42.2817 -4.04159L35.0156 -11.332L5.59332 18.1891L12.8594 25.4795L42.2817 -4.04159Z" stroke="#CACDD2" stroke-width="0.5125" stroke-miterlimit="10"/>
            <path d="M34.8364 18.0092L27.5703 10.7188L-1.85198 40.2398L5.41407 47.5303L34.8364 18.0092Z" stroke="#CACDD2" stroke-width="0.5125" stroke-miterlimit="10"/>
            <path d="M64.2582 -11.5103L56.9922 -18.8008L27.5699 10.7203L34.8359 18.0108L64.2582 -11.5103Z" stroke="#CACDD2" stroke-width="0.5125" stroke-miterlimit="10"/>
            <path d="M27.3911 40.06L20.125 32.7695L-9.2973 62.2906L-2.03124 69.5811L27.3911 40.06Z" stroke="#CACDD2" stroke-width="0.5125" stroke-miterlimit="10"/>
            <path d="M56.8129 10.5405L49.5469 3.25L20.1246 32.7711L27.3906 40.0615L56.8129 10.5405Z" stroke="#CACDD2" stroke-width="0.5125" stroke-miterlimit="10"/>
            <path d="M86.2348 -18.983L78.9688 -26.2734L49.5465 3.24765L56.8125 10.5381L86.2348 -18.983Z" stroke="#CACDD2" stroke-width="0.5125" stroke-miterlimit="10"/>
            <path d="M108.211 -26.4517L100.945 -33.7422L71.523 -4.2211L78.7891 3.06935L108.211 -26.4517Z" stroke="#CACDD2" stroke-width="0.5125" stroke-miterlimit="10"/>
            <path d="M19.9457 62.1108L12.6797 54.8203L-16.7426 84.3414L-9.47655 91.6319L19.9457 62.1108Z" stroke="#CACDD2" stroke-width="0.5125" stroke-miterlimit="10"/>
            <path d="M49.3676 32.5912L42.1016 25.3008L12.6793 54.8219L19.9453 62.1123L49.3676 32.5912Z" stroke="#CACDD2" stroke-width="0.5125" stroke-miterlimit="10"/>
            <path d="M78.7895 3.0678L71.5234 -4.22266L42.1011 25.2984L49.3672 32.5889L78.7895 3.0678Z" stroke="#CACDD2" stroke-width="0.5125" stroke-miterlimit="10"/>
            <path d="M41.9223 54.642L34.6562 47.3516L5.23394 76.8727L12.5 84.1631L41.9223 54.642Z" stroke="#CACDD2" stroke-width="0.5125" stroke-miterlimit="10"/>
            <path d="M71.3442 25.1186L64.0781 17.8281L34.6558 47.3492L41.9219 54.6397L71.3442 25.1186Z" stroke="#CACDD2" stroke-width="0.5125" stroke-miterlimit="10"/>
            <path d="M100.766 -4.40095L93.5 -11.6914L64.0777 17.8297L71.3438 25.1201L100.766 -4.40095Z" stroke="#CACDD2" stroke-width="0.5125" stroke-miterlimit="10"/>
            <path d="M63.8989 47.1694L56.6328 39.8789L27.2105 69.4L34.4766 76.6904L63.8989 47.1694Z" stroke="#CACDD2" stroke-width="0.5125" stroke-miterlimit="10"/>
            <path d="M93.3207 17.6498L86.0547 10.3594L56.6324 39.8805L63.8984 47.1709L93.3207 17.6498Z" stroke="#CACDD2" stroke-width="0.5125" stroke-miterlimit="10"/>
            <path d="M85.8754 39.7006L78.6094 32.4102L49.1871 61.9312L56.4531 69.2217L85.8754 39.7006Z" stroke="#CACDD2" stroke-width="0.5125" stroke-miterlimit="10"/>
            <path d="M115.297 10.1811L108.031 2.89062L78.609 32.4117L85.875 39.7022L115.297 10.1811Z" stroke="#CACDD2" stroke-width="0.5125" stroke-miterlimit="10"/>
            <path d="M78.4301 61.7514L71.1641 54.4609L41.7418 83.982L49.0078 91.2725L78.4301 61.7514Z" stroke="#CACDD2" stroke-width="0.5125" stroke-miterlimit="10"/>
            <path d="M107.852 32.2319L100.586 24.9414L71.1636 54.4625L78.4297 61.7529L107.852 32.2319Z" stroke="#CACDD2" stroke-width="0.5125" stroke-miterlimit="10"/>
            <path d="M100.407 54.2826L93.1406 46.9922L63.7183 76.5133L70.9844 83.8037L100.407 54.2826Z" stroke="#CACDD2" stroke-width="0.5125" stroke-miterlimit="10"/>
        </g>
    </g>
</svg>
