<svg width="100" height="60" viewBox="0 0 100 60" fill="none" xmlns="http://www.w3.org/2000/svg">
    <g clip-path="url(#clip0_6478_20046)">
        <rect width="100" height="60" rx="2" fill="white"/>
        <g clip-path="url(#clip1_6478_20046)">
            <path d="M-3.02378 3.60938L5.21094 3.60938L5.21094 -29.2826H-3.02378L-3.02378 3.60938Z" stroke="#4E5359" stroke-width="0.5" stroke-miterlimit="10"/>
            <path d="M-3.02378 36.5H5.21094L5.21094 3.60798H-3.02378L-3.02378 36.5Z" stroke="#4E5359" stroke-width="0.5" stroke-miterlimit="10"/>
            <path d="M-3.02378 69.3906H5.21094L5.21094 36.4986H-3.02378L-3.02378 69.3906Z" stroke="#4E5359" stroke-width="0.5" stroke-miterlimit="10"/>
            <path d="M5.21056 20.0547H13.4453L13.4453 -12.8373H5.21056L5.21056 20.0547Z" stroke="#4E5359" stroke-width="0.5" stroke-miterlimit="10"/>
            <path d="M5.21056 52.9453H13.4453L13.4453 20.0533H5.21056L5.21056 52.9453Z" stroke="#4E5359" stroke-width="0.5" stroke-miterlimit="10"/>
            <path d="M5.21056 85.8398H13.4453L13.4453 52.9478H5.21056L5.21056 85.8398Z" stroke="#4E5359" stroke-width="0.5" stroke-miterlimit="10"/>
            <path d="M13.4449 3.60938L21.6797 3.60938L21.6797 -29.2826H13.4449L13.4449 3.60938Z" stroke="#4E5359" stroke-width="0.5" stroke-miterlimit="10"/>
            <path d="M13.4449 36.5H21.6797L21.6797 3.60798H13.4449L13.4449 36.5Z" stroke="#4E5359" stroke-width="0.5" stroke-miterlimit="10"/>
            <path d="M13.4449 69.3906H21.6797L21.6797 36.4986H13.4449L13.4449 69.3906Z" stroke="#4E5359" stroke-width="0.5" stroke-miterlimit="10"/>
            <path d="M21.6793 20.0547H29.9141L29.9141 -12.8373H21.6793L21.6793 20.0547Z" stroke="#4E5359" stroke-width="0.5" stroke-miterlimit="10"/>
            <path d="M21.6793 52.9453H29.9141L29.9141 20.0533H21.6793L21.6793 52.9453Z" stroke="#4E5359" stroke-width="0.5" stroke-miterlimit="10"/>
            <path d="M21.6793 85.8398H29.9141L29.9141 52.9478H21.6793L21.6793 85.8398Z" stroke="#4E5359" stroke-width="0.5" stroke-miterlimit="10"/>
            <path d="M29.9137 3.60938L38.1484 3.60938L38.1484 -29.2826H29.9137L29.9137 3.60938Z" stroke="#4E5359" stroke-width="0.5" stroke-miterlimit="10"/>
            <path d="M29.9137 36.5H38.1484L38.1484 3.60798H29.9137L29.9137 36.5Z" stroke="#4E5359" stroke-width="0.5" stroke-miterlimit="10"/>
            <path d="M29.9137 69.3906H38.1484L38.1484 36.4986H29.9137L29.9137 69.3906Z" stroke="#4E5359" stroke-width="0.5" stroke-miterlimit="10"/>
            <path d="M38.1481 20.0547H46.3828L46.3828 -12.8373H38.1481V20.0547Z" stroke="#4E5359" stroke-width="0.5" stroke-miterlimit="10"/>
            <path d="M38.1481 52.9453H46.3828L46.3828 20.0533H38.1481V52.9453Z" stroke="#4E5359" stroke-width="0.5" stroke-miterlimit="10"/>
            <path d="M38.1481 85.8398H46.3828L46.3828 52.9478H38.1481V85.8398Z" stroke="#4E5359" stroke-width="0.5" stroke-miterlimit="10"/>
            <path d="M46.3824 3.60938L54.6172 3.60938L54.6172 -29.2826H46.3824V3.60938Z" stroke="#4E5359" stroke-width="0.5" stroke-miterlimit="10"/>
            <path d="M46.3824 36.5H54.6172L54.6172 3.60798H46.3824V36.5Z" stroke="#4E5359" stroke-width="0.5" stroke-miterlimit="10"/>
            <path d="M46.3824 69.3906H54.6172L54.6172 36.4986H46.3824V69.3906Z" stroke="#4E5359" stroke-width="0.5" stroke-miterlimit="10"/>
            <path d="M54.6168 20.0547H62.8516L62.8516 -12.8373H54.6168V20.0547Z" stroke="#4E5359" stroke-width="0.5" stroke-miterlimit="10"/>
            <path d="M54.6168 52.9453H62.8516L62.8516 20.0533H54.6168V52.9453Z" stroke="#4E5359" stroke-width="0.5" stroke-miterlimit="10"/>
            <path d="M54.6168 85.8398H62.8516L62.8516 52.9478H54.6168V85.8398Z" stroke="#4E5359" stroke-width="0.5" stroke-miterlimit="10"/>
            <path d="M62.8512 3.60938L71.0859 3.60938V-29.2826H62.8512V3.60938Z" stroke="#4E5359" stroke-width="0.5" stroke-miterlimit="10"/>
            <path d="M62.8512 36.5H71.0859V3.60798H62.8512V36.5Z" stroke="#4E5359" stroke-width="0.5" stroke-miterlimit="10"/>
            <path d="M62.8512 69.3906H71.0859V36.4986H62.8512V69.3906Z" stroke="#4E5359" stroke-width="0.5" stroke-miterlimit="10"/>
            <path d="M71.0856 20.0547H79.3203V-12.8373H71.0856V20.0547Z" stroke="#4E5359" stroke-width="0.5" stroke-miterlimit="10"/>
            <path d="M71.0856 52.9453H79.3203V20.0533H71.0856V52.9453Z" stroke="#4E5359" stroke-width="0.5" stroke-miterlimit="10"/>
            <path d="M71.0856 85.8398H79.3203V52.9478H71.0856V85.8398Z" stroke="#4E5359" stroke-width="0.5" stroke-miterlimit="10"/>
            <path d="M79.3199 3.60938L87.5547 3.60938V-29.2826H79.3199V3.60938Z" stroke="#4E5359" stroke-width="0.5" stroke-miterlimit="10"/>
            <path d="M79.3199 36.5H87.5547V3.60798H79.3199V36.5Z" stroke="#4E5359" stroke-width="0.5" stroke-miterlimit="10"/>
            <path d="M79.3199 69.3906H87.5547V36.4986H79.3199V69.3906Z" stroke="#4E5359" stroke-width="0.5" stroke-miterlimit="10"/>
            <path d="M87.5543 20.0547H95.7891V-12.8373H87.5543V20.0547Z" stroke="#4E5359" stroke-width="0.5" stroke-miterlimit="10"/>
            <path d="M87.5543 52.9453H95.7891V20.0533H87.5543V52.9453Z" stroke="#4E5359" stroke-width="0.5" stroke-miterlimit="10"/>
            <path d="M87.5543 85.8398H95.7891V52.9478H87.5543V85.8398Z" stroke="#4E5359" stroke-width="0.5" stroke-miterlimit="10"/>
            <path d="M95.7926 3.60938L104.027 3.60938V-29.2826H95.7926V3.60938Z" stroke="#4E5359" stroke-width="0.5" stroke-miterlimit="10"/>
            <path d="M95.7926 36.5H104.027V3.60798H95.7926V36.5Z" stroke="#4E5359" stroke-width="0.5" stroke-miterlimit="10"/>
            <path d="M95.7926 69.3906H104.027V36.4986H95.7926V69.3906Z" stroke="#4E5359" stroke-width="0.5" stroke-miterlimit="10"/>
        </g>
    </g>
</svg>
