<svg xmlns="http://www.w3.org/2000/svg" width="150" height="136" viewBox="0 0 150 136" fill="none">
    <path d="M2 78.7617L4.87184 68.9441L6.73661 62.2892L7.27745 60.461C7.5494 59.4184 8.18216 58.5007 9.06778 57.8649C9.91409 57.2575 10.948 56.9541 11.9955 57.0056H26.7091L25.2732 61.9236H14.8673C14.5005 61.8954 14.1359 61.9993 13.8418 62.2162C13.5049 62.4844 13.2741 62.8594 13.189 63.2764L12.3313 66.1468H21.3196L19.9771 70.7174H10.9885L8.65754 78.7617H2Z" fill="white"/>
    <path d="M66.5449 78.7616L69.4168 68.944L71.3748 62.2891L71.9156 60.4609C72.17 59.4489 72.7605 58.5485 73.5939 57.9014C74.4584 57.2702 75.5198 56.9535 76.5964 57.0055H91.0674L89.6503 61.9235H79.4122C79.0455 61.8953 78.6808 61.9994 78.3865 62.2161C78.0567 62.4871 77.8327 62.8618 77.7525 63.2765L76.876 66.1468H85.9206L84.5779 70.7173H75.5333L73.2023 78.7616H66.5449Z" fill="white"/>
    <path d="M26.8588 61.9212L27.8471 58.5391H33.7026L32.7329 61.9212H26.8588ZM26.4111 63.457H32.1734L27.7165 78.7776H21.9355L26.4111 63.457Z" fill="white"/>
    <path d="M28.2961 57.0078L27.3076 60.39H33.0701L34.0584 57.0078H28.2961Z" fill="white"/>
    <path d="M33.1425 66.1444C33.3157 65.4146 33.7447 64.7675 34.3546 64.3161C35.4661 63.6317 36.7783 63.3294 38.0843 63.4568H43.5109C44.3733 63.3493 45.2491 63.4136 46.0855 63.6462C46.9219 63.8786 47.7017 64.2744 48.3782 64.8098C48.885 65.4425 49.2095 66.1969 49.3177 66.9944C49.426 67.7917 49.314 68.6032 48.9936 69.3438L46.2336 78.7776H40.4527L42.6531 70.9893C43.029 70.158 43.0755 69.2195 42.7837 68.3565C42.4666 67.7349 41.8326 67.4424 40.6577 67.4424H39.632C39.3238 67.4248 39.0175 67.5015 38.7556 67.6618C38.4757 67.8774 38.2948 68.1929 38.2521 68.5394L35.2497 78.7776H29.4688L33.1425 66.1444Z" fill="white"/>
    <path d="M53.9181 78.7809C51.587 78.7809 49.6104 78.7809 48.9575 76.7698C48.6033 75.6729 48.9575 74.0641 49.7596 71.2852C50.5614 68.5061 51.1021 66.2026 52.9297 64.7766C54.7572 63.3506 57.7969 63.2773 60.7433 63.2773C63.6898 63.2773 65.9463 63.2773 66.8974 64.3195C67.8483 65.3615 67.5687 67.7932 67.0652 69.4568C66.8843 70.5636 66.2934 71.5662 65.4055 72.2724C64.9157 72.5917 64.333 72.7458 63.7458 72.7111H55.1302C55.0035 73.1162 55.0035 73.5493 55.1302 73.9544C55.4099 74.7222 56.4729 74.6674 57.5172 74.6674H65.0885L63.895 78.7809H53.9181ZM60.4451 69.1095C60.7149 69.1452 60.9888 69.0833 61.2153 68.9351C61.4419 68.7871 61.6057 68.563 61.6758 68.3051C61.7876 67.9028 61.6758 67.4459 60.9111 67.263C60.4167 67.196 59.9185 67.1594 59.4194 67.1533C58.7131 67.117 58.0061 67.2036 57.3308 67.4093C57.0167 67.5813 56.7503 67.8263 56.5554 68.1228C56.3603 68.4192 56.2424 68.758 56.2117 69.1095H60.4451Z" fill="white"/>
    <path d="M92.2035 58.5391H97.9844L92.0729 78.7594H86.292L92.2035 58.5391Z" fill="white"/>
    <path d="M92.6488 57.0078L86.7373 77.2465H92.5184L98.4299 57.0078H92.6488Z" fill="white"/>
    <path d="M113.536 64.8321C114.972 66.5506 114.207 69.5855 113.759 71.1213C113.187 73.5699 111.819 75.7703 109.862 77.3921C107.595 78.6437 104.992 79.186 102.403 78.946C99.9223 78.946 97.1809 78.8547 95.8942 77.3921C94.6075 75.9295 95.2229 72.6386 95.6705 71.1213C96.2306 68.6625 97.6001 66.4524 99.5679 64.8321C101.835 63.5805 104.437 63.0382 107.027 63.2781C109.508 63.2781 112.249 63.2781 113.536 64.8321ZM101.395 73.8087C101.395 73.9733 101.88 74.8509 103.652 74.8509C104.682 74.8773 105.681 74.5027 106.431 73.8087C107.119 73.0442 107.594 72.1187 107.811 71.1213C108.184 70.2487 108.269 69.283 108.053 68.3606C107.867 67.9949 107.363 67.3917 105.778 67.3917C104.734 67.3357 103.71 67.6836 102.925 68.3606C102.24 69.1532 101.772 70.103 101.563 71.1213C101.187 71.968 101.108 72.9133 101.34 73.8087" fill="white"/>
    <path d="M132.63 64.8298C134.085 66.5483 133.321 69.5832 132.873 71.119C132.3 73.5676 130.932 75.7681 128.975 77.3899C126.707 78.6361 124.106 79.1779 121.516 78.9439C119.055 78.9439 116.295 78.8524 115.026 77.3899C113.758 75.9272 114.336 72.6365 114.784 71.119C115.352 68.6632 116.72 66.4555 118.682 64.8298C120.95 63.5837 123.551 63.0418 126.141 63.2758C128.602 63.2758 131.362 63.2758 132.63 64.8298ZM120.49 73.8064C120.49 73.9711 120.994 74.8486 122.765 74.8486C123.285 74.867 123.803 74.7843 124.289 74.6055C124.776 74.4267 125.221 74.1551 125.6 73.8064C126.261 73.0292 126.722 72.1074 126.943 71.119C127.326 70.2483 127.405 69.2776 127.166 68.3583C126.999 67.9926 126.495 67.3894 124.891 67.3894C123.848 67.3375 122.825 67.6849 122.038 68.3583C121.361 69.1556 120.894 70.1035 120.677 71.119C120.311 71.9683 120.233 72.9103 120.453 73.8064" fill="white"/>
    <path d="M134.648 69.8928C135.091 67.8857 136.273 66.109 137.967 64.9017C139.84 63.8307 141.994 63.3282 144.158 63.4574H148L146.824 67.443H144.83C144.241 67.3969 143.649 67.4706 143.091 67.6594C142.533 67.8481 142.019 68.1479 141.584 68.54C140.81 69.3661 140.264 70.3732 139.999 71.4651L137.874 78.778H132.093L134.648 69.8928Z" fill="white"/>
</svg>