<svg width="128" height="24" viewBox="0 0 128 24" fill="none" xmlns="http://www.w3.org/2000/svg">
    <g clip-path="url(#clip0_513_1997)">
        <path d="M43.094 13.8461L43.0893 13.7882L43.0319 13.0348V13.0332L43.0309 13.0305L42.9516 12.6838L42.9495 12.6761L42.9443 12.6707L42.7153 12.431L42.7351 12.0865L42.8488 11.9888L42.8697 11.9708L42.8514 11.949L42.4483 11.4598L42.455 11.135L42.6209 10.9466L42.6303 10.9357L42.6277 10.9215L42.5844 10.7255L42.5813 10.7097L42.5661 10.7048L42.2313 10.6027L41.8964 9.97976L41.9408 9.94918L42.0336 10.0851L42.0487 10.1064L42.0696 10.0928L42.2428 9.97976L42.272 9.96065L42.2469 9.93553L41.9804 9.67185L41.9658 9.65765L41.9491 9.66748L41.8187 9.74227L41.6023 9.59541L41.5976 9.59268L41.595 9.58613L41.4896 9.31971L41.4823 9.30225H41.2043L41.2006 9.32572L41.1761 9.47367L41.0645 9.4622L40.5847 8.45877L40.6113 8.16287L40.7865 8.12193L40.8136 8.11592L40.8069 8.08808L40.6817 7.56507L40.9294 7.77034L40.9722 7.80583V7.74905L40.98 7.03715L41.2095 6.78984L41.5658 6.78274L41.6043 6.78165L41.5897 6.74398L41.3827 6.21333L41.2836 5.06522L41.2815 5.04065V5.03683L41.2106 4.2212L41.2095 4.20646L41.1975 4.19936L41.0186 4.09345L41.4948 3.74951L41.511 3.73804L41.5052 3.71839L41.4333 3.46999L41.4281 3.45197L41.4103 3.45033L40.4595 3.36735L40.4449 3.36626L40.436 3.37881L40.328 3.52676L40.0808 3.54805L40.0594 3.54969L40.0563 3.57208L40.0313 3.75715L39.8722 3.74568V3.49837L40.0912 3.42194L40.1022 3.41812L40.1069 3.4072L40.2003 3.20357L40.2034 3.19647V3.18883L40.1523 2.65435L40.1507 2.63688L40.1351 2.63033L40.0412 2.59266L40.0287 2.58775L40.0177 2.59539L39.9416 2.64507L39.9363 2.49767L39.9348 2.45836L39.8998 2.47256L39.6938 2.55608L39.5639 2.40049L39.6093 2.16792L39.7621 2.30932L39.7788 2.32515L39.7966 2.31041L39.8852 2.23616L40.0271 2.39776L40.0553 2.42943L40.0714 2.39012L40.1653 2.1641L40.1679 2.15755V2.151L40.1471 1.89441L40.3004 1.76065L40.592 1.78959L40.6024 1.79068L40.6107 1.78413L41.1146 1.38505L41.137 1.36703L41.1188 1.34465L41.0421 1.2502L41.2241 1.2775L41.2554 1.28241L41.2544 1.24911L41.2471 0.993062L41.246 0.960306L41.2153 0.966311L40.9618 1.0149L40.8913 0.853848L40.8856 0.840745L40.8726 0.838015L40.5487 0.771411L40.665 0.619094L40.6827 0.596165L40.6603 0.578695L40.5033 0.458588L40.6457 0.353222L40.6686 0.336298L40.6514 0.313369L40.4355 0.0196538L40.4214 0L40.4011 0.0125566L39.7892 0.389254L39.7778 0.396351L39.7762 0.41L39.7413 0.711358L39.5801 0.931371L39.5587 0.960306L39.5916 0.973954L39.9442 1.12245L39.7866 1.1967L39.1331 1.01108L39.1216 1.0078L39.1112 1.0149L38.3413 1.54937L37.1907 2.20395L37.1845 2.20778L37.1803 2.21433L36.871 2.7417L36.8658 2.75098L36.8674 2.76136L36.8919 2.89402L36.7067 2.94752L36.7005 2.94916L36.6958 2.95353L36.4005 3.23196L36.3818 3.24943L36.3974 3.27017L36.6066 3.5415L36.618 3.55624L36.6353 3.55078L36.8116 3.49401L37.0671 3.64469L37.0421 3.898L36.8042 3.9253H36.7985L36.7938 3.92912L36.6347 4.0263L36.2811 3.79427L36.2399 3.76752V4.29381L35.8764 4.57933L35.8711 4.58315L35.8685 4.58861L35.7261 4.87741L35.7157 4.89871L35.7136 4.90253L35.7115 4.9069L35.6416 5.04829L35.2698 5.26776L34.9959 4.99588L34.9891 4.98933L34.9798 4.98824L34.6918 4.95821L34.6825 4.95712L34.6746 4.96258L34.2641 5.24101L34.2605 5.24319L34.2579 5.24647L33.9773 5.60788L33.9736 5.61225L33.9721 5.61771L33.875 5.97202L33.7123 6.02443L33.4917 5.90924L33.4849 5.90542H33.4771L33.2538 5.92889L33.2424 5.92998L33.2351 5.93981L33.137 6.07466L33.0577 6.00369L33.0379 5.98622L33.0202 6.00587L32.9451 6.09049L32.8694 6.01679L33.0567 5.8208L32.9983 5.81643L32.6097 5.7864L32.5982 5.78531L32.5899 5.79295L32.3666 5.99604L32.3541 6.00751L32.3588 6.02498L32.4767 6.44535L32.3108 6.6135V6.31269H32.1225L32.1147 6.32033L31.9979 6.43116L31.9749 6.32088L32.1867 6.12106L32.2435 6.06756L32.1674 6.07247L31.9301 6.08721H31.9243L31.9191 6.08994L31.2134 6.46664L31.1837 6.48247L31.2051 6.50922L31.3261 6.66263L31.1425 6.84771L31.1279 6.86245L31.1378 6.88155L31.2171 7.03223L31.2296 7.05571L31.2525 7.0437L31.3605 6.98747L31.372 7.1638V7.17309L31.3782 7.18018L31.5227 7.35652L31.2984 7.4133L31.2891 7.41548L31.2833 7.42367L31.204 7.53668L31.1952 7.54924L31.2009 7.56398L31.2598 7.71247L31.0836 7.74305L30.8014 7.6546L30.7748 7.64641L30.7675 7.67426L30.6877 7.98817L30.2219 7.90246L30.1906 7.89645V8.64985L29.8839 8.59635L29.3822 8.12083L29.5491 7.998L29.5704 7.98217L29.5558 7.95924L29.2314 7.45424L29.2272 7.44824L29.221 7.44496L29.0118 7.3396L29.0019 7.33468L28.9915 7.3385L28.6838 7.44824L28.34 7.30902L28.3072 7.29537L28.3041 7.3325L28.255 7.88826L27.6422 8.16178L27.4252 8.00837L27.456 7.89209L27.4654 7.85715H27.4304L26.7753 7.84896H26.7617L26.7539 7.86042L26.5807 8.10173L26.5776 8.10609L26.5766 8.11101L26.5641 8.15632L26.5422 8.03785L26.5401 8.02857L26.5333 8.02202L26.4107 7.90901L26.3914 7.89099L26.3737 7.91065L26.2329 8.06515L26.0519 8.1596L26.0493 8.16069L26.0373 8.16669L26.0237 8.17379L26.0091 8.18143L25.8192 8.28079L25.8166 8.28189L25.8145 8.28298L25.6023 8.45331L25.3117 8.5423L25.3013 8.54558L25.2961 8.5554L25.2335 8.67005L25.2377 8.49098L25.8281 7.85114L25.8307 7.84841L25.8323 7.84514L26.1635 7.22004L26.1651 7.21731V7.21403L26.3168 6.65663L26.321 6.64189L26.3116 6.63042L25.8505 6.08066L25.8427 6.07138H25.8312L25.3994 6.0561H25.3848L25.3764 6.06811L25.2314 6.2843L25.1146 6.3045L25.2293 5.96492L25.2403 5.93217L25.2069 5.9278L24.8981 5.88795L24.9878 5.7531L25.0019 5.73181L24.9831 5.71543L24.7672 5.52708L24.7552 5.51671L24.7406 5.52217L24.5461 5.59751L24.5377 5.60078L24.533 5.60843L24.2232 6.09049L24.2164 6.10086L24.2196 6.11287L24.2832 6.36619L23.9843 6.38639L23.9572 6.38803L23.9593 6.41642L23.9666 6.50704V6.51414L23.9713 6.52014L24.0563 6.65062L23.8837 6.61241L23.8701 6.60968L23.8597 6.6195L23.747 6.73033L23.5029 6.68338L23.4716 6.57201L23.4659 6.55126H23.4455L23.057 6.55945H23.0298L23.0309 6.58839L23.0371 6.79693L22.5927 6.86135L22.5854 6.86245L22.5797 6.86736L22.2699 7.12504L22.0341 7.13214H22.0242L22.0169 7.13924L21.837 7.3052L21.8307 7.31121L21.8286 7.31994L21.7494 7.65897L21.7467 7.66934L21.752 7.67862L21.8865 7.93303L21.6951 7.98326L21.0885 7.87898H21.0869H21.0849L20.7318 7.87134H20.7156L20.7078 7.88554L20.5998 8.08862L20.5967 8.09463V8.10173L20.5821 8.6291V8.64166L20.5899 8.65039L20.8095 8.87259L20.8992 9.09206H20.6462L20.3875 8.58707L20.3792 8.57123L20.3619 8.57232L20.1669 8.58434H20.1658L20.1528 8.58543H20.1392L19.9948 8.59525L19.9755 8.59635L19.9702 8.616L19.9097 8.84311L19.7042 8.64767L19.6724 8.61764L19.6604 8.66077L19.5957 8.89443L19.5916 8.90972L19.602 8.92118L19.8477 9.20015L19.8576 9.37103L19.4534 8.99434L19.4403 8.74593L19.6281 8.50572L19.6333 8.49917V8.49043L19.6625 8.09135L19.6656 8.0444L19.6244 8.06406L19.5452 8.10173L19.5347 8.10664L19.5306 8.11756L19.4393 8.38179L19.3047 8.50845L19.1597 8.55158L19.1503 8.55431L19.1451 8.56304L19.0011 8.78906L18.9965 8.79616V8.8049L19.0038 9.39178L18.6553 9.96447L18.6506 9.97211V9.98085L18.6725 10.3346L18.6741 10.3608H19.047L19.3277 10.7119V11.046L19.1253 11.302L19.1143 11.3162L19.1222 11.3326L19.1795 11.4532L19.1832 11.4609L19.1905 11.4653L19.2964 11.528L19.0789 11.581L19.0022 11.2796L19.227 10.868L19.2327 10.8571L19.2291 10.8451L19.1284 10.5284L19.1232 10.512L19.107 10.5093L18.7544 10.4564L18.7414 10.4547L18.732 10.464L18.5375 10.66L18.5296 10.6676V10.6786L18.5077 11.1126L18.1953 11.4467L17.9058 11.5575L17.8996 11.5597L17.8954 11.5646L17.7087 11.7737L17.0635 11.3572V11.2054L17.4792 11.4057L17.4896 11.4107L17.5 11.4063L17.7379 11.3086L17.7405 11.3075L17.7426 11.3058L18.1244 11.0498L18.1306 11.046L18.1338 11.0389L18.393 10.4968L18.3972 10.4886L18.3956 10.4798L18.3539 10.1938L18.7899 9.10898L18.7909 9.1068V9.10571L18.8415 8.91736L18.8436 8.91081L18.8421 8.90426L18.7951 8.67114L19.0721 8.39544L19.0789 8.38889L19.0804 8.37906L19.1378 7.97998L19.1394 7.96852L19.1326 7.95924L18.937 7.689L19.1206 7.66388L19.1472 7.66006L19.1441 7.63277L19.1102 7.34233L19.1075 7.3194L19.0856 7.31776L18.8582 7.30029L18.8316 7.2981L18.8295 7.32595L18.8129 7.53723V7.54378L18.8144 7.54978L18.84 7.61748L18.7539 7.58145L18.7398 7.57544L18.7278 7.58527L18.5119 7.75833L18.5093 7.76051L18.5072 7.76324L18.249 8.10828L18.054 8.30482L17.7587 8.37852L17.752 8.38016L17.7467 8.38561L17.5882 8.54394L17.571 8.56141L17.5856 8.58161L17.7332 8.78524L17.5741 9.08332L17.3467 9.15539L17.329 9.16085L17.3279 9.17995L17.3206 9.29296V9.30552L17.3279 9.31426L17.5251 9.52772L17.4588 9.72207L17.4562 9.73026L17.4583 9.739L17.4943 9.87439L17.4953 9.87876L17.498 9.88258L17.5642 9.98303L17.3383 10.1998L17.2716 10.0889L17.2007 9.76957L17.1996 9.76466L17.1975 9.76083L16.9164 9.2886L16.9096 9.27659L16.9039 9.26512L16.7667 9.00089L16.7651 8.99816L16.7625 8.99543L16.4026 8.5887L16.3943 8.57942H16.0876L16.0829 8.60126L16.0469 8.76723V8.76996L16.0464 8.77269L16.0396 9.0058L15.8664 9.1128L15.7684 9.09206L15.7507 9.08824L15.7407 9.10407L15.6849 9.19197L15.5957 9.11826L15.7308 8.98997L15.7397 8.98178V8.77596H15.7131L15.2103 8.76832L14.9652 8.57778L14.9568 8.57123L14.9464 8.57232L14.5729 8.60836L14.4728 8.46532L14.6564 8.44731L14.671 8.44567L14.6778 8.43202L14.8003 8.18362L14.816 8.15141L14.7821 8.14322L14.4728 8.06788L14.4571 8.06406L14.4467 8.07716L14.3278 8.2262L14.2746 8.12629L14.2688 8.11537L14.2574 8.11265L13.4651 7.90956L13.4505 7.90573L13.3571 8.00346L13.2606 7.90901L13.246 7.89482L13.2288 7.90519L12.8288 8.15032L12.64 7.95869L12.6989 7.77962L12.702 7.77034L12.6989 7.76106L12.6431 7.59182L12.8637 7.51484L13.0906 7.68026L13.1141 7.69719L13.1292 7.67207L13.2445 7.47608L13.2486 7.46898V7.46079L13.2413 7.10648V7.09611L13.234 7.08846L12.9169 6.72705L12.8841 6.68993L12.871 6.73852L12.7803 7.08246L12.3567 7.37071L12.3468 7.37727L12.3447 7.38928L12.3103 7.60601L12.1231 7.7829L12.1111 7.79436L12.1095 7.79545L12.1001 7.80474L12.0881 7.8162L11.8967 7.99691L11.8294 7.86588L11.9379 7.84295L11.9734 7.83585L11.9562 7.80255L11.7762 7.44824L11.7673 7.43077L11.7486 7.43404L11.4815 7.47826L11.214 7.38218L11.2077 7.38L11.2014 7.38109L10.8629 7.4335L10.8478 7.43568L10.8421 7.45097L10.6663 7.91065L10.5641 7.84841L10.3758 7.38873L10.4039 7.02623L10.4065 6.99238L10.3742 6.9962L10.0571 7.03387L10.0394 7.03605L10.0347 7.05407L9.94808 7.37017L9.94442 7.38436L9.95329 7.39583L10.0764 7.55197L9.97363 7.69555L9.79682 7.59346L9.76291 7.3527L9.76031 7.33414L9.75874 7.32376L9.74205 7.2053L9.76291 7.10484L9.76552 7.09283L9.75822 7.083L9.67425 6.96181L9.75144 6.81386L10.0117 6.47592L10.2271 6.40331L10.237 6.40004L10.2422 6.39076L10.3721 6.15709L10.3747 6.15218L10.3758 6.14672L10.4243 5.80824L10.4258 5.79841L10.4311 5.76456L10.4806 5.44628L10.5234 5.50961L10.489 5.76948L10.4879 5.77767L10.4916 5.78531L10.5974 6.0217L10.6261 6.41587V6.42297L10.6303 6.42897L10.7784 6.66482L10.8134 6.90721L10.8155 6.92032L10.8264 6.92687L11.3882 7.28064L11.397 7.28609L11.4069 7.28391L11.7527 7.21621L11.7632 7.21403L11.7694 7.2053L12.0287 6.83624L12.0323 6.83133L12.0334 6.82532L12.1053 6.43389L12.1064 6.42788L12.1048 6.42187L11.9906 5.95837L12.0052 5.28414V5.27977L12.0041 5.2754L11.9322 5.027L11.9311 5.02318L11.9296 5.02045L11.7527 4.72401L11.7267 4.51437L11.77 4.48543L11.8633 4.62192L11.8784 4.6443L11.8998 4.62956L12.0078 4.55422L12.0276 4.54002L12.0167 4.51764L11.916 4.31455L11.9129 4.308L11.9071 4.30418L11.5253 4.03285L11.5196 4.02903H11.5128L10.9657 3.97552L10.9552 3.97443L10.9469 3.98044L10.84 4.06233L10.5677 4.2272L10.5536 4.23539L10.5615 4.4696L10.3862 4.76604L10.0336 4.77314H10.0211L10.0133 4.78351L9.8954 4.93856L9.88705 4.95002L9.87871 4.96094L9.87401 4.96695L9.57567 5.35948L9.43067 5.35238H9.4218L9.4145 5.35729L9.22047 5.49487L9.08538 5.48777L9.0666 5.48668L9.0593 5.50524L9.00245 5.65428L8.9409 5.77548L8.81207 5.87648L8.82303 5.89777L8.87884 6.00751L8.82303 6.06538L8.57006 6.02279L8.54659 6.01897L8.53981 6.04299L8.46783 6.30668V6.30832L8.46731 6.31105L8.4188 6.6943L8.28111 6.75326L7.58219 6.65608H7.5801H7.57801L7.25933 6.66864H7.24577L7.23221 6.66973L6.99437 6.67901H6.99019L6.98654 6.68065L6.69133 6.79366L6.67464 6.79966L6.67359 6.81823L6.65899 7.06663V7.07099L6.66003 7.07536L6.68455 7.17145L6.63969 7.21021L6.58858 7.07318L6.58232 7.05625L6.56511 7.05516L6.45975 7.04861L6.2871 6.875L6.27198 6.85972L6.25424 6.87173L6.03622 7.01858L5.89331 7.03551L5.86514 7.03878L5.72588 7.05516L5.71858 7.05625L5.71284 7.06117L5.48961 7.24187L5.48648 7.24406L5.48387 7.24733L5.36286 7.42313L5.12554 7.40893L5.10938 7.40784L5.10103 7.42258L4.95655 7.67426L4.78965 7.69555L4.7667 7.69828L4.76565 7.7223L4.75887 7.91119L4.50434 8.08426L4.4913 8.09299L4.49235 8.10937L4.50643 8.37306V8.38179L4.51217 8.38889L4.60709 8.51446L4.49808 8.65531L4.48974 8.66623L4.49287 8.67933L4.52155 8.80763L4.52521 8.824L4.54137 8.82837L4.69785 8.86932L4.72862 9.03037L4.67907 9.12318L4.67386 9.13246L4.66551 9.14884L4.66029 9.15866L4.6363 9.20343L4.40524 9.34264L4.3995 9.34592L4.39585 9.35193L4.27328 9.55556L4.27224 9.5572V9.55829L4.14184 9.83672L4.13976 9.84163V9.84709L4.12515 10.0731V10.0775L4.1262 10.0824L4.15853 10.2041L4.07352 10.3133L4.06778 10.3204V10.3292L4.06204 10.4105L3.87479 10.3941L3.74753 10.2675L3.76057 10.1457L3.76318 10.1206L3.73918 10.1151L3.60253 10.0851L3.58062 10.0802L3.57228 10.102L3.49561 10.2991L3.21291 10.5508L3.20196 10.5606L3.20404 10.5759L3.22543 10.7419L3.22856 10.7675L3.25307 10.7665L3.3939 10.7594L3.49352 10.8445L3.53472 11.046L3.53994 11.0711L3.56393 11.0684L3.68963 11.0536L3.81481 11.0787V11.1519L3.63226 11.403L3.62078 11.4188H3.61609H3.60983L3.60462 11.421L3.4857 11.4745L3.47683 11.4784L3.47266 11.4876L3.4205 11.5963L3.34591 11.6159L3.32661 11.6208L3.32557 11.6416L3.31827 11.7923L3.31722 11.8092L3.33131 11.8179L3.43875 11.884L3.41111 12.1477L3.41007 12.1564L3.40642 12.1608L3.30262 12.2956V12.2967L3.30106 12.2984L3.25046 12.3813L3.24473 12.3912L3.24681 12.4021L3.2682 12.5151L3.2708 12.5287L3.28332 12.5347L3.37408 12.5795L3.36156 12.7335L3.35999 12.7504L3.37408 12.7597L3.63539 12.9322L3.64217 13.2488V13.2554L3.6453 13.2614L3.86019 13.6883L3.86436 13.6965L3.87375 13.7145L3.9306 13.8275L3.92122 14.0841L3.92017 14.1141V14.1289L3.91809 14.1769L3.72145 14.1704H3.70632L3.69798 14.1824L3.61818 14.3074L3.51543 14.3211L3.50186 14.3227L3.49508 14.3353L3.36312 14.5826L3.16179 14.6617L3.00793 14.4237L3.00115 14.4133L2.98915 14.4117L2.60057 14.3587L2.58701 14.3571L2.57762 14.3669L2.39768 14.5629L2.37421 14.5886L2.40342 14.6066L2.756 14.825L2.68976 14.873L2.50304 14.7545L2.48739 14.7442L2.47279 14.7562L2.36117 14.8479L2.35908 14.843L2.357 14.8381L2.35334 14.8348L2.08995 14.5842L2.05083 14.5471L2.04561 14.6022L2.0138 14.9238L1.90426 14.8665L1.89801 14.8632H1.89122L1.61792 14.8785H1.6054L1.5981 14.8894L1.52142 14.9926L1.33991 14.6737L1.32322 14.6443L1.29923 14.6672L1.14067 14.8179L1.13128 14.8266V14.8397L1.14589 15.0925L1.07339 15.182L1.06348 15.194L1.06817 15.2088L1.10677 15.33L1.11355 15.3349L1.21734 15.4162L1.21056 15.5898V15.5936L1.21108 15.5969L1.27524 15.8939L1.25385 16.1685L1.20378 16.6271L1.20274 16.638L1.209 16.6468L1.26689 16.7297L1.27941 16.7478L1.29923 16.7385L1.39259 16.6959L1.45623 16.8073L1.46718 16.8264L1.46979 16.8313L1.64295 17.1343V17.3254L1.64973 17.3335L1.82446 17.5355L1.84376 17.5579L1.98876 17.7255L1.99554 17.9565V17.9641L1.99971 17.9707L2.04561 18.0449L2.04926 18.0504V18.0596L2.06022 18.3179V18.3348L2.07534 18.3419L2.34917 18.4778L2.35074 18.5051V18.5128L2.35178 18.5231L2.35282 18.5417L2.35595 18.5968V18.61L2.36691 18.6181L2.44306 18.6771L2.44879 18.6815L2.45088 18.6869L2.50147 18.8294L2.52234 18.937L2.52025 18.9397L2.44358 19.02L2.43523 19.0287V19.0412L2.45036 19.2673V19.2749L2.45505 19.2815L2.65117 19.5752L2.63708 19.8793L2.60162 20.0272L2.59849 20.0409L2.60683 20.0518L2.78678 20.2854L2.7993 20.3018L2.81807 20.2936L2.90465 20.256L2.913 20.2527L2.91769 20.2445L2.95525 20.1773L3.04027 20.2248L3.04287 20.2265H3.04496L3.16023 20.2647L3.1717 20.2685L3.18214 20.2614L3.31879 20.1708L3.33131 20.1626V19.7499L3.42311 19.1968L3.76265 18.8567L3.76996 18.8491L3.771 18.8387L3.79969 18.4773V18.4729L3.79917 18.4686L3.76735 18.3282L3.92069 18.2076L3.92434 18.2043H3.92956L4.15436 18.2092H4.16062L4.16636 18.207L4.38125 18.1033L4.38594 18.1011L4.38751 18.1039L4.39533 18.1071L4.62118 18.1929L4.62587 18.1945H4.63109L5.23612 18.1792L5.26846 18.1781L5.26168 18.1454L5.21682 17.9248L5.34096 17.9002L5.35921 17.8964L5.36234 17.8773L5.47761 17.1992L5.4797 17.1872L5.47292 17.1774L5.37225 17.0344L5.36651 17.0256L5.35713 17.0235L5.23038 16.9918L5.24603 16.899L5.4265 16.7243L5.44423 16.7074L5.43015 16.6872L5.2815 16.471L5.33418 16.442L5.43901 16.3934L5.44997 16.3885L5.46196 16.3842L5.70502 16.3001L5.72015 16.2946L5.72328 16.2782L5.75718 16.0954L5.95225 15.9829L6.17183 15.9234H6.17288L6.25164 15.8977L6.25424 15.8999L6.38255 16.0271L6.37003 16.1609L6.33457 16.2788L6.33092 16.2903L6.33613 16.3006L6.41541 16.4513L6.42741 16.4742L6.44984 16.4633L6.6084 16.388L6.61674 16.3842L6.62091 16.3754L6.69811 16.2133L6.77895 16.1221L6.98759 16.1641L6.99958 16.1669L7.00949 16.1587L7.12528 16.0588L7.19309 16.0528L7.24994 16.0986L7.25776 16.1052H7.2682L7.49143 16.0894H7.49352L7.49613 16.0883L7.66147 16.0429L7.75796 16.0206L7.75066 16.18V16.186L7.75274 16.192L7.83933 16.4104L7.84819 16.4317L7.8701 16.4267L7.97077 16.4044L7.97755 16.4027L7.98276 16.3978L8.04118 16.3427L8.15958 16.4016L8.15384 16.483L8.11263 16.5763L8.10533 16.5927L8.11681 16.6064L8.1674 16.6664L8.17209 16.6719L8.17887 16.6741L8.30979 16.7221L8.36351 16.9186L8.4188 17.1725L8.35726 17.3297L8.35256 17.3417L8.42298 17.4886L8.43601 17.5159L8.46105 17.5001L8.61648 17.4012L8.66551 17.4165L8.70932 17.5148L8.74479 17.7075L8.74688 17.7184L8.75522 17.725L8.86319 17.808L8.87831 17.8194L8.89396 17.8085L9.01601 17.7233L9.1245 17.7299L9.33313 17.8254L9.3274 17.9188V17.9275L9.33105 17.9346L9.38164 18.0253L9.3879 18.0362L9.39989 18.0384L9.51516 18.0607L9.52977 18.0635L9.53968 18.052L9.61426 17.9679L9.69563 18.0525L9.69772 18.0547L9.70085 18.0569L9.81559 18.1301L9.78952 18.3228V18.3282V18.3337L9.8182 18.4544L9.81977 18.4609L9.82446 18.4658L9.95381 18.6165L9.95851 18.622L9.96529 18.6241L10.0733 18.6618L10.0847 18.6656L10.0952 18.6591L10.1927 18.5979L10.2569 18.6203L10.3168 18.7459L10.322 18.7563L10.333 18.7595L10.5995 18.8502L10.6126 18.8545L10.6235 18.8458L10.7388 18.7552L10.7424 18.7524L10.7445 18.7492L10.8598 18.5761L10.8681 18.563L10.8619 18.5483L10.6579 18.082L10.6548 18.0749L10.6533 18.0738L10.6543 18.0727L10.7294 17.9696L10.9912 17.9483L11.0131 17.9466L11.0158 17.9232L11.0361 17.7343L11.1467 17.6698L11.2677 17.6764L11.4268 17.8063L11.445 17.8211L11.4617 17.8047L11.5624 17.707L11.5785 17.6917L11.5671 17.672L11.4466 17.4646L11.3939 17.2724L11.5154 17.1386L11.615 17.1081L11.7908 17.3062L11.7981 17.3144H11.8091L12.1977 17.3406H12.2086L12.2201 17.3445L12.6212 17.4416L12.8481 17.5901L12.8637 17.6005L12.8783 17.588L13.0014 17.4864L13.1876 17.5907L13.1913 17.5929H13.1949L13.8719 17.7294L13.8803 17.731L13.8881 17.7272L14.1343 17.6098L14.1426 17.6054H14.1504L14.3372 17.6021L14.4947 17.8817L14.501 17.8931L14.5135 17.8953L14.647 17.9172L14.6606 17.9193L14.672 17.9226L14.7576 17.9488L14.7638 18.1131L14.7065 18.1798L14.696 18.1918L14.7012 18.207L14.7398 18.3277L14.6058 18.4888L14.5969 18.4997L14.6001 18.5139L14.6287 18.6422L14.6324 18.6591L14.6486 18.6629L14.9391 18.7333L14.9516 18.8862L14.9537 18.9108L14.9772 18.9119L15.1253 18.9195L15.2301 18.9468L15.3214 19.0543L15.1774 19.1788L15.1681 19.187V19.3584L15.2025 19.3475L15.3574 19.2984L15.4914 19.3759L15.5003 19.3808L15.5102 19.3786L15.6401 19.3486L15.6469 19.347L15.6521 19.3426L15.7543 19.2498L16.0573 19.1925L16.0704 19.1903H16.0824L16.3943 19.1979L16.2848 19.318L16.2707 19.3333L16.2811 19.3519L16.593 19.8913L16.5977 19.8995L16.5998 19.9093L16.9477 21.6557L16.9529 21.6819L16.9779 21.6781L17.1652 21.6481L17.1767 21.6465L17.1834 21.6366L17.3008 21.4592L17.39 21.4974L17.4234 21.6858L17.4255 21.6989L17.4369 21.7054L17.8328 21.9314L17.8438 21.9374L17.8552 21.9331L18.1546 21.8168L18.3012 21.8834L18.4154 22.1302L18.4196 22.1394L18.4206 22.1482L18.4457 22.4075L18.4472 22.4222L18.4592 22.4293L18.6762 22.5571L18.683 22.7973V22.8191L18.7038 22.824L18.925 22.8748L19.0126 22.9878L19.0267 23.0058L19.046 22.9949L19.276 22.8677L19.3172 23.0228L19.3183 23.0271L19.3204 23.0304L19.4862 23.2865L19.493 23.2974L19.5055 23.299L19.7647 23.329L19.784 23.3312L19.7924 23.3127L19.8649 23.1472L20.194 23.1331H20.2023L20.2091 23.1276L20.4381 22.9496L20.4475 22.9425L20.4569 22.9387L21.3796 22.5756L21.6915 22.5544L21.7405 22.6313L21.7467 22.6412L21.7572 22.6433L22.236 22.7525L22.2688 22.9671L22.2709 22.9813L22.2835 22.9878L22.4707 23.0861L22.4754 23.0883H22.4801L23.0058 23.1489L23.2056 23.1778L23.3073 23.2772L23.3188 23.2886L23.3339 23.2832L23.4998 23.2231L23.5045 23.2215L23.5081 23.2182L23.6594 23.0828L23.6646 23.0785L23.6667 23.0725L23.7746 22.794L23.7804 22.7787L23.77 22.7656L23.5968 22.5484L23.6166 22.2323L23.7141 22.2006L23.7319 22.1946L23.7329 22.1749L23.7392 22.0423L23.8659 22.0363L23.8857 22.0352L23.9301 21.8561L24.5315 22.1094L24.5335 22.1105H24.5356L25.0812 22.2426L25.1923 22.693L25.1954 22.705L25.2059 22.7105L25.6163 22.9365L25.6221 22.9398H25.6289L25.9173 22.9321H25.9241L25.9298 22.9283L26.3299 22.6788L26.6355 22.7804L26.6402 22.782H26.6454L26.9599 22.7602L27.0382 22.9032L27.0455 22.9169H27.0606L27.251 22.9261L27.2724 22.9272H27.2786L27.384 22.9321L27.4993 23.1593L27.506 23.1724L27.5206 23.174L28.4642 23.2641L28.473 23.2652L28.4803 23.2603L29.1083 22.8644L29.3029 22.8574H29.3217L29.3274 22.8377L29.39 22.6264L29.6873 22.3371L30.0983 22.3158L30.2198 22.4359L30.2381 22.4539L30.2563 22.4364L30.4269 22.2721L31.1774 22.3982L31.1988 22.402L31.2066 22.3802L31.3115 22.0799L31.5639 21.8965L31.5817 21.8839L31.5738 21.8632L31.4685 21.5913L31.5811 20.8548L31.7694 20.6578L31.7814 20.6452L31.7752 20.6283L31.6458 20.2669L31.6401 20.2505L31.6239 20.2489L31.3902 20.2232L31.5624 19.8896L31.9003 19.6445L31.9097 19.638L31.9207 19.6319L32.4011 19.3737L32.7646 19.5053L32.7709 19.5075L32.7771 19.5064L33.2173 19.4332L33.8704 20.1091L34.6908 20.9973L34.7033 21.011L34.72 21.0039L35.0335 20.8729L35.2249 20.9657L35.2364 20.9711L35.2478 20.9651L35.3824 20.8947L35.6458 20.9815L35.651 20.9831H35.6573L35.8054 20.9624L36.0193 21.3162L36.0214 21.3194L36.0245 21.3222L36.255 21.5329L36.2681 21.5449L36.2842 21.5367L36.774 21.2883L36.7844 21.2834L36.7881 21.2719L36.8512 21.0667L37.2111 20.6463L37.4004 20.5551L37.5835 20.868L37.5152 21.0972L37.5126 21.106L37.5152 21.1147L37.6325 21.4658L37.6351 21.4739V21.4832L37.6075 22.3627V22.3709L37.6111 22.378L37.741 22.6111L37.1928 22.6603L37.1772 22.6614L37.1709 22.6766L36.9764 23.121L36.9685 23.1385L36.9811 23.1522L37.5214 23.7325L37.535 23.9405L37.5392 24L37.5804 23.9591L37.875 23.6653L38.3825 23.673H38.3925L38.3998 23.667L38.7743 23.3503L38.7789 23.3465L38.7816 23.3411L39.0048 22.8743L39.0074 22.8694V22.8644L39.1159 21.5859L39.2666 20.9176L39.2677 20.9133V20.9078L39.1665 20.1233L39.1649 20.1113L39.166 20.0998L39.2312 19.2116V19.2061L39.2296 19.2007L39.1362 18.9222V18.9206L39.1352 18.919L38.7174 18.0302L38.7158 18.0269L38.7137 18.0247L38.5813 17.8571L38.4603 17.2386V17.2353L38.4587 17.2331L38.3945 17.0731L38.7435 17.2713L38.8765 17.6382L38.878 17.642L38.8807 17.6458L39.0882 17.9226L39.3396 18.3435L39.5196 18.652L39.5222 18.6564L39.5264 18.6596L39.7287 18.8201L39.7908 19.0079L39.8482 19.1815L39.8518 19.1925L39.8617 19.1974L40.1079 19.3191L40.1418 19.5752L40.1429 19.5828L40.1471 19.5888L40.4136 19.9431L40.4564 19.9999L40.4616 19.9278L40.4829 19.6188V19.6161V19.6128L40.4517 19.4097L40.6311 19.3966H40.6358L40.6399 19.3939L40.7078 19.3617L40.8903 19.4611L40.9612 19.4998L40.9268 19.4245L40.7683 19.0778L40.761 19.062H40.5195L40.2821 18.9523L40.0104 18.7481L39.8336 18.2742L39.7402 17.9881L39.9311 17.8746L40.328 17.8522L40.4078 17.8478L40.3416 17.8009L39.4356 17.1616L38.7998 16.5638L38.5067 15.9884L38.5036 15.9823L38.4983 15.9785L38.0983 15.687L37.9136 15.4419L37.9011 15.4249L37.8818 15.4337L37.7525 15.4937L37.74 15.4997L37.7374 15.5139L37.7087 15.657L37.705 15.675L37.7196 15.6859L37.9528 15.8562L38.0691 16.0386L38.0195 16.1063L37.9215 16.0806L37.8949 16.0735L37.8891 16.1019L37.8531 16.275L37.8495 16.2924L37.8636 16.3034L38.0884 16.4797L38.2892 16.959L38.0253 16.8449L37.9324 16.7286L38.0185 16.549L38.0315 16.5217L38.0049 16.5103L37.7744 16.412L37.7723 16.4109H37.7692L37.2867 16.3203L37.2778 16.3186L37.2695 16.323L36.8955 16.5261L36.884 16.5321L36.8814 16.5447L36.7646 17.0824L36.641 16.9175L36.6201 16.8897L36.5993 16.9181L36.4496 17.1184L36.3145 16.7079L36.3035 16.6751L36.2748 16.6937L35.9666 16.8919L35.734 16.8526L35.7465 16.6189L36.0907 15.7192L36.0918 15.7159V15.7121L36.1783 14.8097L36.2785 14.3746L36.2801 14.3675L36.2785 14.3609L36.194 14.0077L36.3061 13.6921L36.3087 13.685L36.3077 13.6779L36.2592 13.3455L36.9665 12.6199L37.1829 12.6625L37.2074 12.6674L37.2137 12.6418L37.2351 12.5517L37.2377 12.5402L37.2314 12.5298L37.1808 12.4474L37.2601 12.3928L37.2669 12.3884L37.2825 12.3775L37.475 12.2443L37.4766 12.2432L37.4776 12.2421L37.6023 12.1335L37.776 12.0898L37.7999 12.0838L37.7963 12.0581L37.742 11.6978L38.0367 11.5996L38.0425 11.5979L38.0466 11.5941L38.284 11.3746L38.4441 11.3692L38.309 11.5723L38.2954 11.593L38.3137 11.6094L38.4723 11.7524L38.4926 11.7704L38.5103 11.7497L38.7409 11.4784L38.7461 11.4718L38.7471 11.4636L38.8024 11.0509L38.9964 10.9739L39.0037 10.9712L39.0084 10.9646L39.1738 10.7386L39.19 10.7162L39.168 10.6993L38.9954 10.5639L38.9745 10.5475L38.9584 10.5688L38.8259 10.7408L38.696 10.6114L38.6532 9.84655V9.84272L38.6522 9.83945L38.5171 9.38577L38.5588 9.05985L38.8139 8.67769L38.9521 8.67059L38.9704 8.6695L38.9761 8.65094L39.0319 8.47679L39.311 8.87696L39.3209 8.89115L39.337 8.88842L39.553 8.85075L39.5733 8.84693L39.5754 8.82564L39.59 8.65968V8.6564V8.65312L39.5399 8.3141V8.31191L39.4846 8.07334V8.07061L39.6182 7.94013L39.6369 7.92211L39.6208 7.90191L39.263 7.45424L39.3412 7.18073L39.6057 7.08464L39.4627 7.30902L39.4565 7.31885L39.4586 7.33032L39.5019 7.55633L39.5039 7.56725L39.5128 7.5738L39.7939 7.77744L39.8002 7.78181H39.8075L39.9108 7.78836L39.9045 7.97179L39.9035 7.99472L39.9249 8.00018L40.0219 8.0242L39.9118 8.60017L39.9097 8.61054L39.915 8.61982L40.0412 8.83984L40.0839 9.53372V9.53645L40.0845 9.53864L40.1851 9.99067V9.99286L40.3176 10.4296L40.17 10.5983L40.1596 10.6103L40.1643 10.6256L40.2107 10.785L40.1325 10.8942L40.1194 10.9122L40.1335 10.9291L40.351 11.1934L40.3859 11.6137L40.387 11.6225L40.3927 11.6296L40.6989 11.9915L40.7156 12.0112L40.7166 12.0123L41.0624 12.4206L41.0645 12.4234L41.0671 12.4256L43.0549 13.8193L43.1008 13.8516L43.094 13.8461ZM26.9245 21.308L26.9193 21.3156L26.7868 21.5056L26.6371 21.492L26.6126 21.4898L26.6084 21.5154L26.5672 21.7606L26.454 21.8938L26.08 22.0668L26.0769 22.0685H25.8385L25.7958 21.9724L25.8933 21.9112L26.042 21.8889L26.0482 21.8878L26.0534 21.8839L26.3575 21.6645L26.3617 21.6612L26.3648 21.6563L26.4728 21.4832L26.6965 21.2719L26.7018 21.267L26.7038 21.2599L26.7539 21.1033L26.8859 20.8663L27.0465 20.6064L27.0481 20.6037L27.0491 20.6004L27.1884 20.2025V20.2014L27.2014 20.1648H27.2004L27.2828 19.9115L27.3052 19.8421L27.3204 19.7952V19.793L27.3214 19.7903L27.3798 19.4092L27.47 19.2427L27.5759 19.2558L27.5963 19.389L27.5378 19.7313V19.7346V19.7379L27.5598 20.0731V20.0758L27.5608 20.0791L27.6103 20.2576L27.5472 20.4274L27.4481 20.524L27.445 20.5267L27.4429 20.5306L27.4101 20.5923L27.4043 20.6026L27.408 20.6141L27.4414 20.7266L27.4017 20.8308L27.3005 20.8576L27.2812 20.8625L27.2802 20.8832L27.2734 21.0077L27.1383 21.2386L26.9344 21.3047L26.9255 21.3074L26.9245 21.308ZM8.32127 8.31628L8.32857 8.29554L8.33587 8.28953L8.33222 8.28462L8.33796 8.26769L8.36456 8.19017L8.36664 8.18471V8.1787L8.34839 7.94832L8.42715 7.78781L8.71454 7.46298L8.8731 7.50229L8.92213 7.59673L8.89657 7.76761L8.77348 7.89209L8.77191 7.89372L8.55754 8.14704L8.55337 8.15195L8.55181 8.15796L8.49391 8.37415L8.49026 8.38834L8.48922 8.38944L8.39794 8.48115L8.20965 8.47242L8.13819 8.39435L8.19817 8.39599H8.20756L8.21539 8.38998L8.31396 8.30755L8.32074 8.31628H8.32127ZM7.28019 7.17582L7.26976 6.9427L7.27393 6.94161L7.44449 6.90612L7.66251 6.93833L7.74701 7.06226L7.74283 7.2184L7.66773 7.31012L7.66095 7.31885V7.32977L7.67033 7.51266L7.64895 7.66716L7.53837 7.75615L7.53264 7.76106L7.53003 7.7687L7.49821 7.85605L7.27915 7.86042L7.19205 7.72612L7.18422 7.71356H6.96151L6.91352 7.65133L7.27446 7.19492L7.28124 7.18673V7.17582H7.28019Z" fill="white"/>
    </g>
    <path d="M59.83 11.7H58.53V10H53.39V11.7H52.08V8.78H52.86C53.01 8.54 53.13 8.31 53.22 8.07C53.31 7.84 53.38 7.57 53.43 7.27C53.47 6.97 53.5 6.61 53.52 6.2C53.53 5.79 53.54 5.29 53.54 4.69V3.1H58.92V8.78H59.83V11.7ZM54.81 5.04C54.81 5.56 54.79 6.01 54.77 6.4C54.75 6.79 54.71 7.13 54.66 7.43C54.61 7.73 54.55 7.98 54.48 8.2C54.41 8.42 54.33 8.61 54.24 8.78H57.55V4.27H54.81V5.04ZM62.9206 9.15C63.1406 9.15 63.3406 9.13 63.5206 9.08C63.6906 9.04 63.8406 8.95 63.9606 8.83C64.0806 8.71 64.1706 8.54 64.2306 8.33C64.2906 8.12 64.3306 7.85 64.3306 7.53C64.3306 7.2 64.2906 6.93 64.2306 6.71C64.1706 6.49 64.0806 6.32 63.9606 6.19C63.8406 6.07 63.6906 5.98 63.5106 5.93C63.3306 5.88 63.1406 5.85 62.9206 5.85C62.6906 5.85 62.4906 5.88 62.3206 5.93C62.1406 5.98 62.0006 6.07 61.8806 6.19C61.7606 6.31 61.6706 6.48 61.6106 6.7C61.5506 6.92 61.5206 7.19 61.5206 7.53C61.5206 7.85 61.5506 8.12 61.6106 8.33C61.6706 8.54 61.7606 8.71 61.8806 8.83C62.0006 8.95 62.1406 9.04 62.3206 9.08C62.4906 9.13 62.6906 9.15 62.9206 9.15ZM62.9206 4.85C63.3506 4.85 63.7306 4.9 64.0706 4.98C64.4006 5.07 64.6806 5.22 64.9006 5.42C65.1206 5.63 65.2906 5.91 65.4106 6.25C65.5306 6.59 65.5906 7.02 65.5906 7.53C65.5906 8.03 65.5306 8.45 65.4106 8.78C65.2906 9.12 65.1206 9.39 64.9006 9.59C64.6806 9.79 64.4006 9.94 64.0706 10.02C63.7306 10.11 63.3506 10.15 62.9206 10.15C62.4906 10.15 62.1106 10.11 61.7806 10.02C61.4406 9.94 61.1606 9.79 60.9406 9.59C60.7206 9.39 60.5506 9.12 60.4306 8.78C60.3106 8.45 60.2606 8.03 60.2606 7.53C60.2606 7.02 60.3106 6.59 60.4306 6.25C60.5506 5.91 60.7206 5.63 60.9406 5.42C61.1606 5.22 61.4406 5.07 61.7806 4.98C62.1106 4.9 62.4906 4.85 62.9206 4.85ZM71.4951 8.16C71.4551 8.54 71.3651 8.85 71.2451 9.1C71.1151 9.36 70.9451 9.56 70.7351 9.72C70.5151 9.88 70.2651 9.99 69.9751 10.05C69.6751 10.12 69.3451 10.15 68.9751 10.15C68.5451 10.15 68.1651 10.11 67.8351 10.02C67.5051 9.94 67.2251 9.79 67.0051 9.59C66.7751 9.39 66.6051 9.12 66.4951 8.78C66.3751 8.45 66.3251 8.03 66.3251 7.53C66.3251 7.02 66.3751 6.59 66.4951 6.25C66.6051 5.91 66.7751 5.63 67.0051 5.42C67.2251 5.22 67.5051 5.07 67.8351 4.98C68.1651 4.9 68.5451 4.85 68.9751 4.85C69.3351 4.85 69.6651 4.89 69.9551 4.95C70.2451 5.01 70.4951 5.12 70.7151 5.27C70.9251 5.42 71.0951 5.62 71.2251 5.87C71.3451 6.12 71.4351 6.43 71.4751 6.79H70.2151C70.1551 6.42 70.0051 6.17 69.7851 6.04C69.5651 5.92 69.2951 5.85 68.9751 5.85C68.7551 5.85 68.5551 5.88 68.3851 5.93C68.2051 5.98 68.0651 6.07 67.9451 6.19C67.8251 6.31 67.7351 6.48 67.6751 6.7C67.6151 6.92 67.5851 7.19 67.5851 7.53C67.5851 7.85 67.6151 8.12 67.6751 8.33C67.7351 8.54 67.8251 8.71 67.9451 8.83C68.0651 8.95 68.2051 9.04 68.3851 9.08C68.5551 9.13 68.7551 9.15 68.9751 9.15C69.3051 9.15 69.5851 9.09 69.8151 8.95C70.0451 8.81 70.1851 8.55 70.2351 8.16H71.4951ZM76.4575 5V6H74.7475V10H73.4775V6H71.7675V5H76.4575ZM78.5434 10.15C78.0034 10.15 77.5634 10.03 77.2434 9.77C76.9134 9.51 76.7534 9.11 76.7534 8.57C76.7534 8.38 76.7834 8.19 76.8434 8.01C76.9034 7.83 77.0134 7.66 77.1634 7.52C77.3134 7.38 77.5234 7.26 77.7834 7.17C78.0434 7.09 78.3634 7.04 78.7534 7.04C78.9534 7.04 79.1234 7.05 79.2734 7.05C79.4234 7.05 79.5634 7.06 79.6934 7.06C79.8234 7.07 79.9534 7.08 80.0734 7.08C80.1934 7.09 80.3234 7.1 80.4634 7.1V6.7C80.4634 6.4 80.3734 6.19 80.1934 6.05C80.0134 5.92 79.7234 5.85 79.3234 5.85C78.9634 5.85 78.6834 5.91 78.5034 6.01C78.3234 6.12 78.2034 6.34 78.1534 6.66H76.9134C76.9434 6.32 77.0134 6.04 77.1334 5.8C77.2534 5.57 77.4134 5.38 77.6134 5.24C77.8134 5.1 78.0534 5 78.3434 4.94C78.6334 4.88 78.9634 4.85 79.3434 4.85C80.0934 4.85 80.6734 5 81.0934 5.28C81.5134 5.57 81.7234 6.04 81.7234 6.69V10H80.4634V9.11H80.3334C80.2034 9.47 79.9834 9.73 79.6634 9.9C79.3434 10.07 78.9634 10.15 78.5434 10.15ZM79.0934 9.19C79.2634 9.19 79.4334 9.18 79.5934 9.15C79.7534 9.12 79.9034 9.06 80.0334 8.98C80.1534 8.9 80.2634 8.8 80.3434 8.66C80.4234 8.53 80.4634 8.36 80.4634 8.15V7.83C80.2234 7.82 80.0034 7.81 79.8034 7.8C79.6034 7.8 79.4134 7.79 79.2534 7.79C78.9834 7.79 78.7734 7.81 78.6134 7.85C78.4534 7.89 78.3234 7.95 78.2434 8.01C78.1634 8.07 78.1034 8.15 78.0834 8.23C78.0534 8.31 78.0434 8.4 78.0434 8.49C78.0434 8.75 78.1234 8.94 78.3034 9.04C78.4734 9.14 78.7334 9.19 79.0934 9.19ZM82.6755 5H85.5055C85.8255 5 86.1055 5.04 86.3255 5.11C86.5455 5.18 86.7355 5.27 86.8755 5.38C87.0155 5.5 87.1155 5.63 87.1755 5.78C87.2355 5.94 87.2655 6.09 87.2655 6.25C87.2655 6.61 87.1655 6.88 86.9655 7.06C86.7655 7.24 86.4955 7.34 86.1355 7.38V7.54C86.5355 7.58 86.8455 7.68 87.0655 7.85C87.2855 8.02 87.3955 8.29 87.3955 8.67C87.3955 9.06 87.2555 9.38 86.9955 9.63C86.7255 9.88 86.3055 10 85.7255 10H82.6755V5ZM83.9355 7.84V9.08H85.2955C85.5455 9.08 85.7455 9.04 85.9055 8.95C86.0655 8.87 86.1455 8.71 86.1455 8.47C86.1455 8.29 86.0855 8.14 85.9855 8.02C85.8855 7.9 85.6755 7.84 85.3755 7.84H83.9355ZM83.9355 5.91V7.1H85.3855C85.6255 7.1 85.7955 7.04 85.8955 6.92C85.9855 6.8 86.0355 6.66 86.0355 6.49C86.0355 6.32 85.9755 6.18 85.8755 6.07C85.7755 5.97 85.5455 5.91 85.2055 5.91H83.9355ZM88.5038 5H92.8338V10H91.5738V6H89.6838V7.65C89.6838 8.47 89.5638 9.07 89.3338 9.45C89.1038 9.83 88.6938 10.02 88.1138 10.02H87.8238V8.93C87.9438 8.93 88.0438 8.92 88.1238 8.88C88.2038 8.84 88.2738 8.77 88.3338 8.67C88.3938 8.57 88.4338 8.44 88.4638 8.27C88.4838 8.1 88.5038 7.88 88.5038 7.61V5ZM97.2381 8.33H95.9481L95.0081 10H93.5681L94.7581 8.19C94.4181 8.07 94.1681 7.87 94.0081 7.61C93.8481 7.35 93.7681 7.04 93.7681 6.68C93.7681 6.44 93.7981 6.22 93.8681 6.01C93.9281 5.81 94.0381 5.63 94.1881 5.48C94.3381 5.33 94.5281 5.21 94.7681 5.13C94.9981 5.05 95.2881 5 95.6281 5H98.4981V10H97.2381V8.33ZM95.0181 6.68C95.0181 6.88 95.0581 7.05 95.1581 7.19C95.2481 7.33 95.4181 7.4 95.6781 7.4H97.2381V6H95.7981C95.4781 6 95.2681 6.07 95.1681 6.19C95.0681 6.32 95.0181 6.48 95.0181 6.68ZM104.532 7.78H100.622V7.79C100.622 8.06 100.662 8.28 100.732 8.46C100.792 8.64 100.892 8.78 101.012 8.88C101.132 8.98 101.272 9.05 101.442 9.09C101.612 9.13 101.802 9.15 102.022 9.15C102.352 9.15 102.632 9.1 102.862 8.99C103.082 8.89 103.222 8.67 103.272 8.35H104.532C104.492 8.69 104.412 8.98 104.282 9.21C104.152 9.44 103.982 9.62 103.772 9.76C103.552 9.9 103.302 10 103.012 10.06C102.712 10.12 102.382 10.15 102.012 10.15C101.582 10.15 101.202 10.11 100.872 10.02C100.542 9.94 100.262 9.79 100.042 9.59C99.8122 9.39 99.6422 9.12 99.5322 8.78C99.4122 8.45 99.3622 8.03 99.3622 7.53C99.3622 7.02 99.4122 6.59 99.5322 6.25C99.6422 5.91 99.8122 5.63 100.032 5.42C100.252 5.22 100.532 5.07 100.862 4.98C101.192 4.9 101.572 4.85 102.002 4.85C102.812 4.85 103.432 5.04 103.872 5.4C104.312 5.76 104.532 6.34 104.532 7.14V7.78ZM100.622 7.16H103.262C103.262 6.91 103.232 6.7 103.172 6.53C103.112 6.37 103.022 6.23 102.912 6.13C102.802 6.03 102.672 5.96 102.512 5.92C102.352 5.88 102.182 5.85 101.992 5.85C101.802 5.85 101.622 5.87 101.462 5.91C101.302 5.95 101.162 6.01 101.042 6.1C100.922 6.2 100.822 6.33 100.752 6.49C100.672 6.65 100.632 6.86 100.622 7.12V7.16ZM106.611 6.96V10H105.381V5H106.291L108.261 7.21L110.231 5H111.141V10H109.911V6.96L108.251 8.7L106.611 6.96ZM52.49 15H57.36V20H56.1V16H53.75V20H52.49V15ZM60.8796 19.15C61.0996 19.15 61.2996 19.13 61.4796 19.08C61.6496 19.04 61.7996 18.95 61.9196 18.83C62.0396 18.71 62.1296 18.54 62.1896 18.33C62.2496 18.12 62.2896 17.85 62.2896 17.53C62.2896 17.2 62.2496 16.93 62.1896 16.71C62.1296 16.49 62.0396 16.32 61.9196 16.19C61.7996 16.07 61.6496 15.98 61.4696 15.93C61.2896 15.88 61.0996 15.85 60.8796 15.85C60.6496 15.85 60.4496 15.88 60.2796 15.93C60.0996 15.98 59.9596 16.07 59.8396 16.19C59.7196 16.31 59.6296 16.48 59.5696 16.7C59.5096 16.92 59.4796 17.19 59.4796 17.53C59.4796 17.85 59.5096 18.12 59.5696 18.33C59.6296 18.54 59.7196 18.71 59.8396 18.83C59.9596 18.95 60.0996 19.04 60.2796 19.08C60.4496 19.13 60.6496 19.15 60.8796 19.15ZM60.8796 14.85C61.3096 14.85 61.6896 14.9 62.0296 14.98C62.3596 15.07 62.6396 15.22 62.8596 15.42C63.0796 15.63 63.2496 15.91 63.3696 16.25C63.4896 16.59 63.5496 17.02 63.5496 17.53C63.5496 18.03 63.4896 18.45 63.3696 18.78C63.2496 19.12 63.0796 19.39 62.8596 19.59C62.6396 19.79 62.3596 19.94 62.0296 20.02C61.6896 20.11 61.3096 20.15 60.8796 20.15C60.4496 20.15 60.0696 20.11 59.7396 20.02C59.3996 19.94 59.1196 19.79 58.8996 19.59C58.6796 19.39 58.5096 19.12 58.3896 18.78C58.2696 18.45 58.2196 18.03 58.2196 17.53C58.2196 17.02 58.2696 16.59 58.3896 16.25C58.5096 15.91 58.6796 15.63 58.8996 15.42C59.1196 15.22 59.3996 15.07 59.7396 14.98C60.0696 14.9 60.4496 14.85 60.8796 14.85ZM66.6404 15H69.4704C69.7904 15 70.0704 15.04 70.2904 15.11C70.5104 15.18 70.7004 15.27 70.8404 15.38C70.9804 15.5 71.0804 15.63 71.1404 15.78C71.2004 15.94 71.2304 16.09 71.2304 16.25C71.2304 16.61 71.1304 16.88 70.9304 17.06C70.7304 17.24 70.4604 17.34 70.1004 17.38V17.54C70.5004 17.58 70.8104 17.68 71.0304 17.85C71.2504 18.02 71.3604 18.29 71.3604 18.67C71.3604 19.06 71.2204 19.38 70.9604 19.63C70.6904 19.88 70.2704 20 69.6904 20H66.6404V15ZM67.9004 17.84V19.08H69.2604C69.5104 19.08 69.7104 19.04 69.8704 18.95C70.0304 18.87 70.1104 18.71 70.1104 18.47C70.1104 18.29 70.0504 18.14 69.9504 18.02C69.8504 17.9 69.6404 17.84 69.3404 17.84H67.9004ZM67.9004 15.91V17.1H69.3504C69.5904 17.1 69.7604 17.04 69.8604 16.92C69.9504 16.8 70.0004 16.66 70.0004 16.49C70.0004 16.32 69.9404 16.18 69.8404 16.07C69.7404 15.97 69.5104 15.91 69.1704 15.91H67.9004ZM77.1787 18.16C77.1387 18.54 77.0487 18.85 76.9287 19.1C76.7987 19.36 76.6287 19.56 76.4187 19.72C76.1987 19.88 75.9487 19.99 75.6587 20.05C75.3587 20.12 75.0287 20.15 74.6587 20.15C74.2287 20.15 73.8487 20.11 73.5187 20.02C73.1887 19.94 72.9087 19.79 72.6887 19.59C72.4587 19.39 72.2887 19.12 72.1787 18.78C72.0587 18.45 72.0087 18.03 72.0087 17.53C72.0087 17.02 72.0587 16.59 72.1787 16.25C72.2887 15.91 72.4587 15.63 72.6887 15.42C72.9087 15.22 73.1887 15.07 73.5187 14.98C73.8487 14.9 74.2287 14.85 74.6587 14.85C75.0187 14.85 75.3487 14.89 75.6387 14.95C75.9287 15.01 76.1787 15.12 76.3987 15.27C76.6087 15.42 76.7787 15.62 76.9087 15.87C77.0287 16.12 77.1187 16.43 77.1587 16.79H75.8987C75.8387 16.42 75.6887 16.17 75.4687 16.04C75.2487 15.92 74.9787 15.85 74.6587 15.85C74.4387 15.85 74.2387 15.88 74.0687 15.93C73.8887 15.98 73.7487 16.07 73.6287 16.19C73.5087 16.31 73.4187 16.48 73.3587 16.7C73.2987 16.92 73.2687 17.19 73.2687 17.53C73.2687 17.85 73.2987 18.12 73.3587 18.33C73.4187 18.54 73.5087 18.71 73.6287 18.83C73.7487 18.95 73.8887 19.04 74.0687 19.08C74.2387 19.13 74.4387 19.15 74.6587 19.15C74.9887 19.15 75.2687 19.09 75.4987 18.95C75.7287 18.81 75.8687 18.55 75.9187 18.16H77.1787ZM83.0088 17.78H79.0988V17.79C79.0988 18.06 79.1388 18.28 79.2088 18.46C79.2688 18.64 79.3688 18.78 79.4888 18.88C79.6088 18.98 79.7488 19.05 79.9188 19.09C80.0888 19.13 80.2788 19.15 80.4988 19.15C80.8288 19.15 81.1088 19.1 81.3388 18.99C81.5588 18.89 81.6988 18.67 81.7488 18.35H83.0088C82.9688 18.69 82.8888 18.98 82.7588 19.21C82.6288 19.44 82.4588 19.62 82.2488 19.76C82.0288 19.9 81.7788 20 81.4888 20.06C81.1888 20.12 80.8588 20.15 80.4888 20.15C80.0588 20.15 79.6788 20.11 79.3488 20.02C79.0188 19.94 78.7388 19.79 78.5188 19.59C78.2888 19.39 78.1188 19.12 78.0088 18.78C77.8888 18.45 77.8388 18.03 77.8388 17.53C77.8388 17.02 77.8888 16.59 78.0088 16.25C78.1188 15.91 78.2888 15.63 78.5088 15.42C78.7288 15.22 79.0088 15.07 79.3388 14.98C79.6688 14.9 80.0488 14.85 80.4788 14.85C81.2888 14.85 81.9088 15.04 82.3488 15.4C82.7888 15.76 83.0088 16.34 83.0088 17.14V17.78ZM79.0988 17.16H81.7388C81.7388 16.91 81.7088 16.7 81.6488 16.53C81.5888 16.37 81.4988 16.23 81.3888 16.13C81.2788 16.03 81.1488 15.96 80.9888 15.92C80.8288 15.88 80.6588 15.85 80.4688 15.85C80.2788 15.85 80.0988 15.87 79.9388 15.91C79.7788 15.95 79.6388 16.01 79.5188 16.1C79.3988 16.2 79.2988 16.33 79.2288 16.49C79.1488 16.65 79.1088 16.86 79.0988 17.12V17.16ZM87.3772 20V16.9L84.7072 20H83.8572V15H85.0872V18.15L87.7272 15H88.6072V20H87.3772ZM86.2372 14.38C85.6772 14.38 85.2672 14.27 85.0072 14.04C84.7472 13.81 84.6172 13.44 84.6172 12.94H85.5372C85.5372 13.18 85.5872 13.34 85.6972 13.44C85.7972 13.54 85.9772 13.58 86.2372 13.58C86.4772 13.58 86.6572 13.54 86.7672 13.44C86.8672 13.34 86.9272 13.18 86.9272 12.94H87.8472C87.8472 13.44 87.7172 13.81 87.4572 14.04C87.1972 14.27 86.7872 14.38 86.2372 14.38ZM98.1431 15.61C98.1431 16.54 97.9431 17.22 97.5431 17.65C97.1431 18.08 96.5431 18.29 95.7331 18.29H93.3531V20H91.9931V13.1H95.7131C96.1331 13.1 96.5031 13.15 96.8131 13.24C97.1131 13.34 97.3631 13.48 97.5631 13.68C97.7631 13.88 97.9031 14.14 98.0031 14.46C98.0931 14.78 98.1431 15.16 98.1431 15.61ZM93.3531 14.27V17.12H95.5031C95.9231 17.12 96.2331 17.01 96.4431 16.79C96.6531 16.57 96.7631 16.19 96.7631 15.63C96.7631 15.36 96.7331 15.14 96.6931 14.96C96.6531 14.79 96.5831 14.65 96.4831 14.55C96.3831 14.45 96.2431 14.37 96.0831 14.33C95.9231 14.29 95.7231 14.27 95.4831 14.27H93.3531ZM101.397 19.15C101.617 19.15 101.817 19.13 101.997 19.08C102.167 19.04 102.317 18.95 102.437 18.83C102.557 18.71 102.647 18.54 102.707 18.33C102.767 18.12 102.807 17.85 102.807 17.53C102.807 17.2 102.767 16.93 102.707 16.71C102.647 16.49 102.557 16.32 102.437 16.19C102.317 16.07 102.167 15.98 101.987 15.93C101.807 15.88 101.617 15.85 101.397 15.85C101.167 15.85 100.967 15.88 100.797 15.93C100.617 15.98 100.477 16.07 100.357 16.19C100.237 16.31 100.147 16.48 100.087 16.7C100.027 16.92 99.9972 17.19 99.9972 17.53C99.9972 17.85 100.027 18.12 100.087 18.33C100.147 18.54 100.237 18.71 100.357 18.83C100.477 18.95 100.617 19.04 100.797 19.08C100.967 19.13 101.167 19.15 101.397 19.15ZM101.397 14.85C101.827 14.85 102.207 14.9 102.547 14.98C102.877 15.07 103.157 15.22 103.377 15.42C103.597 15.63 103.767 15.91 103.887 16.25C104.007 16.59 104.067 17.02 104.067 17.53C104.067 18.03 104.007 18.45 103.887 18.78C103.767 19.12 103.597 19.39 103.377 19.59C103.157 19.79 102.877 19.94 102.547 20.02C102.207 20.11 101.827 20.15 101.397 20.15C100.967 20.15 100.587 20.11 100.257 20.02C99.9172 19.94 99.6372 19.79 99.4172 19.59C99.1972 19.39 99.0272 19.12 98.9072 18.78C98.7872 18.45 98.7372 18.03 98.7372 17.53C98.7372 17.02 98.7872 16.59 98.9072 16.25C99.0272 15.91 99.1972 15.63 99.4172 15.42C99.6372 15.22 99.9172 15.07 100.257 14.98C100.587 14.9 100.967 14.85 101.397 14.85ZM109.972 18.16C109.932 18.54 109.842 18.85 109.722 19.1C109.592 19.36 109.422 19.56 109.212 19.72C108.992 19.88 108.742 19.99 108.452 20.05C108.152 20.12 107.822 20.15 107.452 20.15C107.022 20.15 106.642 20.11 106.312 20.02C105.982 19.94 105.702 19.79 105.482 19.59C105.252 19.39 105.082 19.12 104.972 18.78C104.852 18.45 104.802 18.03 104.802 17.53C104.802 17.02 104.852 16.59 104.972 16.25C105.082 15.91 105.252 15.63 105.482 15.42C105.702 15.22 105.982 15.07 106.312 14.98C106.642 14.9 107.022 14.85 107.452 14.85C107.812 14.85 108.142 14.89 108.432 14.95C108.722 15.01 108.972 15.12 109.192 15.27C109.402 15.42 109.572 15.62 109.702 15.87C109.822 16.12 109.912 16.43 109.952 16.79H108.692C108.632 16.42 108.482 16.17 108.262 16.04C108.042 15.92 107.772 15.85 107.452 15.85C107.232 15.85 107.032 15.88 106.862 15.93C106.682 15.98 106.542 16.07 106.422 16.19C106.302 16.31 106.212 16.48 106.152 16.7C106.092 16.92 106.062 17.19 106.062 17.53C106.062 17.85 106.092 18.12 106.152 18.33C106.212 18.54 106.302 18.71 106.422 18.83C106.542 18.95 106.682 19.04 106.862 19.08C107.032 19.13 107.232 19.15 107.452 19.15C107.782 19.15 108.062 19.09 108.292 18.95C108.522 18.81 108.662 18.55 108.712 18.16H109.972ZM115.802 18.16C115.762 18.54 115.672 18.85 115.552 19.1C115.422 19.36 115.252 19.56 115.042 19.72C114.822 19.88 114.572 19.99 114.282 20.05C113.982 20.12 113.652 20.15 113.282 20.15C112.852 20.15 112.472 20.11 112.142 20.02C111.812 19.94 111.532 19.79 111.312 19.59C111.082 19.39 110.912 19.12 110.802 18.78C110.682 18.45 110.632 18.03 110.632 17.53C110.632 17.02 110.682 16.59 110.802 16.25C110.912 15.91 111.082 15.63 111.312 15.42C111.532 15.22 111.812 15.07 112.142 14.98C112.472 14.9 112.852 14.85 113.282 14.85C113.642 14.85 113.972 14.89 114.262 14.95C114.552 15.01 114.802 15.12 115.022 15.27C115.232 15.42 115.402 15.62 115.532 15.87C115.652 16.12 115.742 16.43 115.782 16.79H114.522C114.462 16.42 114.312 16.17 114.092 16.04C113.872 15.92 113.602 15.85 113.282 15.85C113.062 15.85 112.862 15.88 112.692 15.93C112.512 15.98 112.372 16.07 112.252 16.19C112.132 16.31 112.042 16.48 111.982 16.7C111.922 16.92 111.892 17.19 111.892 17.53C111.892 17.85 111.922 18.12 111.982 18.33C112.042 18.54 112.132 18.71 112.252 18.83C112.372 18.95 112.512 19.04 112.692 19.08C112.862 19.13 113.062 19.15 113.282 19.15C113.612 19.15 113.892 19.09 114.122 18.95C114.352 18.81 114.492 18.55 114.542 18.16H115.802ZM120.102 20V16.9L117.432 20H116.582V15H117.812V18.15L120.452 15H121.332V20H120.102ZM125.834 20V16.9L123.164 20H122.314V15H123.544V18.15L126.184 15H127.064V20H125.834Z" fill="white"/>
    <defs>
        <clipPath id="clip0_513_1997">
            <rect width="44" height="24" fill="white"/>
        </clipPath>
    </defs>
</svg>
