<svg xmlns="http://www.w3.org/2000/svg" width="150" height="136" viewBox="0 0 150 136" fill="none">
    <path d="M111.388 73.2C111.388 60.7633 95.7327 46.7667 74.9999 46.7667C54.2673 46.7667 38.6542 60.7633 38.6542 73.2C38.7098 76.4554 39.5838 79.6411 41.1922 82.4498C42.8004 85.2584 45.0886 87.5946 47.8358 89.2333H101.995C104.784 87.6252 107.117 85.3012 108.764 82.4901C110.411 79.679 111.315 76.4775 111.388 73.2ZM116 73.2C115.91 77.5166 114.683 81.728 112.449 85.3894C110.214 89.0506 107.056 92.0257 103.306 94H46.4396C42.7494 91.9768 39.6518 88.9832 37.4656 85.3276C35.2792 81.672 34.083 77.486 34 73.2C34 56.95 52.9978 42 74.9999 42C97.002 42 116 56.9933 116 73.2Z" fill="white"/>
    <path d="M92.2646 85.9903H84.7754V50.9336C87.6968 51.5609 90.5368 52.5352 93.2378 53.8369V58.4303C91.8768 57.8117 90.4596 57.3327 89.0066 57.0003V65.6669C91.6198 66.2788 94.181 67.1048 96.665 68.1369V72.3403C94.1756 71.3679 91.6148 70.6 89.0066 70.0436V82.3069H92.4338L92.2646 85.9903Z" fill="white"/>
    <path d="M103.814 83.9891L101.698 77.5756L98.0591 85.9823H93.8281L100.006 71.3791L94.8859 54.6523C96.7937 55.6474 98.6069 56.8224 100.302 58.1623L102.29 65.1391L103.814 61.4991C104.875 62.6799 105.811 63.9726 106.606 65.3556L104.11 71.5956L106.945 79.9591C106.106 81.4569 105.05 82.8155 103.814 83.9891Z" fill="white"/>
    <path d="M41.4492 71.5114C41.237 73.9444 41.6034 76.394 42.5172 78.6504C43.4308 80.9068 44.8646 82.903 46.6958 84.4679L48.769 81.0014C47.6118 79.5082 46.658 77.861 45.9342 76.1047L50.1654 73.9814V86.2447H54.3966V55.3047C47.9652 58.9014 42.2108 64.448 41.4492 71.5114ZM49.9114 69.0414L45.6804 71.4247C46.0962 68.3769 47.6044 65.5965 49.9114 63.6247V69.0414Z" fill="white"/>
    <path d="M68.1013 64.1817V52.9149C68.1643 52.658 68.1741 52.3904 68.1305 52.1293C68.0867 51.8681 67.9903 51.6193 67.8475 51.3984C67.3978 51.0173 66.8213 50.8308 66.2397 50.8784C63.0464 51.57 59.9484 52.6614 57.0156 54.1284V85.9784H61.2468V70.0317C61.7266 69.8413 62.2222 69.6964 62.7276 69.5984C63.0018 69.5451 63.2854 69.6007 63.521 69.7536C63.7566 69.9064 63.9268 70.1452 63.997 70.4217V85.9784H68.2283V68.2984C68.2283 66.9984 66.7051 66.3484 66.7051 66.3484C67.1313 66.1843 67.4957 65.8862 67.7465 65.4971C67.9973 65.1079 68.1215 64.6476 68.1013 64.1817ZM63.2778 64.8749L61.1622 65.6117V56.9449L62.9816 56.0784C62.9816 56.0784 63.87 55.6449 63.87 56.5117V64.0084C63.8864 64.201 63.8362 64.3936 63.7278 64.5519C63.6194 64.7104 63.4602 64.8248 63.2778 64.8749Z" fill="white"/>
    <path d="M79.3138 50.2353C76.5 49.9476 73.6654 49.9476 70.8516 50.2353V85.9853H80.2448C81.8948 85.9853 81.8948 83.5153 81.8948 83.5153V53.4853C81.9256 52.7144 81.6802 51.9586 81.205 51.3601C80.7296 50.7615 80.057 50.3615 79.3138 50.2353ZM77.6638 81.002C77.6638 81.002 77.6638 82.172 76.9022 82.172H74.998V54.1788H76.9022C76.9022 54.1788 77.6638 54.1787 77.6638 55.262V81.002Z" fill="white"/>
</svg>