<svg width="32" height="32" viewBox="0 0 32 32" fill="none" xmlns="http://www.w3.org/2000/svg">
    <g clip-path="url(#clip0_6368_41277)">
        <path d="M23.5594 11.207V11.6489L17.7747 24.2409H14.2769L8.49219 11.6489V11.207H11.5864L16.0258 21.3249L20.4653 11.207H23.5594Z" fill="#171717"/>
    </g>
    <g clip-path="url(#clip1_6368_41277)">
        <path d="M31.0005 7.00885V8.4227H23.5117V7.09722L27.0992 5.10899C27.5924 4.8439 27.9512 4.62298 28.1754 4.44625C28.3996 4.26952 28.579 4.13697 28.6687 4.00443C28.7583 3.87188 28.8032 3.69515 28.8032 3.51842V3.43005C28.8032 3.12077 28.6687 2.85567 28.3548 2.67894C28.0409 2.50221 27.6373 2.41385 27.0543 2.41385C26.4714 2.41385 26.0229 2.50221 25.709 2.72313C25.3951 2.89986 25.2606 3.20914 25.2606 3.60678V3.8277H23.5566V3.60678C23.5566 2.76731 23.8705 2.10457 24.4534 1.66274C25.0364 1.22091 25.8884 1 27.0095 1C28.1305 1 28.9826 1.22091 29.5655 1.61856C30.1933 2.06039 30.5072 2.63476 30.5072 3.38587V3.51842C30.5072 3.87188 30.4175 4.22534 30.283 4.49044C30.1485 4.79972 29.8794 5.06481 29.5207 5.37409C29.1619 5.68337 28.6687 5.99265 27.996 6.34611L26.6507 7.09722H31.0005V7.00885Z" fill="#171717"/>
    </g>
    <path d="M28.6233 11.2073L28.6681 28.7036H3.37668V3.82875H20.7309V1.53125H1V31.0011H30.9999V11.2073H28.6233Z" fill="#F5333F"/>
    <defs>
        <clipPath id="clip0_6368_41277">
            <rect width="15.0672" height="13.0339" fill="white" transform="translate(8.49219 11.207)"/>
        </clipPath>
        <clipPath id="clip1_6368_41277">
            <rect width="7.48878" height="7.4227" fill="white" transform="translate(23.5117 1)"/>
        </clipPath>
    </defs>
</svg>
