<svg width="152" height="28" viewBox="0 0 152 28" fill="none" xmlns="http://www.w3.org/2000/svg">
    <g clip-path="url(#clip0_6303_20587)">
        <g clip-path="url(#clip1_6303_20587)">
            <path d="M145.291 6.92578H148.04V7.44826H146.957V9.41758H146.332V7.44826H145.249V6.92578H145.291ZM151.914 9.45777H151.289V7.64921L150.414 9.45777H149.873L148.998 7.6894V9.45777H148.373V6.96597H149.206L150.164 8.81472L151.122 6.96597H151.955V9.45777H151.914Z" fill="#171717"/>
        </g>
        <g clip-path="url(#clip2_6303_20587)">
            <path d="M58.5749 9.52344H55.659L51.5352 18.727L47.4113 9.52344H45.7451H44.5371H42.2044L35.6646 15.0295V9.52344H32.832V21.3796H35.6646V18.2849L37.8723 16.396L42.2044 21.3796H45.4952V20.9375L40.08 14.7482L44.8704 10.6488L49.9106 21.3796H53.2014L58.5749 9.92534V9.52344Z" fill="#171717"/>
            <path d="M63.2381 9.52456L57.7812 20.9386V21.3405H60.5721L61.6968 18.8889H67.8201L68.9448 21.3405H71.7357V20.9386L66.2789 9.48438H63.2381V9.52456ZM62.7799 16.5579L64.7793 12.1369L66.7788 16.5579H62.7799Z" fill="#171717"/>
            <path d="M79.6487 9.52344H73.5254V21.3796H79.6487C81.9397 21.3796 83.6892 20.8973 84.8556 19.9327C86.0219 18.9681 86.6051 17.5213 86.6051 15.5922V15.3912C86.6051 13.4621 86.0219 12.0152 84.8139 11.0105C83.6059 10.0057 81.9397 9.52344 79.6487 9.52344ZM83.7725 15.5922C83.7725 16.7175 83.4393 17.5615 82.7728 18.1242C82.1063 18.6466 81.065 18.928 79.6487 18.928H76.3163V11.9349H79.607C80.9817 11.9349 82.023 12.2162 82.7312 12.7788C83.3977 13.3415 83.7725 14.1855 83.7725 15.3108V15.5922Z" fill="#171717"/>
            <path d="M96.896 9.52344H89.1064V21.3796H91.8973V17.1194H94.48L98.3122 21.3796H101.52V20.9777L97.9373 17.0792C99.1037 16.9184 99.9784 16.5567 100.645 15.9137C101.27 15.3108 101.603 14.507 101.603 13.5425V13.3415C101.603 12.1358 101.186 11.2114 100.353 10.5282C99.4786 9.84496 98.3539 9.52344 96.896 9.52344ZM98.6871 13.5023C98.6871 13.9444 98.5205 14.3061 98.1873 14.5472C97.854 14.7884 97.3958 14.9089 96.771 14.9089H91.8557V11.9349H96.771C97.3958 11.9349 97.854 12.0554 98.1873 12.2966C98.5205 12.5377 98.6455 12.8592 98.6455 13.3013V13.5023H98.6871Z" fill="#171717"/>
            <path d="M108.559 9.52344L103.103 20.9777V21.3796H105.893L107.018 18.928H113.183L114.308 21.3796H117.099V20.9777L111.642 9.52344H108.559ZM108.101 16.5567L110.101 12.1358L112.1 16.5567H108.101Z" fill="#171717"/>
            <path d="M116.144 11.9349H120.934V21.3796H123.766V11.9349H128.557V9.52344H116.144V11.9349Z" fill="#171717"/>
            <path d="M141.26 11.8947V9.52344H130.305V21.3796H141.26V18.9681H133.137V16.5969H140.885V14.2659H133.137V11.8947H141.26Z" fill="#171717"/>
        </g>
        <g clip-path="url(#clip3_6303_20587)">
            <path d="M20.9571 9.28516V9.68706L15.5835 21.1413H12.3345L6.96094 9.68706V9.28516H9.83514L13.959 18.4887L18.0829 9.28516H20.9571Z" fill="#171717"/>
            <path d="M27.8666 5.46587V6.75196H20.9102V5.54625L24.2426 3.73769C24.7008 3.49655 25.034 3.2956 25.2423 3.13484C25.4506 2.97408 25.6172 2.85351 25.7005 2.73294C25.7838 2.61237 25.8255 2.4516 25.8255 2.29084V2.21046C25.8255 1.92913 25.7005 1.68799 25.4089 1.52723C25.1173 1.36647 24.7424 1.28609 24.2009 1.28609C23.6594 1.28609 23.2428 1.36647 22.9513 1.56742C22.6597 1.72818 22.5347 2.00951 22.5347 2.37122V2.57218H20.9518V2.37122C20.9518 1.60761 21.2434 1.00476 21.7849 0.602854C22.3264 0.200951 23.1179 0 24.1593 0C25.2006 0 25.9921 0.200952 26.5336 0.562664C27.1168 0.964566 27.4084 1.48704 27.4084 2.17027V2.29084C27.4084 2.61237 27.325 2.93389 27.2001 3.17503C27.0751 3.45636 26.8252 3.6975 26.4919 3.97883C26.1587 4.26017 25.7005 4.5415 25.0757 4.86302L23.826 5.54625H27.8666V5.46587Z" fill="#171717"/>
            <path d="M25.6596 9.28213L25.7012 25.1975H2.20772V2.57036H18.3283V0.480469H0V27.2874H27.8673V9.28213H25.6596Z" fill="#F5333F"/>
        </g>
    </g>
    <defs>
        <clipPath id="clip0_6303_20587">
            <rect width="152" height="28" fill="white"/>
        </clipPath>
        <clipPath id="clip1_6303_20587">
            <rect width="6.75085" height="2.59794" fill="white" transform="translate(145.249 6.92578)"/>
        </clipPath>
        <clipPath id="clip2_6303_20587">
            <rect width="109.146" height="12.2059" fill="white" transform="translate(32.832 9.48438)"/>
        </clipPath>
        <clipPath id="clip3_6303_20587">
            <rect width="27.8673" height="27.2874" fill="white"/>
        </clipPath>
    </defs>
</svg>
